<svg xmlns="http://www.w3.org/2000/svg" xmlns:xlink="http://www.w3.org/1999/xlink" width="1444" height="1706.667" viewBox="0 0 1083 1280" preserveAspectRatio="xMidYMid meet" xmlns:v="https://vecta.io/nano"><path d="M32.2 8.1C22.9 16.1 17 23 17 25.7c0 .8 2.4-.7 5.8-3.5C30.1 15.9 39 10 41.2 10c.9 0 4-1.4 6.8-3.2 3.6-2.3 5.4-2.8 5.9-2s1.7.3 4.2-1.8L61.5.1l-10-.1H41.4l-9.2 8.1zM62 1.6c0 .8.5 1.2 1 .9.6-.3 1-1 1-1.6 0-.5-.4-.9-1-.9-.5 0-1 .7-1 1.6zm39 4.2c0 3.3.3 14.1.7 24 .6 16.8.8 18.2 2.5 18.2s1.8-1 1.8-13.3c0-7.4-.3-18.2-.7-24-.5-9.5-.8-10.7-2.5-10.7-1.5 0-1.8.8-1.8 5.8zm82-1.5c4.7 2.4 10.2 5.4 12.3 6.6 4.9 3 4.7 1.5-.5-3.5C188.1 1 186.1 0 180.1 0h-5.5l8.4 4.3zM219.6.8c.5.5 2.3 1.9 3.9 3.1 4.3 3.2 12.5 11.2 12.5 12.2 0 .5 2 2.7 4.5 5 3.3 3 4.2 4.5 3.3 5-.7.4-1 1-.8 1.2l3.8 2.6c2.5 1.7 3 2.6 2.2 3.6s-.4 1.4 1.7 2c1.6.3 3.9 1.3 5.1 2.1 2.2 1.5 2.2 1.6.6 2.8-1.5 1.2-1 1.6 4.6 4.4 4.6 2.4 5.8 3.3 4.5 3.8-1.2.5-.1 1.4 4.4 3.6 4 1.9 5.8 3.3 5.5 4.2-.5 1.4 4.5 3.7 11 5.1 1.5.3 2.7.8 2.5.9-.2.2-16.1 5-35.4 10.5l-36.6 10.7c-1.1.3-1.5 1.2-1.2 2.4.6 2.4-3.7 3.4 40.4-9.5l35.8-9.9c.2.2-1.4 3-3.6 6.1-4.3 6.2-6.5 11.1-4.3 9.8 1.5-.9.6 2.3-2.1 7.7-2.3 4.5-2.3 4.9-.4 4.2 1.9-.8 1.9-.1-.4 4.4-1 2-2.2 4.8-2.6 6-.6 2.1-.4 2.3 1.4 1.7 1.9-.6 2-.4 1.1 1.9-.5 1.5-1.7 4-2.6 5.8-1.5 2.9-1.5 3 .1 2.4 1.4-.5 1.6-.2 1.1 1.9-.3 1.4-.9 3.6-1.2 5-.5 2.1-.3 2.4 1.1 1.9 1.4-.6 1.6-.3 1.1 1.4-.4 1.2-.9 7.2-1.1 13.4-.2 8.3-1 13.5-2.8 19.6-1.4 4.9-2 8.1-1.3 7.9 2.1-.6 6.4-10.2 10-21.7 1.9-6.3 3.9-11.4 4.5-11.3 1.2.3 3.5-10.2 2.7-12.4-.5-1.1-.2-1.4 1-.9 1.5.6 1.6 0 1.1-5.3-.5-4.8-.4-6 .9-6.5 1-.4 1.3-1.3.9-2.5-.3-1.1-.8-7.5-1-14.3-.2-6.7-.7-15.1-1.1-18.6-.3-3.4-.4-6.2-.1-6.2 1.6 0 5.1 15.3 7.4 32.7.3 2.4.9 4 1.3 3.8.5-.3 1.1 2.2 1.5 5.4.5 4.5 1 5.8 2 5.4 1.4-.5 1.6.1 3.1 7.4.2 1.4.9 2 1.8 1.7 1-.4 1.9 1.4 3.2 6.2 1.5 5.5 2 6.4 2.9 5 1.8-2.4 2.5-2 2.5 1.3 0 1.6.5 4.2 1.1 5.8 1.1 2.8 1.1 2.8 2.2.5 1.5-3.2 2.4-2.7 3 1.5.4 2.1 1.4 4.8 2.3 6.1 1.5 2.2 1.7 2.2 2.9.5 1.3-1.7 1.4-1.7 2.1.2.4 1.1 1.6 3.3 2.7 4.8 1.6 2.3 2.1 2.6 3.4 1.5s1.8-1 2.7.6c.6 1.1 2.3 3.3 3.8 5 2.3 2.6 2.7 2.8 2.8 1.2 0-1.5.8-1 3.6 2.2 1.9 2.3 4.1 4.2 4.8 4.2.6 0 1.9 1.5 2.9 3.2 2.3 4.3 13.3 16.5 14.1 15.7 1-.9-3.7-12.8-7.9-20.4-2.2-3.9-3.2-6.5-2.4-6.5s.7-.6-.4-1.8c-1-1-1.7-2.3-1.7-2.8 0-.6-1.3-2.3-3-3.9-3.5-3.3-3.8-4.5-1-3.8 3 .8 2.4-.7-2.2-5.5-3-3-3.9-4.5-3.1-5 .9-.6.1-2-2.7-4.9-2.4-2.6-3.5-4.3-2.7-4.6.7-.3-.3-2-2.7-4.5-2.1-2.2-3.5-4.5-3.2-5 .4-.6-1.2-2.5-3.4-4.3s-4-3.8-4-4.5c0-.6-1.5-2.5-3.3-4.1s-3.2-3.3-3-3.9c.1-.5-2-2.2-4.7-3.9-3-1.7-4.6-3.3-4.1-3.8.6-.6-2.2-4.2-7.1-9.1-8.8-8.9-16.9-20.1-16.1-22.2 1.2-3.1 19.3-3.7 28.7-1 4.5 1.3 6.1 1.5 6.6.5.8-1.1 6-.4 11.4 1.7 1.1.4 1.6.1 1.6-1 0-2-.5-2 6.4.4 4.7 1.6 5.8 1.7 6.2.5.4-1 1.2-1.2 3.1-.4 3.8 1.4 9.3 1.1 9.3-.5 0-1.1.9-1.2 4.5-.4 5.3 1.1 7.7.5 6.9-1.7-.7-1.8-.3-1.8 6.6 0 6.1 1.6 7.1 1.3 4.7-1.3-1-1-1.7-2-1.7-2.3 0-.2 3.5-.3 7.7-.1l7.8.3-3-2.6-3-2.5 3 1.1c2.1.7 3.1.7 3.3 0 .2-.6 1.6-1.1 3.2-1.1s3.6-.3 4.5-.6c1.4-.6 1.4-.8 0-2.4-1.4-1.5-1.2-1.7 2.8-1.7 2.3 0 5.3-.5 6.5-1.2 2.2-1.2 2.3-1.4.7-3.1-1.5-1.7-1.4-1.7 2.7-1.3 5.2.6 9-1.6 7-4-1-1.2-.8-1.3 1.4-.9 1.8.3 3 0 3.6-1.2.5-.9 1.8-1.6 2.9-1.6 1.6 0 1.9-.5 1.4-1.9-.5-1.5-.2-1.8 1.4-1.4 1 .3 3.5-.3 5.5-1.2 2.8-1.3 3.4-2.1 2.6-3-.8-1-.2-1.5 2.9-2 4.2-.7 8.8-3.4 6.1-3.5-.9-.1-.5-.5.8-1.1 1.3-.5 2.1-1.3 1.8-1.8s.8-1.1 2.5-1.5c1.9-.4 3.3-1.3 3.6-2.6.3-1.1 1.3-2 2.3-2 2.9 0 4.9-1.1 4.4-2.3-.2-.7 1.6-1.9 4.3-2.9s7.7-3.4 11.2-5.5l6.3-3.8-8.6-.3c-4.8-.1-10.3.2-12.3.7-2.7.8-3.9.7-4.4-.1-.6-.9-1.3-.8-2.7.5-2.3 2.1-3.2 2.2-3.2.2 0-1.2-.6-1.1-3.2.5-4.1 2.5-4.8 2.5-4.8 0 0-2.6-.5-2.5-6.9 1s-7.5 3.7-6.8 1c.6-2.4-.2-2.5-2.9-.5s-3.7 1.9-3.1-.5c.9-3.4-1.8-2.4-10.2 3.7-2.4 1.7-2.4 1.7-1.9-1 .7-3.5-.6-3.4-4.3.2-2.8 2.9-2.9 2.9-4 .9-1-1.9-1.2-1.8-4.5 1.9l-3.5 3.8.7-3.3c.6-3.2.5-3.4-1.7-2.7-1.3.4-4.1 1.8-6.1 3.1-4.4 2.8-4.9 2.9-4.2.9.8-2-1-1.9-2.6 0-.7.9-1.8 1.4-2.4 1.2-.6-.3-2.3.7-3.8 2.1-2.3 2.1-2.8 2.3-2.8.9 0-.9-.2-1.7-.5-1.7-1.2 0-8.4 4-9 5-1 1.6-2.8 1.2-2.1-.5.9-2.4-.5-1.8-6.2 2.6-4.6 3.4-5.3 3.7-4.7 1.8.7-2.1.5-2-3.1.8-5.8 4.5-10.4 6.7-8.8 4.2 1.1-1.9-3.5 1-7.7 4.8-2.3 2.1-3.9 3-3.9 2.2-.1-.8-1.8.5-4 2.9-3.1 3.5-3.9 3.9-4.2 2.5-.4-1.5-1.4-.9-5.1 3.1-2.6 2.7-4.7 4.6-4.7 4.2s-1.8.7-4 2.4-4 2.9-4 2.6-2.4.9-5.2 2.8c-7.3 4.6-11.9 6.9-14.5 7.2-1.9.2-2.3-.4-2.9-4.1-.8-5.4.1-30.3 1.2-32.9.6-1.6.4-1.8-.9-1.3-2 .8-2 .9-.4-3.9.8-2.2 1.3-7.3 1.3-11.4l-.1-7.5-13.2-.3-13.2-.3 1.5 3.6c1.3 3.2 1.3 3.5-.2 3.5-1.3 0-1.1.8 1 4.7 1.9 3.2 2.3 4.9 1.5 5.4-.8.4-.3 2.1 1.6 5.3 1.5 2.6 2.5 5 2.2 5.3-.4.3.7 2.5 2.3 4.9 1.7 2.3 3 4.9 3 5.7s.7 2 1.5 2.7c3 2.5 10.4 17.5 9.1 18.7-.2.2-2.8-3.2-5.7-7.6-3-4.4-5.8-8.1-6.4-8.1-.5-.1-1.9-1.9-3-4.2-1.1-2.2-2.4-4.1-3-4.1-.5 0-2.1-1.8-3.3-4.1-3-5.2-3.1-5.3-4.1-3.8-.5.9-1.8-.4-4.1-4-1.8-3-3.5-4.7-3.7-4-.3.8-2.2-.3-5.3-3.2-2.8-2.6-5.5-4.3-6.3-4s-5.8-2.5-11.2-6.1C228 1.6 224.7 0 222.1 0c-1.9 0-3.1.4-2.5.8zm86.4.7c0 .8-.5 1.5-1.1 1.5-.8 0-1 1.8-.6 6 .5 4.6.4 6-.6 6s-1.2 1.5-.9 6c.3 3.7 0 6-.6 6s-1 3.6-1 9.2c.1 7.6-.4 10.7-2.5 16.7-1.5 4.1-2.5 7.6-2.3 7.8s1.6-1.3 3.2-3.4c1.5-2.1 5-6.2 7.8-9.1 2.7-2.8 4.5-5.2 4.1-5.2-.9 0 8.3-8.7 11.9-11.3 1.4-.9 2.3-2.3 2-3-.2-.7 1.4-2.3 3.6-3.7 2.6-1.6 3.5-2.7 2.7-3.2-.7-.5-.8-.8-.1-.8.6 0 3-1.6 5.3-3.6 2.9-2.5 3.9-3.9 3-4.4-.8-.6.3-2.2 3.5-5.4 3.3-3.2 4.3-4.6 3.1-4.6-1.4 0-1.5-.3-.5-1.5C347.1.2 344.8 0 326.6 0 309 0 306 .2 306 1.5zm307.9 4.8c-8.8 7.5-16.4 15.8-17.2 18.7-.7 2.7-.3 2.6 4-1.4 5.9-5.3 18.5-13.6 20.5-13.6 1.1 0 4-1.4 6.4-3.1 3.2-2.1 4.9-2.8 5.7-2.1.9.7 2.2.2 4.7-1.9l3.5-2.8-10.1-.1h-10.1l-7.4 6.3zM642 1.6c0 .8.5 1.2 1 .9.6-.3 1-1 1-1.6 0-.5-.4-.9-1-.9-.5 0-1 .7-1 1.6zm39 11.7c0 7.4.3 18.2.7 24 .5 9.5.8 10.7 2.5 10.7 2.1 0 2.2-2.5 1.1-30.8-.6-15.8-.8-17.2-2.5-17.2S681 1 681 13.3zm78-10.9c3 1.2 8.5 4.1 12.3 6.4 7.1 4.3 8.9 3.6 3.5-1.4C767.7.8 766.1 0 759.6 0l-6.1.1 5.5 2.3zm43 .4c6 4.6 14 12.4 14 13.6 0 .7 2.1 2.9 4.7 5.1 2.5 2.1 4.1 4.1 3.5 4.3-2.1.7-1.3 2 2.4 4.3 2.6 1.6 3.2 2.4 2.3 3-1.6.9-1.7.8 4.5 3.7 4.4 2.1 4.7 2.4 3.1 3.6s-1.2 1.6 4.5 4.4c4.6 2.3 5.8 3.3 4.6 3.8-1.3.5-.4 1.3 3.6 3.4 2.9 1.5 5.2 3.2 5 3.9-.3 1.3 7.2 5 10.3 5.1 7.6.1 1.6 2.5-27.2 10.8-43 12.5-42.3 12.3-42.3 13 .1 3.4 2.3 3 37.9-7.4l37.7-11.1c2.3-.9 1.6 1-2.5 6.5-4.4 5.8-5.9 9.4-4.3 10 .7.2.2 2.4-1.3 5.9-2.9 6.5-2.9 6.4-1 5.7 1.2-.5 1.1.2-.4 3.7-3.2 7.4-3.6 9.3-1.7 8.6 2.3-.9 2.1 2-.4 6.1-2.4 3.9-2.5 4.6-.4 3.8 1.1-.4 1.5-.2 1.1.8-1.4 3.5-1.9 8.9-.9 8.2 2.2-1.3.6 24-2.1 33.6-1.3 4.9-2 8.8-1.6 8.8 2.3 0 12.9-26.8 12.9-32.6 0-1 .5-1.4 1.5-1.1 1.5.7 2.6-3 2.8-9.8.1-2.6.5-3.4 1.5-3 1.2.4 1.3-.5.8-5.5-.5-4-.3-6 .4-6 1 0 1-2-.4-30-.8-16.7 2.2-9.6 6 14.2 1 6 2 10.8 2.4 10.8s1.1 2.4 1.4 5.4c.6 4.2 1.1 5.4 2.2 4.9.8-.3 1.4.1 1.4.8 0 3.6 2.2 8.8 3.4 8.3.9-.3 1.8 1.6 3.1 6.2 1.5 5.7 2 6.5 3 5 1.2-1.5 1.3-1.5 1.9 0 .3.8.6 2.5.6 3.5 0 1.1.5 3 1.1 4.1l1.2 2.1 1.2-2.3 1.3-2.3.6 2.4c1.2 4.2 3.9 9.9 4.6 9.9.5 0 1.1-.8 1.5-1.8.5-1.4.9-1.2 2.2 1.3 2.7 5.1 4.4 6.7 6 5.3 1.2-1 1.7-.9 2.4.4.5 1 2.1 3.1 3.6 4.9 2.2 2.6 2.8 2.9 3.3 1.5.4-1.3 1.2-.9 3.5 2.3 1.7 2.2 3.6 4.1 4.2 4.1.7 0 2.3 1.7 3.7 3.8 2.8 4.5 12.4 15.2 13.6 15.2 1.3 0-2.2-9.5-6.6-18-2.1-4.1-3.9-8.2-3.9-9.1s-.6-2.3-1.2-3.1c-.7-.8-1.1-1.7-.8-2 .3-.2-.9-1.7-2.5-3.3-3.6-3.4-3.8-4.5-.7-3.7l2.2.5-2-2.4c-1.1-1.3-3.1-3.7-4.5-5.2-1.8-2-2.1-3-1.3-3.5.9-.6.1-2-2.6-4.7-2.6-2.6-3.5-4.2-2.8-4.7.8-.5-.1-2.1-2.7-4.7-2.1-2.1-3.6-4.4-3.2-4.9.3-.6-1.2-2.5-3.4-4.2s-4-3.8-4-4.5-1.5-2.6-3.2-4.1c-1.8-1.5-3.2-3.1-3.1-3.5.2-.5-2-2.4-4.7-4.2-3.4-2.3-4.6-3.7-3.9-4.4s-.4-2.1-3.5-4.4c-2.5-1.9-4.6-3.8-4.6-4.2 0-.5-2.1-3.1-4.8-5.7-5.7-5.9-11.9-15.7-10.6-17 .5-.5 3.9-1.4 7.6-2 7-1.1 17.1-.2 23.7 2.1 2.6.9 3.5.9 4.1-.1.8-1.2 5.9-.5 11.4 1.6 1.1.4 1.6.1 1.6-1 0-2-.5-2 6.3.3 5 1.7 5.7 1.8 5.7.4 0-1.1.5-1.3 1.8-.8.9.4 3.9 1 6.6 1.3 4.2.4 4.8.3 4.3-1.1s-.1-1.5 2.6-1c6 1.3 9.2 1 8.9-1-.4-2.1.1-2.1 6.7-.1 5.9 1.7 7.2 1.3 4.8-1.4-1-1-1.7-2-1.7-2.3 0-.2 3.5-.3 7.7-.1l7.8.3-3.5-2.6c-3-2.3-3.1-2.6-1-2 1.4.4 3.1 1 3.8 1.2.6.3 1.2 0 1.2-.6s1.2-1.1 2.8-1.1c1.5 0 3.3-.4 4.1-.9 1.3-.8 1.3-1.2 0-2.7-1.2-1.5-1.2-1.6.8-1 2.7.9 10.3-1.3 10.3-2.9 0-.6-.5-1.6-1.1-2.2-.8-.8-.1-1 2.8-.6 5.2.7 8.7-1.1 7.4-3.6-.9-1.6-.7-1.7 1.6-1.3 1.7.3 2.9-.1 3.5-1.2.5-.9 1.8-1.6 2.9-1.6 1.6 0 1.9-.5 1.4-1.9-.5-1.5-.2-1.8 1.3-1.4 2.7.7 8.5-2.5 7.8-4.3-.3-.8 0-1.4.7-1.4 3.5 0 8.8-2.2 8.3-3.5-.2-.7.4-1.5 1.6-1.8 1.1-.3 1.7-1 1.4-1.5s.8-1.2 2.5-1.6c1.9-.4 3.3-1.3 3.6-2.6.4-1.3 1.4-2 3-2s2.7-.7 3-1.9c.2-1 2-2.3 4-2.9 1.9-.6 6.8-3 11-5.4l7.6-4.3-8.4-.3c-4.6-.2-10.4.2-12.8.8-3.2.8-4.6.8-5.1 0-.5-.7-1.1-.6-2 .5-1.6 2-3 1.9-3-.1 0-1.4-.5-1.3-3.6.5-4.3 2.6-4.4 2.6-4.4 0 0-2.5-2.5-2-8.2 1.7-4.6 2.9-5.8 3-5.8.4 0-2.4-.4-2.5-3.5-.4-2.4 1.6-2.5 1.5-2.5-.5 0-2.9-.9-2.7-6.8 1.4l-5.1 3.4-.3-2.7-.3-2.7-3.3 3.2c-1.9 1.8-3.5 3.3-3.7 3.3-.1 0-.5-1-.9-2.3-.5-2.1-.7-2-3.6 1.5-3.7 4.4-5.4 4.9-3.9 1.2.5-1.5.8-2.9.6-3.1-.7-.7-6.1 1.8-9.4 4.3-3.2 2.4-3.3 2.4-3.3.4 0-1.8-.2-1.9-2.2-.8-1.3.7-2.8 1.1-3.5 1-.7-.2-2 .9-2.9 2.3-1.8 2.7-3.7 3.4-2.8 1 .9-2.3-.7-1.8-6.8 1.8-4.9 3-5.5 3.2-5 1.4.5-2 .4-2-2.9.3-1.9 1.3-4.5 3.3-5.8 4.4l-2.4 2.1.6-2.3c.3-1.2.1-2.2-.4-2.2s-.9.3-.9.7c0 1.5-9.7 7.4-11.1 6.8-1.6-.6-9.9 5.2-9.9 7 0 .5-.4.4-.9-.3-.6-1-1.7-.3-4.4 2.7-2.8 3.1-3.7 3.6-3.9 2.3-.3-1.3-1.4-.7-4.8 2.8-2.5 2.4-4.8 4.4-5.2 4.5-.3 0-2.1 1.1-4 2.5-1.8 1.3-3.8 2.5-4.3 2.6-.6.1-2.8 1.4-5 2.9-4.8 3.3-13.6 7.8-14.1 7.3-.6-.6 15.3-20 18.9-23 1.8-1.5 2.8-2.8 2.2-2.8-.5 0 .4-.8 2-1.7 4.4-2.3 6.4-4.3 5.9-5.8-.3-.7 1.1-2.2 3.2-3.4 2-1.2 3.4-2.5 3-2.8-.3-.3 1.2-1.9 3.4-3.5 2.2-1.7 4-3.3 4.1-3.6.4-3.6 1.4-5.2 5-8.5 2.9-2.6 3.6-3.7 2.4-3.7-1.4 0-1.5-.3-.5-1.5C927.1.2 924.8 0 906.2 0c-18.4 0-21.1.2-20.6 1.5.4.8.1 1.5-.6 1.5-.9 0-1.1 1.7-.8 6 .3 4.5.1 6-.9 6s-1.1 1.4-.6 6c.5 4.8.3 6-.8 6s-1.4 2.3-1.4 11.3c-.1 10.2-.3 11.8-3 17.6s-2.9 6.1-3.8 4c-1.2-3.2-1.2-26.1.1-32.2.8-4 .7-4.7-.4-4.3-1.7.6-1.6.9-.3-3.4 1.2-4 2-15.6 1.3-18.3-.5-1.5-2-1.7-13.5-1.7-7.1 0-12.9.2-12.9.5 0 .4.7 1.9 1.5 3.5 1.4 2.7 1.4 3 0 3-1.9 0-1.9 0 1 5.1 2 3.6 2.2 4.5 1 4.9s-1 1.3 1.2 4.4c1.4 2.2 2.7 5 2.9 6.2.1 1.3 1.4 3.8 2.8 5.7 1.4 1.8 2.3 3.6 2 4-.3.3.8 2.3 2.4 4.4 3.6 4.4 7.7 12.5 8.7 16.8.6 2.3-.5 1.1-4.4-4.5-2.9-4.1-6-8.2-7-9.1-1.1-.8-2.8-3.4-4-5.8-1.2-2.3-2.6-3.9-3.1-3.6s-1.1-.3-1.5-1.4c-1-3.4-4.7-7.4-5.5-6.1-.5.7-1.9-.8-3.9-4-2-3.3-3.6-4.9-4.2-4.3s-2.6-.7-5.4-3.4C828 12 826 11 826 13c0 .6-2.4-.7-5.2-2.8C811.2 3.3 805.1 0 801.7 0l-3.2.1 3.5 2.7z"/><path d="M93.3 39.5c.3 3 2.4 10.9 4.7 17.7 2.5 7.3 3.8 12.4 3.1 12.6-1.1.4 1 5.8 4.1 10.4 1.4 2 1.5 2.7.6 3.1-.8.3.1 2 2.7 4.6 3.2 3.4 3.7 4.4 2.5 5.1-1.1.7-.7 1.5 2.3 4.3 2 1.8 3.7 4 3.7 4.9s1.6 2.8 3.6 4.3c1.9 1.5 3.3 3 3 3.3s1.8 3.3 4.7 6.6c8.8 10.3 8.8 10.2 4.9 8.2-1.9-1-8.1-6.4-13.8-12.2-5.7-5.7-10.7-10.4-11.2-10.4-.4 0-2.5-1.8-4.7-4-2.7-2.8-4.1-3.6-4.7-2.7-.5.8-1.9 0-4.8-2.8s-4-3.4-4-2.2c0 2.4-.6 2.2-6-2.3s-6-4.7-6-2.2c0 1.5-.9 1-4.2-2.2l-4.3-4-.3 2.7-.3 2.6-4.1-2.9C60 78.5 58 78.2 58 81c0 1.9-.1 1.9-3.2.1-5.6-3.2-7.8-3.5-7.8-1.2 0 2.4-.6 2.5-4 .6s-8.1-2-7.4-.1c.5 1.2-.1 1.2-3.7-.1-2.4-.8-5.2-1.2-6.3-.9-1 .3-3.4-.1-5.2-.9-4.3-1.8-18-4.8-19.6-4.3-1.7.6 10 8.4 17.9 11.9 3.5 1.6 6.2 3.3 5.9 3.7-.5.8 6 3.6 10.9 4.7 2.8.6 2.9.8 1.2 2-2.3 1.6-1.5 2.1 5.1 3 4.1.5 5.2 1.1 5 2.3-.2 1.3.9 1.8 5 2.5 3.9.6 5.2 1.2 4.8 2.3-.4 1 .8 1.5 4.5 2 2.8.4 5.3 1.3 5.6 2 .3.8 1.9 1.4 3.7 1.4 1.7.1 4.9.7 7.1 1.5s5.5 1.5 7.3 1.5c1.7 0 3.2.4 3.2 1s2.7 1 6.1 1c3.3 0 5.8.4 5.5.9s1.6 1.2 4.2 1.5c15.9 2.3 33.2 7.5 33.2 10 0 .7-2.6 3.8-5.8 6.8-5.7 5.5-12.2 9.4-19.4 11.7-2.3.8-3.5 1.7-3.2 2.5.3.9-1.6 2.1-5.6 3.6s-5.9 2.7-5.6 3.6c.3.8-1.5 1.9-5.2 3.2-4.2 1.4-5.6 2.3-5.4 3.6.2.9-.3 1.6-.9 1.6-.7 0-3.2 1.2-5.7 2.6-3.1 1.9-4.1 2.9-3.2 3.4.9.6-.1 1.5-3.3 3-5.5 2.6-6.3 3.6-4.7 5.5 1.3 1.6 1.1 1.7-5.7 3.9-2.9 1-5.3 2-5.3 2.2 0 .3 1.4 1 3.1 1.6l3 1-2.8 1.5c-1.5.8-4.4 2.6-6.3 4.1l-3.5 2.7 3.5.6 3.5.6-3.2.8c-1.8.4-3 1.1-2.8 1.5.3.5-1 2.3-2.7 4.2-3.1 3.1-3.2 3.3-1.1 3.6 1.9.3 1.7.8-2.5 4.9l-4.6 4.7 2.7 1.1 2.7 1.1-2.9 1.1c-1.6.6-3.7 2.3-4.7 3.8-1.7 2.6-1.7 2.8 0 3.7s1.6 1.1-.5 2.2c-1.3.7-2.3 1.9-2.1 2.8.1.8-.5 2.1-1.3 2.8-1.9 1.6-1.9 3-.1 3 .8 0 0 1.4-2 3.4-3.6 3.6-4.4 6.6-1.9 6.6 1 0 .3 1.2-2 3.5-3.8 3.8-4.7 6.9-1.7 5.8 1.6-.6 1.5-.5-.1 1.5-1.1 1.1-1.6 2.6-1.2 3.1.3.6.2 1.1-.3 1.1-1.6 0-3.4 5.1-2.2 6.5.8 1 .6 1.5-.9 2-2.4.7-3.6 3.6-1.9 4.6.9.6.7 1.4-.9 3.1-1.1 1.3-3.3 4.7-4.8 7.7-3.4 6.9-9.7 24.1-8.7 24 .4 0 5.7-6.4 11.8-14.2 6.2-7.8 11.7-14.1 12.3-14 .6.2 1.3-.8 1.7-2.2.5-2 .9-2.3 2-1.4s1.7.3 3.1-2.5c1.5-3.3 1.8-3.5 3.4-2.1 1.5 1.5 1.9 1.1 5-4.9s3.5-6.4 5.1-4.9c1.6 1.4 1.8 1.3 3.1-1.8l1.5-3.4.9 2.4 1 2.5 1.6-2.5c.8-1.3 2.1-4.3 2.8-6.7l1.3-4.4 1.7 2.3 1.8 2.4 1.1-4.7c1.1-4.2 1.4-4.6 3.1-3.7s1.9.6 2-2.3c0-1.8.4-4.1.8-5.1.6-1.7.8-1.6 1.9.8 1.7 3.6 3.5 2.1 5.8-4.7 1.4-4.4 1.8-4.9 2.9-3.5 1.3 1.9 2.5 1.2 2.5-1.4 0-.9.7-1.9 1.5-2.3 1-.3 1.5-1.9 1.5-4.3.1-3.5.2-3.7 1.5-1.9 1.4 1.8 1.6 1.6 4-3.5 1.3-3 2.5-6.1 2.6-6.9 0-.8.5-.4 1.1 1 1 2.3 1.2 2.1 3.3-4.5 1.8-5.5 2.4-6.6 3-5.1.7 1.5 1.3.6 3-4.5 1.2-3.9 2.6-6.4 3.5-6.4s2.1-2.4 3.3-6.3c1-3.4 2.3-6 2.8-5.6.5.3.9-1.3.9-3.5 0-5 .8-7.1 2.4-6.5 1.4.5 2.6-3.6 2.6-8.8 0-1.6.4-2.7.9-2.4s1.2-1.1 1.6-3.2c.4-2 1.3-4.8 2.1-6.2a383.91 383.91 0 0 0 5.3-11.3c2.2-4.8 4.3-8.7 4.6-8.7.4 0 .4 3 .1 6.7a306.81 306.81 0 0 0-1.1 14.5c-.3 4.3-1 8.9-1.5 10.3-.6 1.6-.6 2.5 0 2.5s.1 1.8-1 4c-2.3 4.4-2.5 6.7-.9 7.2.9.3.9 1-.1 2.7-.7 1.3-1.4 4-1.5 6-.2 2-.7 5.5-1.1 7.8-.4 2.6-.3 4.3.3 4.3 1 0-.1 10.2-1.4 12.4-.3.6 0 .5.8-.2 2.3-2.2 2.6-1.3 1.3 4-1.9 7-1.8 8.4.1 6.8 1.3-1 1.4-.3.8 5.7-.6 6.5-.6 6.7 1.2 5.3 1.7-1.4 1.8-1.3 1.1.5-.5 1.1-1 4.1-1.1 6.7-.3 4.5-.2 4.7 1.7 3.7 1.7-.9 1.9-.8 1.4.8-1.4 4.9-1.7 7.3-1.1 9.3s.8 2.1 2.6.4c2.8-2.5 3-1.4.9 3.4l-1.9 4.2h2.4c2.4 0 2.4 0 .9 3.6-1.8 4.2-1.4 5 1.7 3.4 2-1.1 2.1-1 1.5.6-1.3 3.3-1.9 11.4-.9 11.4.5 0 1.5-.6 2.2-1.3 1.1-1 1.3-.5.8 2.5-.6 4.1-.5 4.3 2.2 2.8 1.7-.9 1.8-.4 1.3 6.2-.5 6.8-.4 7 1.7 6.3 1.9-.6 2.1-.3 2.1 2.9 0 2.4.5 3.6 1.4 3.6s1.2.7.9 2.1c-.3 1.2-.1 2.4.5 2.8s2.4 8.3 4 17.6l2.8 17 1.3-5.5c.7-3 1.5-11 1.8-17.8.3-6.7 1-12.2 1.4-12.2 1.3 0 1.1-4.8-.2-5.6-.8-.5-.6-1 .5-1.6s1.6-2 1.5-3.6c-.2-1.5 0-3.3.4-4 .5-.6.5-1.7.2-2.2-.3-.6.1-1 1.1-1 1.3 0 1.5-.6 1-3.6-.4-1.9-1-4.2-1.3-5-.3-.9 0-1.4.8-1.2 1.6.3 1.9-5.4.5-8.5-.6-1.1-.4-1.7.5-1.7 1.5 0 2-6.6.7-8.6-.5-.7.1-1.4 1.3-1.7 1.8-.5 2-1.1 1.4-3.4-.3-1.5-1.4-3.6-2.2-4.6-1.5-1.6-1.4-1.7.5-1.7 1.7 0 2.2-.6 2.2-2.8 0-1.5-.7-4-1.5-5.5-1.4-2.7-1.4-2.8.7-2.1 1.9.6 2 .4 1.4-2.7-.5-1.9-.8-4.1-.8-4.9s-1-2.6-2.2-3.9l-2.1-2.5 2.8 1.8c1.6 1 3.1 1.5 3.4 1.3.2-.3-.8-2.9-2.4-5.9l-3.1-6.1c-.2-.4.9-.2 2.4.3 1.5.6 2.9.9 3.1.6.3-.2-1.4-2.5-3.7-5-3.4-3.7-3.9-4.7-2.6-5.2 2.3-.9 2-2.8-1.1-6.5-1.8-2.1-2.3-3.4-1.5-3.7 1.3-.4-.7-5.1-3.5-8.4-.8-.9-1.2-2.2-.8-2.8.4-.7-.9-2.9-3.1-5.1-2.8-2.9-3.5-4.2-2.6-4.8.9-.5.2-2-2.8-5.4-2.3-2.6-3.6-4.8-3-5.2.5-.3-1.1-3.4-3.9-7-5.1-6.6-8.6-14.5-9.7-21.8l-.7-4.2 4.5 4.3c2.4 2.3 5.9 6.8 7.8 10 1.9 3.1 4 6.1 4.7 6.7.7.5 2.1 3.1 3.2 5.7 1.4 3.2 2.5 4.6 3.4 4.2 1-.3 1.8.9 2.7 4.1.7 2.5 1.8 4.9 2.4 5.3.7.4 2.3 2.5 3.6 4.7s2.9 4.3 3.5 4.7 2 2.5 3 4.8c1 2.2 2.4 3.9 3 3.6.6-.2 2.4 1.8 3.9 4.6 2.3 4 3 4.7 4.2 3.7.9-.7 1.4-.8 1.4-.1 0 2.3 4.5 8.1 6 7.6 1.1-.3 2.6 1.3 4.5 4.6 3.3 5.4 4.5 6.2 4.6 2.7v-2.2l1.7 2.4c3.5 5 8 10 8.6 9.4.3-.3 3.4 1.9 6.8 4.9 7.3 6.3 14.7 11.8 16 11.8 1.6 0-4.6-10.2-9.4-15.5-2.6-2.9-4.5-5.5-4.2-5.8.7-.7-1.3-4.6-3.9-7.5-1.8-1.9-1.8-2.2-.4-2.2 2.5 0 2.1-1.5-1.8-5.6-3.3-3.4-3.4-3.8-1.7-5 1.6-1.3 1.4-1.7-2.5-5.3-4.1-3.7-4.2-3.9-2-4.5 2.1-.6 2-.8-1.7-4.1-2.2-1.9-4.5-3.5-5.3-3.5-.7 0-1.3-.5-1.3-1 0-.6.9-1 2-1 3.6 0 2.1-2.1-3-4.3-4.6-1.9-4.9-2.2-3-3.2s1.5-1.4-4-4.5c-4.1-2.3-5.7-3.7-5-4.5s-.4-1.8-3.5-3.3c-2.9-1.4-4.3-2.6-3.9-3.5.3-.9-1.2-2.1-4.6-3.5-2.7-1.1-5-2.5-5-3.1s-1.9-1.6-4.2-2.2c-2.4-.7-4.8-1.8-5.4-2.5-.5-.7-2.3-1.6-4-2-4.4-1-15.1-6.4-17-8.5-1.4-1.6-.2-1.4 7.2 1.2 4.9 1.7 9.8 3.2 10.9 3.3 1.1.2 3.5 1.1 5.3 2s3.9 1.5 4.5 1.3c.7-.2 2.3.1 3.7.8 4.9 2.4 7 2.7 7 1 0-1.3.5-1.3 4 .5 4.3 2.2 7 2.6 7 .9 0-.6.8-.8 1.8-.5.9.2 4.1.8 7.1 1.1 4.7.6 5.3.5 4.8-.9-.6-1.4.6-1.6 9.6-1.6 11.2 0 21.8-1.4 25.1-3.3 1.7-1-.2-1.3-11.4-1.8-8.2-.3-14.5-1.1-16-1.9-1.3-.7-4.9-1.6-8-1.9-4.1-.5-5.4-1-5.3-2.1.2-1.2-.7-1.4-4.4-1.1-4 .3-4.5.1-3.9-1.4.5-1.4.2-1.6-2-1.1-8.2 2.1-8.7 2.1-7.9-.4.7-2.2.6-2.3-3.9-1.7a235.97 235.97 0 0 0-7.3 1.3c-2.6.7-2.7.6-1.3-1.1 1.4-1.6 1.3-1.7-1.5-1.2-8.5 1.7-10.5 1.9-10.5.8 0-1.7-3.4-1.3-9.2.9-2.8 1.1-5.3 1.8-5.5 1.7-.1-.2 10.3-13.8 23.2-30.2 20.8-26.4 23.4-30.1 22.1-31.4-1.4-1.3-1.8-1.1-3.8 1.4-1.3 1.6-12 15.3-23.8 30.4l-22.5 27.8c-.6.2-.9-1.6-.7-4.3.6-6.7-.6-13.4-2.2-12.8-1.4.5-3.6-6.1-3.6-10.8-.1-2.1-.2-2.2-1.4-.5-1.2 1.6-1.4 1.3-2-2.2a39.97 39.97 0 0 0-1.6-6.6c-.8-2.2-1.3-2.5-2.4-1.6-1.6 1.3-2 .6-3.2-6.2-.5-2.8-.9-3.5-1.9-2.7-.9.8-1.5-.1-2.5-3.5-1.2-4.5-2.4-5.7-3.3-3.3-.2.7-1.5-1-3-3.8-1.4-2.7-3.9-6.5-5.5-8.2-2.7-2.9-9.3-16.9-10.8-22.8-1.2-4.7-2.7-2.5-2.1 3.1z"/><path d="M673.3 39.6c.3 3.2 2.4 11.3 4.6 17.9s3.6 12.1 3.1 12.3c-1.2.4 1.1 6.1 4 10.3 1.2 1.6 1.7 2.9 1.1 2.9-2 0-1.1 1.7 2.7 5.4 3 3 3.4 3.8 2.2 4.6-1.1.7-.7 1.5 2.3 4.4 2 1.9 3.7 4.1 3.7 5 0 .8 1.6 2.7 3.5 4.2 1.9 1.4 3.3 2.9 3.1 3.3-.2.3 2.4 4 5.9 8.1s6.2 7.6 6 7.9c-.9.8-8.2-5.4-17.4-14.8-5.2-5.3-9.9-9.5-10.3-9.3-.4.1-2.5-1.6-4.5-3.8-2.6-3-3.8-3.7-4.4-2.8s-1.9.2-4.9-2.7c-2.9-2.8-4-3.4-4-2.2 0 2.4-.4 2.2-6.3-2.4-5-4-5.2-4.1-5.5-1.9-.3 2.1-.5 2-3.7-1.4-3.7-4-5.5-4.6-5.5-1.6 0 1.9-.3 1.8-4.2-1-4.8-3.5-7.8-3.9-7.8-1 0 2 0 2-2.7.1-4.5-3.1-7-3.5-7.6-1.1-.5 2-.7 2.1-3.6.6-4-2.1-8.2-2.1-7.5-.1.5 1.3.1 1.3-3.7-.1-2.4-.8-5.3-1.3-6.3-1-1.1.3-3.4-.1-5.3-.9-3.6-1.5-16.9-4.5-20-4.5-2.7 0 6.9 6.5 15.9 10.8 4.2 2 7.7 4.2 7.7 4.8.1 1.1 6 3.7 11.5 5 2.7.7 2.8.8 1.1 2-1.1.8-1.7 1.4-1.4 1.5.2 0 2.9.6 5.9 1.2 3.7.8 5.5 1.7 5.5 2.7s1.7 1.8 5.1 2.5c3.2.6 4.9 1.4 4.7 2.2-.3.8 1.3 1.4 4.7 1.9 2.9.4 5.4 1.3 5.7 2 .3.8 1.9 1.4 3.7 1.4 1.7.1 4.9.7 7.1 1.5s5.5 1.5 7.3 1.5c1.7 0 3.2.4 3.2 1s2.7 1 6.1 1c3.3 0 5.8.4 5.5.9s1.6 1.2 4.2 1.5c15.9 2.3 33.2 7.5 33.2 10 0 1.9-9.7 10.8-15 13.8-2.5 1.4-6.7 3.4-9.3 4.3-3 1.1-4.6 2.3-4.3 3.1.3.7-1.7 2-5.5 3.4-3.9 1.5-5.8 2.7-5.5 3.6.3.8-1.5 1.9-5.2 3.2-4.2 1.4-5.6 2.3-5.4 3.6.2.9-.3 1.6-.9 1.6-.7 0-3.2 1.2-5.7 2.6-3.1 1.9-4.1 2.9-3.2 3.4.9.6-.1 1.5-3.3 3-5.5 2.6-6.3 3.6-4.7 5.5.9 1.1 0 1.8-4.9 3.6-6 2.1-7.9 3.9-4.3 3.9s3.1 1.4-1.7 4.6c-6.5 4.4-7 5.4-2.9 5.5l3.3.1-3.2 1c-1.8.6-3.3 1.6-3.3 2.3 0 .6-1.1 2.2-2.5 3.5-3 2.8-3.2 4-.5 4 1.6 0 1.1.9-2.7 4.6l-4.8 4.7 2.7 1.1 2.8 1.2-2.9 1.1c-1.6.6-3.7 2.3-4.7 3.8-1.7 2.6-1.7 2.8 0 3.7s1.6 1.1-.5 2.2c-1.3.7-2.3 1.9-2.1 2.8.1.8-.5 2.1-1.3 2.8-1.9 1.6-1.9 3-.1 3 .8 0 0 1.4-2 3.4-3.5 3.5-4.4 6.6-2 6.6.8 0 0 1.4-2 3.4-3.7 3.7-4.6 6.9-1.6 6 1.5-.5 1.5-.4-.2 1-1 .8-1.6 2-1.4 2.7s-.4 2.1-1.5 3.2-1.7 2.7-1.4 3.9-.2 2.7-1.4 3.9c-2.1 2.1-2.5 3.9-.9 3.9.6 0-.2 1.9-1.8 4.2-1.6 2.4-3.5 5.4-4.2 6.7-1.6 3.2-9.1 24.1-8.5 24.1.2 0 5.5-6.4 11.7-14.3s11.9-14.2 12.5-14c.7.3 1.5-.7 1.9-2.2.5-2 .9-2.3 2-1.5 1 .9 1.7.3 3.3-2.7 1.6-3.1 2.1-3.5 2.6-2.1 1.2 3 2.2 2.1 5.6-4.8 2.8-5.6 3.5-6.4 4.4-5 1.7 2.2 2.1 2 3.5-1.5l1.3-3.1 1.2 2.3c1.3 2.2 1.3 2.2 3.2-1.7 1.1-2.1 2.3-5.2 2.7-6.8l.7-2.9 1.6 2.3c1.9 2.7 3.3 1.2 3.3-3.8 0-3.5.2-3.7 3.1-2.2 1.7 1 1.9.7 1.9-2.7 0-5.2 1.6-7.7 2.5-4 .4 1.5 1.1 2.7 1.6 2.7.9 0 4-6.2 5.4-10.4.5-1.9.6-1.9 2 0 1.3 1.8 1.4 1.7 2.1-1.3.3-1.8 1-3.1 1.4-2.8 1 .6 2-1.9 2-5.3.1-2.6.1-2.6 1.5-.8s1.6 1.6 3.5-3c4-9.3 3.9-9.1 3.9-7.2.2 3.7 1.9 1.6 3.7-4.2 1.4-4.7 2-5.7 2.7-4.4s1.4.2 3.1-4.7c1.2-3.5 2.6-6.3 3.3-6.2 1.3.3 4.3-6.7 4.3-10.2 0-1.5.6-2.5 1.4-2.5 1.1 0 1.6-1.4 1.8-4.8.2-3.3.7-4.7 1.8-4.7 1.6 0 2.7-3.3 2.9-8.3.1-1.7.5-3.2 1-3.2s1.2-1.8 1.6-3.9c.4-2.2 1.3-4.5 2.1-5.2.8-.6 1.4-1.6 1.4-2.1 0-1.4 7.8-17.8 8.4-17.8.3 0 .4.6.1 1.2-.2.7-.6 6.9-.9 13.8s-1 13.9-1.5 15.7c-.5 1.7-.7 3.3-.5 3.6.2.2-.3 2-1.1 4-1.7 4.2-2 7.1-.5 6.2 1.3-.8 1.3-.3-.2 3.2-1.3 3.4-1.8 7-2.1 18.8-.2 4.9-.7 9.9-1.2 11-.8 1.8-.7 1.9 1 .5s1.8-1.3 1.1 2c-2 9.5-2 10.6-.4 9.2 1.5-1.2 1.6-.7 1.1 4.9s-.4 6.2 1.1 5.6c1.1-.4 1.5-.3 1 .4-.3.6-.8 3.5-.9 6.5-.3 5-.2 5.3 1.5 4.4s1.8-.7.9 2.2c-1 3.8-1.2 9.8-.2 9.8.3 0 1.5-.7 2.5-1.7 2.7-2.4 2.9-1.3.8 3.5-1.9 4.2-1.9 4.2.2 4.2 1.4 0 1.8.5 1.4 1.6-.3.9-.9 2.7-1.2 4.1-.6 2.2-.4 2.4 1.5 1.8 2-.6 2.1-.4 1.4 5.4-.6 6.1 0 7.3 2.6 4.8 1.1-1 1.2-.5.7 2.6-.7 3.6-.6 3.8 1.3 2.7 2.4-1.2 2.3-1.5 2.1 6.8-.1 6 0 6.3 1.9 5.7s2.1-.2 2.1 2.9c0 2.4.5 3.6 1.4 3.6s1.2.8.8 2.5c-.2 1.4 0 2.5.5 2.5.6 0 2.3 7.8 3.9 17.2l2.8 17.3 1.3-5.5c.8-3 1.5-10.9 1.6-17.5.1-9.1.5-12.3 1.7-13.1 1.1-1 1.2-1.7.3-3.7-1-2.1-.9-2.6.4-3.1 1.1-.4 1.4-1.5 1.1-3.7-.3-1.6-.1-3.2.4-3.5.4-.3.3-1.4-.2-2.4-.8-1.6-.8-1.8.5-1.4 1.1.5 1.5-.1 1.5-2.6 0-1.7-.5-4-1.1-5.1-.9-1.7-.7-2 .8-1.7 1.4.2 1.8-.3 1.8-2.7-.1-1.7-.5-4.1-.9-5.4-.5-1.5-.5-2.1.2-1.7 1.3.8 2.2-6.4 1-8.7-.6-1.2-.5-1.7.7-1.7 2 0 2-4.8-.1-7.8-1.4-2.1-1.4-2.2.5-2.2 2.6 0 2.8-3.7.5-8.1-1.5-3-1.5-3.1.6-2.4s2.2.5 1.5-2.7c-.5-1.8-.8-4-.8-4.8s-.9-2.6-2.1-3.9l-2.1-2.4 2.8 1.8c1.5 1 2.9 1.6 3.2 1.4.2-.3-.9-3.1-2.4-6.3l-2.9-5.8 3 .6 3 .6-3.2-4c-1.7-2.2-3.6-4.2-4.1-4.5-1.4-.9-1.1-2.5.6-2.5.8 0 1.5-.3 1.5-.6 0-1.1-2.3-5-4.3-7.2-1.8-1.9-1.8-2.2-.3-2.2s1.5-.2 0-3.3c-.9-1.7-2.3-4-3.1-4.9s-1.2-2.2-.8-2.8c.4-.7-.9-2.9-3.1-5.1-2.7-2.7-3.5-4.2-2.7-4.7s0-2.2-2.8-5.4c-2.1-2.6-3.5-4.9-3-5.3.6-.3-1.1-3.3-3.7-6.8-5.6-7.3-9-14.8-9.8-21.4l-.7-4.8 3.7 3.5c2.1 1.9 5.5 6.2 7.7 9.5 2.1 3.3 4.4 6.7 5.1 7.5s2.3 3.7 3.6 6.4c1.6 3.4 2.6 4.6 3.1 3.8.8-1.4 2.4 1.6 3.7 7 .3 1.6 1.2 2.8 1.8 2.8.7 0 2.2 2 3.4 4.5s2.6 4.5 3 4.5c.5 0 2 2 3.3 4.5s2.9 4.5 3.6 4.5c.6 0 2.4 2.1 3.9 4.7s2.9 4.2 3.2 3.5c.5-1.5 2.2-1.6 2.2-.2 0 2.2 4.6 7.9 6 7.5 1-.3 2.6 1.4 4.7 4.8 3 4.7 3.3 5 3.9 2.9.6-2.2.7-2.2 3 1.2 3 4.4 7.1 8.6 7.8 7.9.2-.3 3.6 2.2 7.4 5.4 8.2 7.1 16.2 12.8 16.2 11.5 0-1.5-9.5-15.5-12.3-18.1-1.4-1.3-2.3-2.9-2.1-3.5.3-.7-.9-3.1-2.6-5.4-2.4-3.3-2.7-4.2-1.4-4.2 1.5 0 1.5-.3-.1-2.8-1-1.5-2.7-3.5-3.9-4.5-2-1.7-2-1.8-.3-3.1 1.8-1.4 1.6-1.7-2.1-5.4s-3.9-4.1-1.9-4.6l2.1-.5-2.3-2.5c-1.3-1.3-3.6-3-5.2-3.6-3.3-1.4-3.8-3-.9-3 3.5 0 2.2-1.8-3.2-4.3-4.6-2.2-4.9-2.5-2.9-3.2 2.1-.6 1.7-1-3.6-4.2-7.1-4.3-7-4.2-5.5-5.2.8-.4-.4-1.5-3.3-2.9s-4.3-2.6-3.9-3.6c.4-.9-1-1.9-4.5-3.2-2.8-1-5.1-2.3-5.1-3 0-.6-2-1.7-4.5-2.4s-4.9-1.8-5.3-2.4-3.5-2.1-6.9-3.2c-5.5-2-16.7-8.4-15.9-9.1.2-.2 4.6 1.2 9.9 3.1 5.3 1.8 9.8 3.2 10.1 2.9.2-.2 1.9.3 3.8 1.3 1.8.9 4.4 1.8 5.8 1.9 1.4.2 4.2 1 6.3 1.9 3.3 1.4 3.8 1.5 4.3.2s1.1-1.3 4.5.4c4.2 2.2 6.9 2.6 6.9.9 0-.6.8-.8 1.8-.5.9.2 4.1.8 7 1.1 4.5.6 5.1.5 4.6-.9s.7-1.6 9.7-1.6c11.3 0 22-1.4 25.3-3.3 1.7-1-.2-1.3-11.4-1.8-8.4-.3-14.4-1-16-1.9-1.3-.7-4.9-1.6-8-1.9-4.1-.5-5.4-1-5.3-2.1.2-1.2-.7-1.4-4.4-1.1-4 .3-4.5.1-3.9-1.4.5-1.4.2-1.6-1.6-1.1-5.6 1.5-9.8 1.8-9.8.7 0-.6.5-1.1 1-1.1.6 0 1-.5 1-1.1 0-1.2-5.5-.8-11.7.7-2.6.7-2.7.6-1.3-1.1 1.4-1.6 1.3-1.7-1.5-1.2-8.5 1.7-10.5 1.9-10.5.8 0-1.7-3.4-1.3-9.2.9-2.8 1.1-5.3 1.8-5.5 1.6s10.2-13.8 23.1-30.2c21-26.7 23.4-30.1 22-31.4s-1.7-1.3-2.7.1c-14.3 18.8-47.2 59.9-47.9 59.9-.5 0-.9-2.3-.7-5.3.5-9.5.1-13-1.6-12.4-1.6.7-3.5-4.5-3.5-9.8-.1-2.8-.2-2.9-1.5-1.1-1.3 1.7-1.4 1.5-2-2-.4-2.2-1.1-5.4-1.7-7.2-.9-3-1.1-3.1-2.2-1.6-1.2 1.5-1.4 1.4-2.4-1.6-.7-1.8-1.2-4.4-1.2-5.8 0-2.1-.2-2.2-1.5-1.2-1.1.9-1.5.9-1.5.1 0-.6-.7-2.8-1.5-4.9-1.2-2.7-1.8-3.3-2.4-2.3-.7 1-1.4.3-3-2.7-1.2-2.3-3.4-5.6-5-7.4-3.3-3.9-7-10.8-10.1-19.6-3.1-8.5-4.5-9-3.7-1.6zm-371 29.5c7.5 4.2 14 10 18.1 16 2 3 3.6 4.5 4.2 3.9s2.2.9 4.3 4.1c2.4 3.4 3.8 4.6 4.5 3.9s2 .6 4.2 4.1c1.7 2.9 3.4 4.7 3.8 4.1.4-.7 2.4.8 4.8 3.4 2.3 2.5 4.4 4.1 4.6 3.4.3-.7 2.2.6 4.4 3 3.5 3.6 4.1 3.9 5.2 2.5 1-1.4 1.6-.9 4.9 3.7l3.7 5.3v-3.4-3.5l3.3 3c1.7 1.6 4.3 3.8 5.6 4.9l2.3 2-.6-3.5-.7-3.5 1.9 2.8c1 1.5 2.1 2.4 2.5 2.1.3-.3 1.6.1 2.9 1 2.8 2 4.8 2.1 4.8.1 0-1.1.9-.8 3.6 1 4.6 3.1 6.4 3.2 6.4.2v-2.2l1.8 2.1c3.2 4 8.2 5.7 8.2 2.7 0-1.5.2-1.5 1.9.1 1.1 1 2.4 1.5 3 1.2.6-.4 2-.2 3.1.4 1.6.9 2 .8 2-.5 0-1.2.5-1.1 3.3.5 4.1 2.6 7.9 2.7 7 .2-.6-1.6-.5-1.6 1.4.1 1.1 1 3.5 2.2 5.3 2.7 2.6.7 3.1.7 2.6-.5-.6-1.6.5-2 1.8-.8.4.4 3.1.8 5.9.8 2.9.1 6.2.7 7.5 1.4 1.9 1 2.3.9 2.8-.4.4-1 1-1.2 1.8-.6 1.8 1.5 12.4 3.9 20.1 4.6 3.9.3 8.6.8 10.5 1.1 5.4.9 3.1-.5-13.3-7.7-8.4-3.7-15.1-7.2-14.9-7.8.1-.6-1-1.1-2.4-1.1-1.9 0-2.5-.4-2.1-1.5.5-1-.4-1.6-2.8-2.1-3.7-.7-4.2-1.3-2.4-3.1.8-.8.1-1.4-2.7-2.2-2.2-.6-4.8-1.1-6-1.1-2.8 0-3.5-.9-2.3-3.1.8-1.7.6-1.9-2.1-1.9-3 0-4-1.3-1.9-2.6 1.9-1.2-1.3-2.4-6.3-2.4-4.5 0-6.1-1.1-3.8-2.5 2.5-1.5.8-2.7-3.1-2.2-3.7.5-4 .4-3.6-1.5.5-1.8.2-1.9-4.6-1.3l-5.2.6 2.5-2c2.1-1.8 2.3-2.2 1-3.1-1.4-.9-4.7-1.4-9.2-1.3-2.1 0-2.3-.8-.6-2.5.9-.9.6-1.2-1.5-1.2-1.5 0-2.7-.5-2.7-1 0-.7-1.4-.8-3.7-.4-3.4.6-3.7.5-2.5-.9 1.4-1.6 1.4-1.6-8.2-3.2-2.5-.4-3.5-.9-2.7-1.4 1.9-1.2-1.1-2.1-6.7-2.1-4.2 0-4.4-.1-2.6-1.5 1.7-1.3 1.3-1.4-4.8-1.5-5.4 0-6.8-.3-6.8-1.5s-1.4-1.5-6.6-1.5c-3.6 0-6.3-.4-6-.9.4-.5-.2-.8-1.1-.6-7.4 1.5-8.5 1.5-8 .1.5-1.2-.9-1.5-7.6-1.4s-20.1-1.8-34.7-4.8c-1.4-.3.1.9 3.3 2.7zm579.3-.1c7.5 3.7 14.3 9.5 18.5 16.1 2.2 3.3 3.5 4.5 4 3.7.4-.7 1-1 1.2-.8.2.3 1.9 2.6 3.7 5.3 2.3 3.2 3.6 4.3 4.1 3.5.9-1.4.7-1.7 4.4 4.4 2.2 3.6 3.2 4.4 4.2 3.6.9-.7 1.3-.7 1.3 0 0 1.9 7.3 8.3 8 7.2.4-.7 1.8.3 3.4 2.4 2.6 3.4 5.6 4.8 5.6 2.6 0-2.1 1.6-.8 5 4.2l3.5 5.1.5-3.3c.5-3 .6-3.2 1.9-1.6.8.9 3.1 3 5.2 4.7l3.9 3.1-.6-3.4-.5-3.3 1.5 2.5c.8 1.4 1.7 2.4 2 2.2.4-.1 1.9.4 3.6 1.3 3.7 1.9 5.1 1.9 4.4 0-.8-2.1.6-1.9 3 .4 1.2 1.1 3.3 2.3 4.9 2.6 2.4.6 2.7.4 2.7-1.6v-2.4l2.3 2.7c2.8 3.4 7.7 4.9 7.7 2.3 0-1.7.1-1.7 1.9-.1 1.1 1 2.4 1.5 3 1.2.6-.4 2-.2 3.1.4 1.6.9 2 .8 2-.5 0-1.4.4-1.3 2.6.4 3.2 2.5 7.4 2.8 7.4.6 0-1.3.5-1.2 2.8.4 1.5 1.1 3.8 2.2 5.1 2.6 2 .6 2.3.4 1.8-.9-.5-1.2-.3-1.5.6-.9.6.4 3.7.8 6.7.9 3 0 6.5.6 7.8 1.3 1.9 1 2.3.9 2.8-.4.4-1 1-1.2 1.8-.6 1.8 1.5 12.4 3.9 20.1 4.6 3.9.3 8.6.8 10.5 1.1s3.2.2 2.8-.2-7.6-3.7-16-7.4-15.2-7.2-15-7.8c.1-.7-1-1.2-2.4-1.2-1.9 0-2.5-.4-2.1-1.5.5-1-.4-1.6-2.8-2.1-3.7-.7-4.2-1.3-2.4-3.1 1-1-1.6-1.9-10.5-3.8-2.7-.6-2.8-.7-1.1-2.5 1.8-2 1.7-2-2-2s-3.7-.1-2.1-1.9c1.5-1.7 1.5-1.9.1-2.5-.9-.3-3.7-.6-6.1-.6-4.1 0-5.7-1.1-3.4-2.5 2.4-1.5.8-2.7-3-2.3-3.4.3-4 .1-4-1.5s-.6-1.7-4.7-1.2l-4.8.6 2.5-2c2.1-1.8 2.3-2.2 1-3.1-1.4-.9-4.7-1.4-9.2-1.3-2.1 0-2.3-.8-.6-2.5.9-.9.6-1.2-1.5-1.2-1.5 0-2.7-.5-2.7-1.1 0-.7-1.4-.8-4.2-.4-3.9.6-4.1.6-2.4-.8 2.2-1.6 2.4-1.5-7.8-3.2-2.5-.4-3.5-.9-2.7-1.4 1.9-1.2-1.1-2.1-6.6-2.1-3.9 0-4.4-.2-3.3-1.5 1-1.2.2-1.4-5.2-1.7-3.9-.2-6.2-.7-6.1-1.4.2-1.3-19.1-2.9-20.9-1.7-.7.4-.9 0-.5-1 .5-1.3-.6-1.5-8.1-1.5-8 0-18.7-1.5-30.2-4.1-7.4-1.7-7.8-1.2-1.4 1.9zM43.4 125.5l1.6 2.4-6.8-.6-6.7-.6 2.5 2.8c2.4 2.6 2.4 2.7.3 1.6-1.3-.6-3.4-.9-4.8-.6l-5.1 1c-2.1.5-2.4.8-1.4 2 1.1 1.3.6 1.5-3.1 1.5-6 0-7.8 1.3-6.1 4 1.2 2 1.1 2-.7 1.1-2.5-1.4-5.7-1.4-8.2 0-1.7.8-1.8 1.3-.8 2.5 1.1 1.3.9 1.4-1.4.9l-2.7-.7v17.7 17.6l2.9-2c3.6-2.6 4.1-2.6 4.1-.1 0 2.7 1.3 2.5 4.1-.5 2.8-2.8 3.9-3.1 3.9-1 0 2.2 1.3 1.8 4-1 1.3-1.4 2.7-2.5 3.1-2.5.5 0 .4 1.1-.1 2.5-1.3 3.3 1 3.3 6.8 0 4.2-2.4 4.2-2.4 4.2-.3 0 2 .1 2 1.9.4 1.1-1 2.4-1.5 3-1.2.5.3 2.3-.5 3.9-1.9 2.8-2.3 3-2.4 2.5-.5s-.4 2 2.3.8c1.6-.6 4.1-2 5.6-3 3.2-2.2 3.9-2.3 3.2-.3-.9 2.2.3 1.9 5.3-1.5 5.1-3.5 5.5-3.6 4.6-1.3-.7 1.8-.5 1.7 5.7-2.5 1.9-1.3 4.2-2.1 5.2-1.9.9.3 3.9-.9 6.5-2.6s5.4-3.2 6.2-3.3c.7-.2 2.6-1.5 4.1-2.9 2-1.9 2.9-2.3 3.3-1.3.3.9 1.6.2 4.1-2.1 2-1.9 4.3-3.6 5.2-3.7s2.4-1 3.4-1.9 2.4-1.8 3.2-1.9c.7-.2 6.5-2.8 12.8-5.9 10-4.9 10.9-5.5 7-4.9-8.1 1.3-19.2.6-25.5-1.6-3.9-1.3-6.2-1.7-6.6-1-.5.7-2.4.5-5.9-.7-3.8-1.3-5.4-1.4-5.9-.6s-2.3.5-6-1.1c-4-1.6-5.5-1.8-6-.9-.6.9-1.5.9-3.5.1-3.6-1.3-7.3-1.3-7.8.2-.3.9-1.2.9-3.8 0-4.9-1.8-7-1.5-7 .7 0 2-.1 2-5.7 0-7-2.4-6.9-2.4-4.9.6z"/><path d="M623.4 125.4l1.6 2.5-7.3-.6-7.2-.5 3 2.6c2.9 2.5 2.9 2.6.5 1.7-1.4-.4-4.5-.5-7-.2-3.5.5-4.4 1-4.2 2.4.2 1.3-.5 1.7-3.3 1.7-2 0-4.5.5-5.6 1.1-1.7.9-1.8 1.3-.8 2.6 1.1 1.3.8 1.4-2.3.8-4.6-.9-8.5.9-6.7 3.1 1 1.2.7 1.3-1.8.8-2.2-.4-3.2-.2-3.6 1-.4.9-1.5 1.6-2.6 1.6-1.3 0-1.8.5-1.5 1.3.3 1-.4 1.4-2.5 1.5-1.6 0-3.9.6-5.1 1.2-1.8 1-1.9 1.4-.8 2.8 1.1 1.3 1.1 1.5-.4.9-2-.7-8.8 1-8.8 2.3 0 .4.6 1.1 1.3 1.3.6.3-.1.6-1.6.6-1.6.1-2.6.5-2.2 1.1.3.6-.5 1-1.9 1s-3.1.9-3.8 1.9c-.8 1-2.5 2.1-3.8 2.3-1.4.1-2.5 1-2.5 1.8s-1.5 1.7-3.9 2.2c-4.2.9-21.5 9.6-25.6 12.9-2.1 1.7-2.2 1.9-.5 1.5 10.9-2.9 32-6.6 32.3-5.7.2.7 1.2.5 2.8-.5 2.2-1.5 2.4-1.5 2.4 0s.3 1.5 3.5.2c3.3-1.4 3.5-1.4 3.5.4 0 1.6.4 1.7 2.8 1.1 1.6-.5 4.2-1.6 6-2.5 4-2 4.2-2 4.2.4s.4 2.5 3.7.3c2.6-1.7 2.6-1.7 2.1.5-.9 3.2 2 2.9 7-.8l4.1-2.9.3 2.6.3 2.6 3.2-2.7c3.3-2.7 3.3-2.8 4.1-.7.7 2.1.8 2.1 3.7-.9 3.5-3.7 4.8-3.8 3.5-.5-1.2 3.3.2 3.3 6.4 0 4.6-2.4 4.6-2.4 4.6-.3 0 2 .1 2.1 2 .3 1.1-1 2.3-1.5 2.6-1.2.4.4 2-.3 3.5-1.4 2.5-1.7 2.9-1.8 2.9-.5s1 1.1 5.3-1.1c2.8-1.5 5.5-2.9 6-3.1.4-.2.4.4 0 1.3-.5 1.5-.3 1.6 1.8.5 1.3-.7 3.6-2.1 5.1-3.1 3.2-2.3 3.9-2.4 3.1-.3-.4 1 1.1.5 4.3-1.5 2.6-1.7 5.6-2.9 6.5-2.6s3.9-1 6.8-2.9c2.8-1.9 5.1-3.2 5.1-2.9 0 .2 1.4-.7 3-2.1 1.8-1.4 3.7-2.3 4.6-1.9 1 .3 3-.9 5.5-3.3 2.1-2.1 3.9-3.4 3.9-3 0 .5 1.5-.3 3.4-1.8 1.9-1.4 3.9-2.6 4.4-2.6s6-2.5 12.3-5.5c9.7-4.7 10.7-5.4 6.9-4.8-7.9 1.4-19.1.7-25.5-1.5-3.9-1.3-6.2-1.7-6.6-1-.5.7-2.4.5-5.9-.7-3.7-1.2-5.4-1.4-5.9-.6-.5.7-2.3.4-6.1-1-3.7-1.4-5.5-1.7-6-.9s-1.5.8-3.4 0c-3.8-1.4-8.9-1.3-8 .2.5.8 0 .9-1.7.4-1.3-.4-3.9-.9-5.6-1.3-2.9-.5-3.3-.3-3.3 1.5v2.1l-5.7-2c-7-2.4-6.9-2.4-4.9.5zM90.7 362.9c.5 14.8.4 18.4-.7 19.1s-1.1 1.4-.2 3.4c1 2.3.9 2.6-.8 2.6-1.6 0-1.7.4-.9 3.2 1.2 4.5 1.2 4.7-1.1 4.1-2.5-.7-2.7 2.2-.5 9.3l1.5 5.2c0 .1-1.2-.1-2.6-.4-2.7-.7-2.8-.3-.7 5.3.6 1.6-.9 1.7-2.5.1-2.4-2.4-2 .3 1.3 11 .7 2.1.6 2.2-1.9 1.2-3.1-1.1-3.1-1-.6 4 2 3.9 2 3.9 0 4.5-1.9.6-1.9.7.5 4.3 3.2 4.6 3.2 5.9 0 3.8-1.3-.9-2.7-1.6-3-1.6-1 0-.4 3.5 1.4 8.7l1.8 5.3-2.5-.7c-2.4-.6-2.4-.6-.8 2.6 1.1 1.9 1.2 3.1.5 3.1-.6 0-.1 1.6 1.2 3.6 2.2 3.6 2.2 3.6.2 3s-2-.4-1.2 3.2c.5 2.2 1.3 5.2 1.9 6.6 1.3 3.6 1.3 4.1-.5 2.6-2.1-1.7-1.9-.2.5 6.2s2.4 6.1.1 4.8c-1.8-.9-1.8-.6.5 4.4 1.8 4 2.3 6.4 1.9 8.8s.1 4.6 1.8 8c1.3 2.7 2 4.8 1.5 4.8s.3 2 1.8 4.5c1.4 2.5 2.1 4.5 1.5 4.5-1.9 0-1.2 2.5 1.8 7.1 1.6 2.4 2.7 4.7 2.5 5.1-.3.4.3 2.2 1.2 3.9.9 1.8 1.7 4.4 1.9 5.8.1 1.4 1.3 6.3 2.5 10.9s2 8.6 1.7 8.8c-.6.6-10.1-12.2-11.8-15.9-.7-1.5-1.6-2.7-2.1-2.7s-1.6-1.6-2.4-3.6c-.9-2.1-2.2-4.3-3-5.1s-1.4-2.1-1.4-2.8c0-2.6-2.3-6.6-3.6-6.1-.7.3-1.7-1.3-2.4-4-.7-2.5-1.5-4.2-1.8-3.9-.4.3-1.8-1.8-3.2-4.7-1.5-2.9-3.3-5.3-4.1-5.3s-2.7-2.5-4.3-5.4c-2.2-4.2-3.1-5.1-3.5-3.8-.5 1.3-1.4.3-3.5-4-2.4-4.8-3-5.5-3.6-3.8-.6 1.8-.9 1.6-2.5-1.5-2.7-5.3-4.6-7.2-6.1-5.9-.9.7-1.4.2-1.9-2.1-.4-1.6-1.3-3-2-3-.8 0-1.7-.9-2-2.1-.5-1.5-1-1.8-2-.9-1.1.9-1.6.6-2.6-1.2-1.4-2.9-5-6.8-6.1-6.8-.4 0-.8 1.2-.8 2.6 0 3.8-1.9 1.9-2.6-2.7-.6-3.8-1.7-4.9-2.9-2.9-1 1.6-2.5 1.1-2.5-.8 0-1-.6-2.7-1.4-3.8-1.4-1.8-1.5-1.8-2.1-.2-1.1 2.7-2 2.2-4-2.2-2.5-5.5-4.4-7-5.2-4.1-.6 2.2-.6 2.2-2.4-.6C0 455.5 0 455.7 0 477.2c0 14 .4 21.8 1 21.8s.6.7-.1 1.9c-1.6 2.5-.5 4.9 2.8 6.3 3.8 1.6 3.9 1.8 2.3 2.8-1.2.7-1.1 1.2.4 2.9 1.1 1.2 2.5 2.1 3.3 2.1s1.2.4.9.9.9 1.2 2.7 1.6l3.2.8-3.5.6-3.5.7 5.2 2.7c2.9 1.5 6 2.7 7 2.7 1.3.1.9.5-1.1 1.7-3.5 1.9-2.4 2.7 4.7 3.7 4.2.6 4.7 1 3.6 2.2-1.5 1.8-.2 3 4.1 4 4.5 1 5.1 1.4 4.5 2.4-.8 1.2 4.7 4 8.1 4 1.9 0 2.5.4 2.1 1.5-.6 1.4 1.1 1.9 8.3 2.7 1.4.2 2.5.9 2.5 1.8 0 1.1 1.7 1.8 5.8 2.4 4 .6 5.7 1.2 5.3 2.1-.3.9 1.5 1.6 5.7 2.5 7.8 1.5 17 5.9 22.2 10.5l4 3.6-6.2-.6c-3.5-.3-8.9-1.5-12-2.6-3.2-1.1-6.7-2.2-7.9-2.4-1.1-.1-4-1.3-6.4-2.5-3.2-1.6-4.5-1.9-5-1-.6.9-2.1.4-5.4-1.9-2.5-1.8-5-3-5.5-2.6-.6.3-2.8-.2-5.1-1.1-2.2-.9-4.3-1.4-4.7-1.1-.3.4-2.3-.3-4.5-1.4s-4.9-1.8-6-1.6c-1.1.3-4-.2-6.4-1.1-3.8-1.4-4.6-1.5-5.4-.2-.6 1-1.2 1.1-2.2.3-2.1-1.7-8-2.7-8.7-1.4-.5.8-1.9.7-5-.4L.4 547c-.2 0-.4 5.2-.4 11.5v11.4l3.5.7c1.9.3 4.2.4 5 0 1.8-.6 1.9-.2.4 2.6-1 1.9-.8 2 5.5 1.6 6.2-.3 8 .2 5.6 1.7-1.6 1-1.1 2.5.8 2.5.9-.1 3.4-.7 5.5-1.4 3.5-1.3 3.7-1.3 3.2.5-.7 2.1.1 2.3 7.8 1 3.8-.6 4.7-.5 4.7.7 0 1.1.8 1.3 3.6.8 1.9-.4 4.2-1 5-1.3s1.4.1 1.4 1c0 1.4.5 1.4 4.9.1 2.7-.8 5.7-1.3 6.7-1.2 1.9.2 4.2-.3 17.7-4.3 6.8-2 17.7-3.7 17.7-2.7 0 .3-4.3 2.1-9.5 3.9s-9.5 3.6-9.5 4.1c0 .4-.8.8-1.9.8-2.6 0-8.3 2.1-7.6 2.9.4.3-1.5 1-4.2 1.6-3.4.8-4.8 1.5-4.7 2.7.1 1.1-1.2 2-4 2.7-4.8 1.3-7.3 2.7-6.3 3.7.3.4-1.7 2.1-4.6 3.8-2.8 1.7-5.2 3.8-5.2 4.7 0 .8-3.2 4.2-7 7.6-8.8 7.5-17.5 17-17.5 19 0 1.1.4 1.3 1.3.6.6-.6 3.8-3.1 6.9-5.6 6.5-5.2 13.7-9.6 16.6-10.2 1.1-.2 3.8-1.5 6.1-2.9 4.4-2.8 6.1-3.2 6.1-1.5 0 .6 1.7-.3 3.7-2 3.2-2.7 3.9-2.9 4.4-1.4.4 1.3 1 .9 2.7-1.9 1.9-3.1 4-4.8 5.8-4.8.2 0 .4.8.4 1.7.1 1.2 1.7.1 5-3.6 3.8-4.1 5-5 5-3.5 0 1.4 1 .7 4.1-2.9 2.3-2.7 4.7-4.6 5.4-4.3 1.6.6 4.6-2.7 7.6-8.4l2.4-4.5.7 38.9 1.1 39.3c.2.2 1.2 0 2.1-.3 1.6-.6 1.7-3.3 1-39.5-.4-22.8-.3-38.9.2-38.9s1.9 1.5 3.1 3.3c3 4.4 9.3 10.4 9.3 8.9 0-2.1 1.6-1.3 6.4 2.9 3.1 2.8 4.6 3.6 4.6 2.5 0-2.2 1-2 3.9.8 1.5 1.3 3.9 3.2 5.5 4.2l2.9 1.8-.8-2.3c-.6-2.1-.5-2.2 1.7-1.1 1.2.7 3.5 2.4 5.1 3.8 2.2 2.1 2.7 2.3 2.7.9 0-1.5.6-1.4 4 .8 4.6 2.9 5 3 5 1.1 0-1.2.9-1.1 4.8.6 2.6 1.2 6.2 2.3 8.1 2.5 3.2.4 14.8 5.7 22.1 10.1 4.7 2.9 5.5 2.8 3.1-.7-2-2.8-15.6-12.5-23.8-17.1-2.3-1.2-3.9-2.8-3.7-3.4.5-1.2-7.5-5.6-10.1-5.6-.8 0-1.2-.6-.9-1.4.6-1.5-2.3-2.6-7.2-2.6-2.3 0-3.3-.5-3.7-2-.4-1.6-1.4-2-5.1-2-2.5 0-4.6-.4-4.6-.9s-6.7-2.1-15-3.7c-10.6-2-14.5-3.1-13.3-3.8 1.4-.8 6.1-.6 22.8 1 2.2.2 8.4.5 13.8.7 7.7.2 9.7 0 9.7-1.1s1.2-1.2 5.7-.6c5.3.6 5.7.6 4.4-1-1.2-1.5-.7-1.6 5.8-1.6 7 0 8.2-.5 6-2.7-.9-.9.2-1 4.5-.6 5.8.6 6.6.1 4.1-2.7-1.4-1.6-1.2-1.7 2.7-1.6 2.4 0 5.6-.3 7.2-.7 2.7-.8 2.8-.9 1.3-2.5-1.6-1.5-1.3-1.7 3.5-2.9 6.1-1.6 6.6-1.9 5-3.5-1.8-1.8-1.5-2.8.8-2.8 1.1 0 3.7-.7 5.7-1.5 3.2-1.4 3.4-1.7 1.9-2.8-1.4-1.1-1-1.4 3.4-3 2.7-1 5-2.4 5-3.1s1.4-1.6 3.2-2c3.9-.8 17.4-7.5 19.1-9.4 1-1.2.1-1.3-6.1-.7-4 .4-10.5 1.5-14.5 2.5-4.6 1.2-7.4 1.4-7.8.8-.4-.7-1.4-.6-2.8.1-1.1.7-2.1.9-2.1.6s-1.8.4-4 1.5c-4.9 2.5-5.3 2.5-4.5-.1.6-1.9.3-1.8-4.7.8l-6 3.1c-.5.2-.8-.3-.8-1.1 0-1.2-.6-1.2-3.5.3-2 1-4.2 2.4-5 3-1.2 1-1.5.9-1.5-.4 0-2.1.1-2.1-5.4 1-2.5 1.4-5 2.3-5.6 1.9-.5-.3-3 .7-5.4 2.4s-4.6 2.7-5 2.4c-.3-.3-2.4.6-4.7 2.1-2.2 1.5-4.3 2.5-4.6 2.2s-2.8 1.3-5.4 3.5c-3.6 3-4.9 3.7-4.9 2.4s-1.1-.9-5 2c-2.7 2-5 3.4-5 3.1s-2.8 1-6.2 2.8c-8 4.3-18.9 7.9-20.1 6.7-2.1-2.1 1.1-16.2 5.7-25.4 2.4-4.8 4-8.7 3.5-8.7-1.6 0-1-1.8 2.2-7.1 2.3-3.7 2.9-5.3 2-5.9-.9-.5-.4-2 1.8-5.5 2.1-3.3 2.8-5.2 2.1-6-.6-.7-.6-1.5.1-2.2.5-.5 1.6-3.1 2.4-5.7 1.2-4 1.2-4.6 0-4.6s-1.1-.7.5-3.3c2.4-3.8 2.6-7.7.5-7.7-2 0-2-.2 1.5-6.3 1.7-3 3-5.7 3-6.1 0-.3-1.4.1-3.1 1-3 1.5-3.2 1.5-2.4-.2 1.4-3.6 3.5-10.7 3.5-12.2 0-1.2-.6-1-2.5.8-2.9 2.7-3.2 2.1-.9-1.5.9-1.4 1.2-2.5.8-2.5-.5 0-.8-2-.6-4.4.4-4.2.2-4.4-1.8-3.9s-2.1.4-1.1-1.6c.7-1.2 1.1-3.9.9-5.9-.2-3.1-.6-3.7-2.4-3.5-2 .2-2.1 0-.9-3.4 1.5-4.4.9-7.3-1.6-7.3-1.6 0-1.7-.4-.9-2.6 1.3-3.2 1.2-3.7 0-2.9-.6.4-1-.7-1-2.5 0-2.5-.4-3.1-1.5-2.6-1.2.4-1.4 0-.9-1.9.3-1.4.3-4.1 0-6-.5-2.6-1.1-3.3-2.3-2.8-1.4.5-1.5.1-1-2.6.4-1.8.4-4.4.1-5.7-.5-2.1-.9-2.3-2.2-1.2s-1.4 1-.8-.9c.4-1.2.2-2.4-.4-2.8-.5-.3-1-1.9-1-3.5 0-1.8-.7-3.3-1.8-3.9-1.4-.7-1.8-1.8-1.4-4 .3-2.3 0-3.1-1.1-3.1s-1.6-1.7-1.9-6.8c-.5-6.3-6.8-27.5-8.9-29.6-.5-.6-.6 6.6-.2 17.3z"/><use xlink:href="#B"/><use xlink:href="#C"/><use xlink:href="#D"/><path d="M534.2 429.2c5 8.9 12.6 19.5 14.5 20.2.9.4 1.2 1.3.8 2.6-.5 1.5 0 2.3 1.9 3.1 1.8.9 2.3 1.6 1.6 2.4s-.3 1.9 1.3 3.6c1.2 1.3 2.1 2.7 1.9 3.2-.1.4.5 1 1.4 1.4 1.1.4 1.2.8.4 1.3-1.7 1 .2 4.2 3.4 6 2 1 2.3 1.6 1.5 2.6s-.3 2.1 2.2 4.6c1.8 1.8 3.2 3.7 3.1 4.2-.2.5.4 1.6 1.3 2.6.8.9 1.2 2 .9 2.3-.4.4.6 1.2 2.2 1.8s2.3 1.3 1.7 1.6c-3.2 1.2 1.3 6.3 5.5 6.3h2.7l-2.3 1.9-2.4 1.8 3.2 2.6c1.7 1.5 3.8 2.7 4.6 2.7 1.7 0 1.9 1.7.2 2.3-1.9.7 4 6.2 7.7 7.2l3 .9-3.5.6-3.5.6 6.3 3.1c6.1 3 6.3 3.2 4.1 4.4-2.3 1.2-2.3 1.2-.4 2 1.1.4 3.7 1 5.8 1.4 3.1.5 3.7.9 3.2 2.4-.6 1.8 2.2 3.5 7 4.3 1.1.2 2 .9 2 1.6 0 1.8 4.4 4.1 7.9 4.2 2 0 2.7.4 2.3 1.5-.6 1.4 1.1 1.9 8.3 2.7 1.4.2 2.5.9 2.5 1.8 0 1.1 1.7 1.8 5.8 2.4 4 .6 5.7 1.2 5.3 2.1-.3.9 1.5 1.7 5.7 2.5 7.5 1.4 15 4.9 20.8 9.5 2.4 1.9 4.5 3.3 4.7 3.1.3-.4-9.5-14.5-12.7-18.3-1-1.1-2.4-3.6-3.1-5.5-.8-1.8-2-3.7-2.7-4.1S661 539 661 538c0-3.1-2.2-7.1-3.7-6.6-.9.4-1.7-.9-2.5-3.9-.7-2.4-1.5-4.2-1.9-3.9-.4.2-1.9-2.1-3.3-5.2-1.4-3-3-5.3-3.5-5-1.1.7-4.5-3.8-6.2-8-1-2.6-1.2-2.7-1.8-1-.6 1.5-1.3.8-3.6-4-2.2-4.5-3-5.4-3.5-3.9s-1.1 1-3.3-2.8c-3.2-5.4-4.6-6.5-5.8-4.6-.7 1.1-.9 1.1-.9-.3 0-.9-1.1-2.9-2.4-4.3-1.4-1.5-2.7-3.2-3-3.8-.5-.9-.8-.9-1.2 0-.8 1.7-2.4 1.7-2.4 0 0-.8-1.6-3.1-3.5-5.3l-3.4-3.9-.1 2.7c0 3.8-1.7 3.5-2.5-.5-1-4.4-1.5-5-3.1-3.6-1.7 1.4-1.7 1.4-2.9-2.5-1.1-3.2-3.5-4.7-3.5-2.2 0 2.8-1.4 1.7-4.2-3.4-3-5.4-4.5-6.2-5-2.8-.3 2.1-.5 2-2.2-1.1l-1.8-3.5-1.3 2.4-1.3 2.3-2.4-3.9c-1.4-2.1-3.4-4.7-4.5-5.7-1.9-1.7-2.1-1.7-2.7 0-.6 1.5-1 1.3-3.2-1.2-1.9-2.2-2.7-2.6-3.1-1.6s-.9.8-1.8-1c-.8-1.3-2-2.4-2.8-2.4s-6.9-4.8-13.6-10.8c-6.6-5.9-12.2-10.7-12.5-10.7s1.3 3.3 3.6 7.2zm-146.1 62.3c-5 5.3-10 11.3-11.1 13.4-1.2 2.5-2.6 3.8-3.7 3.7-1.2 0-1.9.7-2.1 2.1-.2 1.3-.9 2.3-1.5 2.3-1.6 0-7.7 6.4-7.7 8.2 0 1-.2 1-.9-.1-1.3-2-2.9-.5-4.2 4-.8 2.6-1.5 3.5-2 2.7-1.1-1.8-4.6 1.6-5.4 5.2-.4 1.9-1.1 2.7-2 2.4-.7-.3-1.6.3-2 1.5-.3 1.2-1 1.9-1.5 1.6s-1.2.5-1.6 1.9c-.3 1.5-1.1 2.3-1.9 2-1.8-.7-4.5 3.5-4.5 7.1-.1 2.8-.2 2.9-1.4 1.2-1.3-1.7-1.5-1.7-3 .5-.9 1.2-1.9 3.7-2.2 5.5-.5 2.7-.9 3.1-2 2.2-.8-.7-1.6-1-1.8-.8-1 1.1-3.6 8.4-3.6 10.3-.1 2.1-.1 2.1-1.3-.2-1.8-3.1-2.5-2-3.3 5.1-.7 5.8-.8 6-2.2 3.9-2.4-3.7-3.2-2.5-2.5 3.9.6 5.6.5 6-1.3 5.7-1.6-.3-1.9.4-2.2 4.7-.2 3-.9 5.3-1.8 5.8s-1.4 2.5-1.4 5.7c0 3.1-.4 5-1.1 5-.8 0-1 1.8-.6 6 .5 4.2.3 5.9-.5 5.7-.7-.1-1 1.9-.9 6.2.2 4.7-.1 6.1-1 5.6-.9-.6-1 .7-.7 5.1.7 8.2-.8 17.9-3.9 24.4l-2.6 5.5-.9-3.5c-1.1-3.8-.5-30.4.7-33.3.5-1.2.3-1.7-.8-1.7-1.3 0-1.4-.5-.5-3.3.5-1.7 1.1-8.7 1.3-15.5.2-6.7.7-12.7 1-13.2.3-.6.1-1-.4-1-.7 0-1.1-2.3-1.1-5.5 0-4.3-.3-5.5-1.6-5.5-.8 0-1.2-.5-.9-1 .4-.6.8-3.1.9-5.5.2-3.3-.1-4.5-1.2-4.5s-1.3-1.3-1-6c.3-6.1 0-6.8-1.9-4.9-.7.7-1.2-1.2-1.6-6.2-.3-4-1.1-7.5-1.6-7.8-.5-.4-1.7-4.2-2.6-8.5-2.2-10.8-5.5-19.3-6.6-17.5-.5.8-.9 6.3-.8 12.4.1 6-.2 11.8-.6 12.7-.4 1-.5 3.8-.3 6.2.2 2.9 0 4.2-.6 3.6-2.2-2.2-2.9-.8-2.3 5 .5 5.5.4 6-1.5 6-1.8 0-2 .5-1.5 3.7.3 2.1.8 4.6 1.2 5.5.5 1.3.2 1.5-1.4 1.1-2.8-.7-2.8 2.6-.1 8.5l1.9 4.2-2-1.1c-3.4-1.8-3.6 0-.6 5.3 2.7 4.8 2.7 4.9.6 4.3-1.8-.6-2-.4-1.4 1.7.4 1.2 1.6 4 2.6 6 2.3 4.5 2.3 4.8.3 4.8-1.3 0-1.1.9 1.1 4.6 2.1 3.6 2.4 4.8 1.4 5.4-1 .7-.6 1.8 1.5 5 1.4 2.2 2.5 4.6 2.4 5.3-.2.7.7 2.6 1.9 4.3s2.3 3.7 2.5 4.5 1.8 3.5 3.6 6c3.8 5.6 8.5 15.5 8 17-.2.7-2.3-1.7-4.6-5.2s-5.4-7.8-6.9-9.5-3.6-4.6-4.5-6.3c-1-1.8-2.2-3-2.6-2.7-.5.3-1.8-1.5-3-4-1.4-2.9-2.8-4.4-3.8-4.2-.9.2-2.7-1.4-4.3-3.7-1.5-2.2-3.3-4-4.1-4s-3.5-1.9-6-4.2c-2.7-2.5-4.7-3.8-5.1-3.1-.4.6-4.6-1.5-10.8-5.6-11.3-7.5-17.4-10.5-21-10.6-1.9 0-.9 1.1 4.7 5 3.9 2.7 8.9 6.9 11.2 9.2 11.4 12 14 15.2 12.9 15.8-.7.5.2 1.6 2.3 3l3.8 2.7c.2.2-.2.8-.9 1.2-1 .6-.1 1.4 3.1 2.9 4.9 2.1 7 4.2 4.2 4.2-2.7 0-.1 2.3 5.6 5 4 1.9 4.8 2.6 3.5 3.3s-.3 1.5 4.6 3.8c4 1.9 5.9 3.3 5.1 3.8-1.6 1 4.4 3.9 9.8 4.7 2.2.4 4 .9 4 1.3 0 .3-15.6 5.1-34.8 10.5-42.8 12.3-39.5 11.1-38.3 13.5 1 1.8 1.3 1.8 10.3-.9 24.5-7.5 65.1-19 65.6-18.6.2.3-1.1 2.7-3 5.3-5.2 7.2-6.3 9.4-4.8 10.3.9.6.6 2.2-1.3 6.4-2 4.2-2.2 5.6-1.2 5.6 1.1 0 1 .8-.4 4.2-3.3 7.6-3.5 8.7-1.1 8.1 2.1-.6 2.1-.5.5 3.3-.9 2.2-2 4.3-2.6 4.8-1.5 1.6-1.1 2.6.7 1.9s1.8-.6-.2 6.4c-.5 1.7-.2 2.3 1 2.3 1 0 1.4.4 1.1 1-.3.5-.8 6.3-1 12.7-.3 8.4-1.1 14.3-2.8 20.5-1.3 4.9-2 8.8-1.6 8.8 2.2 0 7.4-12.1 11.9-27.8 1.2-4 2.5-7 2.9-6.7 1.2.7 1.9-1.4 2.7-7.5.4-2.7 1.1-5 1.7-5s.8-2.2.4-6c-.5-4.5-.4-5.9.6-5.7.7.1 1.1-.7 1-1.8-.2-1.1-.5-7.4-.8-14-.2-6.6-.7-15-1.1-18.8-.3-3.7-.4-6.7-.1-6.7 1.7 0 5.1 15 7.4 32.2.3 2.1.9 3.8 1.3 3.8.5 0 1.2 2.5 1.6 5.6.5 4 1 5.4 2 5 .9-.3 1.6 1.2 2.4 5 .9 4.3 1.5 5.3 2.4 4.5 1-.9 1.7.4 3.1 5.4.9 3.6 2 6.5 2.3 6.5.2 0 1.1-.8 1.8-1.8 1.2-1.5 1.3-1.2 1.4 2.3 0 2.2.7 5.1 1.4 6.4l1.4 2.4.6-2.1c.9-2.7 2.6-2.9 2.6-.2 0 2.3 3.1 9 4.1 9 .4 0 1.1-.5 1.4-1 .8-1.4 2.5-1.3 2.5.1 0 .7 1 2.7 2.1 4.6 2 3.2 2.2 3.3 4 1.7 1.1-.9 1.9-1.3 1.9-.7 0 .5 1.4 3 3.2 5.4 3 4.2 3.2 4.3 3.8 2 .5-2.2.6-2.1 3 1.5 1.4 2.2 3.4 4.3 4.6 4.8s3.3 2.8 4.7 5c2.6 4 13.7 15.7 13.7 14.3 0-1.7-5.4-14.8-8.2-19.6-1.6-3-3.1-6.5-3.3-7.7-.2-2.3-1.3-4.1-5.5-9.7l-2.2-2.7h2.3c2.1 0 1.9-.4-2.1-4.5-3.4-3.5-4.2-4.8-3.2-5.4 1.1-.6.4-1.8-2.6-4.9-2.3-2.3-3.7-4.4-3.1-4.7.5-.4-.7-2.6-2.7-5.1-2-2.4-3.3-4.4-2.9-4.4s-2.8-3.9-7.2-8.6c-4.3-4.8-7.8-9-7.7-9.3 0-.3-2-1.9-4.5-3.4-3-2-4-3.1-3.2-3.6.9-.6-.1-2-3.3-4.6-2.6-2.1-4.5-4-4.2-4.2.2-.3-1.3-2.1-3.5-4-4.6-4.2-13.3-16.9-12.5-18.2s9.8-3.1 15.4-3.1c4.3 0 14.3 1.9 18.5 3.5 1.2.5 1.7.2 1.7-1s.5-1.5 1.6-1.1c5.4 2.1 10.6 2.8 11.4 1.7.6-1 2-.9 6.5.5 3.9 1.2 6 1.5 6.2.8s2.5-.9 5.9-.6c3.3.3 5.9 0 6.3-.6s2.4-.7 5.3-.2c5.3.8 7.2.1 6.2-2.3-.5-1.4.1-1.4 6 .3 6.9 1.9 7.5 1.8 5.2-1.5-1.3-2-1.2-2 6.3-1.7l7.6.3-3-2.7c-1.6-1.4-2.3-2.4-1.5-2.2 5.7 1.9 6.2 1.9 5.6 1-.3-.5 1.2-1.2 3.4-1.6 4.2-.7 4.8-1.4 2.8-3.4-.9-.9-.3-1.2 3-1.2 2.2 0 5.3-.5 6.7-1.2 2.4-1.1 2.5-1.2.8-3.1-1.8-2-1.7-2 1.4-1.4 3.2.6 9.3-.8 9.3-2.2 0-.4-.5-1.2-1.2-1.9-1-1-.5-1.1 2-.6s3.2.3 3.2-.9c0-.8 1.1-1.8 2.5-2.1 1.6-.4 2.2-1.1 1.9-2.1-.5-1.2.2-1.5 2.9-1.5 3.2 0 10-3.9 7-4-2.9 0-1-2 2-2 1.7-.1 4.3-.7 5.6-1.4 2.3-1.3 2.3-1.4.5-2.4-1.7-1-1.6-1.1.9-1.2 1.5 0 2.7-.4 2.7-.8s1.4-1.3 3-1.9c1.9-.7 3-1.8 3-3.1 0-1.5.5-1.8 2.4-1.5 2.2.5 4-.9 4.1-3 0-.5 2.4-1.7 5.4-2.7 5.2-1.9 27.9-16.2 26.3-16.7-.4-.2-8.3 1.9-17.7 4.6-11.4 3.2-17.2 4.5-17.7 3.8-.4-.8-1.3-.5-2.6.6-2.3 2.1-3.2 2.2-3.2.2 0-1.4-.3-1.4-3 0-3.7 1.9-5 1.9-5 0 0-2.2-1.7-1.9-7.7 1.5-2.9 1.6-5.5 3-5.8 3s-.5-1.2-.5-2.6v-2.5l-2.7 2.1-2.8 2.2-.3-2.1c-.5-2.9-1.7-2.7-7.5 1.5l-5 3.6.5-2.6c.7-3.3-1.1-3.4-4.2-.1-2.7 2.8-4 3.2-4 1 0-2.4-1.2-1.8-4.8 2.2l-3.3 3.8.5-3.3c.3-1.8.1-3.2-.5-3.2-1.5 0-8.7 3.8-9.4 5-1 1.6-2.5 1.2-1.9-.5.8-1.9-1.9-2-3.6-.1-.6.8-1.7 1.3-2.5 1-.7-.3-2.2.7-3.4 2.2-2 2.5-2.1 2.6-2.1.5V617l-3.7 2c-2.1 1.1-4.9 2.8-6.3 3.8-2.3 1.6-2.4 1.6-1.7-.1.3-.9.3-1.7-.1-1.7-1.1 0-5.2 2.8-8.6 5.9l-2.9 2.6.7-3 .7-3-3.3 3.1c-4.9 4.6-8.6 6.6-9.1 5.1-.2-.7-2.5.4-6 3.1-3.1 2.3-5.7 3.9-5.7 3.5s-1.7 1-3.9 3.1c-2.7 2.6-4 3.4-4.4 2.4-.4-.9-1.9.1-4.9 3.2-2.4 2.5-4.7 4.4-5.2 4.2s-2.2.9-3.8 2.4c-1.5 1.6-3.4 2.9-4.1 3-.6.1-5.2 2.5-10.1 5.3-4.9 2.9-9 5-9.2 4.8-.6-.5 12.6-16.7 17.4-21.5 2.4-2.3 4-4.2 3.6-4.2s1.4-1.4 4-3c3.1-2 4.6-3.6 4.2-4.5-.3-.9.8-2.2 2.9-3.5 1.9-1.2 3.4-2.4 3.2-2.8-.1-.4 2-2.7 4.6-5.1 2.9-2.7 4.4-4.7 3.7-5.1s.9-2.6 4.2-5.5c4-3.6 4.7-4.6 2.8-4-2.1.6-1.7-.1 2.5-4.5 2.8-2.9 4.2-5 3.3-4.7-2.8 1-2.1-.6 2.2-4.8 4.4-4.3 4.9-5.5 2.3-5.5-1.3 0-1-.5 1-1.9 1.6-1 2.9-2.2 2.9-2.7-.1-.5.6-1.6 1.4-2.6 1.4-1.4 1.4-1.7-.1-2.5-1.5-.9-1.4-1.1.7-2.5 1.3-.9 3.1-3 4.1-4.7l1.8-3.1h-3.3l-3.3-.1 4.4-2.6c4-2.4 4.2-2.8 2.5-4-.9-.7-1.6-1.4-1.3-1.6.2-.2 1.6-1.1 3.2-2 3.3-2.1 3.5-3.7.5-3.7-2 0-1.8-.5 2-4.3 4.8-4.9 5.1-5.7 2-5.7-2.1 0-2.1-.1.7-3 2.2-2.3 2.5-3 1.2-3-3 0-2.7-1.8.8-6 3.8-4.5 4.4-7 1.9-7-1.2 0-1.1-.6.7-3.2 1.6-2.3 1.9-3.3 1-3.6s-.8-.9.5-2.3c.9-1.1 1.5-2.2 1.2-2.5-.4-.3 2.7-7.5 6.8-16l7-15.4c-.2 0-4.5 4.3-9.5 9.5z"/><path d="M971.1 488.1c-7.4 7.4-12.4 13.4-14.5 17.4-.9 1.7-2.4 3-3.3 3-1.1 0-1.9.9-2.1 2.2s-1.3 2.4-2.7 2.7a4.41 4.41 0 0 0-3.1 3.1c-.3 1.4-1 2.2-1.6 1.9-.5-.3-1.2.4-1.5 1.6-.4 1.6-.8 1.9-1.5.8-1.1-1.7-3.7 1.4-4.5 5.5-.4 2.1-.9 2.5-1.8 1.7-1.5-1.3-5.5 3.2-5.5 6.1 0 1.2-.5 1.6-1.4 1.3s-1.7.3-2.1 1.5c-.3 1.1-1.1 2-1.8 1.8-.6-.1-1.3.8-1.5 2.1-.3 1.6-.8 2.2-1.9 1.8-2.2-.9-4.2 2.2-4.3 6.4-.1 3.2-.2 3.4-1.5 1.6-1.3-1.7-1.5-1.7-3.4 1.5-1.2 1.9-2.1 4.5-2.1 5.8 0 2-.3 2.2-1.2 1.3-.7-.7-1.5-1.2-1.9-1.2-1 0-3.9 7.6-4 10.3v2.2l-1.1-2.3c-.6-1.2-1.4-2.2-1.8-2.2-.8 0-2 6-2 10.4v2.9l-2.6-2.4-2.6-2.4.7 6.3c.7 5.8.6 6.3-1.1 6-1.6-.3-1.9.5-2.2 4.9-.2 3.8-.7 5.3-1.8 5.3-1.4 0-2 3.4-1.5 8.7.1 1.5-.4 2.3-1.3 2.3s-1.4.6-1.2 1.2c.3.7.7 3.5 1 6.2.5 4 .3 4.7-.9 4.2-1.3-.5-1.5.4-.9 6.1.5 4.9.4 6.4-.4 5.9-.9-.5-1.2 1.8-1.2 8.7 0 9.3-1.6 17-4.7 23.1-1.2 2.2-1.7 2.6-2.3 1.5-1.2-2.3-2-16.1-1.1-20.7.5-2.3.5-4.2.1-4.2s-.2-2.7.5-6c1.1-5 1-6-.1-6-1.7 0-1.7.1-.1-4.6.7-2.4 1.2-8.6 1.2-15.9-.2-21.8-.3-23.5-2.1-23.5-.9 0-1.2-.5-.8-1.2 1-1.7.5-9.2-.7-9.6-.5-.2-.9-3.1-.9-6.5 0-4.7-.3-5.8-1.2-4.9-2 2-2.3 1.4-2.5-6-.1-4-.6-7.4-1.3-7.8-.6-.4-1.8-3.8-2.6-7.6-1.8-8.7-5.3-19.4-6.4-19.4s-1.7 11.6-1 19c.3 3.4.2 6.4-.2 6.6-.4.3-.8 3-.8 6.1 0 5-.1 5.4-1.7 4.2-1.5-1.3-1.6-.9-1.1 4.8.6 5.8.5 6.3-1.4 6.3-1.7 0-1.9.5-1.6 3.7.3 2.1.8 4.5 1.2 5.4.6 1.3.2 1.6-1.8 1.2-2.3-.5-2.4-.3-1.7 2.9.4 1.8 1.3 4.3 1.9 5.5 1.7 3 1.5 3.5-.8 2.8-2.9-.9-2.6 2.1.6 6.8l2.5 3.8-2.6-.7-2.5-.6 3 6.3c2.4 5.2 2.7 6.5 1.5 6.9s-1 1.3 1 4.9c2.9 5.1 2.9 5.1 1 5.1-1 0-.6 1.4 1.7 5 1.7 2.8 2.8 5.3 2.5 5.7-.4.3.5 2.2 1.9 4 1.4 1.9 2.7 4 2.8 4.7s1.9 3.9 4 7.1c3.7 5.5 8.1 15.3 7.3 16.1-.2.2-2.8-3.2-5.8-7.6-3-4.3-5.8-8-6.4-8-.5 0-1.9-1.9-3-4.2s-2.4-4-2.9-3.9c-.5.2-2-1.8-3.3-4.4-1.9-3.6-2.8-4.5-4.3-4-1.3.4-2 0-2.5-1.4-.9-3-4.5-7.2-5.6-6.5-.5.3-3.3-1.5-6.1-4.1-2.9-2.6-5.4-4.2-5.8-3.6-.3.6-4.1-1.3-9-4.6-11-7.3-18.6-11.3-21.6-11.3-2 0-.3 1.6 7.6 7.6 5.5 4.2 10.8 8.8 11.7 10.2.9 1.5 3.7 4.8 6.2 7.4 2.5 2.7 4 4.8 3.3 4.8-2.2 0-1.2 1.5 2.5 3.9 2.5 1.6 3.2 2.5 2.3 3.1-.9.5.2 1.4 3.2 2.8 4.9 2.1 7 4.2 4.2 4.2s.1 2.6 5.7 5.2c4 1.8 4.6 2.4 3.3 3.1s-.5 1.4 4 3.5c3.9 1.7 5.5 3 5.2 3.9-.7 1.7 4.1 3.9 10.4 4.9 2.3.4 3.8 1 3.3 1.4-.4.4-16.8 5.4-36.3 11l-36.2 10.7c-.4.2-.4 1.1-.1 1.9.8 2.1.6 2.2 41.2-9.7 18.9-5.5 34.6-9.8 34.9-9.5.3.4-.8 2.3-2.5 4.4-4.5 5.5-6.7 10.3-5.3 11.2.8.5.4 2.3-1.4 6.3-1.9 4.4-2.2 5.7-1.1 5.7s.8 1.2-1 5.2c-2.9 6.1-3.1 8-1 7.2 2.2-.9 1.9 2.4-.5 6.4-2.4 3.9-2.5 4.3-.4 3.5 1.2-.5 1.5-.2 1.1 1.3-1.6 5.3-1.8 7.4-.9 7.4.7 0 1 4.1.7 12.2-.3 11-1.8 19.7-5 29.3-.4 1.3.3.9 2.4-1.4s4.2-7.2 7-15.8c2.3-6.8 4.1-13.1 4.1-13.8a1.54 1.54 0 0 1 1.5-1.5c1.4 0 2.4-3.3 2.8-9.7.1-2 .7-3.3 1.5-3.3 1.1 0 1.2-1.3.7-6.1-.5-4.3-.4-6 .4-5.5 1.1.7 1-2.5-.2-29.9l-.6-12 1.8 4.5c1 2.5 2.2 6.5 2.5 9 1.9 13.1 3.9 23 4.6 23 .4 0 1.1 2.7 1.4 6.1.6 4.9 1 5.8 2.1 4.9 1-.9 1.4-.2 2 3.2.7 4.3 2.4 8.5 2.5 6 0-1.6 2-1.6 2 .1 0 .7.7 3.7 1.6 6.6 1.2 4.1 1.8 5 2.8 4.2 1.7-1.5 2.6-.4 2.6 3.3 0 1.7.5 3.8 1 4.6.9 1.3 1.2 1.3 2.5-.4s1.4-1.5 2.4 2.1c.6 2.1 1.7 4.7 2.6 5.8 1.4 1.9 1.6 1.9 2.9.2 1.4-1.7 1.5-1.7 2.1.5.4 1.3 1.7 3.6 2.7 5.1 1.9 2.6 2.1 2.7 3.8 1.2 1.6-1.5 1.8-1.4 2.9 1.4.7 1.6 2.3 3.9 3.7 5.2l2.4 2.2v-2.4c.1-2.3.1-2.3 1.2-.4 1.7 3.2 6 7.5 6.9 6.9.5-.2 1.5.8 2.3 2.3 1.7 3.4 9.8 12.9 13.1 15.5l2.3 1.8-1-3.7c-.5-2.1-3.1-8.2-5.8-13.5-2.6-5.3-4.6-9.9-4.2-10.2.3-.3-.2-1.4-1.1-2.4-1-1-1.5-2.1-1.2-2.4.3-.2-.9-1.7-2.5-3.3-3.6-3.4-3.8-4.5-.8-4.5 2 0 1.7-.5-2.2-4.5-3.1-3.1-4.1-4.8-3.3-5.3s0-2.1-2.7-5c-2.2-2.4-3.4-4.4-2.8-4.8.5-.4-.6-2.2-2.7-4.4-2.1-2.1-3.5-4.3-3.1-4.8.3-.5-1.2-2.6-3.4-4.6s-4-4-4-4.4-1.6-2.3-3.5-4.2c-1.9-1.8-3.3-3.6-3-3.8.3-.3-1.9-2.1-4.7-4-2.9-2-4.7-3.7-4-4 .6-.2-2.6-4.2-7.3-9-8.8-8.8-17.1-20.4-16.1-22.1.8-1.3 9.7-3.1 15.4-3.1 4.3 0 14.3 1.9 18.5 3.5 1.1.5 1.7.2 1.7-.8 0-1.3.7-1.3 6.1.1 4.9 1.2 6.3 1.2 6.9.2s1.9-.9 6.1.5c3.3 1.1 5.4 1.4 5.6.8.3-.7 2.9-.9 7-.5 4.4.3 6.4.2 6-.5-.5-.7 1.5-.9 5.8-.6 6.1.5 6.4.5 5.8-1.5l-.5-2.1 6.6 1.9c6.6 1.9 8 1.5 5.1-1.4-.8-.8-1.5-1.6-1.5-1.8s3.2-.2 7 0c7.2.4 9-.6 4.9-2.8-2.8-1.6-1.8-2.3 1.5-1.1 1.4.6 2.6.7 2.6.2s1.8-1.1 4-1.5c4.2-.7 4.8-1.4 2.8-3.4-.9-.9-.2-1.2 3.3-1.2 2.5 0 5.4-.6 6.4-1.4 1.7-1.2 1.8-1.6.5-3.2-1.4-1.6-1.3-1.7 1.4-1 2.8.7 9.6-.9 9.6-2.3 0-.4-.5-1.2-1.2-1.9-1-1-.5-1.1 2-.6s3.2.3 3.2-.9c0-.8 1.1-1.8 2.5-2.1 1.6-.4 2.2-1.1 1.9-2.1-.5-1.1.2-1.5 2.6-1.5 4.5 0 7.2-1.7 6.5-4.1-.5-1.6-.1-1.9 2.5-1.9 4.6 0 7.5-1.7 5.9-3.6-.9-1.1-.7-1.4 1.5-1.4 1.5 0 2.5-.4 2.2-.8-.3-.5 1.1-1.4 3-2.1 2.1-.8 3.4-1.9 3.4-3 0-1.4.6-1.7 2.5-1.3 1.9.3 2.7-.1 3.3-1.8.5-1.3 2.3-2.8 4.5-3.5 3.9-1.3 16.6-8.4 20.6-11.4 1.3-1 2.2-2.4 2-3.3-.3-1.2-3-.7-15.4 2.8-8.2 2.3-15.1 3.9-15.3 3.4s-1.4-.2-2.8.6c-2.2 1.5-2.4 1.5-2.4 0s-.3-1.5-3-.1c-3.7 1.9-5 1.9-5 0 0-2.2-1.7-1.9-7.7 1.5-2.9 1.6-5.5 3-5.8 3s-.5-1.2-.5-2.6v-2.5l-3 2.1-3 2.1v-2.6c0-2.5-.1-2.5-2.9-1.1-1.6.9-4.3 2.7-6 4.2l-3.1 2.6v-2.6c0-3.3-.7-3.3-4.2.1-2.7 2.6-2.9 2.6-4.2.8-1.2-1.7-1.4-1.6-3.6 1.3-3.1 4.2-5.3 5-3.9 1.5.5-1.4.7-2.8.4-3.1-.7-.7-8.2 2.8-9.6 4.5-1.7 1.9-2.9 1.6-2.9-.9v-2.1l-2.3 2.1c-1.3 1.2-2.7 1.9-3 1.5-.4-.3-2 .6-3.7 2.2-2.7 2.6-2.8 2.6-2.3.5.6-2.2.6-2.2-2.8-.5a82.19 82.19 0 0 0-6.1 3.6c-3.2 2.3-3.9 2.4-3.1.3.5-1.4.3-1.5-1.8-.4-1.3.7-3.9 2.6-5.8 4.4l-3.4 3.1.7-2.9.7-2.9-3.6 3.1c-4.6 4.1-9.2 6.5-9.7 5.1-.2-.6-2.7.8-5.6 3-2.9 2.3-5.2 3.8-5.2 3.4s-1.7 1-3.9 3.1c-2.7 2.6-4 3.4-4.4 2.4-.4-.9-2 .2-5.1 3.3-2.5 2.6-4.7 4.4-5.1 4.1-.3-.3-1.9.8-3.6 2.4-1.6 1.6-3.5 2.9-4.2 2.9s-3 1.2-5.2 2.6c-6.2 4.1-14.8 8.2-13.9 6.7 1.5-2.5 11.1-14.3 12.7-15.7 1-.7 1.7-1.9 1.7-2.5s1.6-2.2 3.5-3.5c2-1.3 3.3-2.6 3-2.9-.2-.3 1.6-1.8 4-3.3 4.4-2.8 5.8-4.9 3.3-4.9-.7 0 .5-1.2 2.7-2.5 2.2-1.4 4-2.8 4-3.3 0-.4 1.9-2.5 4.3-4.6 2.4-2.2 4.1-4.5 3.8-5.2s1.5-3.1 4-5.3c4.6-4.3 5.5-5.7 2.9-4.7-2.4.9-1.8 0 3.3-4.9 2.6-2.6 3.9-4.4 3-4.1-2.7.8-2.2-.2 2.4-5.2 3.6-3.9 3.9-4.6 2.4-5.2-1.5-.5-1.4-.8.8-2 1.4-.7 2.6-1.8 2.6-2.3 0-.6.7-1.9 1.6-2.9 1.6-1.6 1.5-1.8 0-2.4-1.4-.5-.9-1.4 2.6-5.3l4.3-4.6-3.5-.5-3.5-.6 4.4-2.3c4.2-2.2 4.4-2.4 2.6-3.7-1-.8-1.7-1.5-1.4-1.7.2-.2 1.6-1.1 3.2-2 3.2-2 3.5-3.7.7-3.7-1.1 0-2-.2-2-.4s1.8-2.2 4-4.4c4.5-4.5 5.1-6.3 1.8-5.5-2.3.6-2.3.6.2-2.1 2.1-2.3 2.2-2.9 1-3.6-.8-.5-1.9-1-2.3-1-.5 0 1-2.1 3.2-4.6 4.3-4.9 5.2-7.4 2.5-7.4-1.3 0-1.1-.6.7-3.1 1.6-2.2 1.9-3.3 1-3.8-.9-.6-.8-1.1.3-2 .8-.7 1.3-1.8 1-2.6-.3-.7 2.9-8.1 7-16.4 4.2-8.3 7.5-15.1 7.3-15.1s-3.2 2.8-6.6 6.1z"/><path d="M93.4 644.4c.3 2.9 2.4 10.9 4.7 17.7 2.6 7.8 3.7 12.5 3 12.7-1.1.4 1.9 7.3 4.7 10.4.9 1.2 1.1 1.8.4 1.8-2.1 0-1.3 1.9 2.3 5.8 2.2 2.5 3.1 4.2 2.5 4.8-.7.7.2 2.2 2.5 4.4 1.9 1.9 3.5 3.8 3.5 4.3 0 .6 1.6 2.8 3.5 5.1 10.1 11.7 16.5 19.6 16 19.6-1.7 0-9.8-6.5-14.3-11.4-2.8-3.1-5.4-5.6-5.9-5.6s-2.2-1.8-3.9-4c-1.6-2.2-3.4-3.8-4-3.6-.6.3-2.9-1.3-5-3.5-2.7-2.7-4-3.5-4.6-2.6-.5.8-1.9.1-4.7-2.7-3-2.9-4-3.4-4.3-2.2-.2 1.2-1.6.5-6-3-5.3-4.1-5.8-4.4-5.8-2.4s-.4 1.9-4.2-1.6l-4.3-3.9-.3 2.8-.3 2.7-3.7-2.9c-5.1-3.9-7.2-4.5-7.2-2.1s.3 2.4-4.8 0c-2.2-1.1-4.6-2-5.2-2-.5 0-1 .9-1 2 0 2.4-.4 2.4-3.3.6-1.2-.8-3.7-1.7-5.6-2.1-3-.6-3.3-.5-2.7 1 .5 1.4.3 1.6-1.1 1-1-.4-3.8-.9-6.3-1.1-2.5-.1-7.3-1.2-10.7-2.3-5.9-2-17.3-3.9-17.3-2.9 0 .9 10.6 7.6 17.9 11.2 3.9 2 6.9 4.1 6.6 4.6-.3.6 0 1 .8 1s2.8.7 4.3 1.5c1.6.8 4.1 1.5 5.7 1.5 3.1 0 3.4.8 1 2.5-1.5 1.1-.9 1.5 4.5 2.5 4.3.9 6.2 1.7 5.8 2.5-.5 1.4 7.8 4 9.5 2.9.6-.3.9.2.7 1.2-.2 1.6.6 2 5 2.8 3.3.6 5.2 1.4 5.2 2.2 0 1 1.5 1.4 5.5 1.4 3 0 5.5.4 5.5.9s2.3 1.2 5 1.6c2.8.4 5 1.1 5 1.6 0 .6 2.4.7 6.2.3 5.3-.6 6-.5 5.5.9-.5 1.2.4 1.6 4.6 2 12.5 1.2 31.4 6.7 32.4 9.5 1.4 3.5-17 16.9-26.7 19.5-1.2.3-1.8 1.1-1.5 1.9.4 1-1.2 2-5.2 3.5-3.8 1.3-5.7 2.6-5.5 3.5.1.9-1.7 2-5.3 3.2-3 .9-5.5 2.3-5.5 3s-2.1 2.4-4.7 3.8c-2.8 1.5-4.7 3.1-4.7 4 .1 1-1.5 2.3-3.7 3.4-4.6 2-7.1 4.5-5.1 5.1 2.4.9 1.1 2.1-4.9 4.3s-6.7 3.5-2 4.2c2 .3 1.5.8-3.8 4.2-3.4 2.2-6.1 4.3-6.1 4.8 0 .4 1.5.8 3.3.9l3.2.1-3.5 1.3c-1.9.7-3.1 1.4-2.6 1.4.6.1-.5 1.7-2.4 3.6-3.4 3.5-3.4 3.6-1.2 4.2l2.3.6-2.6 1.7c-1.5 1-3.6 3.1-4.6 4.6l-1.8 2.8 2.7 1.2c2 .9 2.2 1.3.9 1.3-2 .1-7.7 5.3-7.7 7 0 .6.8 1.1 1.8 1.1 1.3.1 1.1.5-1.1 2.1-1.5 1.1-2.4 2.5-2.1 3.1.3.5-.2 1.8-1.1 2.8-1.5 1.7-1.6 2-.3 2.5 1.2.5.7 1.4-1.8 3.9-3.5 3.5-4.4 6.6-2 6.6.8 0 0 1.4-2 3.4-3.7 3.7-4.3 5.6-1.7 5.6 1.5 0 1.4.2-.3 1.4-1 .8-1.6 1.8-1.2 2.2.4.3-.2 1.8-1.2 3.2-2.2 2.8-2.6 5.2-.9 5.2.7 0-.1 1.2-1.6 2.6-2 1.8-2.4 2.9-1.7 3.6.8.8.3 2.3-1.7 5.2-1.5 2.3-3.4 5.2-4.1 6.5-1.9 3.8-9.1 24.3-8.2 23.8.4-.3 5.7-6.9 11.7-14.6 6.1-7.8 11.5-13.8 12.2-13.6s1.6-.7 1.9-2c.7-2.7 2-3.3 2.7-1.3.2.7 1.2-.3 2.2-2.2 2.3-4.6 2.5-4.7 3.5-3 1.3 2.1 3.4-.1 6-6.1 2-4.8 2.2-5 3.9-3.5 1.7 1.6 1.9 1.5 3.1-1.5 1.2-2.9 1.4-3 2.7-1.3.7.9 1.5 1.6 1.7 1.3 1-1.1 3.4-6.7 4-9.4l.8-3 1.7 2.4c1.6 2.1 1.9 2.1 2.4.6.4-.9.7-2.4.7-3.3s.4-2.3.9-3.1c.8-1.2 1.2-1.2 2.5-.2 1.4 1.2 1.6.9 1.7-2 0-1.9.4-4.3.9-5.4.7-1.9.9-1.8 1.9.7.6 1.6 1.3 2.8 1.6 2.8.4 0 1.9-2.8 3.4-6.1 1.7-3.7 3.1-5.7 3.5-5 1 1.6 2.6.4 2.6-2 0-1 .7-1.9 1.5-1.9 1.1 0 1.5-1.1 1.5-3.8.1-3.4.2-3.6 1.5-1.8 1.4 1.8 1.6 1.6 4-3.5 1.3-3 2.5-6 2.5-6.8 0-1.1.3-1 1.3.3 1.2 1.6 1.5 1.3 3-3.4.9-2.9 1.7-6 1.7-6.9.1-1.1.5-.8 1.5.9 1.1 1.9 1.4 2.1 1.5.8 0-3.2 4.1-12.8 5.3-12.5.7.1 2.1-2.6 3.2-6.1s2.4-6 2.8-5.6.7-.9.7-2.9c0-4.6.8-6.7 2.4-6.1 1.4.5 2.6-3.5 2.6-8.7 0-1.6.4-2.9 1-2.9.5 0 1.2-1.7 1.6-3.8.4-2 1.2-4.4 1.9-5.2.6-.8 1.8-3.1 2.5-5 2.1-5.6 7.1-15.2 7.6-14.8.2.3 0 5.8-.6 12.3l-.8 12.4c.3 1.5-1.6 10.9-2.8 13.8-1.6 3.8-1.8 6.7-.4 5.8 1.3-.8 1.3 1.1 0 3.6-.6 1.1-1.2 3.4-1.4 5.2-.2 1.7-.7 5.3-1.1 7.9-.5 3-.4 4.8.2 4.8 1 0 .2 7.5-1.3 11.5-.6 1.6-.5 1.8.7.7 2-1.9 2.9-1.4 2 1-.4 1.3-1.1 4.1-1.5 6.2-.7 3.5-.6 3.8.8 2.7 1.4-1.2 1.5-.6.9 5.3-.5 6.1-.5 6.6 1.2 6 1.3-.6 1.6-.4 1 .6-.4.7-.9 3.5-1 6.2-.2 4.2 0 4.8 1.5 4.3 1.6-.5 1.7-.2.8 3.7-.5 2.3-.6 5.3-.3 6.6l.6 2.5 2.5-2.3c2.8-2.7 3-2.3.9 2.7-.8 1.9-1.5 3.7-1.5 3.9s.7.4 1.5.4c1.8 0 1.8.7.4 4.9-1.3 3.7-.6 5 1.6 3.1 2.2-1.8 2.6-.9 1.5 3.1-.6 1.8-1 4.6-1 6.2 0 2.5.2 2.7 2.1 1.6 2-1 2.1-.9 1.7 2.1-.4 2.8-.3 3.1 1.7 2.6 2.1-.5 2.2-.2 2.1 6.2-.1 5.8.1 6.7 1.7 6.4 1.4-.2 1.7.4 1.7 3.4 0 2.8.3 3.5 1.5 3.1 1.1-.5 1.3 0 .8 2.5-.4 2-.2 2.9.4 2.5s2.1 5.7 3.8 16.3c1.5 9.4 3 16.8 3.3 16.5 1.2-1.2 3.1-15.9 3.1-24.8.1-5.7.5-9.7 1.1-9.7 1.3 0 1.3-3.7-.1-4.5-.6-.5-.4-1.1.7-1.9 1.3-1 1.5-2.1 1.1-4.4-.4-2-.2-3.2.4-3.2s.8-.9.4-2c-.4-1.4-.2-2 .7-1.8 1.4.3 1.6-2 .5-6.5-.6-2.1-.4-2.7.8-2.7 1.7 0 2-3.6.5-7.4-.7-1.9-.6-2.6.3-2.6 1.3 0 1.7-6.7.5-8.6-.5-.7.1-1.4 1.3-1.7 1.8-.5 2-1.1 1.4-3.4-.3-1.5-1.3-3.5-2.1-4.4-1.9-2.1-1.8-2.8.6-2.2 1.7.5 2 0 2-2.9 0-1.8-.7-4.4-1.6-5.6-1.4-2.1-1.4-2.2.7-2.2 1.8 0 2-.4 1.4-2.8-.4-1.5-.8-3.5-.9-4.4-.1-1-1.1-2.7-2.2-3.9l-1.9-2.2 3.3 1.7c1.7.9 3.2 1.4 3.2 1s-1.3-3.2-2.9-6.3l-2.9-5.7 3.1.4 3.1.5-4.2-4.9c-3-3.6-3.8-5-2.7-5.2 2.1-.5 1.9-2.2-1-6.4-1.6-2.4-2.1-3.8-1.3-4 .8-.3.2-2.1-1.7-5.4-1.6-2.7-2.8-5.4-2.7-6s-1.4-2.9-3.3-5.1c-2.1-2.5-3.1-4.4-2.5-4.8s-.6-2.5-3-5.2c-2.8-3.3-3.7-4.9-2.8-5.4.8-.5.1-1.9-2.4-4.7-5.1-5.6-8.5-11.8-10.2-18.7-2.6-9.8-2.2-10.7 2.5-5.5 4.4 5 13.5 18.3 16.7 24.5 1.2 2.2 2.1 3.4 2.2 2.7.1-2.9 1.7-.8 2.9 3.9.7 2.8 2 5.3 2.8 5.6.7.3 2.3 2.3 3.4 4.4 1.1 2.2 2.3 3.9 2.7 3.9.5 0 1.9 2.2 3.2 4.9 1.2 2.7 2.8 4.7 3.4 4.5s2.4 1.7 3.9 4.2c2.3 3.8 3 4.4 4.2 3.4s1.5-.9 1.5.4c0 2.5 4.9 8.6 6.4 8 .7-.3 2.7 1.8 4.6 4.8 3.1 4.9 3.4 5.1 3.9 2.9l.7-2.4 1.9 2.9c2.6 4 7.5 8.8 8.2 8 .3-.3 3.5 2.2 7.1 5.6 6.3 5.8 15.1 12.2 15.9 11.4.7-.7-5.8-10.8-10.3-16.2-2.4-2.8-4-5.4-3.7-5.8.3-.3-.8-2.4-2.6-4.6-2.3-2.9-2.8-4-1.6-4 2.3 0 1.9-1.2-2-5.8-3.2-3.7-3.4-4.2-1.8-5.1 1.6-1 1.4-1.5-2.4-5-3.7-3.7-3.9-4.1-2.1-4.7 1.9-.6 1.9-.6-.4-3.1-1.2-1.4-3.9-3.3-5.8-4.4-2.9-1.5-3.1-1.8-1.3-1.9 5.1-.1 3.3-3-3.3-5.4-3.8-1.4-3.9-1.4-1.4-2.3l2.4-1-2.4-1.3c-7.1-3.8-10.3-6.2-9-7 1-.6 0-1.5-3.3-3.1-2.7-1.3-4.6-2.9-4.4-3.7.1-.8-1.5-2.1-4-3.1-2.3-.9-4.8-2.4-5.5-3.3s-3.1-2.1-5.3-2.8-4.2-1.6-4.5-1.9c-.3-.4-3.2-1.7-6.5-3-5.8-2.1-15.9-8-15.2-8.7.3-.3 14.4 3.9 22.2 6.7 1.7.6 4.6 1.5 6.5 1.9s5 1.4 6.9 2.2c2.6 1 3.5 1 3.8.1s1.8-.7 5.4.7c6 2.4 5.9 2.4 5.9.5 0-1.2.4-1.3 1.9-.5 2.6 1.3 12.4 1.3 11.6 0-.4-.6 2.1-1 6.7-1 10.1 0 24.5-1.8 27.5-3.4 2.3-1.1 1.1-1.3-10.6-1.9-8.1-.4-14.4-1.2-16.4-2.1-1.8-.8-5.5-1.8-8.4-2.1-3.9-.5-5-1-4.6-2.1s-.5-1.4-4.1-1.4-4.4-.3-4-1.5c.5-1.3.2-1.4-2.1-.5-1.4.5-4.2 1-6.2 1-3.2 0-3.4-.2-2.2-1.7 1.3-1.5.9-1.6-4.1-1-3 .3-6.4.9-7.5 1.3-1.6.6-1.8.5-.7-.7 2-2.2 1.4-2.8-2-1.9-7.4 1.8-9.8 2-9.8.6 0-1.6-4.9-.8-11.3 1.9-2 .8-3.7 1.3-3.7 1 0-.2 9.3-12.3 20.6-26.7l23.7-30.1c2.4-3.2 2.8-4.1 1.6-4.8-.8-.5-1.6-.9-2-.9-.3 0-11.2 13.7-24.4 30.5-13.1 16.8-24.1 30.3-24.4 30s-.4-2.6-.2-5.1c.4-6.6-.8-12.6-2.4-12-1 .3-1.7-1-2.4-4.5-.6-2.8-1.1-5.7-1.1-6.6 0-1.2-.3-1.3-1.4-.4s-1.5.4-2-2.6c-.4-2.1-1.2-5-1.8-6.6-1-2.5-1.2-2.6-2.3-1-1.2 1.6-1.3 1.5-1.8-.3-.3-1-.9-3.6-1.2-5.6-.5-2.3-1.2-3.5-1.9-3.2-.8.3-1.8-1.1-2.6-3.6-1.3-4-2.5-5-3.2-2.9-.2.6-1.7-1.3-3.3-4.2-1.5-3-3.4-5.8-4.2-6.2-1.6-1-8.3-14.1-10.8-21.5-2.5-6.8-4-6.7-3.1.2z"/><path d="M673.3 644.8c.4 3.2 2.5 11.1 4.7 17.6 2.6 7.4 3.7 12.1 3.1 12.5s.1 2.8 1.8 6.2c1.5 3 2.5 6.1 2.3 6.8s1.2 2.9 3.2 5c2.5 2.6 3.3 4 2.5 4.8-.7.7 0 2 2.5 4.4 2 1.8 3.6 3.8 3.6 4.4s1.4 2.4 3 4c1.7 1.6 3 3.3 3 3.8s3 4.3 6.6 8.4c3.7 4 6.4 7.6 6.2 7.9-.9.8-10.2-6.8-14.3-11.7-2.2-2.6-4.5-4.8-5.1-4.8-.6-.1-2.5-1.9-4.3-4.1s-3.6-3.8-4-3.6c-.4.3-2.5-1.3-4.6-3.4-2.8-2.8-4.1-3.6-4.7-2.7-.5.8-1.9 0-4.8-2.8-2.2-2.1-4-3.4-4-2.7 0 2.1-2.1 1.3-7.1-2.9-4.5-3.7-4.9-3.9-4.9-1.9 0 2.1-.3 2-4-1.4-4.8-4.3-5.9-4.5-5.2-.9l.5 2.8-2.4-2.1c-2.2-2-8.1-5.4-9.4-5.4-.3 0-.5.9-.5 2v2l-4-2c-4.9-2.5-5.6-2.5-6.3 0-.5 1.8-.7 1.8-3.3.5-1.6-.7-4.2-1.7-5.8-2.1-2.5-.6-2.8-.5-2.2 1.4.7 2.1.6 2.1-2.8.7-2-.8-5-1.5-6.8-1.4s-6-.8-9.2-2c-3.3-1.2-8.5-2.4-11.5-2.7l-5.6-.6 3 2.5c1.7 1.4 7.2 4.8 12.2 7.4 5.1 2.6 9.3 5.4 9.3 6 0 .7.6 1.3 1.4 1.3.7 0 2.7.7 4.2 1.5 1.6.8 3.8 1.5 5 1.5 2.9 0 3.7 1.1 1.7 2.6-1.5 1-.9 1.4 4.5 2.4 4.3.9 6.2 1.7 5.8 2.5-.5 1.5 7.8 4 9.6 2.9.6-.4.8.1.4 1.4-.6 1.8-.1 2 4.9 2.7 3.8.4 5.5 1.1 5.5 2.1s1.3 1.4 4.9 1.4c2.8 0 5.2.4 5.5.9.4.5 2.9 1.2 5.6 1.6 2.8.4 5 1.1 5 1.6 0 .6 2.4.7 6.2.3 5.3-.6 6-.5 5.5.9-.5 1.2.4 1.6 4.6 2 12.5 1.2 31.6 6.8 32.5 9.6.8 2.3-10.2 11.7-18 15.5-4.1 2-8.3 3.6-9.2 3.6-1.2 0-1.6.5-1.2 1.8.5 1.4-.6 2.1-5.2 3.8-3.8 1.4-5.6 2.6-5.4 3.6.1 1-1.6 2-5.7 3.3-4.1 1.2-5.8 2.2-5.4 3.1.3.8-.6 1.8-2.2 2.4-4.4 1.7-8.8 5.2-7.6 6 .7.4-.5 1.4-2.9 2.5-5.1 2.3-6.9 4.3-5 5.5 1.8 1.1 1.7 1.2-5.3 4-5.8 2.3-6.3 3.5-1.7 4.2 2.4.3 2.3.5-1.5 2.6-4.2 2.3-8.5 5.6-8.5 6.6 0 .3 1.5.6 3.3.7l3.2.1-3.2.9c-1.8.5-3.2 1.3-3.1 1.7.2.4-1 2-2.5 3.6-2.8 3-2.8 4.6.1 4.6 1.1 0 .5.7-1.5 2-1.8 1-3.9 3.2-4.7 4.8-1.5 2.8-1.4 3 .7 3.6s2 .7-1 2.1c-3.8 1.6-6.5 6.2-4.5 7.4.9.5.7 1.2-.7 2.5-1.1 1-1.7 2.3-1.5 3 .3.7-.2 1.9-1.1 2.6-1.1.9-1.2 1.6-.4 2.6.8.9.5 1.5-.9 2.3-2.6 1.4-5.1 7.3-3.4 7.9.8.2.2 1.6-1.8 3.8-3.4 3.9-3.8 5.4-1.3 5.4 1.5 0 1.5.1-.1 1.3-.9.7-1.6 1.7-1.4 2.2.1.6-.6 2.2-1.6 3.7-1 1.6-1.5 3.5-1.2 4.4.4 1-.3 2.3-1.6 3.4-1.8 1.4-2 2.1-1.1 3.1.9.9.7 1.9-1.1 4.3-1.3 1.7-3.3 4.9-4.4 7.1-2.7 5.4-9.4 23.6-8.9 24.1.2.2 5.5-6.1 11.8-14.1s11.9-14.3 12.6-14.1c.6.3 1.4-.7 1.7-2.1.5-1.9 1-2.2 2-1.4.9.8 1.7.2 3-2.5 1.4-3.1 1.9-3.4 3.2-2.3 1.9 1.6 3.5-.1 6.5-7 1.9-4.2 2-4.3 3.8-2.7 1.8 1.7 2 1.6 3.2-2.1 1.1-3.6 1.3-3.7 2.2-1.5.6 1.2 1.4 2.2 1.8 2.2s1.8-2.8 3-6.1c2.1-5.6 2.4-6 3.6-4.3 1.2 1.6 1.5 1.7 2.3.4.5-.8 1-2.7 1-4.3 0-2.9 1.7-3.6 3.8-1.5.9.9 1.2.3 1.2-2.8 0-5.2 1.6-7.8 2.5-4.1.4 1.5 1.1 2.7 1.5 2.7.7 0 4.4-6.9 5.5-10.5.6-1.9.7-1.9 2-.2 1.2 1.7 1.4 1.6 2-1.2.4-1.7 1-2.9 1.5-2.6 1 .6 2-1.9 2-5.3.1-2.5.2-2.6 1.4-.9 1.4 1.9 1.7 1.5 6.4-9.3.8-1.8 1.1-2 1.1-.8.2 3.8 2 1.5 3.7-4.8 1.6-6.1 1.8-6.4 3-4.3 1.1 2.2 1.2 2.1 1.8-1.7.9-4.6 4.1-11.1 5.2-10.4.8.6 3.2-5.5 3.3-8.6.1-1.2.8-2.4 1.6-2.8 1-.4 1.5-2 1.5-5.1 0-3.8.3-4.5 1.7-4.3 1.8.3 3-2.6 3.2-8 .1-1.7.5-3.2 1-3.2.6 0 1.3-2 1.7-4.5.3-2.5.9-4.5 1.3-4.5s2.7-4.5 5.1-10c2.5-5.5 4.7-10 5-10 .7 0-.7 24.4-1.7 29l-.8 5.5c-.1 1.1-.7 3.3-1.4 4.8-1.4 3.5-1.4 6-.1 5.2s1.3-.3-.1 3.2-1.9 7.4-2.2 18.3c-.2 4.7-.7 9.6-1.1 11-.8 2.3-.8 2.4.9 1s1.8-1.3 1.2 1l-1.3 6.5c-.6 3.5-.5 3.9.8 2.7 1.4-1.1 1.5-.5 1 5.3-.4 5.9-.3 6.5 1.3 5.9 1.4-.6 1.6-.4.7 1.2-.5 1-1 3.8-.9 6.2 0 3.6.2 4.2 1.8 3.7s1.7-.2.8 2.7c-1 3.8-1.2 9.8-.2 9.8.3 0 1.5-.7 2.5-1.7 2.2-2 2.4-.3.3 3.7-1.5 2.9-1.5 3 .6 3 1.8 0 2 .4 1.4 2.2-1.5 5-1.7 6.8-.7 6.8.6 0 1.4-.5 1.7-1 1.4-2.2 2.3-.8 1.4 2.2-.5 1.8-.9 4.8-.9 6.7 0 2.7.3 3.2 1.2 2.3 2.1-2.1 3-1.3 2.3 1.9-.7 3-.6 3.1 1.6 2.6 2.4-.6 2.4-.5 2.1 6.4-.4 6.8-.3 7.1 1.7 6.4 1.9-.6 2.1-.2 2.1 3 0 2.2.4 3.4 1 3s1 .6 1 2.4c0 1.6.4 3.1.9 3.3.5.1 2.1 7.5 3.5 16.3l3 16.2c1.1 1.1 3.1-14 3.1-23.4 0-8.4.3-11.3 1.3-11.3 1.5 0 1.6-3.6.1-4.5-.6-.5-.4-1.1.7-1.9 1.3-1 1.5-2.1 1.1-4.4-.4-2-.2-3.2.6-3.5.9-.3.8-.9-.3-2.2-1.4-1.7-1.3-1.8.4-1.2 1.7.7 1.8.4 1.3-4.2-.4-3.8-.2-5.1.9-5.5 1.7-.6 1.8-3.9.3-6.8-.7-1.3-.7-2.3-.2-2.7 1.6-1 2.4-7.3 1.2-8.7-.9-1.1-.8-1.4.5-1.4 2.5 0 2.1-5.9-.6-8.8l-2.3-2.4 2.8.7c2.5.7 2.7.5 2.7-2.1 0-1.6-.7-4.1-1.4-5.7-1.4-2.5-1.3-2.7.5-2.7 1.6 0 1.9-.5 1.4-2-.4-1.1-.8-3.1-.9-4.5s-1.1-3.4-2.2-4.6l-1.9-2.2 3.3 1.7 3.3 1.7-1.6-3.8c-.9-2.1-2.3-4.8-3.1-6-1.9-3-1.9-3 1.8-2.5l3.2.5-4.3-4.9c-3.3-3.7-3.9-5-2.7-5.2 2.2-.5 2-2.3-.8-6.1-1.3-1.7-2.2-4-1.9-4.9.2-1-.7-3.5-2.2-5.5-1.4-2.1-2.3-4.3-1.9-4.8.3-.5-1.1-2.8-3-5.1-2.4-2.7-3.3-4.5-2.6-5.2.6-.6-.5-2.5-3.2-5.4-3-3.3-3.7-4.6-2.7-5.2 1-.7.3-2-2.8-5.3-2.3-2.5-5.3-6.7-6.6-9.4-2.5-4.9-5.3-15.2-4.6-17.1.5-1.4 10.8 10.7 13.3 15.6 1 2 2.4 4 3.2 4.5.7.4 2 2.7 3 5.2 1.1 2.9 2.2 4.4 3.2 4.3 1-.2 2 1.3 3.1 4.5.9 2.6 2.1 5.1 2.7 5.5s1.9 2.2 2.8 4 2.3 3.5 3 3.8 2.3 2.7 3.6 5.4c1.2 2.6 2.8 4.7 3.4 4.4.6-.2 2.3 1.7 3.8 4.1 1.9 3.1 3.2 4.3 4.3 3.9.8-.3 1.5-.1 1.5.5 0 .7 1 2.6 2.2 4.4l2.6 3.7c.2.2.7-.1 1.1-.9.6-.9 1.9.4 4.4 4.5 3.4 5.3 3.7 5.6 4.5 3.5l.8-2.3 1.9 2.8c2.8 4.3 6.8 8.3 7.7 7.8.5-.3 3.3 1.8 6.3 4.7 6 5.7 16.3 13.4 17 12.7s-6-11.4-10.4-16.6c-3.7-4.6-4.1-5.2-4.1-7.1 0-.5-1.2-2.3-2.6-4-2-2.4-2.2-3.1-1-3.1 2.4 0 2-1.2-1.8-5.7-3.1-3.5-3.3-4.2-2-5.5s1.1-1.9-2.5-5.1c-3.7-3.3-3.8-3.7-2-4.2 2-.7 2-.7-.3-3.2-1.2-1.4-3.9-3.3-5.8-4.4-2.9-1.5-3.1-1.8-1.3-1.9 1.2 0 2.4-.4 2.7-.9.7-1.1-3.2-3.8-6.8-4.7-3.2-.8-3.4-2.1-.3-2.6 1.8-.2 1.1-.9-3.8-3.7-7.5-4.3-7.2-4-5.5-5.1 1-.6.2-1.4-3.3-3.1-2.7-1.3-4.6-2.9-4.4-3.7.1-.8-1.5-2.1-4-3.1-2.3-.9-4.8-2.3-5.5-3.2s-3.2-2.1-5.5-2.8c-2.4-.6-4.3-1.6-4.3-2.1a.94.94 0 0 0-1-1c-3.7 0-22-9.3-20.7-10.6.2-.3 4.2.9 8.8 2.6 4.5 1.6 9.2 3 10.3 3 1.2 0 3 .7 4 1.5 1.1.8 3.4 1.5 5 1.5 1.7.1 4.2.7 5.6 1.5 3.1 1.8 6.4 2 5.4.3-.5-.8-.2-.9 1.2-.3 6 2.5 9.9 3.5 10.2 2.7.1-.5 3.4-.7 7.4-.4 5.2.4 6.9.2 6.4-.7-.5-.8 1.4-1.1 6.6-1.1 10.1 0 24.5-1.8 27.5-3.4 2.3-1.1 1.1-1.4-10.6-1.9-8.9-.4-14.1-1.1-16.3-2.1-1.7-.9-4.1-1.6-5.3-1.6-4.8 0-8.4-1.2-7.8-2.6.4-1.1-.6-1.4-4.1-1.4-3.6 0-4.4-.3-4-1.5.5-1.3.2-1.4-2.1-.5-1.4.5-4.2 1-6.2 1-3 0-3.4-.2-2.3-1.5s.8-1.5-2.1-1.5c-1.9 0-5.1.4-7.1.9-3.4.8-3.7.7-2.8-.9.9-1.7.7-1.8-2.3-1-7.5 1.9-9.7 2-9.7.5 0-1.7-2.4-1.4-10.2 1.5-2.7 1-4.8 1.6-4.8 1.3 0-.2 10.6-14 23.6-30.5 18.1-23 23.3-30.2 22.3-30.9-.8-.5-1.7-.9-2-.9-.4 0-11.4 13.7-24.5 30.5S719.1 731 718.7 731c-.5 0-.7-2.4-.6-5.3.5-9.3 0-13-1.5-12.4-1.4.6-3.6-5.7-3.6-10.4 0-1.7-.3-1.9-1.4-1-1.2 1-1.5.6-2.1-2.1-.3-1.8-1.1-4.8-1.7-6.7-1-3.1-1.2-3.3-2.3-1.7-1.2 1.5-1.4 1.4-2.4-1.5-.6-1.8-1.1-4.6-1.2-6.3 0-1.7-.3-2.5-.6-1.9-.9 2.4-2.2 1.3-3.4-2.7-.9-3.1-1.6-3.9-2.9-3.5-1.2.4-2.2-.6-3.5-3.5-1-2.2-3.2-5.4-4.8-7.1-3.1-3.3-8.6-14.4-10.8-21.7-1.8-6.2-3.3-5.3-2.6 1.6zM876 670.7c0 .1 2.7 1.7 6.1 3.3 6.9 3.5 13.8 9.5 18 15.7 1.8 2.5 3.5 4 4.3 3.7s2.5 1.2 4.2 4c1.9 3 3.4 4.4 4.4 4.1s2.5 1.1 4.3 4.1c1.5 2.5 3.3 4.4 3.9 4.2s2.9 1.4 5 3.6c2.6 2.7 4.1 3.7 4.5 2.8.3-.8 1.9.3 4.4 3 3.2 3.6 4 4.1 4.9 2.8s1.3-1.1 2.8 1c.9 1.3 2.7 3.6 3.9 5l2.2 2.5.1-2.8v-2.8l4.8 4c2.7 2.3 5.1 4.1 5.5 4.1s.4-1.2.1-2.8l-.7-2.7 2.1 2.5c1.2 1.4 2.1 2.1 2.2 1.6 0-.5.8-.2 1.8.7 2.2 2 5.8 2.6 5.5.9-.4-1.7.3-1.5 3.5.7 1.5 1.1 3.7 2.2 5 2.6 1.9.5 2.2.3 2.2-1.9V732l2.8 2.9c1.5 1.6 3.7 3.2 5 3.6 1.8.5 2.2.2 2.2-1.6 0-2.2.1-2.2 1.4-.4 1.4 1.9 8.6 3 8.6 1.4 0-.5 1.5 0 3.3 1.1 3.8 2.4 6.7 2.6 6.7.5 0-1.2.6-1.1 3.3.5 4.1 2.5 6.9 2.7 6 .2-.6-1.5-.5-1.5 1-.3.9.7 2.3 1.1 3.2.8.8-.4 1.7-.2 2 .3.9 1.4 5.5 1.2 5.5-.2 0-.6.9-.3 2.1.8 1.5 1.3 2.4 1.6 3.6.8 1.1-.7 3.1-.5 6.7.7 6 2.1 20.8 4.2 25.6 3.7 2.9-.3 1.3-1.2-12.3-7.2-8.6-3.7-15.4-7.2-15.1-7.7s-.7-.9-2.1-.9c-1.9 0-2.6-.4-2.2-1.4.6-1.5-1.2-2.6-4.4-2.6-2.1 0-2.5-1-.8-2.7 1.2-1.2-2.5-2.9-8.9-3.8-4.1-.7-4.3-.8-2.7-2.5 1.6-1.8 1.5-1.9-1.9-2.6-3.2-.5-3.5-.8-2-1.9 2.3-1.6.8-2.4-5.6-3.2-3.6-.4-4.8-.9-4.1-1.6 2-2 1.1-2.7-3-2.7-3.5 0-4.1-.3-3.6-1.9.4-1.6-.1-1.8-4.2-1.4s-4.4.3-2.8-1c.9-.8 1.7-1.7 1.7-2 0-.9-6.1-2.7-9.3-2.7-2.5 0-2.8-.2-1.7-1.5s.8-1.5-1.4-1.5c-1.4 0-2.6-.5-2.6-1.1 0-.8-1.4-1-4-.6-3.4.4-3.9.3-2.9-.9 1.4-1.7.4-2.2-6.7-3.4-2.7-.4-4.3-.8-3.6-.9.6 0 1.2-.6 1.2-1.1 0-.6-2.7-1-6.1-1-5.4 0-6-.2-4.9-1.5s.6-1.5-3.1-1.5c-5.4 0-9.1-.9-8.3-2.1.5-.9-3.7-1.4-9.5-1-2.3.2-3.1-.1-2.6-.9s-.8-.9-4.6-.4c-3.6.5-5 .4-4.5-.4.4-.7-2.2-1.1-8.7-1-5.2 0-10.9-.4-12.8-1-3.9-1.2-23.9-5-23.9-4.5zm-574.2 2.9c5.9 2.9 16 11.8 19.2 16.9 1.2 1.9 2.7 3.2 3.4 2.9.6-.2 2.7 1.6 4.4 4 1.8 2.5 3.8 4.3 4.5 4.1.7-.3 2.5 1.5 4.1 4 1.5 2.5 3.3 4.4 4 4.3.6-.2 2.8 1.5 4.9 3.7 2.5 2.6 4 3.6 4.4 2.7.3-.8 1.8.3 4.3 3 3.2 3.6 4 4.1 5.3 3s2-.6 4.9 3.5c3.2 4.7 3.3 4.7 3.6 2 .2-1.5.5-2.7.6-2.7.2 0 2.3 1.8 4.7 4 5.2 4.7 6.1 4.9 5.4 1.2-.6-2.6-.6-2.6 1-.7.9 1.1 1.9 2 2.3 2 .4.1 2.1.9 3.9 1.8 3.9 2.1 4.3 2.1 4.3.1 0-1.3.4-1.2 2.8.4 1.5 1.1 3.7 2.3 5 2.6 1.9.6 2.2.4 2.2-1.8V732l2.8 2.9c1.5 1.6 3.7 3.2 5 3.6 1.8.5 2.2.2 2.2-1.6 0-2.1.1-2.2 1.3-.5 1.5 2 7.8 2.9 8.9 1.2.4-.7 1.3-.4 2.6.7 1 .9 3.3 2 5 2.3 2.8.6 3.1.4 2.6-1-.6-1.5-.2-1.4 2.7.3 4.2 2.6 7.4 2.8 6.5.5-.5-1.4-.4-1.5.9-.4.8.7 2.1 1 3 .7.8-.4 1.7-.1 2.1.5s2.1.8 4 .5 3.6-.1 3.9.4c.8 1.1 4.5 1.2 4.5.1 0-.5 2.4-.1 5.3.9 6.1 2.1 20.9 4.2 25.8 3.7 3-.3 1.5-1.2-12.3-7.2-8.7-3.8-15.5-7.3-15.2-7.7.3-.5-.7-.9-2.1-.9-1.9 0-2.5-.5-2.3-1.7.2-1.1-.5-1.9-1.7-2.1-4.2-.7-4.8-1.1-3.6-2.6 1.3-1.5-1.6-3-8.1-4.1-4-.6-4.6-1.3-2.7-3.2.8-.8.2-1.3-2.1-1.8s-2.9-1-2.1-1.8c2-2 1.1-2.6-5-3.3-4.2-.5-5.7-1-5-1.7 2-2 1.1-2.7-3-2.7-3.5 0-4.1-.3-3.6-1.9.4-1.6-.1-1.8-4.2-1.4l-4.6.4 2.4-1.9 2.5-2-4-1.1c-2.1-.6-5.2-1.1-6.8-1.1-2.4 0-2.7-.2-1.6-1.5s.8-1.5-1.4-1.5c-1.4 0-2.6-.5-2.6-1.1 0-.8-1.4-1-4.2-.6-3.8.5-4.1.4-2.5-.8 1.7-1.3 1.6-1.4-2-2.4-2.1-.6-5.1-1.1-6.7-1.1-2.8 0-2.9-.1-1-1.5 1.7-1.3 1.3-1.4-5-1.5-6 0-6.7-.2-5.6-1.5s.6-1.5-3.1-1.5c-5.4 0-9.1-.9-8.3-2.1.5-.9-3.7-1.4-9.5-1-2.1.2-3.1-.1-2.7-.8.5-.7-1-.8-4.5-.4-3.7.4-5 .3-4.5-.5s-1.7-1.1-7.6-1c-4.6.1-10.5-.4-13.3-1-7.9-1.9-20.6-4.2-22.4-4.2-.9.1.8 1.2 3.7 2.6zM43.5 730.3l1.5 2.3-6.8-.4-6.7-.3 2.4 2.1c2.6 2.2 2.4 2.4-1.3 1-1.4-.5-2.6-.6-2.6-.1 0 .4-1.6.8-3.6.9-4.5.2-5.1.7-3.3 2.8 1.3 1.6 1.2 1.7-1.2 1.1-3.5-.9-10.5 1.1-9 2.6 1.9 1.9 1.3 2.2-3.6 2.2-4.2 0-4.8.3-4.7 2.1 0 1.6-.5 2-2.3 1.6l-2.3-.4v17.1c0 9.4.3 17.1.6 17.1s1.9-.9 3.4-2l2.9-2 .3 2.6.3 2.7 3.1-2.6c3.7-3.1 4.4-3.3 4.4-1.2 0 2.3 1.3 1.8 4.5-1.5 3.3-3.4 4-3.4 2.6.4-1.3 3.3-.5 3.3 5.9.1 4-2 5-2.2 5-1 0 1.9 1.4 1.9 3 .1.6-.8 1.7-1.3 2.4-1s2.1-.4 3.1-1.6c2.2-2.4 3.7-2.6 2.8-.4-.5 1.3-.2 1.5 1.8.9 1.3-.4 3.8-1.6 5.5-2.6 3.8-2.3 4.5-2.4 3.7-.3-.5 1.4-.3 1.5 1.8.4 1.3-.7 3.9-2.5 5.8-3.9l3.4-2.5-.8 2.4c-.7 2.4-.7 2.4 1.1.9 3.3-2.9 9.8-5.9 10.4-4.9.3.5 2.9-.6 5.8-2.5 2.9-2 5.2-3.2 5.2-2.8s1.6-.9 3.5-2.7c2.8-2.7 3.8-3.2 4.4-2.1.7 1 1.8.5 5-2.4 2.2-2.1 4.1-3.4 4.1-3s1.5-.4 3.4-1.9c1.9-1.4 4.1-2.6 4.8-2.6.8 0 1.8-.4 2.4-1 .5-.5 5.3-2.9 10.7-5.3l9.8-4.4-11.3.4c-9.8.5-12.2.2-17.7-1.6-4.3-1.5-6.6-1.9-7.1-1.2-.4.8-2.4.5-6.3-.8-4.7-1.6-5.7-1.7-5.7-.6s-1.1 1-5.7-.7c-3.9-1.6-5.8-1.9-6-1.1-.3.9-1.2.9-2.9.2-3.4-1.2-8.1-1.2-8.6.2-.2.7-1.2.7-3.1 0-4.1-1.6-7.7-1.4-7.7.4 0 .8-.4 1.5-.9 1.5s-2.8-.7-5.1-1.5c-5.7-2-6.3-1.9-4.5.8zm579.8 0l1.5 2.3-6.7-.4-6.6-.4 2 2.2 2 2.3-2-.7-3.4-1.4c-.8-.3-1.2-.1-.8.5s-.8 1-3 1.1c-4.4.2-5 .7-3.2 2.8 1.3 1.6 1.2 1.7-1.2 1.1-1.4-.4-4.2-.2-6.2.4-3.2.8-3.6 1.3-2.7 2.8.8 1.7.5 1.8-3.3 1.4-5-.5-7.7.8-5.9 2.9 1 1.2.6 1.4-1.8 1-1.7-.2-3 0-3 .6 0 .5-1.1 1.3-2.5 1.6-1.4.4-2.3 1.1-2 1.6.3.6-.2 1-1.3 1-1 0-3.3.5-5.1 1.1-2.5.9-2.9 1.4-2 2.5s.7 1.4-1.4 1.4c-1.4 0-3.8.5-5.2 1-2.3.9-2.5 1.3-1.5 2.5 1.1 1.3 1 1.4-.5.9-1.2-.5-2.2-.1-3.1 1-.6 1-1.4 1.6-1.6 1.5-1-.6-4.8 1.5-4.8 2.7 0 .8-.6 1.4-1.2 1.3-3.4-.4-5 .2-4.4 1.6.3 1-.1 1.5-1.2 1.5-4.1.1-30.2 13.4-28.8 14.7.2.3 7.3-.9 15.6-2.7 8.3-1.7 15.8-2.9 16.7-2.6.8.4 2.2.1 3-.6 1.1-.9 1.6-.9 2.3.2s1.4 1.2 3.5.2c3.3-1.5 3.5-1.5 3.5.3 0 2.2 2.4 1.9 8-1l5-2.5v2.5c0 2.5 0 2.5 3.1.9s3.2-1.6 2.6.5c-.4 1.9-.2 2.1 1.6 1.5 1.2-.3 3.9-1.7 5.9-3l3.7-2.3.3 2.6.3 2.6 3.2-2.7c2.9-2.5 3.2-2.5 4.2-.9.9 1.6 1.3 1.5 4.7-1.7s3.6-3.1 1.8 1.5c-.9 2.2 1.5 1.8 6.5-1 5.1-2.9 5.1-2.9 5.1-1s1.4 1.9 3 0c.7-.8 1.7-1.2 2.2-.9s2-.4 3.4-1.7c2.1-1.9 2.4-2 2.4-.5 0 2 2.4 1.5 7.4-1.5 3.7-2.3 5.3-2.4 3.6-.4-2.1 2.5.2 1.7 5.7-2 4.3-2.9 5-3.1 4.6-1.4-.5 1.6.3 1.3 4.8-1.7 3-2 5.5-3.1 5.7-2.5.6 1.8 1.8 1.3 6.7-2.5 2.6-1.9 5-3.3 5.3-3 .3.4 2.1-.8 3.9-2.6 1.8-1.7 3.3-2.7 3.3-2 0 2.1 1.9 1.3 6-2.4 2.2-2 4-3.3 4-3 0 .4 1.5-.4 3.3-1.8 1.9-1.5 3.8-2.6 4.3-2.7.5 0 5.8-2.4 11.7-5.3l10.9-5.3-10.9.5c-9.2.3-11.7.1-17.2-1.8-4.3-1.4-6.6-1.8-7.1-1.1-.4.8-2.4.5-6.3-.8-4.7-1.6-5.7-1.7-5.7-.6s-1.1 1-5.7-.7c-3.9-1.6-5.8-1.9-6-1.1-.3.9-1.2.9-2.9.2-3.7-1.3-9.7-1.2-8.8.3.5.8.2.9-1.2.4-1-.5-3.6-1-5.6-1.3-3.1-.5-3.8-.2-3.8 1.1 0 2-.6 2-6 .1-5.7-2-6.5-1.9-4.7.8z"/><path d="M90.7 966.9c.5 14.8.4 18.4-.7 19.1s-1.1 1.4-.2 3.4c1 2.3.9 2.6-.8 2.6-1.6 0-1.7.4-.9 3.2 1.2 4.5 1.2 4.7-1.1 4.1-2.5-.7-2.7 2.2-.5 9.3l1.5 5.2c0 .1-1.2-.1-2.6-.4-2.7-.7-2.8-.3-.7 5.3.6 1.6-.9 1.7-2.5.1-2.4-2.4-2 .3 1.3 11 .7 2.1.6 2.2-1.9 1.2-3.1-1.1-3.1-1-.6 4 2 3.9 2 3.9 0 4.5-1.9.6-1.9.7.5 4.3 3.2 4.6 3.2 5.9 0 3.8-1.3-.9-2.7-1.6-3-1.6-1 0-.4 3.5 1.4 8.7l1.8 5.3-2.5-.7c-2.4-.6-2.4-.6-.8 2.6 1.1 1.9 1.2 3.1.5 3.1-.6 0-.1 1.6 1.2 3.6 2.2 3.6 2.2 3.6.2 3s-2-.4-1.2 3.2c.5 2.2 1.3 5.2 1.9 6.6 1.3 3.6 1.3 4.1-.5 2.6-2.1-1.7-1.9-.2.5 6.2s2.4 6.1.1 4.8c-1.8-.9-1.8-.6.5 4.4 1.8 4 2.3 6.4 1.9 8.8s.1 4.6 1.8 8c1.3 2.7 2 4.8 1.5 4.8s.3 2 1.8 4.5c1.4 2.5 2.1 4.5 1.5 4.5-1.9 0-1.2 2.5 1.8 7.1 1.6 2.4 2.7 4.7 2.5 5.1-.3.4.3 2.2 1.2 3.9.9 1.8 1.7 4.4 1.9 5.8.1 1.4 1.3 6.3 2.5 10.9s2 8.6 1.7 8.8c-.6.6-10.1-12.2-11.8-15.8-.7-1.6-1.6-2.8-2.1-2.8s-1.6-1.6-2.4-3.6c-.9-2.1-2.2-4.3-3-5.1s-1.4-2.1-1.4-2.8c0-2.6-2.3-6.6-3.6-6.1-.7.3-1.7-1.3-2.4-4-.7-2.5-1.5-4.2-1.8-3.9-.4.3-1.8-1.8-3.2-4.7-1.5-2.9-3.3-5.3-4.1-5.3s-2.7-2.5-4.3-5.4c-2.2-4.2-3.1-5.1-3.5-3.8-.5 1.3-1.4.3-3.5-4-2.4-4.8-3-5.5-3.6-3.8-.6 1.8-.9 1.6-2.5-1.5-2.7-5.3-4.6-7.2-6.1-5.9-.9.7-1.4.2-1.9-2.1-.4-1.6-1.3-3-2-3-.8 0-1.7-.9-2-2.1-.5-1.5-1-1.8-2-.9-1.1.9-1.6.6-2.6-1.2-1.4-2.9-5-6.8-6.1-6.8-.4 0-.8 1.2-.8 2.6 0 3.8-1.9 1.9-2.6-2.7-.6-3.8-1.7-4.9-2.9-2.9-1 1.6-2.5 1.1-2.5-.8 0-1-.6-2.7-1.4-3.8-1.4-1.8-1.5-1.8-2.1-.2-1.1 2.7-2 2.2-4-2.2-2.5-5.5-4.4-7-5.2-4.1-.6 2.2-.6 2.2-2.4-.6-1.9-2.8-1.9-2.6-1.9 18.9 0 14 .4 21.8 1 21.8s.6.7-.1 1.9c-1.6 2.5-.5 4.9 2.8 6.3 3.8 1.6 3.9 1.8 2.3 2.8-1.2.7-1.1 1.2.4 2.9 1.1 1.2 2.5 2.1 3.3 2.1s1.2.4.9.9.9 1.2 2.7 1.6l3.2.8-3.5.6-3.5.7 5.2 2.7c2.9 1.5 6 2.7 7 2.7 1.3.1.9.5-1.1 1.7-3.5 1.9-2.4 2.7 4.7 3.7 4.2.6 4.7 1 3.6 2.2-1.5 1.8-.2 3 4.1 4 4.5 1 5.1 1.4 4.5 2.4-.8 1.2 4.7 4 8.1 4 1.9 0 2.5.4 2.1 1.5-.6 1.4 1.1 1.9 8.3 2.7 1.4.2 2.5.9 2.5 1.8 0 1.1 1.7 1.8 5.8 2.4 4 .6 5.7 1.2 5.3 2.1-.3.9 1.5 1.6 5.7 2.5 7.8 1.5 17 5.9 22.2 10.5l4 3.6-6.2-.6c-3.5-.3-8.9-1.5-12-2.6-3.2-1.1-6.7-2.2-7.9-2.4-1.1-.1-4-1.3-6.4-2.5-3.2-1.6-4.5-1.9-5-1-.6.9-2.1.4-5.4-1.9-2.5-1.8-5-3-5.5-2.6-.6.3-2.8-.2-5.1-1.1-2.2-.9-4.3-1.4-4.7-1.1-.3.4-2.3-.3-4.5-1.4s-4.9-1.8-6-1.6c-1.1.3-4-.2-6.4-1.1-3.8-1.4-4.6-1.5-5.4-.2-.6 1-1.2 1.1-2.2.3-2.1-1.7-8-2.7-8.7-1.4-.5.8-1.9.7-5-.4L.4 1151c-.2 0-.4 5.2-.4 11.5v11.4l3.5.7c1.9.3 4.2.4 5 0 1.8-.6 1.9-.2.4 2.6-1 1.9-.8 2 5.5 1.6 6.2-.3 8 .2 5.6 1.7-1.6 1-1.1 2.5.8 2.5.9-.1 3.4-.7 5.5-1.4 3.5-1.3 3.7-1.3 3.2.5-.7 2.1.1 2.3 7.8 1 3.8-.6 4.7-.5 4.7.7 0 1.1.8 1.3 3.6.8 1.9-.4 4.2-1 5-1.3s1.4.1 1.4 1c0 1.4.5 1.4 4.9.1 2.7-.8 5.7-1.3 6.7-1.2 1.9.2 4.2-.3 17.7-4.3 6.8-2 17.7-3.7 17.7-2.7 0 .3-4.3 2.1-9.5 3.9s-9.5 3.6-9.5 4.1c0 .4-.8.8-1.9.8-2.6 0-8.3 2.1-7.6 2.9.4.3-1.5 1-4.2 1.6-3.4.8-4.8 1.5-4.7 2.7.1 1.1-1.2 2-4 2.7-4.8 1.3-7.3 2.7-6.3 3.7.3.4-1.7 2.1-4.6 3.8-2.8 1.7-5.2 3.8-5.2 4.7 0 .8-3.2 4.2-7 7.6-8.8 7.5-17.5 17-17.5 19 0 1.1.4 1.3 1.3.6.6-.6 3.8-3.1 6.9-5.6 6.5-5.2 13.7-9.6 16.6-10.2 1.1-.2 3.8-1.5 6.1-2.9 4.4-2.8 6.1-3.2 6.1-1.5 0 .6 1.7-.3 3.7-2 3.2-2.7 3.9-2.9 4.4-1.4.4 1.3 1 .9 2.7-1.9 1.9-3.1 4-4.8 5.8-4.8.2 0 .4.8.4 1.7.1 1.2 1.7.1 5-3.6 3.8-4.1 5-5 5-3.5 0 1.4 1 .7 4.1-2.9 2.3-2.7 4.7-4.6 5.4-4.3 1.6.6 4.6-2.7 7.6-8.4l2.4-4.5.7 38.9 1.1 39.3c.2.2 1.2 0 2.1-.3 1.6-.6 1.7-3.3 1-39.5-.4-22.8-.3-38.9.2-38.9s1.9 1.5 3.1 3.3c3 4.4 9.3 10.4 9.3 8.9 0-2.1 1.6-1.3 6.4 2.9 3.1 2.8 4.6 3.6 4.6 2.5 0-2.2 1-2 3.9.8 1.5 1.3 3.9 3.2 5.5 4.2l2.9 1.8-.8-2.3c-.6-2.1-.5-2.2 1.7-1.1 1.2.7 3.5 2.4 5.1 3.8 2.2 2.1 2.7 2.3 2.7.9 0-1.5.6-1.4 4 .8 4.6 2.9 5 3 5 1.1 0-1.2.9-1.1 4.8.6 2.6 1.2 6.2 2.3 8.1 2.5 3.2.4 14.8 5.7 22.1 10.1 4.7 2.9 5.5 2.8 3.1-.7-2-2.8-15.6-12.5-23.8-17.1-2.3-1.2-3.9-2.8-3.7-3.4.5-1.2-7.5-5.6-10.1-5.6-.8 0-1.2-.6-.9-1.4.6-1.5-2.3-2.6-7.2-2.6-2.3 0-3.3-.5-3.7-2-.4-1.6-1.4-2-5.1-2-2.5 0-4.6-.4-4.6-.9s-6.7-2.1-15-3.7c-10.6-2-14.5-3.1-13.3-3.8 1.4-.8 6.1-.6 22.8 1 2.2.2 8.4.5 13.8.7 7.7.2 9.7 0 9.7-1.1s1.2-1.2 5.7-.6c5.3.6 5.7.6 4.4-1-1.2-1.5-.7-1.6 5.8-1.6 7 0 8.2-.5 6-2.7-.9-.9.2-1 4.5-.6 5.8.6 6.6.1 4.1-2.7-1.4-1.6-1.2-1.7 2.7-1.6 2.4 0 5.6-.3 7.2-.7 2.7-.8 2.8-.9 1.3-2.5-1.6-1.5-1.3-1.7 3.5-2.9 6.1-1.6 6.6-1.9 5-3.5-1.8-1.8-1.5-2.8.8-2.8 1.1 0 3.7-.7 5.7-1.5 3.2-1.4 3.4-1.7 1.9-2.8-1.4-1.1-1-1.4 3.4-3 2.7-1 5-2.4 5-3.1s1.4-1.6 3.2-2c3.9-.8 17.4-7.5 19.1-9.4 1-1.2.1-1.3-6.1-.7-4 .4-10.5 1.5-14.5 2.5-4.6 1.2-7.4 1.4-7.8.8-.4-.7-1.4-.6-2.8.1-1.1.7-2.1.9-2.1.6s-1.8.4-4 1.5c-4.9 2.5-5.3 2.5-4.5-.1.6-1.9.3-1.8-4.7.8l-6 3.1c-.5.2-.8-.3-.8-1.1 0-1.2-.6-1.2-3.5.3-2 1-4.2 2.4-5 3-1.2 1-1.5.9-1.5-.4 0-2.1.1-2.1-5.4 1-2.5 1.4-5 2.3-5.6 1.9-.5-.3-3 .7-5.4 2.4s-4.6 2.7-5 2.4c-.3-.3-2.4.6-4.7 2.1-2.2 1.5-4.3 2.5-4.6 2.2s-2.8 1.3-5.4 3.5c-3.6 3-4.9 3.7-4.9 2.4s-1.1-.9-5 2c-2.7 2-5 3.4-5 3.1s-2.8 1-6.2 2.8c-8 4.3-18.9 7.9-20.1 6.7-2.1-2.1 1.1-16.2 5.7-25.4 2.4-4.8 4-8.7 3.5-8.7-1.6 0-1-1.8 2.2-7.1 2.3-3.7 2.9-5.3 2-5.9-.9-.5-.4-2 1.8-5.5 2.1-3.3 2.8-5.2 2.1-6-.6-.7-.6-1.5.1-2.2.5-.5 1.6-3.1 2.4-5.7 1.2-4 1.2-4.6 0-4.6s-1.1-.7.5-3.2c2.4-3.9 2.6-7.8.5-7.8-2 0-2-.2 1.5-6.3 1.7-3 3-5.7 3-6.1 0-.3-1.4.1-3.1 1-3 1.5-3.2 1.5-2.4-.2 1.4-3.6 3.5-10.7 3.5-12.2 0-1.2-.6-1-2.5.8-2.9 2.7-3.2 2.1-.9-1.5.9-1.4 1.2-2.5.8-2.5-.5 0-.8-2-.6-4.4.4-4.2.2-4.4-1.8-3.9s-2.1.4-1.1-1.6c.7-1.2 1.1-3.9.9-5.9-.2-3.1-.6-3.7-2.4-3.5-2 .2-2.1 0-.9-3.4 1.5-4.4.9-7.3-1.6-7.3-1.6 0-1.7-.4-.9-2.6 1.3-3.2 1.2-3.7 0-2.9-.6.4-1-.7-1-2.5 0-2.5-.4-3.1-1.5-2.6-1.2.4-1.4 0-.9-1.9.3-1.4.3-4.1 0-6-.5-2.6-1.1-3.3-2.3-2.8-1.4.5-1.5.1-1-2.6.4-1.8.4-4.4.1-5.7-.5-2.1-.9-2.3-2.2-1.2s-1.4 1-.8-.9c.4-1.2.2-2.4-.4-2.8-.5-.3-1-1.9-1-3.5 0-1.8-.7-3.3-1.8-3.9-1.4-.7-1.8-1.8-1.4-4 .3-2.3 0-3.1-1.1-3.1s-1.6-1.7-1.9-6.8c-.5-6.3-6.8-27.5-8.9-29.6-.5-.6-.6 6.6-.2 17.3z"/><use xlink:href="#B" y="604"/><use xlink:href="#C" y="604"/><use xlink:href="#D" y="604"/><path d="M534.2 1033.2c5 8.9 12.6 19.5 14.5 20.2.9.4 1.2 1.3.8 2.6-.5 1.5 0 2.3 1.9 3.1 1.8.9 2.3 1.6 1.6 2.4s-.3 1.9 1.3 3.6c1.2 1.3 2.1 2.7 1.9 3.2-.1.4.5 1 1.4 1.4 1.1.4 1.2.8.4 1.3-1.7 1 .2 4.2 3.4 6 2 1 2.3 1.6 1.5 2.6s-.3 2.1 2.2 4.6c1.8 1.8 3.2 3.7 3.1 4.2-.2.5.4 1.6 1.3 2.6.8.9 1.2 2 .9 2.3-.4.4.6 1.2 2.2 1.8s2.3 1.3 1.7 1.6c-3.2 1.2 1.3 6.3 5.5 6.3h2.7l-2.3 1.9-2.4 1.8 3.2 2.6c1.7 1.5 3.8 2.7 4.6 2.7 1.7 0 1.9 1.7.2 2.3-1.9.7 4 6.2 7.7 7.2l3 .9-3.5.6-3.5.6 6.3 3.1c6.1 3 6.3 3.2 4.1 4.4-2.3 1.2-2.3 1.2-.4 2 1.1.4 3.7 1 5.8 1.4 3.1.5 3.7.9 3.2 2.4-.6 1.8 2.2 3.5 7 4.3 1.1.2 2 .9 2 1.6 0 1.8 4.4 4.1 7.9 4.2 2 0 2.7.4 2.3 1.5-.6 1.4 1.1 1.9 8.3 2.7 1.4.2 2.5.9 2.5 1.8 0 1.1 1.7 1.8 5.8 2.4 4 .6 5.7 1.2 5.3 2.1-.3.9 1.5 1.7 5.7 2.5 7.5 1.4 15 4.9 20.8 9.5 2.4 1.9 4.5 3.3 4.7 3.1.3-.4-9.5-14.5-12.7-18.3-1-1.1-2.4-3.6-3.1-5.5-.8-1.8-2-3.7-2.7-4.1s-1.3-1.7-1.3-2.7c0-3.1-2.2-7.1-3.7-6.6-.9.4-1.7-.9-2.5-3.9-.7-2.4-1.5-4.2-1.9-3.9-.4.2-1.9-2.1-3.3-5.2-1.4-3-3-5.3-3.5-5-1.1.7-4.5-3.8-6.2-8-1-2.6-1.2-2.7-1.8-1-.6 1.5-1.3.8-3.6-4-2.2-4.5-3-5.4-3.5-3.9s-1.1 1-3.3-2.8c-3.2-5.4-4.6-6.5-5.8-4.6-.7 1.1-.9 1.1-.9-.3 0-.9-1.1-2.9-2.4-4.3-1.4-1.5-2.7-3.2-3-3.8-.5-.9-.8-.9-1.2 0-.8 1.7-2.4 1.7-2.4 0 0-.8-1.6-3.1-3.5-5.3l-3.4-3.9-.1 2.7c0 3.8-1.7 3.5-2.5-.5-1-4.4-1.5-5-3.1-3.6-1.7 1.4-1.7 1.4-2.9-2.5-1.1-3.2-3.5-4.7-3.5-2.2 0 2.8-1.4 1.7-4.2-3.4-3-5.4-4.5-6.2-5-2.8-.3 2.1-.5 2-2.2-1.1l-1.8-3.5-1.3 2.4-1.3 2.3-2.4-3.9c-1.4-2.1-3.4-4.7-4.5-5.7-1.9-1.7-2.1-1.7-2.7 0-.6 1.5-1 1.3-3.2-1.2-1.9-2.2-2.7-2.6-3.1-1.6s-.9.8-1.8-1c-.8-1.3-2-2.4-2.8-2.4s-6.9-4.8-13.6-10.8c-6.6-5.9-12.2-10.7-12.5-10.7s1.3 3.3 3.6 7.2zm-146.1 62.3c-5 5.3-10 11.3-11.1 13.4-1.2 2.5-2.6 3.8-3.7 3.7-1.2 0-1.9.7-2.1 2.1-.2 1.3-.9 2.3-1.5 2.3-1.6 0-7.7 6.4-7.7 8.2 0 1-.2 1-.9-.1-1.3-2-2.9-.5-4.2 4-.8 2.6-1.5 3.5-2 2.7-1.1-1.8-4.6 1.6-5.4 5.2-.4 1.9-1.1 2.7-2 2.4-.7-.3-1.6.3-2 1.5-.3 1.2-1 1.9-1.5 1.6s-1.2.5-1.6 1.9c-.3 1.5-1.1 2.3-1.9 2-1.8-.7-4.5 3.5-4.5 7.1-.1 2.8-.2 2.9-1.4 1.2-1.3-1.7-1.5-1.7-3 .5-.9 1.2-1.9 3.7-2.2 5.5-.5 2.7-.9 3.1-2 2.2-.8-.7-1.6-1-1.8-.8-1 1.1-3.6 8.4-3.6 10.3-.1 2.1-.1 2.1-1.3-.2-1.8-3.1-2.5-2-3.3 5.1-.7 5.8-.8 6-2.2 3.9-2.4-3.7-3.2-2.5-2.5 3.9.6 5.6.5 6-1.3 5.7-1.6-.3-1.9.4-2.2 4.7-.2 3-.9 5.3-1.8 5.8s-1.4 2.5-1.4 5.7c0 3.1-.4 5-1.1 5-.8 0-1 1.8-.6 6 .5 4.2.3 5.9-.5 5.7-.7-.1-1 1.9-.9 6.2.2 4.7-.1 6.1-1 5.6-.9-.6-1 .7-.7 5.1.7 8.2-.8 17.9-3.9 24.4l-2.6 5.5-.9-3.5c-1.1-3.8-.5-30.4.7-33.2.5-1.3.3-1.8-.8-1.8-1.3 0-1.4-.5-.5-3.3.5-1.7 1.1-8.7 1.3-15.5.2-6.7.7-12.7 1-13.2.3-.6.1-1-.4-1-.7 0-1.1-2.3-1.1-5.5 0-4.3-.3-5.5-1.6-5.5-.8 0-1.2-.5-.9-1 .4-.6.8-3.1.9-5.5.2-3.3-.1-4.5-1.2-4.5s-1.3-1.3-1-6c.3-6.1 0-6.8-1.9-4.9-.7.7-1.2-1.2-1.6-6.2-.3-4-1.1-7.5-1.6-7.8-.5-.4-1.7-4.2-2.6-8.5-2.2-10.8-5.5-19.3-6.6-17.5-.5.8-.9 6.3-.8 12.4.1 6-.2 11.8-.6 12.7-.4 1-.5 3.8-.3 6.2.2 2.9 0 4.2-.6 3.6-2.2-2.2-2.9-.8-2.3 5 .5 5.5.4 6-1.5 6-1.8 0-2 .5-1.5 3.7.3 2.1.8 4.6 1.2 5.5.5 1.3.2 1.5-1.4 1.1-2.8-.7-2.8 2.6-.1 8.5l1.9 4.2-2-1.1c-3.4-1.8-3.6 0-.6 5.3 2.7 4.8 2.7 4.9.6 4.3-1.8-.6-2-.4-1.4 1.7.4 1.2 1.6 4 2.6 6 2.3 4.5 2.3 4.8.3 4.8-1.3 0-1.1.9 1.1 4.6 2.1 3.6 2.4 4.8 1.4 5.4-1 .7-.6 1.8 1.5 5 1.4 2.2 2.5 4.6 2.4 5.3-.2.7.7 2.6 1.9 4.3s2.3 3.7 2.5 4.5 1.8 3.5 3.6 6c3.8 5.6 8.5 15.5 8 17-.2.7-2.3-1.7-4.6-5.2s-5.4-7.8-6.9-9.5-3.6-4.6-4.5-6.3c-1-1.8-2.2-3-2.6-2.7-.5.3-1.8-1.5-3-4-1.4-2.9-2.8-4.4-3.8-4.2-.9.2-2.7-1.4-4.3-3.7-1.5-2.2-3.3-4-4.1-4s-3.5-1.9-6-4.2c-2.7-2.5-4.7-3.8-5.1-3.1-.4.6-4.6-1.5-10.8-5.6-11.3-7.5-17.4-10.5-21-10.6-1.9 0-.9 1.1 4.7 5 3.9 2.7 8.9 6.9 11.2 9.2 11.4 12 14 15.2 12.9 15.8-.7.5.2 1.6 2.3 3l3.8 2.7c.2.2-.2.8-.9 1.2-1 .6-.1 1.4 3.1 2.9 4.9 2.1 7 4.2 4.2 4.2-2.7 0-.1 2.3 5.6 5 4 1.9 4.8 2.6 3.5 3.3s-.3 1.5 4.6 3.8c4 1.9 5.9 3.3 5.1 3.8-1.6 1 4.4 3.9 9.8 4.7 2.2.4 4 .9 4 1.3 0 .3-6.4 2.4-14.2 4.6l-14.3 4 6.8.3c5.1.2 8.9-.4 15.3-2.3 8.4-2.6 11-2.7 8.6-.3-1.8 1.8-1.5 2.8.8 2.8 1.2 0 2-.7 2-1.8.1-1.6.1-1.6 1.1.1.5.9 1.5 1.7 2.1 1.7s.3-1.1-.6-2.5c-2.2-3.4-1.6-4.1 4.5-5.4 8.4-1.8 19.7-.8 28.2 2.4 1.2.5 1.7.2 1.7-1s.5-1.5 1.6-1.1c5.4 2.1 10.6 2.8 11.4 1.7.6-1 2-.9 6.5.5 3.9 1.2 6 1.5 6.2.8s2.5-.9 5.9-.6c3.3.3 5.9 0 6.3-.6s2.4-.7 5.3-.2c5.3.8 7.2.1 6.2-2.3-.5-1.4.1-1.4 6 .3 6.9 1.9 7.5 1.8 5.2-1.5-1.3-2-1.2-2 6.3-1.7l7.6.3-3-2.7c-1.6-1.4-2.3-2.4-1.5-2.2 5.7 1.9 6.2 1.9 5.6 1-.3-.5 1.2-1.2 3.4-1.6 4.2-.7 4.8-1.4 2.8-3.4-.9-.9-.3-1.2 3-1.2 2.2 0 5.3-.5 6.7-1.2 2.4-1.1 2.5-1.2.8-3.1-1.8-2-1.7-2 1.4-1.4 3.2.6 9.3-.8 9.3-2.2 0-.4-.5-1.2-1.2-1.9-1-1-.5-1.1 2-.6s3.2.3 3.2-.9c0-.8 1.1-1.8 2.5-2.1 1.6-.4 2.2-1.1 1.9-2.1-.5-1.2.2-1.5 2.9-1.5 3.2 0 10-3.9 7-4-2.9 0-1-2 2-2 1.7-.1 4.3-.7 5.6-1.4 2.3-1.3 2.3-1.4.5-2.4-1.7-1-1.6-1.1.9-1.2 1.5 0 2.7-.4 2.7-.8s1.4-1.3 3-1.9c1.9-.7 3-1.8 3-3.1 0-1.5.5-1.8 2.4-1.5 2.2.5 4-.9 4.1-3 0-.5 2.4-1.7 5.4-2.7 5.2-1.9 27.9-16.2 26.3-16.7-.4-.2-8.3 1.9-17.7 4.6-11.4 3.2-17.2 4.5-17.7 3.8-.4-.8-1.3-.5-2.6.6-2.3 2.1-3.2 2.2-3.2.2 0-1.4-.3-1.4-3 0-3.7 1.9-5 1.9-5 0 0-2.2-1.7-1.9-7.7 1.5-2.9 1.6-5.5 3-5.8 3s-.5-1.2-.5-2.6v-2.5l-2.7 2.1-2.8 2.2-.3-2.1c-.5-2.9-1.7-2.7-7.5 1.5l-5 3.6.5-2.6c.7-3.3-1.1-3.4-4.2-.1-2.7 2.8-4 3.2-4 1 0-2.4-1.2-1.8-4.8 2.2l-3.3 3.8.5-3.3c.3-1.8.1-3.2-.5-3.2-1.5 0-8.7 3.8-9.4 5-1 1.6-2.5 1.2-1.9-.5.8-1.9-1.9-2-3.6-.1-.6.8-1.7 1.3-2.5 1-.7-.3-2.2.7-3.4 2.2-2 2.5-2.1 2.6-2.1.5v-2.1l-3.7 2c-2.1 1.1-4.9 2.8-6.3 3.8-2.3 1.6-2.4 1.6-1.7-.1.3-.9.3-1.7-.1-1.7-1.1 0-5.2 2.8-8.6 5.9l-2.9 2.6.7-3 .7-3-3.3 3.1c-4.9 4.6-8.6 6.6-9.1 5.1-.2-.7-2.5.4-6 3.1-3.1 2.3-5.7 3.9-5.7 3.5s-1.7 1-3.9 3.1c-2.7 2.6-4 3.4-4.4 2.4-.4-.9-1.9.1-4.9 3.2-2.4 2.5-4.7 4.4-5.2 4.2s-2.2.9-3.8 2.4c-1.5 1.6-3.4 2.9-4.1 3-.6.1-5.2 2.5-10.1 5.3-4.9 2.9-9 5-9.2 4.8-.6-.5 12.6-16.7 17.4-21.4 2.4-2.4 4-4.3 3.6-4.3s1.4-1.4 4-3c3.1-2 4.6-3.6 4.2-4.5-.3-.9.8-2.2 2.9-3.5 1.9-1.2 3.4-2.4 3.2-2.8-.1-.4 2-2.7 4.6-5.1 2.9-2.7 4.4-4.7 3.7-5.1s.9-2.6 4.2-5.5c4-3.6 4.7-4.6 2.8-4-2.1.6-1.7-.1 2.5-4.5 2.8-2.9 4.2-5 3.3-4.7-2.8 1-2.1-.6 2.2-4.8 4.4-4.3 4.9-5.5 2.3-5.5-1.3 0-1-.5 1-1.9 1.6-1 2.9-2.2 2.9-2.7-.1-.5.6-1.6 1.4-2.6 1.4-1.4 1.4-1.7-.1-2.5-1.5-.9-1.4-1.1.7-2.5 1.3-.9 3.1-3 4.1-4.7l1.8-3.1h-3.3l-3.3-.1 4.4-2.6c4-2.4 4.2-2.8 2.5-4-.9-.7-1.6-1.4-1.3-1.6.2-.2 1.6-1.1 3.2-2 3.3-2.1 3.5-3.7.5-3.7-2 0-1.8-.5 2-4.3 4.8-4.9 5.1-5.7 2-5.7-2.1 0-2.1-.1.7-3 2.2-2.3 2.5-3 1.2-3-3 0-2.7-1.8.8-6 3.8-4.5 4.4-7 1.9-7-1.2 0-1.1-.6.7-3.2 1.6-2.3 1.9-3.3 1-3.6s-.8-.9.5-2.3c.9-1.1 1.5-2.2 1.2-2.5-.4-.3 2.7-7.5 6.8-16l7-15.4c-.2 0-4.5 4.3-9.5 9.5zm583-3.4c-7.4 7.4-12.4 13.4-14.5 17.4-.9 1.7-2.4 3-3.3 3-1.1 0-1.9.9-2.1 2.2s-1.3 2.4-2.7 2.7a4.41 4.41 0 0 0-3.1 3.1c-.3 1.4-1 2.2-1.6 1.9-.5-.3-1.2.4-1.5 1.6-.4 1.6-.8 1.9-1.5.8-1.1-1.7-3.7 1.4-4.5 5.5-.4 2.1-.9 2.5-1.8 1.7-1.5-1.3-5.5 3.2-5.5 6.1 0 1.2-.5 1.6-1.4 1.3s-1.7.3-2.1 1.5c-.3 1.1-1.1 2-1.8 1.8-.6-.1-1.3.8-1.5 2.1-.3 1.6-.8 2.2-1.9 1.8-2.2-.9-4.2 2.2-4.3 6.4-.1 3.2-.2 3.4-1.5 1.6-1.3-1.7-1.5-1.7-3.4 1.5-1.2 1.9-2.1 4.5-2.1 5.9 0 1.9-.3 2.1-1.2 1.2-.7-.7-1.5-1.2-1.9-1.2-1 0-3.9 7.6-4 10.3v2.2l-1.1-2.3c-.6-1.2-1.4-2.2-1.8-2.2-.8 0-2 6-2 10.4v2.9l-2.6-2.4-2.6-2.4.7 6.3c.7 5.8.6 6.3-1.1 6-1.6-.3-1.9.5-2.2 4.9-.2 3.8-.7 5.3-1.8 5.3-1.4 0-2 3.4-1.5 8.7.1 1.5-.4 2.3-1.3 2.3s-1.4.6-1.2 1.2c.3.7.7 3.5 1 6.2.5 4 .3 4.7-.9 4.2-1.3-.5-1.5.4-.9 6.1.5 4.9.4 6.4-.4 5.9-.9-.5-1.2 1.8-1.2 8.7 0 9.3-1.6 17-4.7 23.1-1.2 2.2-1.7 2.6-2.3 1.5-1.2-2.3-2-16.1-1.1-20.7.5-2.3.5-4.2.1-4.2s-.2-2.7.5-6c1.1-5 1-6-.1-6-1.7 0-1.7.1-.1-4.6.7-2.4 1.2-8.6 1.2-15.9-.2-21.8-.3-23.5-2.1-23.5-.9 0-1.2-.5-.8-1.2 1-1.7.5-9.2-.7-9.6-.5-.2-.9-3.1-.9-6.5 0-4.7-.3-5.8-1.2-4.9-2 2-2.3 1.4-2.5-6-.1-4-.6-7.4-1.3-7.8-.6-.4-1.8-3.8-2.6-7.6-1.8-8.7-5.3-19.4-6.4-19.4s-1.7 11.6-1 19c.3 3.4.2 6.4-.2 6.6-.4.3-.8 3-.8 6.1 0 5-.1 5.4-1.7 4.2-1.5-1.3-1.6-.9-1.1 4.8.6 5.8.5 6.3-1.4 6.3-1.7 0-1.9.5-1.6 3.7.3 2.1.8 4.5 1.2 5.4.6 1.3.2 1.6-1.8 1.2-2.3-.5-2.4-.3-1.7 2.9.4 1.8 1.3 4.3 1.9 5.5 1.7 3 1.5 3.5-.8 2.8-2.9-.9-2.6 2.1.6 6.8l2.5 3.8-2.6-.7-2.5-.6 3 6.3c2.4 5.2 2.7 6.5 1.5 6.9s-1 1.3 1 4.9c2.9 5.1 2.9 5.1 1 5.1-1 0-.6 1.4 1.7 5 1.7 2.8 2.8 5.3 2.5 5.7-.4.3.5 2.2 1.9 4 1.4 1.9 2.7 4 2.8 4.7s1.9 3.9 4 7.1c3.7 5.5 8.1 15.3 7.3 16.1-.2.2-2.8-3.2-5.8-7.6-3-4.3-5.8-8-6.4-8-.5 0-1.9-1.9-3-4.2s-2.4-4-2.9-3.9c-.5.2-2-1.8-3.3-4.4-1.9-3.6-2.8-4.5-4.3-4-1.3.4-2 0-2.5-1.4-.9-3-4.5-7.2-5.6-6.5-.5.3-3.3-1.5-6.1-4.1-2.9-2.6-5.4-4.2-5.8-3.6-.3.6-4.1-1.3-9-4.6-11-7.3-18.6-11.3-21.6-11.3-2 0-.3 1.6 7.6 7.6 5.5 4.2 10.8 8.8 11.7 10.2.9 1.5 3.7 4.8 6.2 7.5 2.5 2.6 4 4.7 3.3 4.7-2.2 0-1.2 1.5 2.5 3.9 2.5 1.6 3.2 2.5 2.3 3.1-.9.5.2 1.4 3.2 2.8 4.9 2.1 7 4.2 4.2 4.2s.1 2.6 5.7 5.2c4 1.8 4.6 2.4 3.3 3.1s-.5 1.4 4 3.5c3.9 1.7 5.5 3 5.2 3.9-.7 1.7 4.1 3.9 10.4 4.9 2.3.4 3.8 1 3.3 1.4-.4.4-6.9 2.5-14.3 4.6l-13.5 3.9 6.7.3c5 .2 8.9-.4 15.3-2.3 8.5-2.6 11.1-2.7 8.7-.3-1.7 1.7-1.5 2.8.7 2.8 1.1 0 2.2-.8 2.4-1.7.4-1.7.5-1.7.6-.1 0 1 .8 1.8 1.6 1.8 1.4 0 1.4-.3-.1-2.5-2.1-3.2-1.3-4.1 4.7-5.4 8.4-1.8 19.7-.8 28.2 2.4 1.1.5 1.7.2 1.7-.8 0-1.3.7-1.3 6.1.1 4.9 1.2 6.3 1.2 6.9.2s1.9-.9 6.1.5c3.3 1.1 5.4 1.4 5.6.8.3-.7 2.9-.9 7-.5 4.4.3 6.4.2 6-.5-.5-.7 1.5-.9 5.8-.6 6.1.5 6.4.5 5.8-1.5l-.5-2.1 6.6 1.9c6.6 1.9 8 1.5 5.1-1.4-.8-.8-1.5-1.6-1.5-1.8s3.2-.2 7 0c7.2.4 9-.6 4.9-2.8-2.8-1.6-1.8-2.3 1.5-1.1 1.4.6 2.6.7 2.6.2s1.8-1.1 4-1.5c4.2-.7 4.8-1.4 2.8-3.4-.9-.9-.2-1.2 3.3-1.2 2.5 0 5.4-.6 6.4-1.4 1.7-1.2 1.8-1.6.5-3.2-1.4-1.6-1.3-1.7 1.4-1 2.8.7 9.6-.9 9.6-2.3 0-.4-.5-1.2-1.2-1.9-1-1-.5-1.1 2-.6s3.2.3 3.2-.9c0-.8 1.1-1.8 2.5-2.1 1.6-.4 2.2-1.1 1.9-2.1-.5-1.1.2-1.5 2.6-1.5 4.5 0 7.2-1.7 6.5-4.1-.5-1.6-.1-1.9 2.5-1.9 4.6 0 7.5-1.7 5.9-3.6-.9-1.1-.7-1.4 1.5-1.4 1.5 0 2.5-.4 2.2-.8-.3-.5 1.1-1.4 3-2.1 2.1-.8 3.4-1.9 3.4-3 0-1.4.6-1.7 2.5-1.3 1.9.3 2.7-.1 3.3-1.8.5-1.3 2.3-2.8 4.5-3.5 3.9-1.3 16.6-8.4 20.6-11.4 1.3-1 2.2-2.4 2-3.3-.3-1.2-3-.7-15.4 2.8-8.2 2.3-15.1 3.9-15.3 3.4s-1.4-.2-2.8.6c-2.2 1.5-2.4 1.5-2.4 0s-.3-1.5-3-.1c-3.7 1.9-5 1.9-5 0 0-2.2-1.7-1.9-7.7 1.5-2.9 1.6-5.5 3-5.8 3s-.5-1.2-.5-2.6v-2.5l-3 2.1-3 2.1v-2.6c0-2.5-.1-2.5-2.9-1.1-1.6.9-4.3 2.7-6 4.2l-3.1 2.6v-2.6c0-3.3-.7-3.3-4.2.1-2.7 2.6-2.9 2.6-4.2.8-1.2-1.7-1.4-1.6-3.6 1.3-3.1 4.2-5.3 5-3.9 1.5.5-1.4.7-2.8.4-3.1-.7-.7-8.2 2.8-9.6 4.5-1.7 1.9-2.9 1.6-2.9-.9v-2.1l-2.3 2.1c-1.3 1.2-2.7 1.9-3 1.5-.4-.3-2 .6-3.7 2.2-2.7 2.6-2.8 2.6-2.3.5.6-2.2.6-2.2-2.8-.5a82.19 82.19 0 0 0-6.1 3.6c-3.2 2.3-3.9 2.4-3.1.3.5-1.4.3-1.5-1.8-.4-1.3.7-3.9 2.6-5.8 4.4l-3.4 3.1.7-2.9.7-2.9-3.6 3.1c-4.6 4.1-9.2 6.5-9.7 5.1-.2-.6-2.7.8-5.6 3-2.9 2.3-5.2 3.8-5.2 3.4s-1.7 1-3.9 3.1c-2.7 2.6-4 3.4-4.4 2.4-.4-.9-2 .2-5.1 3.3-2.5 2.6-4.7 4.4-5.1 4.1-.3-.3-1.9.8-3.6 2.4-1.6 1.6-3.5 2.9-4.2 2.9s-3 1.2-5.2 2.6c-6.2 4.1-14.8 8.2-13.9 6.7 1.5-2.5 11.1-14.3 12.7-15.7 1-.7 1.7-1.9 1.7-2.5s1.6-2.2 3.5-3.5c2-1.3 3.3-2.6 3-2.9-.2-.3 1.6-1.8 4-3.3 4.4-2.8 5.8-4.9 3.3-4.9-.7 0 .5-1.2 2.7-2.5 2.2-1.4 4-2.8 4-3.3 0-.4 1.9-2.5 4.3-4.6 2.4-2.2 4.1-4.5 3.8-5.2s1.5-3.1 4-5.3c4.6-4.3 5.5-5.7 2.9-4.7-2.4.9-1.8 0 3.3-4.9 2.6-2.6 3.9-4.4 3-4.1-2.7.8-2.2-.2 2.4-5.2 3.6-3.9 3.9-4.6 2.4-5.2-1.5-.5-1.4-.8.8-2 1.4-.7 2.6-1.8 2.6-2.3 0-.6.7-1.9 1.6-2.9 1.6-1.6 1.5-1.8 0-2.4-1.4-.5-.9-1.4 2.6-5.3l4.3-4.6-3.5-.5-3.5-.6 4.4-2.3c4.2-2.2 4.4-2.4 2.6-3.7-1-.8-1.7-1.5-1.4-1.7.2-.2 1.6-1.1 3.2-2 3.2-2 3.5-3.7.7-3.7-1.1 0-2-.2-2-.4s1.8-2.2 4-4.4c4.5-4.5 5.1-6.3 1.8-5.5-2.3.6-2.3.6.2-2.1 2.1-2.3 2.2-2.9 1-3.6-.8-.5-1.9-1-2.3-1-.5 0 1-2.1 3.2-4.6 4.3-4.9 5.2-7.4 2.5-7.4-1.3 0-1.1-.6.7-3.1 1.6-2.2 1.9-3.3 1-3.8-.9-.6-.8-1.1.3-2 .8-.7 1.3-1.8 1-2.6-.3-.7 2.9-8.1 7-16.4 4.2-8.3 7.5-15.1 7.3-15.1s-3.2 2.8-6.6 6.1zM93.4 1248.4c.3 2.9 2.4 10.9 4.7 17.6 3.3 9.9 3.8 12.4 2.7 13.1-.8.5 1.4.9 5.5.9 3.7 0 6.7-.2 6.7-.5 0-1.4-4.4-9.1-5.6-9.8-1.7-1-8.3-14-10.9-21.5-2.5-6.8-4-6.7-3.1.2zm579.9.4c.4 3.2 2.5 11.1 4.7 17.6 3.2 9.4 3.8 12.1 2.8 12.7-.8.5 1.5.9 5.5.9 3.7 0 6.7-.2 6.7-.5 0-1.5-4.3-8.7-6.6-11-2.7-2.7-8.4-14.2-10.5-21.3-1.8-6.2-3.3-5.3-2.6 1.6zM185 1277l-2.1 3h2.4c1.3 0 3.2-.9 4.3-2.1 1.6-1.7 1.6-2.2.4-2.9-2.2-1.4-2.7-1.3-5 2zm580 0l-2.1 3h2.4c1.3 0 3.2-.9 4.3-2.1 1.6-1.7 1.6-2.2.4-2.9-2.2-1.4-2.7-1.3-5 2zm111-2.4c0 .2 2.3 1.5 5 2.9 4.4 2.2 6.2 2.5 12.8 2.3 4.8-.2 6.8-.6 5.2-1-4.2-1.1-23-4.5-23-4.2zm-574.5 2.8c4.1 2.1 6.4 2.6 12.9 2.6 4.4 0 7.7-.2 7.4-.5-.4-.5-13.4-2.9-21.3-4.1l-4-.5 5 2.5z"/><defs ><path id="B" d="M670.3 363.2c.2 14.7 0 18.8-1 18.8-.9 0-1 .6-.3 2.6 1.3 3.3 1.3 3.4-.4 3.4-1.1 0-1.2.8-.6 3.5.7 3 .5 3.5-1.1 3.5-2.4 0-2.5 3.4-.4 10.3l1.4 4.7-2.4-.6c-2.7-.7-3 .1-1.5 4 1.1 2.9.8 3.1-2.1 1.6-2.5-1.4-2.4-.5.1 6.7l2 6c0 .1-1.2-.2-2.6-.7-2.3-.9-2.5-.8-1.8 1.2.4 1.3 1.3 3.2 2 4.3 1.2 1.7 1.2 2.1-.6 3-1.9 1-1.9 1.1.5 4.7 3.2 4.7 3.1 5.2-.5 3.3-2.9-1.5-3-1.5-3 .7.1 1.3.7 4.1 1.5 6.3 1.9 5.2 1.9 5.4-.6 4.8-1.9-.5-2-.4-.9 1.6.6 1.3.9 2.8.7 3.5-.3.8.3 2.8 1.4 4.5 2 3.2 2 3.3-.1 2.6-1.8-.6-1.9-.3-1.4 2.7.4 1.8 1.3 4.8 2 6.7 1.7 4.1 1.7 4.8.2 3.3-3.2-3.2-2.8-.6 1.7 10.2.7 1.6.6 1.7-1.4.7l-2.2-1.2 1.9 3.8c2.5 4.9 3.7 10.3 2.3 10.3-.7 0-.2 2.1 1 5.2 1.1 2.9 2.2 6.3 2.4 7.5.2 1.3 1.3 3.8 2.4 5.7 2.3 3.6 2.7 5.1 1.1 4.1-1.9-1.2-1 2.2 1.9 6.7 1.6 2.5 2.7 4.8 2.4 5.1-.2.3.2 1.8 1.1 3.5.8 1.6 1.5 3.8 1.5 4.8s1.2 6.1 2.6 11.2c1.5 5.2 2.4 10.1 2.1 10.9-.8 2.1-10.2 1.2-18.3-1.7-3.2-1.2-6.7-2.3-7.9-2.4-1.1-.2-4-1.4-6.4-2.6-3.1-1.6-4.5-1.9-5-1s-2 .4-5.1-1.6c-2.4-1.5-5.3-2.7-6.3-2.6-1 0-3.2-.6-4.8-1.4s-3.5-1.3-4.1-1.1c-.7.2-3.5-.7-6.4-1.9-2.8-1.3-5.3-1.9-5.5-1.3-.2.5-2.3.3-5.2-.7-3.7-1.3-5-1.4-5.6-.4-.5.8-1.3.9-2.6.2-1.1-.6-3.4-1.5-5.1-2.1-2.7-.8-3.3-.7-3.3.5 0 1.7.4 1.8-6.4-.6l-5.7-1.9.7 2.1c.6 1.9.4 2-2.2 1.3-6.4-1.7-10.9-2.3-11.2-1.4-.2.4-5.1.6-11 .3s-12.7-.1-15.2.3l-4.5.9 7.3 2.7c4 1.5 9.7 3 12.7 3.3 3 .4 5.6 1.2 5.9 1.9.2.7 2.8 1.8 5.6 2.5 3.6.9 4.8 1.5 3.9 2.1-2.6 1.7 2.5 3.6 8.4 3.1 1.4-.2 1.6.3 1.1 2.2-.5 2.2-.2 2.5 3 3.2 2 .3 4.5.4 5.6.1 2.1-.5 2.8.7 1 1.8-.5.3-1 1.1-1 1.7 0 .7 2.3.9 6.4.6 6.1-.4 6.4-.3 5.4 1.5-1.5 2.9-.2 3.2 5.2 1.5 5-1.6 6.1-1.3 3.8 1-1.4 1.4 1.1 1.5 8.5.3 3.8-.6 4.7-.5 4.7.7 0 1.4 1.6 1.4 7.8-.4 1.6-.5 2.2-.2 2.2.9 0 1.4.4 1.5 4 .2 2.2-.8 5.3-1.4 6.8-1.3 2.9.1 9.1-1.3 18.5-4.4 5.5-1.7 18.8-3.7 17.7-2.6-.3.3-4.5 2-9.5 3.8-4.9 1.8-9.2 3.6-9.5 4s-2.2 1-4.2 1.4c-2.1.4-4.3 1.3-5 2-.8.7-3.1 1.7-5.3 2.3-2.7.6-4 1.4-3.9 2.5.1 1-.9 1.9-2.5 2.3-5.3 1.2-8.2 2.8-7.7 4.1.3.8.1 1.4-.5 1.4-1.9 0-11.1 6.8-10 7.4.6.4-.5 2-2.7 3.8-11.3 9.6-24.3 23.8-21.7 23.8.4 0 4.3-2.9 8.8-6.4 8.3-6.4 13.3-9.5 16.8-10.1 1-.2 3.9-1.7 6.3-3.4 3.8-2.7 4.5-2.8 5-1.4.6 1.4 1.2 1.1 3.9-1.5 3.7-3.6 4.7-3.9 4.7-1.5 0 .9 1.2-.1 3-2.5 3.3-4.5 4.7-5.2 5.2-2.5.3 1.4 1.5.6 5.6-3.6 3.7-3.8 5.2-4.9 5.2-3.6 0 1.2 1.2.4 4.1-2.9 2.3-2.6 4.8-4.5 5.7-4.4 1.5.3 3.4-2.1 8.9-10.8.9-1.5 1.2 4.2 1.2 26.7l.7 39.1c.6 9.6.9 10.5 2.5 10.1 1.8-.5 1.8-2.2 1.2-39.4-.4-23.3-.3-38.9.3-38.9.5 0 1.9 1.5 3.1 3.3 3 4.4 9.3 10.4 9.3 8.9 0-2.1 1.6-1.3 6.4 2.9 3.1 2.8 4.6 3.6 4.6 2.5 0-2.3 1.3-2 4.1 1 1.3 1.4 3.7 3.3 5.2 4.1 2.8 1.4 2.9 1.4 2.2-.8l-.8-2.3 2.9 1.8c1.6 1 3.7 2.8 4.6 4 1.5 1.7 2 1.8 2.7.7.7-1.2 1.5-1 4.4.8 3.7 2.3 5.2 2.7 4.2 1.1-.9-1.5 2.2-1.2 5.6.6 1.7.8 4.7 1.7 6.7 1.9s9 3.1 15.5 6.4c6.4 3.2 11.7 5.6 11.7 5.1 0-1.9-9-9.2-18.5-15.1-5.6-3.5-10.1-6.9-9.8-7.5.4-1-8.2-5.4-10.6-5.4-.6 0-.8-.6-.5-1.4.6-1.4-1.3-2-8.6-2.8-1.4-.2-2.5-.9-2.5-1.8 0-1.1-1.3-1.6-4.5-1.8-2.4-.2-4.7-.7-5-1.2s-3.2-1.4-6.5-1.9l-15-2.9c-11.2-2.3-9.3-3.8 3.3-2.7 16.8 1.4 18.8 1.5 27.5 1.8 6.8.2 8.7 0 8.7-1.1s1.1-1.2 5.2-.7c4.4.6 5 .5 4.5-.9-.6-1.4.3-1.6 6.3-1.6 6.9 0 8.1-.5 5.9-2.7-.9-.9.2-1 4.5-.6 5.8.6 6.6.1 4.1-2.7-1.3-1.4-.9-1.6 4.1-1.6 6.2-.1 8.4-1.4 6.4-3.9-1-1.3-.9-1.5.7-1.5 1.1 0 3.5-.5 5.2-1.1 2.7-1 3.2-1.5 2.7-3.5s-.3-2.4 1.6-2.4c1.3-.1 3.8-.9 5.7-1.9 2.9-1.6 3.1-1.9 1.5-2.5-1.5-.6-.9-1.2 3.4-2.8 2.8-1 5.2-2.5 5.2-3.2s1.9-1.9 4.3-2.6c4.8-1.4 14.2-6.1 17.2-8.5 1.9-1.5 1.5-1.5-5.3-.9-4 .3-10.5 1.4-14.5 2.4s-7.4 1.4-7.8.9c-.4-.7-4.8.6-12.3 3.6-1.5.7-1.7.5-1.1-1.4.6-2.1.5-2.1-5.4.9-4.9 2.4-6.1 2.7-6.1 1.5 0-1.4-.4-1.4-3.2.2-1.8 1-4 2.4-4.9 3.1-1.4 1.1-1.8 1-2.3-.3-.5-1.4-1.2-1.2-5.1 1-2.4 1.5-4.9 2.4-5.5 2s-2.9.5-5 1.9c-2.2 1.4-4.4 2.6-5.1 2.6-.6 0-3 1.1-5.3 2.5-2.4 1.4-4.5 2.3-4.8 2s-2.6 1.3-5.1 3.6c-3.4 3-4.7 3.6-4.7 2.4 0-1.3-1.1-.9-5 1.9-2.8 2-5.5 3.4-6 3.1s-1.1-.1-1.5.5c-1.6 2.6-21.8 10.6-23.7 9.3-1.6-.9-.1-12.5 2.4-19.1 1.2-3.1 3.4-7.7 4.9-10.2 1.6-2.5 2.4-4.7 1.9-4.8-1.6-.6-1.2-2.2 2-7.4 3.5-5.6 3.5-5.8 1.5-5.8-1.1 0-.6-1.4 2-5.2 2-3.1 3.1-5.6 2.6-6.1s-.1-2.6 1-5.1c2.1-4.6 2.4-7.6.9-7.6-.6 0-.1-1.8 1-4 2.4-4.7 2.6-7 .5-7s-1.9-.5 1.6-6.7c1.7-3 2.9-5.6 2.7-5.8s-1.7.2-3.2 1c-2.6 1.4-2.8 1.4-2.1-.3 1.4-3.3 3.5-10.5 3.5-12 0-1.2-.5-1-2.3.6-3.3 3.1-4.2 2.7-1.7-.8 1.2-1.7 1.8-3 1.3-3-.4 0-.7-2-.5-4.4.4-4.1.2-4.4-1.7-3.9-2 .5-2.1.3-1.1-2.1 1.2-3.3 1.3-6.6.1-8.5-.7-1-1.3-1.1-3-.1-2.2 1.1-2.2 1.1-.6-1.4 2.2-3.4 1.7-10.2-.7-9.8-1.5.2-1.6-.1-.7-2.5.7-1.9.7-2.9 0-3.1-.6-.2-1.1-1.5-1.1-2.9 0-1.9-.4-2.4-1.6-1.9-1.3.5-1.4.1-.9-2.4.9-4.2-.3-9.3-2.1-8.6-1.1.4-1.4-.7-1.4-5.1 0-5.1-.1-5.4-1.7-4.2-1.5 1.3-1.6 1.2-1.1-.9.4-1.5.2-2.5-.8-2.9-.8-.3-1.1-.9-.8-1.5 1-1.5-.5-5.8-2.1-5.8-1 0-1.2-.9-.8-3.5.4-2.7.2-3.5-.9-3.5s-1.7-1.6-2-6.3c-.5-5.7-6.5-25.7-8.8-29.5-.8-1.2-1 3.8-.7 17z"/><path id="C" d="M220.5 412c-5.8 7.1-11.2 13-11.9 13-.8 0-1.6.9-1.9 2-.3 1.2-1.1 1.8-2 1.5-.9-.4-1.9.4-2.7 2.5-1 2.4-1.5 2.8-2.6 1.9-2-1.6-3.9.2-6 5.7-1.9 4.9-2.2 5.1-3.9 2.7-1.2-1.6-1.5-1.4-2.8 1.7l-1.5 3.5-1-2.5c-1-2.5-1-2.4-3.1 2-1.1 2.5-2.1 5.3-2.1 6.2 0 1-.4 1.8-.9 1.8s-1.2-.8-1.6-1.8c-.6-1.6-.7-1.6-2.1.2-.8 1.1-1.4 3.1-1.4 4.5 0 1.9-.3 2.2-1.2 1.3-2-2-2.8-1.4-2.8 2 0 4.7-1.5 6.8-2.4 3.4-.9-3.5-2.3-2.5-5.1 3.6-1.3 2.7-2.6 4.5-3 3.9-.9-1.6-2.5-.3-2.5 2 0 1.1-.4 1.8-.9 1.5-1-.7-2.1 1.7-2.1 4.6 0 1.7-.3 1.8-1.5.8-1.3-1-1.8-.6-3.5 3.1-1.1 2.4-2 5.1-2 5.9-.1 1.2-.3 1.2-1.4-.3-1.2-1.6-1.5-1.1-3.2 4.3-1.4 4.8-2 5.7-2.7 4.4-.8-1.4-1.4-.5-2.9 4.4-1 3.5-2.5 6.2-3.2 6.2-1.5 0-3.2 3.4-4.1 8.4-.4 2-1.1 3.3-1.6 3s-.9.5-.9 1.8c0 3.6-1.1 6.8-2.1 6.2-1.2-.7-2.9 3.9-2.9 7.7 0 1.6-.4 2.9-.9 2.9s-1.2 1.7-1.6 3.7c-.4 2.1-1.2 4.5-1.9 5.3s-2.1 3.5-3 6c-1 2.5-3.1 6.9-4.7 9.7-1.6 2.9-2.9 5.6-2.9 6s2.2-1.6 5-4.5c6-6.3 12.7-10.7 19.6-12.9 3.3-1 5-2.1 4.7-2.9-.3-.7 1.6-2 4.9-3.2 3.2-1.2 5.2-2.6 5.1-3.4-.2-.8 1.6-1.9 5-2.8 2.8-.8 5.2-2.1 5.2-2.7 0-.7 2-2.3 4.5-3.6 2.6-1.4 4.4-3 4.3-3.9-.2-.8 1.1-1.9 3.1-2.6 4.4-1.6 6.5-4 4.6-5.2-1.3-.8 1.6-2.5 7.9-4.5 2.5-.7 1.8-2.1-1.3-2.7-1.4-.2-.6-1.1 3.2-3.6 6.4-4.1 7.1-5.2 3.5-5.3l-2.8-.1 3-1.3c1.7-.8 2.6-1.4 2.1-1.5-.5 0 .3-1.1 1.8-2.5 2.9-2.7 3.4-4.5 1.1-4.5-1 0 0-1.5 2.5-3.8 4.5-4.4 5-6.2 1.8-6.2-1.9-.1-1.7-.4 1.4-2 3.8-2 6.1-6.1 3.9-6.8-.8-.3-.5-.9.8-1.8 1.1-.8 1.8-2 1.5-2.8-.3-.7.2-1.9 1.1-2.6 1.1-.9 1.2-1.5.5-2s-.1-1.8 1.9-3.8c3.1-3 4.1-6.2 2-6.2-.6 0 .3-1.6 2-3.5 3.5-4 4-5.8 1.4-4.8-1.6.6-1.6.4.1-1.5 1.1-1.2 1.5-2.2 1.1-2.2s-.1-.8.7-1.8c2.1-2.4 2.9-5 1.7-5.8-.6-.3-.2-1.2 1.1-2.1 1.2-.9 1.9-2.1 1.6-3-.4-.8.3-2.8 1.4-4.3 3.4-4.7 13.8-29 12.5-29-.2 0-5.2 5.8-11 13z"/><path id="D" d="M800.2 412.2c-5.7 7-10.9 12.8-11.7 12.8-.7 0-1.5.9-1.8 2-.3 1.2-1.1 1.8-2 1.5-.9-.4-1.9.4-2.7 2.5-1 2.4-1.5 2.8-2.6 1.9-1.9-1.6-3.8.2-6.1 5.7-2 4.8-2.7 5.3-4.2 2.6-.8-1.5-1.2-1.2-2.5 1.8-1.2 2.8-1.6 3.2-2.1 1.7-.4-.9-1-1.7-1.5-1.7-.6 0-3 4.9-4.5 9.5-.6 1.9-.7 1.9-1.6.2-1.6-2.8-2.8-2-3.5 2.3-.6 3.5-.9 3.8-2.5 2.9-1.6-.8-1.9-.6-2 1.8 0 1.5-.4 3.7-.9 4.8-.7 1.8-.8 1.8-1.5-.8-.4-1.5-1.1-2.7-1.5-2.7-.9 0-5 8-5 9.8 0 .7-.4 1.2-1 1.2a1.08 1.08 0 0 1-1-1 .94.94 0 0 0-1-1c-.5 0-1 .9-1 1.9s-.7 2.1-1.5 2.5c-.9.3-1.5 1.8-1.5 3.7 0 2.7-.2 3-1.5 1.9-1.3-1-1.8-.6-3.5 3.1-1.1 2.4-2 5-2 5.6 0 1.9-1.8 1.5-2.3-.5-.2-.9-1.2 1.1-2.4 4.7-1.7 5.4-2.2 6.1-3 4.6-.9-1.6-1.2-1.4-1.8 1.6-1 4.5-3.4 9.1-4.4 8.4-1-.5-4.1 7.7-4.1 10.7 0 1.1-.4 1.7-.9 1.4s-1.2 1.4-1.5 3.9c-.5 3-1.1 4.2-2 3.9-1.4-.5-2.6 3.4-2.6 8.2 0 1.3-.4 2.4-1 2.4-.5 0-1.2 1.7-1.6 3.7-.4 2.1-1.1 4.3-1.5 4.9-.5.6-3.4 6.2-6.5 12.5l-5.6 11.4 5.4-5.6c6.3-6.7 11.7-10.4 19.5-13.3 3.3-1.2 5.8-2.7 5.8-3.5s2.2-2.2 5-3.1c3.3-1.1 4.9-2.2 4.7-3.2-.1-1 1.4-1.9 5-2.9 2.9-.8 5.3-2 5.3-2.6 0-.7 2-2.3 4.5-3.6 2.8-1.5 4.4-3 4.2-4s1-1.9 3.2-2.7c4-1.3 6.3-3.5 4.6-4.5-2-1.2-.9-2.2 4.6-3.9 5.4-1.7 6.1-3 2-3.8-1.5-.2-.5-1.3 4-4.3l5.9-4-3.5-.5-3.5-.6 3.3-.8c1.8-.4 3-1.1 2.7-1.5-.2-.5.7-1.9 2-3.1 2.9-2.7 3.2-4 1-4-1 0 0-1.5 2.5-3.8 4.5-4.4 5-6.2 1.8-6.3-2 0-1.9-.2.9-1.6 3.9-2 6.4-6 4.4-7.3-1.1-.6-.9-1 .7-1.9 1.2-.6 1.9-1.7 1.6-2.5-.3-.7.2-1.9 1.1-2.6 1.3-1.1 1.3-1.5.3-2.2s-.9-1.1.5-1.9c1.5-.9 4.7-5.9 4.7-7.4 0-.3-.6-.5-1.4-.5s.2-1.6 2.2-3.6c3.3-3.3 3.5-3.8 1.9-4.3-1.7-.6-1.7-.8-.3-2 .9-.7 1.3-1.7 1-2.2s.2-1.6 1.1-2.5 1.5-2.6 1.3-3.8.6-2.8 1.7-3.7c1.6-1.4 1.7-1.9.6-3.3-.7-.9-.9-1.6-.4-1.6 2.2 0 15.2-27.4 14.1-29.9-.2-.4-4.9 5-10.6 12.1z"/></defs></svg>