<svg xmlns="http://www.w3.org/2000/svg" xmlns:xlink="http://www.w3.org/1999/xlink" width="1706.667" height="1021.333" viewBox="0 0 1280 766" preserveAspectRatio="xMidYMid meet" xmlns:v="https://vecta.io/nano"><path d="M783.5 1.9c-4.6 2.1-9.1 6.9-11.2 12.1-2.2 5.1-5 7.7-10.4 9.5-9.5 3.2-4.4 5.1 7.5 2.9 9.1-1.6 16.6-4.1 16.6-5.5 0-.5-.4-.9-.9-.9-1.6 0-2.2-3.6-1.1-6.6.9-2.2.8-2.9-.5-3.6-2.4-1.4-1.8-2.5 2.5-4.2 11.4-4.6 18.2-.2 21.6 13.9 1.9 7.8 3.9 11 5.4 8.5 1.8-3-1.7-15-6-20.2-5.9-7.2-15.5-9.6-23.5-5.9z"/><path d="M774 28.1c-4.1 1-11.5 2.2-16.5 2.5-10.4.7-13.5 2.2-13.5 6.3 0 5.7 8.2 12 15.8 12.1 3.4 0 4-.8 2-2.8-.6-.6-.9-1.5-.5-1.8 1.5-1.5 3.7.9 5.7 6.3s2.4 14.3.9 21.7c-1.1 5.2 11.3 8.1 17.6 4.1l3-1.9-1.9 2.2c-1 1.2-3.7 3.1-6 4.2s-5.9 3.8-8.1 6.1-5.5 4.8-7.2 5.5c-2.7 1.2-3.5 2.3-4.9 7.2-1 3.2-1.8 9.4-1.8 14.2-.1 9.6 1.3 12.8 6.8 15.8 3.8 2 14.7 2.2 25.4.3 7-1.3 7.2-1.4 7.2-4.2 0-2 .9-3.9 2.6-5.4 3.4-3.2 4.4-3.1 4.4 0 0 1.8-.7 2.8-2.5 3.5-1.4.5-2.5 1.2-2.5 1.5s1.1 1 2.5 1.5c3.1 1.2 3.1 2.1.4 4.6-1.6 1.4-2.3 1.5-2.6.6-.7-1.8-3.3-1.4-3.3.5 0 3.5 1.6 4.6 5.4 4 4.3-.7 4.7-.2 7 10.3 2 9 3.1 11.2 4.6 9 1.3-2 1.2-3.9-.5-14.5-1.8-10.6-1.8-10.5-.6-10.5.5 0 1.2 1.1 1.5 2.5.4 1.4 1.3 2.5 2.1 2.5 3.8 0 4.9 25.7 1.3 29.7-1.7 1.9-1.7 2.1.7 5.3 3.1 4.2 3.2 5.4.3 3.9-1.9-1-2.5-.8-4.7 2-2.8 3.4-5.5 4-6.5 1.5-.7-1.9 1.8-6.9 3.9-7.7 2.1-.9 1.9-2.7-.2-2.7-1 0-4.9 1.6-8.7 3.5-3.9 1.9-8.1 3.5-9.5 3.5s-3.5.7-4.6 1.5c-1.4 1.2-3.4 1.4-8.2.9-11.4-1.2-6.5 2.7 5.2 4.1 8.3 1 9.6 1.5 10.4 3.8 1.1 2.9-.4 6.7-3.7 9.4-3.9 3.2-5.4 2.8-8.4-2-3.1-4.8-6.8-8.6-6.8-6.9 0 .6.9 3 2.1 5.2 2.4 4.6 2 8.3-1.1 10-2.8 1.5-7.1-1-9.6-5.5l-1.9-3.7 3-2.4c1.9-1.5 2.6-2.7 2-3.3-1.1-1.1-3.2-.2-8.4 3.7-4.9 3.7-3.6 1.2 2.4-4.8 5.2-5.2 6.3-7.6 2.7-6.3-3.2 1.1-8.4 5.6-10.4 8.9-2.3 4-11.3 9.8-35.4 23.2-23.9 13.2-29.5 16-52.4 26-37.2 16.1-67.5 27.6-106.3 40.1-24.4 7.9-31.5 9.1-59.2 10-24 .9-24 .9-35 4.6-13.4 4.4-20.5 6.1-33.8 8-13.6 2-49.2 3.2-50.1 1.7-.4-.7 1.4-1.7 5.1-2.7 29.4-8.2 52.8-16.1 115.8-39 16-5.8 101.2-39.1 118.3-46.2 23.3-9.6 24-9.8 27.6-8.4 1.7.6 6.5 1.4 10.7 1.8l7.6.6 2.2 7.6c2.5 8.5 5.6 14.1 7.7 14.1 2 0 1.8-.8-2.3-13.2-3.8-11.1-7.2-16.4-9.8-15.4-.7.2-3-.6-5-2-2-1.3-4-2.4-4.5-2.4-1.5 0-1.2 2.2.7 4.2 2 2.3 1.2 3.2-2.2 2.4-3.6-.9-4.1-3.1-2.2-8.7.9-2.5 1.7-5.8 1.7-7.3 0-4.5 4.6-6 18-6.1h11.5l1.5 4.4 1.5 4.4-2.9 2.1c-5.5 3.9-10.1 8.4-9.4 9.2.4.4 2.6-.1 4.8-1.1 3.8-1.7 4.1-1.7 6 0s2.4 1.6 13.7-1.5c24.8-6.8 30.2-8.9 35.3-13.6 2.6-2.4 5-4.4 5.4-4.4.3 0 .6 1.5.6 3.4s.4 3.7 1 4.1c2.5 1.5 7.5-11.9 10.9-28.8 1.2-6 3.1-13.2 4.1-16 2.5-6.5 2.6-12.5.4-13.4-1-.4-2 .1-2.7 1.2-.8 1.5-1.2 1.1-2.8-3.1-1.1-2.7-1.9-5-1.9-5 0-.1.9-.4 2-.7 2.4-.6 2.8-5.2.5-6.1-2.1-.8-2.1-12.6 0-16.6.9-1.7 1.1-3.1.6-3.5-1.5-.9-4 3.4-6.2 10.7-1.1 3.7-3.1 8.1-4.5 9.8-2.7 3.2-6.8 4-7.7 1.6-1.9-4.8 7.3-20 14.9-24.7 1.9-1.1 5.7-2.7 8.5-3.4 6.5-1.7 10.5-4.3 9-5.8-.7-.7-3.2-.4-8.5 1.1-4.1 1.2-8.4 2.2-9.6 2.2-1.3 0-3.7 1.6-5.6 3.7-3.9 4.3-11.6 19.6-13.2 26.3l-2.2 9.5c-.6 2.7-2 6.4-3.1 8.1-1 1.7-1.9 3.8-1.9 4.7s-1.9 3.7-4.2 6.4c-2.3 2.6-5.7 6.9-7.6 9.5-2.1 3-6.5 6.8-11.8 10.3-4.6 3.1-8.4 5.9-8.4 6.4 0 .4 1.2 1.3 2.6 2 2.2 1 2.5 1.6 1.9 4.1-.6 2.6-.4 3 1.5 3s2.2.4 1.8 3.2c-.3 1.8-.8 4.1-1.3 5.1-.6 1.4-.4 1.6 1.1 1.1 2.7-1 4.4-3.4 4.4-6.3.1-1.4.7-4.3 1.4-6.4l1.4-3.7h-2.9c-2.2 0-2.9-.5-2.9-1.9 0-2.4 1.6-3.7 6-4.8 2.6-.7 4.3-2.1 6.8-5.8 7.3-11.1 10.2-13.5 10.2-8.5 0 1 .8 2.1 1.8 2.5 1.6.6 1.6.7-.2 2.1-1.1.8-2.8 1.4-3.8 1.4-.9 0-2.2.9-2.8 2s-1.7 2-2.5 2c-2.4 0-2.8 4.6-1 9.4 1.8 4.6 1.4 7.8-1.3 10.8-.8 1-2.3 1.8-3.2 1.8-1.1 0-2 1-2.3 2.8-.6 3.1-5.2 5.8-11.7 6.8l-4 .7v-4.2c0-9.7-7.5-19.2-11.7-15-.9.9-2.6.9-7 0-6.2-1.2-11.5-.3-16 2.6-2.6 1.7-7.3 9.1-7.3 11.5 0 5.5-9.7 10.6-52 27.6-62.9 25.2-105.1 41.3-147.5 56.2L422 285c-18.5 7.5-53.3 13.7-71.5 12.8-4.4-.2-11.8-1.1-16.5-2.1l-20.5-3.8c-14.9-2.6-18.2-3.9-19.1-7.4-1-3.8 1.1-12 5.1-20.4 1.9-4 3.5-8.5 3.5-10.1 0-4.1-3.1-4.8-7.8-1.7-3.1 2-4.3 4-7.6 12.6-2.2 5.5-4.2 10.1-4.4 10.1s-2.2-1.9-4.4-4.1c-4-4.1-4.1-4.1-9.9-3.7l-5.9.4.2-7.7c.2-9.3-1.5-12.9-6.2-12.9-4.5 0-5.3 2.6-4.1 14 .5 5.2.8 9.7.6 9.9-.2.1-4.4-2.2-9.3-5.2-12.2-7.6-22.6-12.7-25.8-12.7-1.4 0-8.8-2.9-16.3-6.4-15-7.1-21.4-9-34.3-10.5-4.8-.6-15.4-2.6-23.5-4.5-24.8-5.9-39.5-6.9-41-2.9-.5 1.3-1.6 1.4-6.2.9-3.1-.4-6.6-1.4-7.9-2.2-3.6-2.4-6.2-9.3-6.5-17.3-.2-3.9-.7-7.4-1.1-7.8-1.6-1.7-8.1 9.3-13.6 23-2.8 7.1-4.1 7.9-9.9 6.1-6-1.8-9-1.8-14.8.2-9.2 3.1-14.4 8.6-15.3 16.3l-.5 4.5-6.7-6.3c-3.7-3.5-8.8-9.1-11.2-12.6-7.9-11-9.9-9.8-9.2 5.5.6 13.6 2.8 19.8 9.6 26.5 3.7 3.6 5 5.7 5 7.8 0 1.5.7 4.1 1.5 5.7.8 1.5 1.9 6.7 2.4 11.4.6 4.7 1.5 10.4 2.1 12.7 1.3 4.7 1.2 4.9-4.2 6.9-6.1 2.3-8.2 5.7-8.6 14.4-.6 11.2 4 25.9 10.5 33.6 2.1 2.6 3.2 3 7.3 3 3.7 0 5.5-.6 7.9-2.6 1.7-1.4 3.5-2.3 4-1.9 1.3.8 4.4 11.3 7.2 24.5 1.4 7 3.4 12.8 5.9 17.6 4.8 9 7.5 20.6 6.7 28.4-.7 6.7.4 8.4 6.4 9.5 2.8.5 3.9 1.4 5 3.8 1.8 4 6 5.6 15.4 5.6 8.7.1 15.1-1.6 23.8-6.3 3.8-2 7.5-3.6 8.2-3.6 3.9 0 8.5-12.6 6.6-18.1-1.3-3.8-.3-4.9 4.1-4.9 1.7 0 3.1-.8 3.8-2 .9-1.7.7-2.2-1.1-2.8-2.1-.8-2.1-.9.9-3 4.7-3.4 11.4-6.2 14.9-6.2 2.7 0 3.2.4 3.8 3 .4 1.7 2.6 7.9 5.1 13.8 5.7 14.1 5.9 19.3.9 28.8-2.9 5.5-3.5 7.6-3.5 12.7 0 14.5 6.9 27.7 14.5 27.7.8 0 2.3.8 3.3 1.8 1.6 1.6 1.7 2.6.9 7.9-1.6 9.3 1.6 20.2 10.2 34.6 3.3 5.7 3.4 5.9 2.2 11-.7 2.9-2.8 14.3-4.6 25.5-2.9 17.2-4 21.5-7.2 28.5l-3.8 8.2V616c0 17 .8 18.8 11.8 28.9 9.7 9 24.8 24.1 36.7 36.8 11 11.7 15.5 13.7 31 13.6 13.7 0 24.9-1.8 27.5-4.4 1.6-1.6 2-3.2 1.9-8.7 0-8.1-3.6-15.6-9.9-20.7-7.9-6.5-15.4-8.1-21.3-4.5-3 1.8-3.5 1.9-4.8.5-.9-.8-2.1-1.5-2.7-1.5-2-.1-8.7-5.6-18.9-15.7l-9.8-9.6-.6-10.1c-1.1-17.4 3.1-28.5 17.5-46.4 11.5-14.2 15.1-19.6 16.7-24.8.7-2.3 1.7-5.2 2.3-6.2 1.7-3.2.1-3.3-4.3-.3-5.8 4.1-13.8 11.2-13.1 11.9.3.3 2.5-.9 4.9-2.6 6.7-4.8 7.6-3.8 2.1 1.9-2.8 2.9-4.2 4.9-3.2 4.6 3.1-1.1 1.8 1-6.6 10.7-4.5 5.2-9.8 12.1-11.6 15.3a359.47 359.47 0 0 1-6.9 11.1l-3.5 5.3.9 16.4.9 16.4 7 7.3c10.2 10.6 17.6 16.9 20.7 17.5 1.5.3 3.3 1.2 4 2 1 1.3.8 1.9-1.1 3.4-2.1 1.7-2.1 2-.7 3.5.9.8 1.6 2.6 1.6 3.8 0 2.5 3.3 6.1 4.8 5.2.5-.3 1.2-1.9 1.6-3.7.9-4.7 4.2-3.5 10 3.8 2.7 3.5 5.2 6.1 5.4 5.8 1-.9-2.3-7.9-5.7-12.3-5.2-6.6-5.4-7.1-4.1-8.7 1.6-1.9 8.3-1.9 11.9-.1 3.6 1.9 9 8 10.7 12.2 1.8 4.3 1.8 10.8 0 12.4-3.6 2.9-31.2 5.2-40.5 3.4-2.3-.5-4.6-2.5-8.8-7.8-3.2-3.9-14-15.5-24-25.7-10.1-10.2-18.3-19-18.3-19.6 0-.5 1.3-2.2 3-3.8 4-3.9 2.9-4.4-2-1-5.2 3.6-6 2.9-7.6-7.2-2.2-13.5-1.9-17.1 2.2-23.9 4.6-7.6 6.4-12.6 6.4-18 0-7.6 3-26.2 5.6-34.7 1.4-4.5 2.8-9.2 3.1-10.5.4-1.7-1.5-6.4-6.6-16.5-7.3-14.4-10-23-8.7-28 .6-2.4 1.1-2.7 4.5-2.7 5.4 0 6.3 1.5 4.6 7.5-.8 2.6-1.4 6.4-1.4 8.4.1 2.2.3 2.8.6 1.6.3-1.1 1.4-4.3 2.5-7.2 2.4-6.6 4-7.2 22.7-7.5l14.5-.3.8 4c1.3 6.6 3.9 12.5 5.4 12.5 1.2 0 1.3-1.4.8-8-.9-10.2.1-11.7 10.9-17.1 16.4-8.3 28.5-18.4 39.4-33 3.6-4.9 7-8.9 7.5-8.9 1.1 0 41.4 10.4 50.2 12.9 3.8 1.2 7.4 2.5 7.9 3 1.4 1.4-11.9 2.3-36.8 2.5-24.5.1-25.6.3-29.4 5.2-5.7 7.2.8 19.3 11.1 20.8 2.4.3 16 1.1 30.3 1.6l34.7 1.6 8.8.7-3.7 6.9c-3.9 7.4-21.7 27.3-23.4 26.2-.6-.3.2-2.2 1.7-4.1l2.7-3.6-3.2.6c-2.9.6-3.2.5-2.6-1.3 1.2-3.8-1.5-2-6.2 4-2.5 3.3-4.8 5.9-5 5.7-.1-.2 1.1-2.9 2.8-6 4.2-7.9 3.1-9.3-1.9-2.5-7 9.5-8.1 9.1-2.5-.9 4.5-8.1 2.8-7.8-4 .6-6.6 8.1-8.8 9-4.8 1.9 4.8-8.4 4.1-16.9-1.8-22.2-2.1-1.9-2.1-1.9-2.1 0 .1 1 .7 3 1.5 4.4 3.1 5.4.7 17.6-3.7 18.8-2.7.7-3.7 6-4.8 24.8-2.4 40.8.2 117.8 4.6 141.9.9 4.4 1.9 11.1 2.3 14.9.5 5.4 1.2 7.2 3 8.7 2.9 2.4 3.9 1.8 4.7-2.9.8-4.6 2-6.2 4.8-6.3 1.3-.1.6-.6-1.9-1.3-5.1-1.6-5.1-3.4-.1-6.2l4-2.3-3.9-.3c-4.8-.4-6.9-3.1-8.9-11.3-2.7-10.7-3.6-21.5-4.3-48.5-.5-23.9-.2-34.9 2.4-87.9l.6-13.4 8.9.7c4.9.4 10 1.1 11.4 1.6 3.4 1.3 11.9 1.2 16.9-.2 2.2-.6 13-1.4 24-1.8 15.6-.6 22.5-1.3 31.6-3.3 20-4.3 46.3-14 52.9-19.5 4-3.3 1.9-3.4-6.2-.3-12.9 5-43.1 14.1-46.7 14.1-.6 0-1.1-.7-1.1-1.6 0-1.5-2-.7-11.2 5-2.8 1.7-3.3-.2-.8-2.9 3.8-4.1 1.6-4-4.7.2-11.5 7.8-11.2 6.8 2.1-7.5 5.8-6.1 11.4-12.5 12.6-14.2l2.1-3h12.7c7 0 14.4-.5 16.5-1.1 3.1-.8 4.2-.8 5.5.4 4.8 4.1 26.1 8.2 76.1 14.7 12.8 1.6 23.6 3.2 24 3.4.4.3 1.6 2.7 2.6 5.3 2.5 6.7 7.9 17.4 13.6 26.8 5.5 9.2 8.4 16.2 10.5 25.2 1.3 5.6 1.3 7.5-.1 16.5-4 26.8-17.7 65.1-28.4 79.3-2 2.7-5 7.2-6.6 10-1.5 2.7-6.3 8.6-10.6 13s-10 10.9-12.6 14.5c-4 5.4-5.6 6.8-9.7 8.1-3.3 1.1-4.3 1.8-3.2 2.2.9.4 2.6 2.2 3.7 4.1 2.8 4.8 6.9 6 19.3 5.4 7.6-.4 11.8-1.2 16.9-3.1 14-5.4 20.4-12 23.1-23.9.9-3.9 2.7-9 4-11.3 2.3-3.8 3.2-4.4 15.8-9.2 13.8-5.3 17.1-5.9 41.5-7.8 12-.9 16.1-2.6 4.8-2-4.9.3-10.8.7-13 1l-4 .5 3.5-1.4c18-7 24.2-14.5 21.8-26.2-1.3-6.3-.5-7.9 4.7-8.8 1.9-.4 3.5-1.1 3.5-1.6s1.6-2.6 3.6-4.5l3.6-3.7-.5-10.1c-.3-5.6-1.1-14.9-1.7-20.7-3-26.6 2.6-74.6 9.1-78 3.5-1.9 4.4-.7 4.5 6.1.3 11.7 9.4 30.4 18.5 38.3 4.7 4 10.6 5.8 17.3 5.4 5-.3 7.2-2.1 3.7-3.1-1-.2-2.7-1.7-3.7-3.3-1.7-2.4-1.9-5.2-2.1-21.2-.1-10.2-.4-18.6-.6-18.9-.3-.2-1.3 1.5-2.2 3.9-1.3 3.1-2 7.9-2.3 16.9-.4 11.2-.2 13.1 1.7 17.4 1.1 2.6 2.1 5.2 2.1 5.6 0 .5-2.2-.2-4.8-1.5-10.2-5.2-20.8-20.8-23.2-34.3-1.3-7.7-.4-9.8 4.8-11.3 3.7-1 30-3.9 30.6-3.3.1.2-.3 3.1-1.1 6.5-1.8 8.8-2.1 21.2-.4 23.2 3.2 3.8 4.9.4 6.7-12.9.9-6.4 4.1-17.2 5.5-18.1 1.9-1.1 2.9 1.1 5.4 11.1s8.6 23.6 20 44c4.1 7.4 7.4 11.8 12.8 17.1 10.7 10.3 22 19 30.1 23.1 3.9 1.9 7.4 4 7.7 4.6.4.5 2.4 1.1 4.4 1.4 5.9.6 7.9 2.2 3 2.4-10.2.3-8.1 1.6 3.5 2.2 11.4.5 21.1 1.9 25 3.4 1 .4.3.9-2 1.4-4.6 1 21.8.1 34-1.2 34.2-3.7 60.2-15.5 83-37.8 9.6-9.5 14.1-15.6 13.8-19-.1-1.4 2.1-8 5-14.6 7.7-18 13.3-39.5 10.4-39.5-2 0-4.2 5.7-6.7 16.9-5.4 24.4-13.5 39.9-29 55.7-11.2 11.4-18.6 16.7-31.9 23-31.5 14.9-69.4 14.6-100.1-.9-16.6-8.3-33.2-23-43-38-9.9-15.3-24.1-45.7-26-55.8l-.7-3.7 4.9-.6c7.2-.9 31.5-2.4 51.1-3.2 15.2-.6 17.2-.5 17.2.8 0 .9-7.8 7.4-17.2 14.6-9.5 7.1-18.4 14.1-19.7 15.6-1.4 1.4-2.9 2.6-3.5 2.6-1.1 0-5.1-9-8.2-18.5-2.6-8-5.4-10.1-5.5-4.3 0 3.2-.1 3.1-2.4-2-2.8-6.1-4.5-6.7-4.5-1.6 0 10.3 17.2 47 24.1 51.2 3.2 2 3.1 1.1-.2-4-1.7-2.6-2.9-5.2-2.7-5.9.2-.6 1.7.8 3.2 3.2 6 9 19.2 22.3 30.5 30.6.3.2-.4.9-1.4 1.7-1.8 1.3-1.8 1.4.7 3.7 2.9 2.6 5.4 4 17.2 9.3 7.2 3.3 15.5 4.9 14.2 2.7-.3-.5-6-3.2-12.6-6.1-11-4.9-16.2-8-13.1-8 .6 0 6.9 2.2 13.9 4.9s15.1 5.6 17.9 6.6c2.9.9 5.5 2.1 5.8 2.6.8 1.3 37.2 1.2 38-.1.4-.6-4.1-1-12.7-1.1l-13.3-.1 9.2-1.4c27.4-4 46.3-11.8 61.7-25.5 11.4-10.1 23.2-30 28.1-47.4 3-10.3 4.4-22.5 2.7-22.5-1.9 0-3.9 4.2-4.6 9.2-.8 5.6-2 6.7-3.7 3.6-.6-1.3-3.6-5.1-6.6-8.6l-5.5-6.2h20 20l.6 3c.3 1.7 1 12.1 1.6 23.3 1.6 31.4 3.3 44.5 7.6 59.6 2.3 7.8 13.8 33.8 18.4 41.3 3.4 5.6 3.6 6.5 2.4 7.9-1.3 1.5-1.2 1.7 1 2.3 1.4.3 3.2 2 4.1 3.6 2 3.9 1.9 4.3-1 3.6-1.4-.4-3.5-.2-4.6.5-1.1.6-7.6 1.5-14.3 1.9-6.7.5-13.5 1.4-15.1 2-1.7.7-5.9 1.6-9.5 2.1-14.3 2.1-28.1 7.1-25.8 9.5.4.4 2.5 0 4.5-1 5.8-2.6 14.3-4.6 19.4-4.6 2.6 0 8.2-.7 12.5-1.6 10.4-2.2 37.7-1.4 45 1.3 4.6 1.8 7.5 4.5 6.2 5.9-1.6 1.6-10.3 1.6-17-.1-5.1-1.2-8.9-1.5-13.1-1-11.1 1.2-25.7 6.8-23.5 9 .3.3 3.9-.7 8.1-2.2 7.4-2.7 7.7-2.7 10.6-1 1.6.9 6.3 2.2 10.5 2.8s8.7 1.9 9.8 2.9c2.1 1.6 2.1 1.8.5 5.8-2.5 6.3-1 7 11.1 4.7 7.2-1.3 11.7-1.6 17.7-1 12.9 1.1 21.3 1 51.6-.8 51.8-3.2 64.2-6.4 85-22.2 10.3-7.7 19-11.5 26.8-11.5 2 0 4.3-.4 5.1-1 2.8-1.7-2-2.4-7.9-1.1-9.5 2.2-11.1 2.4-11.1 1.3 0-.6 2.6-4.4 5.8-8.4 19.8-24.7 32.9-54.1 41.6-92.8 4.6-20.8 5.8-31.5 6.5-57.5l.6-25 12-1.1c6.6-.6 14-1.5 16.4-1.9 6.4-1.1 4.9 1.5-2.2 3.8-6.7 2.2-6.7 4.2-.1 3.2 9.1-1.3 11.5 2.3 3.7 5.6l-7.2 3c-3.4 1.4-1 2.9 4.6 2.9 11 0 2.1 4.4-12.5 6.2-5.3.6-10.1 1.5-10.5 1.8-.5.4.7 1.7 2.6 2.9 9.4 5.8 23.1-.6 28.8-13.4 1.8-4.1 4.6-22.1 3.6-23.1-.3-.3-1.8.4-3.4 1.6-2.2 1.5-6.4 2.6-15.9 4-7.1 1.1-14.4 2-16.2 2-5.1 0-5.7-2.5-5.4-23.7.1-10-.2-22.4-.8-27.5-.8-7.7-.7-9.5.5-10.8 2.4-2.7 3.3-10.6 5.5-49 2.9-49.6 3.4-56 5.1-57.1 1.3-.8 10.5-.3 13.7.7 1.3.4 1.3 3.1-.9 58.4l-4.5 87.2c-1.3 12.1-2.4 5-2.4-15.9 0-11.9-.2-21.4-.5-21.2-.2.3-.9 9.3-1.5 20.1-1 19.7-2 25.5-4.1 24.2-2-1.2.2-29.9 5.2-67.4 3.7-27.9 4.9-39.4 4.8-46.5-.1-5.9-.5-4.1-2.4 11l-6 46c-3.9 30.6-5.4 54.3-3.6 58.7l1.1 2.8h11.2c10.7-.1 19.2-1 20.5-2.3 1.4-1.5-2.5-3.8-10.4-6.4l-8.5-2.8.6-8c1.3-16.4 3.3-55.7 5.6-109.9.6-13.6.8-26.1.5-27.7-.8-3.7-3.2-4.3-15.4-4.4-6.7 0-9.6.4-9.8 1.2-.8 2.3-5.4 1.4-8.3-1.6-4.1-4-4.6-7.2-2.7-17.1 4-20.7.5-22.3-9.3-4.6-2.3 4.2-4.7 7.6-5.4 7.6s-2.6-1.6-4.3-3.5c-3-3.4-3.4-3.5-10.2-3.5h-7.1v-3.8c0-2 .5-9 1.1-15.6.5-6.5.7-12.1.4-12.5-1.1-1-6.2 5.8-10.5 14.1-4.8 9.1-8.5 13.8-11 13.8-2.4 0-3-1.9-3-10 0-8.3-.9-13.2-2.4-12.8-2.1.7-8.6 14.9-8.6 19 0 5.7-4.7 11.5-9.9 12.2-.9.2-1.7 1.4-1.9 2.7-.6 4.8-1.1 5.3-3.2 3.4-2.7-2.4-2.5-4.7.5-7.5 3.3-3.1 5.3-9 5.9-18.3l.6-7.8-2.8 1.9c-1.5 1.1-3.8 3.2-5.2 4.7-4.4 4.8-7.2 5.7-14.1 4.6-8.2-1.4-8.6-2.1-1.2-2.1 9.1 0 13.4-4.2 10.3-10-1.5-2.9-6.8-3.9-24.7-4.6l-16.1-.7-2.6 5.1c-2.5 4.9-3.4 10.1-1.9 11.5.3.4 1.8 0 3.2-1 2.6-1.7 10.4-2.4 11.7-1 1.4 1.3-1.8 2.7-6.4 2.7h-4.2l.6 8.2.6 8.3-3.6 4.5c-3.8 4.8-4.5 7.4-2.1 8.4 3.3 1.2 9.9-3.6 10.7-7.9.2-1.2 2.1-2.9 4.8-4.3 6.1-3 7-4.4 5.9-9.4-.6-2.2-.8-4.3-.5-4.5.9-.9 16.2 1.8 19.6 3.5 5.3 2.6 4.6 4.6-1.9 5.4-13.7 1.6-35.9 18.2-38.6 28.8-.9 3.4-2.4 5-4.6 5-3.8 0-1.8-6.2 2.7-8.3 6.2-3 3.2-5.7-6.2-5.7-3.1 0-3.3-.2-2.8-2.8.3-1.6.1-4.7-.5-7-.9-3.1-.9-4.7-.1-6.3 1.9-3.5.5-4.5-2.3-1.7-2.3 2.3-2.7 3.5-2.7 8.7 0 3.3-.5 6.3-1.1 6.6-2.3 1.5-7.9-6.2-7.9-10.9 0-1.8-.9-3-3.1-4.2-4.8-2.4-2.2-4.1 3.1-2 5 2 5 2 5-.3s-1.9-3.1-7.5-3.1c-6.7 0-9.5-1.4-9.5-4.9 0-3.4-1.3-4.6-6-5.8-3.3-.9-3.1-1 4.4-2 4.3-.6 8.3-1.6 8.9-2.2 1.4-1.4-.3-5-4.9-10.1l-3.7-4-14.6.4-22.6.5-8.1.1-2.7 5.5c-1.5 3.1-2.7 6.4-2.7 7.5 0 2.3 3.3 3.4 8.5 2.8 3.9-.4 4.2-.2 1.9 2.3-.8.9-1.9 4.3-2.3 7.5-.7 4.8-1.4 6.3-4.4 9.1-2 1.8-4.4 3.3-5.2 3.3-2 0-1.9-3.4.1-5 2.3-2 1.3-6.2-1.8-8-3.9-2.1-10.8.3-12.2 4.2-1.5 4.2.3 8.1 4.2 9.3 3.7 1.1 4 2.7 1.2 6.2-2.4 3.1-2.5 4.3-.5 4.3 1.6 0 2 1.2.8 2.3-.3.4-1.4 0-2.4-.9-2.6-2.4-7.2-1.5-7.9 1.6-.3 1.4-1.6 3-2.7 3.6-1.2.5-3.1 2.1-4.2 3.5-2.5 3.1-3.6 2-1.6-1.7.8-1.6 1.5-4.5 1.5-6.4.1-1.9.5-5.4.9-7.8.5-2.3.6-4.2.4-4.2s-1.7.7-3.3 1.5c-3.3 1.7-7.3.7-8.4-2-.6-1.6-.8-1.6-3.1-.1-3 1.9-3.5 2-3.5.3 0-.7 1.4-2.6 3-4.2 4.5-4.3 4-6-1-3.5-3.3 1.7-4.3 1.8-5.9.8-2.7-1.7-4.1-5.1-4.1-10.4 0-3.7.5-5 2.9-7.2 3.5-3.2 4.7-8.6 2.9-12.2-2.2-4-8.2-5.2-27.8-5.3-19.9-.2-26.8 1-30 5-3 3.8-2.6 7.1 1 9.1 3 1.6 3.1 1.9 2.4 6.7-.3 2.7-.8 5.3-1 5.6s-2.6.4-5.4.1c-9.5-.9-12.1 5.6-5.2 13l3.8 4 8-4.9 7.9-4.9.3-6.2c.2-3.4.7-6.2 1.2-6.2.6 0 1 .8 1 1.9 0 1 1.3 4.4 2.9 7.6 1.7 3.3 2.8 6.2 2.5 6.7-.3.4-1.7.8-3.1.8s-5.4 1.6-8.9 3.5c-6.4 3.6-11 4.4-14.3 2.3-1.5-.9-5.3-.9-16.8 0-8.1.7-18.9 1.2-23.8 1.2-5.7 0-9.5.4-10.3 1.2-.6.6-1.5.8-1.9.4-.5-.4-.8-7.6-.8-15.9.1-13.5.4-15.9 2.4-21.1 2.1-5.4 2.3-7 1.8-16.5-.7-13.1-2.2-19.8-4.8-20.6-4.4-1.4-.6-8.3 8.4-15.4 7.5-5.9 9.3-8.9 10.7-17.4 1.5-8.3 1-30.1-.7-31.8-.8-.8-1.3-.6-1.8 1-.3 1.2-1.1 2.1-1.6 2.1-1.2 0-1.2-3.2.1-6.5.9-2.4 1.1-2.5 2.6-1 2.5 2.4 3.6 1.4 3.9-3.5.1-2.5.6-6.3 1-8.6.5-3 0-6.5-1.9-14-3.2-11.9-4.8-13.6-19.1-21l-9.6-4.9-4.9 5.4c-7.3 8-9.4 14.5-3.4 10.7 1.4-1 2.8-1.5 3.1-1.3.9.9 1.6 15.4.9 19.1-.8 4.3-2.6 3.8-2.6-.7 0-7.7-2.6-10-5.5-5l-1.6 2.8.6-2.8c.3-1.6.3-3.8-.1-5-.7-2.2-.7-2.2-1.5-.2-.4 1.1-.8 4.3-.8 7.2-.1 3.9-.6 5.7-2.2 7.2-1.8 1.6-1.9 2.3-.9 4.1s.9 2.1-.2 1.8c-2.1-.7-2.1-8.2.2-16.4 2.3-8.7 5.5-15.3 9.9-20.8 2.2-2.8 2.9-4.5 2.5-6-1-3.2-4.2-6.3-7.3-6.9-1.6-.4-3.2-1.6-3.9-3.1-.6-1.4-1.6-2.6-2.2-2.6-3.7 0-14 9.2-14 12.5 0 2.1.3 2 5.5-2.5 2.5-2.2 5.1-4 5.6-4 1 0 2.9 4.2 2.9 6.5 0 1-.9 1.2-3.2.9-2.7-.5-3.8 0-6.2 2.5-2.8 2.9-7.6 4.3-7.6 2.1 0-1.9-2.7-1-5.5 2-3.7 3.9-4.5 3.8-4.5-.6 0-4.9 2-8.2 10.5-17.5 2.2-2.3 1.9-2.9-1.5-2.9-3.5 0-9.6 2.3-12.2 4.7-2.2 2-2.4 1.9-4-4-1.5-5.6-.6-6.7 5.4-6.7 4.3 0 5.2-1 4.3-5-1-4.6-3-6-8.7-6-2.7 0-4.8-.3-4.6-.8 3.6-8.3 4-10.1 2.4-11.7-5.1-5.2 1.9-9.1 13.3-7.5 3.6.5 8.6.6 11.1.3 4.1-.6 4.4-.5 3.1 1-.7 1-1.9 1.7-2.7 1.7-2.3 0-2.4 1.7-.3 4.4 1.1 1.4 3 2.6 4.1 2.6 2.1 0 2.1 0-.2 2.5s-2.3 2.5-.2 2.5c1.1 0 2.4.4 2.7 1 .3.5.1 1-.6 1-1 0-1 .3-.1 1.2 2.4 2.4 1.4 5.8-2.3 7.9-2 1.2-3.5 2.9-3.5 3.9 0 3 1.9 7 3.5 7.7 2.2.8 4-1.9 6.5-10 2.3-7.1 4-8.7 4-3.6v3.2l6-.6c6.9-.6 13.4-3.4 13.8-6 1.4-7.3-7.1-18.1-16.3-20.9-8.4-2.6-20.7-5.1-26.5-5.4-3-.1-6.6-.5-8-.8-1.4-.2-5.9.4-10 1.5zm1 31.4c-.9 1.1-1.6 1.3-2.3.6s-.6-1.5.3-2.6 1.6-1.3 2.3-.6.6 1.5-.3 2.6zm8.8.8c.3 1.6.1 1.7-1.7.7-2.5-1.3-2.8-3.3-.4-2.8 1 .2 1.9 1.1 2.1 2.1zM808.7 92c.4 0 1.5-.8 2.5-1.7 2.4-2.2 4.9-.3 3.2 2.5-1.6 2.5-5.7 2.7-7.8.3-1.6-1.8-1.7-2.3-.5-3.7 1.3-1.6 1.4-1.6 1.7.4.2 1.2.6 2.2.9 2.2zm27.8 0c0 2.2-3.9 1.9-4.3-.3-.3-1.5.1-1.8 2-1.5 1.2.2 2.3 1 2.3 1.8zm-58.1 2.1c3 2.4 3.3 4.5.9 7.1-2.8 3.1.9 2.2 6.7-1.7l5.4-3.5c.1 0 .3 1.7.4 3.7.2 2.1.5 3.9.7 4.1s2-.1 4.2-.7c3.9-1.1 14.3-1.5 14.3-.6 0 1.5-4.2 8.5-5 8.5-.9 0-1.4-2.2-1.1-4.3.2-1.5-1.4-.6-3.7 2l-2.3 2.8.5-2.6c.4-1.8 0-3.1-1-4-1.4-1.2-1.9-1-3.8 1.4-1.2 1.5-3.2 2.7-4.4 2.7-2.5 0-3 1.5-.7 2.4 2.2.8 1.8 3.6-.5 3.6-1.1 0-2 .4-2 1a1.08 1.08 0 0 0 1 1c.6 0 1 1.3 1 3 0 3.6-3.1 7-6.3 7-5.4 0-6.3-5.7-1.7-11.5 3.6-4.5 3.6-4.7.7-8-4-4.7-7.2-1.1-8.3 9.3-.8 8.9-1.3 10.2-3.3 10.2-2.8 0-7.8-6.3-8.6-10.8-.8-4.9 1-11.9 3.8-15 1.4-1.5 3.2-2.2 5.8-2.2 4.4 0 5.4-1 3.4-3.6-3-3.9-.5-4.7 3.9-1.3zm72.5 4.5c4.1 5.3 3.6 14.4-.8 14.4-3.2 0-5.1-3.8-5.1-10.1 0-3 .3-5.9.7-6.2 1.3-1.4 3.2-.7 5.2 1.9zm-11.4 1.4c2.1 4 2.1 13 0 13-.9 0-2.4-1.3-3.3-3-.9-1.6-2.5-3-3.4-3-2.2 0-2.3-1.9-.4-6.5 1.9-4.5 4.9-4.7 7.1-.5zm18.5 17.3c0 1.9-.4 2.7-1.2 2.5-1.5-.5-2.2-4.2-1.3-6.6.5-1.4.7-1.4 1.5-.2.6.8 1 2.8 1 4.3zm-16 1.2c0 1.9-1.1 1.9-3.6 0-1.8-1.4-1.8-1.4.9-1.5 1.7 0 2.7.5 2.7 1.5zm-6.3 1.7c3.4 3.8 4.5 6.7 3.8 10.1-1 4.4-2.3 5.7-5.5 5.7-5.3 0-5.9-2.9-2.9-14.3 1.1-4.3 1.8-4.5 4.6-1.5zm-39.7-.4c0 1.6-3.2 5.2-4.6 5.2-1.7 0-1.7-.1-.4-3.4.9-2.4 5-3.9 5-1.8zm-56.6 7.8c1.3 3.3-4.3 18.4-6.8 18.4-.8 0-2.2-.7-3-1.6-1.4-1.4-1.3-2.1 1.6-7.7 5.4-10.7 6.9-12.4 8.2-9.1zm109.3 4.6c1.8 3.6.7 6-2.6 5.6-2.9-.3-5.5-4.5-4.5-7.3 1-2.6 5.6-1.5 7.1 1.7zm-101.7.9c0 .7-1 2.7-2.1 4.6-1.8 2.9-2 3.9-1 6 1.5 3.2.5 6.5-1.7 6.1-3.2-.6-2.7-8.8.8-14.6 2-3.2 4-4.3 4-2.1zm10.8 4.5c-.5 2.8-2.8 2.9-2.8.1 0-1.3.3-2.7.7-3 1-1.1 2.5.9 2.1 2.9zm78 5.6c2.9 2.9-.3 12.2-3.3 9.8-1.8-1.5-3.8-7.7-3.1-9.5s4.7-2 6.4-.3zm10.7 6.5c0 8.2-1.1 10.1-4.5 8.3-2-1.1-2.2-1.8-1.7-6.5.7-6.5 2.3-9.7 4.5-9.3 1.4.3 1.7 1.6 1.7 7.5zm8.7 7.8c.1 5-.2 10.1-.6 11.3l-.8 2.4-2.5-2.4c-3.9-3.6-4.5-5.3-2.8-8.5.8-1.5 1.5-4.2 1.5-5.8 0-3.5 2.8-8.1 4.1-6.8.5.5.9 4.9 1.1 9.8zm-117.4.9c.7 3.2-5 5-7.6 2.4-.9-.9-.8-1.6.5-3 2.2-2.4 6.6-2 7.1.6zm1.7 12.7c.8 3.5-1 7.9-3.2 7.9-1.5 0-1.7-4.7-.3-8.4 1.3-3.5 2.7-3.3 3.5.5zm108.5-.6c1.7.9 3 2 3 2.5 0 .6.9 1 2 1s2 .5 2 1c0 2.1-3 7-4.9 8-5.2 2.8-14.1-.6-14.1-5.3 0-2.3 2-6.2 2-4 0 .7.9 2.2 2 3.3 2.4 2.4 9 2.8 9 .6 0-.7-1.6-2.6-3.5-4-5.5-4.3-3.8-6.4 2.5-3.1zM802.8 181c.2 1.4 1.1 3.3 2 4.3.8.9 1.6 3.6 1.6 5.9.1 3.4-.3 4.3-1.8 4.6-2.6.5-4.6-2.3-4.6-6.4 0-1.8-.5-4.5-1-6-.6-1.5-.8-3.4-.5-4.1.8-2.3 4-1 4.3 1.7zm-72.4.2c2.1 3 .2 5.2-2 2.4-1.6-2.3-1.9-4.6-.5-4.6.6 0 1.7 1 2.5 2.2zm93.9 1.4c1.3 1.4-1.5 4.4-4.9 5.3-4.2 1.2-7.8.1-9.3-2.7s-.6-3.2 6.9-3.2c3.7 0 7 .3 7.3.6zm6 7.2c-.5.9-2.7 2-4.7 2.4-2.1.5-5.1 1.7-6.6 2.8-2.2 1.6-3 1.7-3.8.7-.6-.7-.8-1.8-.4-2.4 1.3-2 7.7-5.3 10.4-5.3 1.9 0 2.9-.7 3.4-2.3l.7-2.2 1 2.3c.8 1.6.8 2.9 0 4zM717 186.4c0 1.8-1.7 2.9-3 2.1-.8-.5-.7-1.1.1-2.1 1.5-1.8 2.9-1.8 2.9 0zm81 10.6c0 .5-.7 1-1.5 1s-1.5.5-1.5 1c0 1.1.7 1.4 5.3 2.4 2.1.5 2.7 1.2 2.7 3.2 0 1.8-.7 2.8-2.1 3.1-1.8.5-2 1.1-1.6 4 .7 4 5.3 12.3 6.9 12.3.7 0 .9-1.7.5-5-.3-2.8-.4-5-.2-5s1.8 2 3.5 4.5c3.9 5.6 7.8 8.5 9 6.5 1-1.7-.3-5.2-3.5-9.4-1.4-1.8-2.5-3.8-2.5-4.4 0-2.4 2-1.1 4.5 2.8 1.8 2.9 3.2 4 5 4 1.3 0 2.7.5 3.1 1.2.9 1.4 3.6 25.9 3 26.6-.2.2-2.9-2.2-6-5.2-8.7-8.8-9.6-7.1-2.9 5.4 4.6 8.6 8 12.9 10.9 14 2 .8 2.4 1.7 2.4 4.7 0 8.7.8 15.1 2.4 20.1 1 2.9 1.5 5.9 1.2 6.7-.7 1.8-9.7 2-28.3.5-17.2-1.4-23-2.7-24.4-5.1-.6-1.1-1.9-7.5-3.1-14.1-1.1-6.7-2.4-13.2-2.9-14.5-.9-2.4-2.4-3-3.4-1.3-1 1.5-2.1 1.2-5.3-1.5-3.2-2.6-6.2-3.3-6.2-1.3 0 .6 2.3 3.8 5.1 7 3.4 3.9 4.8 6.4 4.5 7.5-.4 1-2.9 3.3-5.6 5.1-5 3.2-6.5 6.2-3.2 6.2 1 0 3.7-1.6 6-3.6 2.4-2 4.9-3.4 5.6-3.1 1.5.6 4.1 13.1 3.1 14.7-.4.6-1.7 1-3.1 1-2.1 0-2.4-.5-2.4-3.5 0-4.2-.8-4.4-4.1-.9-3.9 4.2-7.9 5.8-14.9 5.8-8.2.1-14.9-2.4-19.1-7.1-3-3.5-3.1-3.9-2.5-9.7 2.1-20.2 2.1-19.8 0-19.4-1.2.2-2 1.3-2.2 2.8-.5 5.7-3.5 19-4.2 19-.4 0-1.5-1.1-2.4-2.5-2.3-3.5-5-3.9-16.8-2-10.7 1.7-11.3 1.6-17.9-2-3.5-2-21.2-4-27-3.1-4.2.6-4.7 1-5.3 3.8-1 5.3-.7 69.5.4 67.8.5-.8 1-9.8 1.1-20 .1-18.8.7-24.7 2.3-22.1.5.7 1 9.2 1.1 18.7.1 9.6.4 17.7.8 18.1 1.6 1.5 2.1-1.5 3-15.9.5-8.4 1.5-16.7 2.3-18.7 1.3-3.2 1.4-1 1.1 20.9-.2 13.5 0 26.1.3 28l.7 3.5 1.1-2.8c.7-1.6 1.2-4.1 1.2-5.7s.5-3.2 1.1-3.6c1.2-.7.6 30-1 53.6l-.6 9.5-3.3-4.8c-2.1-2.9-3.9-4.6-4.7-4.3-1 .4-1.8-1.6-3-7.2-5.7-27.1-9.4-38.3-18.2-55.2-19.2-36.7-46.2-55.7-60.8-42.8-1.9 1.6-3.2 3.4-2.9 3.9s4.2.9 8.7.9c15.5 0 26.1 4.4 36.7 15 14.2 14.4 23.5 36.2 32.6 77 3.1 13.5 3.2 13.7 9.2 19.8 2.6 2.6 7.5 8.5 10.9 13.2l11.3 15c7.2 9.2 13 21.2 13.7 28.4l.6 5.8-17.4-.7c-9.6-.3-18.1-.9-19.1-1.1-1.1-.3-2-2.5-2.8-7.1-1.6-9.6-7.5-21.1-9.6-19-.3.3.8 4.2 2.5 8.6 3.1 8.1 4.2 17.3 2.1 18.6-.6.3-1.2 0-1.3-.7-2.4-9.2-7.6-19.8-9.7-19.8-1.7 0-1.1 2.8 1.6 8.1 1.4 2.8 2.4 5.8 2.2 6.7-.3 1.1-1.2.2-2.7-2.8-1.3-2.5-4.1-7-6.3-10-4.3-6-6.8-13.5-9.4-28.5-1.7-9.9-1.8-10-2.6-5.8-.7 3.3-1.4 4.3-2.9 4.3-2.5 0-2.4-1.6.8-13 2.4-8.4 2.7-11.2 2.7-24 0-29.3-3.8-37.4-28.8-62.6-13.6-13.6-27.4-24.4-31.3-24.4s-2.3 2.1 5.8 7.4c8.5 5.6 30 26.8 37.7 37.1 2.9 3.8 6.7 9.9 8.5 13.5 3.2 6.4 3.2 6.6 3.1 20.5 0 17.1-4.2 42.5-7.7 46.2-2.4 2.7-8.7 4.1-22.9 4.9-12 .7-15.1 1.9-13 5.3 1.8 3.1.1 2.6-4.4-1.2-5.3-4.5-8.1-5.9-10.4-5.2-2.4.8-2.5 1.8-.3 3.6.9.8 2.2 2.8 2.9 4.6 1 2.3 1.8 3 3.3 2.6s2 .1 2.3 1.9l.3 2.3 20.1.3 20.1.2-1.4 10.3-1.9 14.4-.5 4.3h-41.7c-22.9 0-42.7-.3-43.9-.6-5.3-1.4-2.8-3.6 15.3-13 7.1-3.7 15.4-8.5 18.4-10.6 3.1-2.1 6.1-3.8 6.8-3.8 2.4 0 1.1-3.1-2-5s-3.3-2.4-3.4-7.7c-.1-9.1-2.9-20.7-10-42.4-3.6-11-6.3-20.3-6.1-20.5.8-.8 9.3 20.3 14.1 35 4.5 13.5 7.2 19.6 8.8 19.6s.7-10.8-1.7-20.8c-7.3-30.2-28.6-71.3-47.5-91.5-4-4.3-7.1-8-6.9-8.2.3-.2 4.9-1.6 10.4-3 8-2.1 12.6-2.7 23.2-2.8 7.2-.1 13.5-.6 13.9-1s-1.5-.7-4.2-.8c-2.7 0-5.8-.4-6.9-.8-1.9-.8-1.9-.8 0-1.8 1.1-.6 7.1-2.5 13.3-4.2 26.4-7.5 85.1-28.7 109.4-39.7l12.5-5.4c.2 0 .3.8.3 1.7 0 2.3 7.6 9.3 14 12.8 4.8 2.5 6.5 2.9 13 2.9 22.5-.1 58.3-20.9 69.1-39.9 1.7-3 3.6-5.8 4.3-6.3.6-.4 1.7-1.9 2.5-3.5.8-1.5 3.5-4.1 6-5.7 5-3.4 5.1-3.4 5.1-2zm-27 7.3c3.6 1.8 6.6 3.9 6.8 4.8.8 4.3-15.6 19.4-32.2 29.5-12.2 7.4-17.6 8.9-32.6 8.9-12.4 0-12.5 0-17-3.1-4.7-3.3-9.6-8.1-8.9-8.7.2-.2 10.8-5.7 23.4-12.1 12.7-6.5 23.7-12.4 24.6-13.2 2.4-2.1 4.6-1.7 5.3 1.1.8 3.2-.1 6.7-3 12.7-2.9 5.7-4.1 12.3-2.5 13.3 1.9 1.1 4.1-1.5 4.1-4.7 0-1.5 1.4-5.7 3.1-9.1 2.2-4.2 3.3-8.2 3.7-12.4.5-6.9 1.7-8.5 7.2-10.2 5.1-1.5 10.6-.5 18 3.2zm46-3.3c0 1.1-6.3 2.4-8.2 1.7-.8-.3-.4-.9 1.2-1.5 3.2-1.4 7-1.5 7-.2zM77.4 230.3c-.3 2.1-2.4 8.3-4.5 13.8-4.2 10.9-4.8 14.4-2.3 15.3 2.8 1.1 8 .6 10-.9 1-.8 3-1.5 4.3-1.5 2.1 0 2.2-.3 1.5-2.8-.9-2.8-.9-16.1 0-19.7.5-1.9 1.3-2 12.3-1.9 7.3.1 13 .6 15 1.5 2.9 1.2 3.4 1.1 4.6-.5 1.2-1.7 2.3-1.8 8.8-1.3 6.8.6 17.4 3.3 27.4 7 2.2.8 9.4 1.9 16 2.5 14.1 1.3 22.4 3.9 36 11.2 5.6 3 10.2 4.9 11.2 4.6 2.1-.7 9.5 2.6 17.5 7.7 9.6 6.2 27.9 22.6 29.5 26.5.8 2 1.9 8.1 2.5 13.6.5 5.6 1.3 10.5 1.8 11 1.3 1.3 2.5-5.9 2.4-14.4-.1-9.4-2.4-16.4-7.1-22-3.5-4.1-3.6-4.3-1.8-5.6 1-.8 3.8-1.4 6.2-1.4 3.3 0 5 .7 7.4 2.8 2.7 2.4 3.3 3.7 3.7 8.5.4 5.4.5 5.6 3.6 5.9 2.5.2 3.4 1 4.9 4 2 4.3 3.2 4.8 4 1.6.5-1.8.8-1.9 2.1-.8 1.9 1.5 2.1 5.4.3 6.8-.6.6-2.4 1.3-4 1.7-2.4.7-4 3.5-1.8 3.5.5 0 .8 1.4.7 3.2-.1 3.8 2.7 5.1 4.8 2.2 1.6-2.2 3.6-1 3.6 2.1 0 3.8-1.7 7.3-4.2 8.6-2.3 1.2-2.3 1.2-.4-.9 1.1-1.3 1.6-2.8 1.2-3.8-1-2.5-6-1.3-13.7 3.4-6.1 3.7-36.2 19.2-37.4 19.2-.3 0-.5-1.3-.5-2.9 0-8.2-8.1-44.7-10.6-47.8-1.5-1.7-1.5-1.7-.9.2 3.3 10 8.8 42.8 8.3 49.1l-.3 3.8-23 12.3c-34.4 18.4-64.7 33.3-68 33.6l-3 .2-1.2-8.2c-.7-5.5-1.8-9.2-3.2-10.9-1.6-2-2.1-4.1-2.1-8.5 0-6.2-1.5-8.8-2.6-4.2-1.6 7.3-2.2 7.4-1.7.3.3-4.4 1.4-9.3 2.5-11.8 1.7-3.6 2-5.7 1.5-12-1-14.8-7.3-36.2-10.7-36.2-1.7 0-1.1 2.9 3.6 17.3 5.2 16.1 6 22.2 2.9 22.2-1.8 0-2.1.9-2.8 7.8-.8 8.6-3.5 15.2-6.6 16.2-2.4.7-4.5 5.2-6.2 13-.6 3.3-1.5 6.4-1.9 6.8s-1-5.6-1.4-13.5c-1-21.4-6-65.1-8.6-76.3-.5-2.2-.7-4.1-.6-4.3.4-.4 7 7.6 11.9 14.4 4.1 5.7 8.7 15 8.7 17.6 0 1 .5 1.8 1 1.8 3.3 0 1.5-8.6-3.6-17.3-3.8-6.5-4.1-7.7-1.9-7.7 1.8 0 1.8 0 .4-7.5-1.6-8.8-12.9-24.8-25.9-36.9-9-8.2-13.7-7.1-8.6 2 1.4 2.6 2.6 4.8 2.6 5s-1 .4-2.2.4-3.9 1.2-6 2.6c-4.3 3-25.3 9.3-31 9.4-7.5 0-8.2-7.2-1.2-12.8 3.1-2.5 4.6-6.2 2.5-6.2-1 0-8.1 7.7-9.7 10.6-1 1.7-1.3 1.7-2.8.5-2.7-2.2-4.6-6.7-4.6-10.6 0-4.3-1.8-4.6-2.6-.5-.9 4.1-2.4 3.8-2.4-.5 0-4.2 4.2-13 6.7-13.9.9-.4 6.8-1 13-1.3 13.4-.7 13.6-.5 11 9.5-1 3.6-1.5 6.7-1.2 7 2 2.1 9.3-13 14.1-29.3l1.8-6 .8 4.5c.5 2.5.6 6.2.2 8.3zm765-.1c.8 2.2.4 3.4-2.2 7.4-1.8 2.6-3.2 5.8-3.2 7.1 0 3.4-2.5 2.8-4.1-.9-2-4.8-1.7-12.3.6-14.8 2.7-3 7.7-2.4 8.9 1.2zm100.4 5.8c5.1.6 10.2 1.5 11.3 2 2.3 1.3 2.5 4.5.3 5.4-2.1.8-20.1.8-28.7-.1-6.3-.5-6.6-.7-4.6-2.1 1.5-1 1.9-2.1 1.5-3.8-.6-2.3-.5-2.4 5.1-2.4 3.2 0 10 .5 15.1 1zm-34.5 2.9c-.3 1.4.3 2.1 2.4 2.9l2.8 1-3.2.1c-1.7.1-3.9-.6-4.7-1.5-2-1.9-2-1.9 0-3.8 1.9-2 3.4-1.3 2.7 1.3zm-894.8 6.8c4.2 4.9 8.8 11.1 10.1 13.9 2.7 5.5 8.5 11.9 10.3 11.3.7-.3-.1-2.1-1.9-4.6-3.5-4.7-2.8-6.1 1.8-3.3 3.9 2.4 6.4 6.2 6 9.2-.3 2.6-9.4 7.8-13.5 7.8-2.7 0-2.7.2-.8-4.3 1.1-2.6 1.2-4.3.5-6.2-1-2.7-5.9-6.1-10.2-7-4-.9-8.4-6.5-9.7-12.4-2-9.5-2.4-13.1-1.3-13.1.5 0 4.5 3.9 8.7 8.7zm69.1-4.5c-.8 4.9-4.5 13-6.3 13.6-1.5.4-.3-4.8 2.8-12.2 2.7-6.7 4.4-7.3 3.5-1.4zm971.6-2.2c3.9 1.1 5.9 4.3 3.9 6.3-.8.8-6.4 1.2-16.2 1.2-12.2 0-15.1-.3-15.9-1.5-1.4-2.2-1.2-3.6.6-5.4 1.2-1.3 3.9-1.6 12.7-1.6 6.2 0 12.9.5 14.9 1zm-35.5 3.4c.6 1.9.8 3.7.5 4s-2.8.6-5.5.6c-4.9 0-4.9 0-4.2-2.7 1-4 2.4-5.3 5.5-5.3 2.2 0 2.9.6 3.7 3.4zm112.4-1.2c4.4 1.3 7.4 4.1 6.4 5.9-.6.8-3.8 1-11.4.7-13.8-.7-14.6-1-11.2-4.9 2.2-2.5 3.3-2.9 7.5-2.9 2.7 0 6.6.5 8.7 1.2zm-26.1 2.3c1.7 2 .4 3.5-3.1 3.5-2.1 0-2.9-.5-2.9-1.8 0-1 .3-2.2.7-2.5 1.1-1.2 4-.8 5.3.8zm-166.7 8.1c3.6.6 5.2 2.4 2.1 2.4-2.6 0-1 2.3 2.4 3.4l3.3 1.1-3.3 1.4-3.3 1.4 4.4.6c3.8.5 4.6 1 5.2 3.4 1 3.6.2 5.7-2 5.7-1 0-2.6.7-3.7 1.5-1.9 1.5-1.9 1.5 0 3 1.1.8 3.8 1.5 6 1.6h4.1l-5.2 2c-2.9 1.1-5.3 2.4-5.3 2.9 0 1.1 2.7 2 6.3 2 3.5 0 17.5 3.4 18.5 4.5.9.9-9.1 0-18.3-1.5-4-.7-12.3-1-19.6-.8-12.8.5-17.7 1.6-12.9 2.9l2.5.7-2.2.7c-2.8.9-2.9 2.2-.3 3 2.7.9 2.5 2.5-.2 2.5-1.6 0-1.9.3-1.1 1.1 1.6 1.6 10.3.2 11-1.8.4-.9-.1-2.1-1.2-2.9-1.6-1.2-.5-1.4 8.2-1.4 6.4 0 11.6.5 14.3 1.5 2.9 1 6.4 1.4 10.9 1l6.6-.5-6.9 1.5c-3.7.8-7.8 2.1-9.1 2.9-1.7 1.1-6.8 1.7-18.9 2.2-9.2.4-16.3 1.1-15.9 1.5 2.2 2.1 303.4 6.1 312 4.2 2.6-.7 5.2-.8 5.7-.3 1.3 1.3 2.5 8.8 2.6 16 0 4.7-.6 7.6-2 10.3l-2 3.7 2.5 1c1.4.5 2.8 1.7 3.1 2.5.4.8 1.5 1.5 2.6 1.5s1.8.5 1.5 1.2c-.2.7-1.1 1.3-1.9 1.3s-2.6 1.4-4.1 3l-2.5 3h-16.4c-21.1-.1-28.3-1.6-44.3-9.5-12.6-6.2-25.9-11-30.4-11-1.4 0-4.3-.9-6.3-2-2.7-1.4-7.2-2.2-16.4-3-16.3-1.3-41.1-1.3-41.9 0-.4.7 5.8 1 17.9 1 11.7 0 18.6.4 18.6 1 0 .5-2.4 1-5.3 1-19.4 0-44.8 8.5-63.7 21.4l-7.5 5.1-15.9-.4c-11.3-.2-15.6 0-15.2.8.4.7 4.2 1.1 9.6 1.1 18.9 0 19.4 3.7 2.2 16.5-4.2 3.1-6.8 5.9-7 7.3-.4 2.4-2.1 2.9-4 .9-1.4-1.3-34.3-2.4-39-1.2-2.5.6-2.6.8-.9 1.9 2.8 2.1 2 2.6-3.7 2.6-3.6 0-6-.5-7-1.6-1.5-1.4-1.7-1.4-3.2 0-1.1 1.2-3.5 1.6-9.2 1.5-7.3-.1-7.5-.1-4.7-1.4 2.3-1 2.6-1.5 1.4-1.9-2.6-1.1-28.2-.2-28.6.9-.2.6.3 2 1.1 3 1.4 1.9 3 2 37.6 2.3 19.9.2 37.4 0 38.9-.3l2.6-.7-2.4-.9c-1.4-.6-3.8-.7-5.4-.3-1.6.3-4.5.2-6.5-.2-3.2-.7-2.3-.9 5.8-1.5 9.4-.6 17-.2 17 1 0 .3-2.7 2.5-6 4.8-3.3 2.4-6 4.9-6 5.7s-1 1.8-2.2 2.1c-3.5 1.1-8.8 6.6-8.8 9.2 0 3.4-2.3 3.9-21 5.2l-22.5 1.8c-10.7 1.2-2.2 2.1 14.3 1.6 15.6-.5 22.2 0 22.2 1.8 0 2.1-7.5 4-17.3 4.5-18.3.9-21.6 1.7-16.4 4.2 1.8.9 1.1 1.1-4.5 1.1-5.6.1-6.6-.2-6.2-1.4.8-2-3.4-3.5-9.7-3.5-4.7 0-10.9-2.2-10.9-3.8.1-2.3 4.4-5.2 8.2-5.3 1.8 0 1.6-.3-1.2-1.2l-3.5-1.2.2-26.5c0-14.6.4-30.7.8-35.8.7-8.8.8-9.2 3-9.2 1.3 0 3.6.5 5.2 1.1 2.6 1 2.7 1.2.8 1.9-1.1.5-3.3 1.1-4.8 1.5-3.7.8-2.5 2.5 1.8 2.5 4.7 0 6.5-.9 6.5-3.2 0-4.4-1.8-5.8-7.6-5.8h-5.6l.7-11.3c2.1-36.7 2.8-41.3 6-40.1.8.4 1.5.1 1.5-.6s1.2-2.7 2.8-4.5c1.5-1.9 3.4-4.4 4.3-5.7 1.5-2 2.7-2.3 11.3-2.9 5.3-.3 9.9-.9 10.3-1.3 1.7-1.7-2.3-2.8-11.7-3.3-10-.6-10.2-.7-8-2.3 2.6-1.9 2.2-5-.6-5-1.4 0-1.4-.3-.4-1.5 1.4-1.7 1.4-1.7-1.5-3.3-1.6-.9-.8-1.1 4.5-1.2 3.6 0 8.2.3 10.3.6zm106.2 5.5c2.4 1.1 3.1 2.2 3.5 5.4l.5 4 5.9.3c4.7.2 5.9.7 6.3 2.2.3 1 1.1 2.1 1.9 2.4s1.4 1.6 1.4 2.9c0 1.4.9 3.6 2 5 2.7 3.4 4.7 9.2 5.5 16.2l.8 5.8-16.9-.5c-17.5-.6-20.4-1-20.4-3.4 0-.8-1.1-1.4-2.7-1.5-1.6 0-2.2-.3-1.5-.6 2.6-1 1-2.4-5-4l-6.3-1.8 17.3-.5c10.4-.3 17.2-.9 17.2-1.5s-7.1-1.5-17.2-2.1l-17.6-1.3c-1.1-.4 1.3-2.1 2.9-2.1 1 0 2.8-.9 3.9-2 1.6-1.6 1.8-2.5 1-4-.9-1.6-2.1-2-6.1-2-4.3 0-5.5.5-8 2.9-3.2 3.2-3.5 5.1-1.8 10 1 2.9.9 3.4-1 4.7-2.7 1.9-2.7 4.2.1 7.1l2.1 2.3h-5.4-5.4l.1-9.5c.2-9.5.2-9.6 4-14.2 2.1-2.5 5.2-5.4 7-6.5 3.3-2 4.4-4.2 4.4-9.5 0-1.7.4-3.4.9-3.8 1.3-.7 3.1 2.7 3.1 5.8 0 1.4.6 3 1.4 3.7.8.6 1.6 2.1 1.8 3.3.3 2.1.9 2.2 12.8 2.7 13.2.5 15 1 15 3.9 0 2.3 2.5 4.4 7.8 6.4 6.6 2.6 8.3 2.2 4.6-1.1-1.7-1.5-3.6-3.9-4.2-5.4-2.1-4.9-5.3-6.1-19.1-6.9l-12.8-.8c-.1-.1.7-1.7 1.8-3.6 1.2-1.9 1.8-4.3 1.5-5.1-.4-.9-.4-2.6 0-3.7.5-1.6 1.3-1.9 5.3-1.5 2.5.3 6 1.1 7.6 1.9zm-937.1 11.6c4.7 5.9 8.6 11.2 8.6 11.9 0 .6-.7 1.5-1.7 1.8-1.4.6-1.2 1.1 1.2 3.5 3.8 4 2.3 6.2-1.7 2.4s-5.3-6.3-3.8-7.3c2.3-1.4-3.2-9-6.4-9-.3 0-.6.7-.6 1.6 0 2.9-1.9.3-2.5-3.4-.8-4.9-2.5-9.2-3.6-9.2-1.2 0-1.1 2.6.1 7.1 2.1 7.4-1.5 10.8-7.9 7.4-4.9-2.5-5.5-6.8-1.3-10.7 2.7-2.6 9.1-6.8 10.4-6.8.4 0 4.5 4.8 9.2 10.7zM1108 263c0 4.6-.9 7.2-2.1 6.4-1-.6-1.2-7.4-.3-9.8 1-2.7 2.4-.7 2.4 3.4zm-107.2 1.1c-.4 1.1-7.9 4.1-8.6 3.4-.2-.2.6-1.3 1.7-2.4 2.2-2.2 7.5-2.9 6.9-1zm189.8 5.9c.2 3.5.5 4 1.9 4 2.8 0 9.4 4 14.2 8.5 4.6 4.4 4.6 4.5 4 9.6-.8 6.6-2.7 9.5-6.9 10.2-5.7 1-38.8-1.7-39.8-3.2-.6-1.1-1.4-1.1-4.1-.1-2.2.7-12.9 1.4-30.1 1.7-23.9.5-27 .4-29.3-1.1-2.4-1.6-2.4-1.8-1.1-4.4 2-3.9 6.6-8 6.6-5.9 0 .8.9 1.7 2 1.9 2.8.4 2.7 2.2-.2 2.8-3.5.9-2.9 3.5.7 3.3 10.6-.5 21.6-1.7 22.1-2.4.5-.9-5.6-2.8-9.6-3-1.4-.1 1.9-.5 7.3-.9s10.1-1.1 10.4-1.4c1.4-1.4-1.2-1.9-12.2-2.4-6.3-.2-11.5-.8-11.5-1.3 0-1.7 6.7-2 18.5-.9l12.4 1.3 4.7-3.2c5.6-3.7 6.8-3.9 5.8-.9-.5 1.8.5 1.2 4.3-2.3 5.4-5.1 8.9-7.1 16.7-10 6.1-2.2 13.1-2.1 13.2.1zm27.8 11.4c2.2 1.7 5.1 3.1 6.5 3.2 3 .1 3.1 2.4.2 6.3-1.7 2.4-5 4.4-3.7 2.3.7-1.2-1.7-4.3-8.6-11.3-2.7-2.7-4.8-5.3-4.8-5.9 0-1.4 5.4 1.4 10.4 5.4zm-554.9-.9c0 1-.6 2-1.2 2.2-.8.3-1.3-.5-1.3-2.2s.5-2.5 1.3-2.3c.6.3 1.2 1.3 1.2 2.3zm60.3-1.9c1.7.5 2.2 1.4 2.2 4 0 5.9-4.3 5.9-7.8.1-1.5-2.4-1.5-2.9-.2-3.7 1.8-1.1 2.7-1.2 5.8-.4zm181 2c1.2.4 2.5 1.7 2.8 3 .4 1.4.1 11.3-.5 22.2-.6 10.8-1.6 35.7-2.1 55.2-.6 19.5-1.7 42.7-2.5 51.5-1.4 14.8-2.2 45.7-1.4 51.5.4 2.4.2 2.5-7.3 3-8.8.7-11.8 2.3-7.4 4 4.2 1.6 11.6 1.2 17.6-.9 7.1-2.4 22.4-3.5 32.4-2.1 7.6 1 9.4 1.5 8.5 2.5-.3.2-7 .8-14.9 1.3l-14.5.9 11 .2c11.8.2 19.7 1.3 20.3 2.9 1.3 4.1 2.9 4.7 14.4 5.2 9.2.4 11.3.8 11.3 2 0 .9-.7 1.4-2 1.2-10.9-1.9-17.1-1.2-20.9 2.3-1.4 1.3-2.6 3.5-2.6 4.8v2.4l-37.2.8-39.8.8c-1.4 0-55.4-.6-120-1.2l-168.9-1.9c-58.5-.9-54.1-.1-54.1-9.9 0-5.8 1.9-10.7 4.5-11.7.9-.3 23.3-.6 49.8-.6l293.2-2.8 6-.7.7-9c.4-5 1.6-34.9 2.8-66.5 2-56 2.5-65.1 5.1-92.8.8-8.2.9-13.5.3-14.1-.5-.4-2.9-.6-5.3-.3-4.1.4-4.3.5-3.7 3.3.6 3.1-.2 3.7-2.2 1.7-3-3-.5-6.2 6.3-7.9 3.8-.9 17.2-1.1 20.3-.3zm233.7.4c.7 1.2-5.8 1.2-9.5 0-1.9-.6-1.2-.8 3.2-.9 3.1-.1 6 .3 6.3.9zM92.2 283.7c2 .9 3.9 2.2 4.2 2.9.6 1.6-2.6 3.9-6.7 5-3.2.7-4.3 2.8-5.2 9.6-1.1 8.7-5.7 4.9-4.7-4 .3-2.9 0-4.2-.8-4.2-2.2 0-3.9 3.4-4 7.6 0 5.1 3.8 9.6 7.9 9.2 2.4-.3 2.6 0 2.9 4s.2 4.2-1.6 3.1c-1.6-1-2.4-.9-4.7.9-2 1.6-3.1 1.9-4 1.2-1-.8-1.9-.4-3.4 1.6-3.3 4.2-2.8 6.4 1.4 6.4 5.1 0 4.4 4.1-.9 5.1-1 .2-2.3 1.4-2.7 2.7-.7 1.8-.3 2.9 1.8 5l2.7 2.7.7-3.7c.3-2 1.1-4.3 1.8-5.1 1.8-2.2 6.5-3.9 9.7-3.5 2.6.3 2.9.7 3.2 4.4.4 5.3 3 7.8 8.3 7.8 2.7.1 4.4.7 5 1.8.5.9 1.2 6.3 1.5 12 .6 9.3.5 10.5-1.2 12-2.2 1.9-29.3 7.4-30.4 6.1-1-1-5-26.9-5-32.3 0-2.2-.4-4-1-4-2 0-2.2 7.5-.5 18.8 3.2 21.8 3.3 20-.9 21.7-9.5 4-13.9 3.2-16.6-2.8-1.1-2.3-2-5.2-2-6.4 0-4.2-8-27.7-10.2-30-1.2-1.3-3.6-2.7-5.2-3.1-5-1.3-5.5-3.7-4.8-22.2l.7-16.5 5.5-2.7c5.3-2.7 11.3-3.5 13.6-2 3.2 2.1 4.3 10.8 2.8 20.4-.6 3.6-2.4 5.4-2.4 2.5 0-.7-1.1-2.8-2.5-4.7-1.7-2.4-2.5-4.7-2.5-7.6 0-7.3-3.7-7.1-4.7.2-.4 3.4 0 4.5 3.1 8.4 2 2.5 3.6 5.2 3.6 6.1s.9 2.8 2.1 4.3c2.2 2.7 3 5.3 4.9 14.8.9 4.7 1.5 5.8 3.1 5.8 1.5 0 1.9-.5 1.5-1.8-2.6-8.9-2.8-11.6-2.1-28.5.7-17.5.7-17.9-1.5-20.2-1.2-1.3-1.9-2.8-1.6-3.3 1.2-2 16.3-6.1 27.6-7.5 4.2-.5 10.3.4 14.2 2zm776-1.1c2.3 1.4-1.1 2.4-8.5 2.4-8 0-13-1.3-9.7-2.4 4-1.4 15.9-1.4 18.2 0zM677.1 303c.1 16.6 1.3 21.9 5.3 23.9 2.1 1 3.9 1.1 6.3.5 5.3-1.4 4.4-2.9-2-3.2-4.9-.3-5.8-.6-5.5-2 .3-1.5 2.6-1.8 21.8-2.2 11.8-.3 21-.8 20.3-1.3-.6-.4-9.3-1.1-19.3-1.6-13.8-.7-18.6-1.3-20.5-2.5-3.1-2-3.3-6.1-.5-7.6 1.1-.6 2-1.7 2-2.4 0-.8-.9-1.6-2-1.9s-2-1-2-1.6c0-.7 1.8-1 5.3-.6 2.8.2 19.2.7 36.2 1 55.7 1 97.5 4.3 97.5 7.7 0 1.4-14.5.4-25.5-1.7-15.7-3.1-26-2.1-25.3 2.4.3 1.4-1.3 1.6-14.7 1.3-19-.4-18.6 1.2 1.2 4 15.2 2.2 20.7 4.4 8.3 3.3-12-1-21.9-2.4-31-4.5-8-1.8-37.3-5-46-5-4 0-5.3 1.3-2.4 2.4 1.6.6 11.2 1.7 31.7 3.7 6.6.6 14 1.7 16.5 2.4 9.9 2.8 27 4.1 73.9 5.5 19.4.6 36.3 1.4 37.5 1.9 1.2.4-13.2 1.1-32.8 1.4-35.2.7-43.7 1.3-39.9 2.8 1.1.4 5.8.8 10.5.9 4.7 0 10.3.5 12.5 1 2.2.6 13.5 1.6 25 2.4 15.5 1 21.9 1.7 24.2 3 1.9.9 5.7 1.6 9.5 1.7 3.5 0 7.9.5 9.8 1.2 3.7 1.3 5.2 4.3 2.8 5.8-2.3 1.5-9.1.9-13.6-1.1-6.8-3.1-30.2-5.2-73.7-6.5-28.9-.9-53.8-3.1-67.2-6.1-3.8-.8-2.6 1.2 1.5 2.4 10.4 3 26.4 4.5 72.2 6.7 42 2 52 3 58.8 6.1 3 1.4 7.6 2.9 10.3 3.5s4.9 1.3 4.9 1.5-4.1.4-9 .4c-8.6 0-9.2-.1-12.1-2.9-3.9-3.8-9.9-4.4-37.6-3.9-18.4.3-22.7.8-21.1 2.4.3.3 10.9 1.2 23.4 2 22.3 1.5 23 1.6 25 4 4.4 5.3 28.7 5.8 34.1.8 2.4-2.2 2.8-2.3 4.2-.9 1.3 1.3 1.4 2 .2 4.8-1.6 3.8-1.7 5.2-.6 9.1.7 2.7.6 2.9-1.6 2.3-1.3-.4-12.5-1.1-24.9-1.7-40.6-1.8-56.2-2.9-78.5-5.5-25.1-2.9-44-4.1-47.9-3.1-1.4.3-2.6 1.3-2.6 2.1 0 4.3 9 5.8 44.5 7.5l57 2.6 43 2.4 9.8 1c.4 0 .7.7.7 1.6 0 1.3-.8 1.4-5.7.7-7.3-1-44.9-1.1-48.5 0-1.6.4-2.8 1.4-2.8 2.2s-1.2 1.8-2.6 2.1c-2.9.8-48.8-.3-54.6-1.2-8.5-1.4-2.4-1.9 21.9-1.9 24.8 0 32-.6 30.8-2.4-.2-.5-8.5-1.2-18.2-1.5l-82.9-3.7c-13.3-.8-20.7-.8-21.9-.2-3.3 1.9 4.3 3.4 22.5 4.3 26.2 1.4 34.5 2.1 36.1 3.1 1.2.7 1.2.9 0 .9-1 0-1.2.3-.5 1 1.7 1.7 21.6 3.9 46.4 5 29.8 1.4 30.1 1.4 14.7 2.4-8.1.5-12.5 1.2-11.9 1.8.5.5 8.3 1.4 17.3 2 9 .5 16.6 1.2 16.8 1.4 1.4 1.3-3.4 1.3-27 0-14.8-.9-26.8-1.1-27.3-.6-2 2 11.4 3.4 31.9 3.5 26.1 0 33.7-.8 37.1-4 2.2-2.1 3.3-2.3 7.3-1.8 9.1 1.1 19.5 3.3 20.5 4.3 1.7 1.7.2 1.9-5.4.4-6.5-1.7-11.8-1.8-15.7-.3-3.4 1.3-4.4 2.8-3.7 5.3.6 1.8.1 1.9-12.7 1.2l-61.4-4.1c-50.2-3.6-63.5-4.2-63.5-2.5 0 1.3 2.8 1.8 15 2.5 11.1.6 35.4 3.9 40.5 5.4l3 .9-3.2.1c-4.1.1-4.3 1.7-.3 2.6 3.6.8 5 2.5 2 2.5-3.9 0-11.2-2.3-11.7-3.6-1.1-3-7.8-3.7-35.8-3.9-15.4-.1-29-.5-30.2-.9-1.1-.4-2.4-1.3-2.7-2.1-.4-1.3 1-1.5 8.5-1.5 6.8 0 9-.3 8.7-1.3-.3-.7-3.3-1.5-7.7-1.9-7-.6-10.3-1.9-8.8-3.5.4-.4 4.4-.6 8.8-.4 6.3.1 8-.1 7.7-1.1-.3-.8-3.1-1.6-6.9-2-10.1-1.2-12.9-1.8-12.9-2.8 0-.6 4.1-1 9.4-1 5.2 0 9.7-.4 10-.9.9-1.3-3.1-2.1-11.3-2.1h-7.4l.7-17.9c.7-18.6-.1-35.4-1.5-34.5-.5.3-.9 2.5-.9 5 0 4.7-1.4 5.9-2.4 2.1-1.2-4.5.1-33.3 2-43.5 1.3-6.6 2.4-.8 2.5 12.8zm25.2-12c8.4.5 28.7 1.4 45.2 2 38.8 1.4 57.1 2.5 102.9 6.1 15.4 1.2 18.7 2.3 9.7 3.4-6.4.7-26.7.1-49.1-1.5-6.9-.5-24.9-1.4-40-2l-49.5-2.5c-12.1-.8-24.7-1.2-28-.9-4.9.4-6.6.2-9.2-1.5-3.1-1.9-4.2-4.8-2.6-6.4.3-.4 1.7 0 3 .9 1.7 1.1 6.7 1.8 17.6 2.4zM496 294c-3.7 1.4-25.7 5-29.4 4.9l-3.1-.1 3.4-1.4c6.6-2.9 13.8-4.3 22.6-4.3 6.5.1 8.3.3 6.5.9zm-180.3 2.9c22.7 4.6 41.3 11.7 41.3 16 0 1.4-1 2-4.3 2.4-7.6 1.1-46.2 1.9-47.3 1-1.4-1-6.4-22.3-5.3-22.3.4 0 7.5 1.3 15.6 2.9zm927.3-1.7c0 .7-.5 3.1-1.1 5.3l-1.2 4-1.8-4.3c-1.1-2.4-1.6-4.8-1.3-5.3.8-1.4 5.4-1.1 5.4.3zm-361.4 37.3c1.5 3.3 1.2 6.3-.4 3.9-.4-.6-1.5-1.3-2.4-1.7-2.4-.8-3.2-7.9-2.5-22.1.9-18.5 2.1-18.4 2.9.2.5 11.9 1.2 17.2 2.4 19.7zm345.9-33.5c0 1.9-4.7 2.5-7.7.9-2.2-1.2-2.2-1.2-.3-2 3.2-1.3 8-.6 8 1.1zm-866.7 2.2c-.7 1.9-4 2.1-6.3.4-1.9-1.4-1.7-1.5 2.3-1.6 3.1 0 4.2.4 4 1.2zm140.2 2.4c0 4.7 1.2 6.9 7.6 13.3 22.9 22.9 52.7 90.8 47.5 108-.9 3.3-.9 4.7.4 7.7 2 4.9 2 5-1.7 5-2.2 0-8 2.6-17.3 7.6-7.7 4.2-16 8.5-18.4 9.4-4.3 1.7-4.4 1.7-6.2-.4-4-5-5.1-21.1-2.4-36.2 2.1-11.7 1.9-17.8-.5-21.7-2.8-4.7-11-8.4-11-5 0 .7 1.5 1.8 3.3 2.5 6 2.2 6.9 7.3 4.1 25.3-2 13-1.4 22.9 2 33.4 3.1 9.7 3.1 9.9.5 9.2-1.5-.4-1.9-.1-1.7 1.1.2 1.1 1.8 1.9 4.7 2.4 5.3.9 6.4 1.8 9 7.2 2.5 5.1 2.8 14.4.6 18.5-1.4 2.9-7.1 5.1-12.9 5.1-3.5 0-4.2-1.8-1.2-3 2.7-1 3.2-2 1.7-3.6-.5-.5-1.1-5.3-1.3-10.6-.3-8.5-.6-10-2.5-12-3-3-3.8-1.8-2.4 3.6 2 8 .8 24-2 25.6-2 1.3-1 1.8 6.1 2.9 10.3 1.7 13.8 1.4 16.5-1.3l2.3-2.3 3.8 3.8c2.1 2.1 3.4 4.2 3 4.6-1.2 1.2-21.1.6-34.2-1.1-6.6-.9-18.6-2.8-26.9-4.3l-15-2.8 7.5-.6c15.2-1.3 23-1 26.2.8 2.8 1.7 3 1.7 4.4-.2 2.4-3.2 3.7-9.5 3.7-18 .1-9.3-1-12-5.4-12.9-5-1-44.5-.7-54.4.4-4.9.6-9.3 1.6-9.7 2.3-.4.6-.9.9-1.1.7-.9-1-8.4-16.6-10.7-22.2l-2.3-5.6 2.2-2.7c1.9-2.6 2.1-3.9 2.1-18.4 0-30.6-7.1-76.5-14.6-94.3-1.4-3.3-2.2-6.3-1.8-6.9 1.2-2 6-3 27.3-6 11.9-1.6 27.2-4.3 34.1-6 14.9-3.7 25.8-5.7 32.3-5.8l4.7-.1v3.6zm-76.5 2.9c-4.3 1.9-20 3.6-22.8 2.5-1.2-.5-2-1-1.7-1.1.4-.2 22.5-2.4 26.5-2.7.6 0-.3.6-2 1.3zm-42.5 3.1c1.3 1.4 1.3 1.7-.4 3-2.7 1.9-10 1.8-11.7-.2-1.1-1.4-1-1.9 1.1-3.6 2.7-2.2 8.4-1.8 11 .8zm463.3-.9c-.7.2-1.9.2-2.5 0-.7-.3-.2-.5 1.2-.5s1.9.2 1.3.5zm-65.3 1.7c0 1.4-2.9 3.1-3.8 2.2-.2-.3-.2-1.2.1-2.1.8-1.9 3.7-2 3.7-.1zm25.3 4.3c-.7.2-2.1.2-3 0-1-.3-.4-.5 1.2-.5 1.7 0 2.4.2 1.8.5zm17.2.8c4.8 1.2 4.9 1.3 1.4 1.4-1.9 0-4.4.8-5.5 1.6-1 .8-3.5 1.4-5.4 1.4-3.1 0-3.2-.1-1.2-.9 2.6-1.1 2.8-2.5.5-3.9-2.6-1.5 3.8-1.3 10.2.4zm28.5-.5c0 .5-3 1-6.7 1.2-6.7.3-8.6 1.7-4.1 3 2 .5 1.9.6-.8.7-1.8.1-4.2-.8-5.5-1.9-2.1-1.7-2.2-2.1-.9-3 1.9-1.2 18-1.3 18 0zm-325.7 5.7c4.4 6.2 6 9.3 5.2 10.1s-2.4-1.2-7-9.1c-4.1-6.9-3-7.5 1.8-1zm263.6-4.1c4.8 1 2.9 1.9-3.6 1.7-7.7-.2-8.4-.4-4.8-1.3 4.1-1.1 4.8-1.1 8.4-.4zm451.7 1c-.3.9-.6 1.8-.6 2s-.7.4-1.5.4c-1.3 0-1.4-.4-.5-2 1.3-2.4 3.5-2.7 2.6-.4zm-851.2.9c.8.8 2.6 5.2 4 9.8 7.5 25 11.4 45.9 12.2 65.7.3 7.7 1.3 16.9 2.3 21.5 3.7 15.6 3.9 17 3.6 17.4-.2.2-1.8-2-3.5-4.8-1.8-2.8-3.6-5.1-4-5.1-1.7 0 2.4 11.1 11.5 31 3.2 6.9 6.5 14.7 7.5 17.5 1.9 5.6 4.5 7 5.9 3.3l.9-2.3 1.1 2.8c1.5 3.9 1.4 7-.6 11.8l-1.6 4.1-15.8-.4c-14.4-.3-16-.6-17.8-2.4-2.2-2.4-9.8-2.9-61.6-3.9-29.4-.6-33.9-1-32.9-2.7.5-.8 11.7-.9 38.3-.5 39.2.6 56.1 1.8 59.8 4.3 2.1 1.3 2.3 1.2 3.8-1.5.8-1.7 1.5-5 1.5-7.4 0-3.5-.7-5.3-3.5-8.8-2.7-3.5-3.1-4.5-1.9-4.7 3.8-.9 11.9 11.1 13 19.1.9 6.6 3 5.6 2.7-1.4-.6-16.8-.6-17-10.2-42.2-4.6-12.1-4.9-14.8-2.1-18.4 2.4-3 2.6-5.6.5-7.3-1.9-1.6-4.7-.6-3.9 1.5.4.9-.4 2.5-2 4-1.4 1.3-2.6 3.4-2.6 4.5 0 1.2-1.2 4.1-2.6 6.5-3 5.2-2.4 7 1.8 6.1 2.7-.5 2.9-.4 1.8.9-1.5 1.9-.5 3.2 2.8 3.7 2.9.4 3 2.1 0 2.8-2.6.7-4.4 5.5-3.4 9.5.9 3.6 2.7 2.8 5.1-2.3 1.1-2.3 2.3-4.1 2.7-4.2.3 0 1.1 1.2 1.6 2.7l4.1 11.1c2.7 7.3 2.9 8.3 1.4 8s-2.5-2.1-3.9-7.6c-.2-.7-2-1.2-4.3-1.2-2.1 0-6.3-1.1-9.3-2.5-2.9-1.4-6.8-2.5-8.6-2.5-4.3 0-5-2-2.2-6.5 2.7-4.3 5.2-5.8 8.5-4.9 3.6.9 3.1-1.1-.9-3.5-1.9-1.2-3.7-2.8-4-3.7-1.3-3.3-.5-9.7 1.9-15.4 2.1-5 2.5-7.5 2.5-16 0-21.6-5.4-58.1-11-74.6-1.6-4.9-2.6-9.2-2.1-9.7.4-.4 3-1.2 5.7-1.6l5.6-1c.4 0 1.3.6 2.2 1.4zm-31.2 3.6c6.1 3.3 12.4 30.1 14.8 63.4.6 8.2 1.6 19 2.3 24 1.4 10.3 1.4 40.2 0 41.6-.6.6-11.9-2.2-28.9-7.1-36.6-10.6-39.8-11.6-47-15.6-5.6-3.1-18.8-7.4-22.6-7.4-1.2 0-2.1 1.6-3.2 5.4-.9 2.9-2.3 5.9-3.1 6.6-2.4 2-1.9-.2 2.6-10.7 3.8-9.1 4.4-12.9 1.6-12.1-1.9.6-5.6 9.2-7.9 18-1.9 7.6-1.9 8-.2 9.9 2.5 2.8 4.9 2.3 8.3-1.8l3-3.7 1.1 2.8c1.8 4.8 1.1 7.1-4.2 14.7-15 21.4-34.2 32.2-63.3 35.8-14.5 1.8-20 1.4-31.8-2-8.8-2.6-11.4-3.8-14.6-6.9-4.9-4.8-9.2-13.5-9.4-19.2-.2-3.8.3-5.1 3.1-8.2 2.7-3.1 3.2-4.5 3.2-8.5 0-6.8 1.9-8.2 5.4-4 1.5 1.8 3.8 5.3 5 7.8 4.9 9.5 10.6 12.7 21 11.8 12.5-1 25.1-8.1 39.2-22.1 10.4-10.4 16.9-20.6 20.3-31.8l4.2-13.3c1.1-3.3 2.4-7.9 2.8-10.2s1.3-4.8 2-5.6c.6-.8 2.2-7.7 3.5-15.3 2.5-14.6 5.4-24.5 7.4-25.2 1.6-.5 1.5 2.9-.4 18-1.6 13.1-5 30.4-8.5 43.1-3.7 13.8.2 14.4 4.6.6 3.4-10.9 6.1-25.5 8.5-45.8 2.1-18.3 3.2-21.4 7.5-23.1 1.9-.7 3.3-.4 6.4 1.7 3.4 2.2 4.2 3.4 5.2 7.8 1.7 7.9.6 41-2 57.5-3.4 21.1-3.8 24.6-3.1 26.6.6 1.7.9 1.5 2.3-1.2 3.9-7.6 7.4-36.7 8.4-70.9.4-15.1 1-22.5 1.7-22.6.6 0 8.5-.9 17.6-1.9 19.2-2.1 34.3-2.5 37.2-.9zm502.7.5c.9.8-1.1 3.5-3.4 4.6-2.9 1.3-4.3.5-2.6-1.6 1-1.1.7-1.7-1.1-3-2.2-1.6-2.2-1.7 2.2-1 2.5.4 4.7.8 4.9 1zm-50.1 8.1c-1 .2-2.6.2-3.5 0-1-.3-.2-.5 1.7-.5s2.7.2 1.8.5zm43.7 1.3c.4.6-.5 1-2 1s-2.4-.4-2-1c.3-.6 1.2-1 2-1s1.7.4 2 1zm385.5 1.9c0 1.2-2 2.5-2.7 1.8s.6-2.7 1.8-2.7c.5 0 .9.4.9.9zm-101.3 1.6c28.4 4.6 55.2 19.8 68.7 38.9 8.2 11.6 16.5 29 19.1 40.1 17.6 74.2 10.4 142.3-20.3 194-10.1 17-27 35.8-41.8 46.4-34.1 24.3-69.5 27.2-106.9 8.6-23-11.4-40.5-28.5-51.4-50.2-4.2-8.4-12.6-35.7-16.1-52.7-4.5-21.5-5.1-53.2-1.5-77.1 5.4-35.4 19.3-71.8 37.5-97.7 7.7-11.1 24.1-27.9 32.7-33.6 23-15.4 51.3-21.4 80-16.7zM266 339.4c0 3.7-1.2 8.6-2.1 8.6-.4 0-1.1-.9-1.4-2.1-1.2-3.7-1.9-1-2.6 9.9-.4 7-.9 9.9-1.4 8.4-1.5-4.3-2.3-2.1-2.8 7.5-.4 8.6-1.1 11.4-5.5 23.4-10.7 28.9-18.6 40-34.2 47.9-6.5 3.3-14.2 5.7-22.7 7-7.8 1.3-11.3.5-11.3-2.4 0-1.1-2.7-5.4-6-9.4-8.4-10.3-20.3-30-24-39.7-.9-2.3.6-3.1 38.3-22.6l43.9-22.7c2.6-1.3 5.1-2.1 5.7-1.8.5.3 1.7 3.8 2.5 7.6 3.2 14.1 6.8 19.1 8 11.2.3-2 .2-8.6-.3-14.7l-.8-11.2c.6-.5 15.3-7.3 15.9-7.3.4 0 .8 1.1.8 2.4zm614.8 3.8c1.3 1.3 1.7 6.8.5 6.8s-5.3-4.3-5.3-5.6c0-1.1 1.3-2.1 3.1-2.3.3-.1 1 .4 1.7 1.1zm-634 13.6c.9 6.3 0 8.7-1.2 3.1-.7-3.7-.8-10.4-.1-9.7.3.2.9 3.2 1.3 6.6zm988.2 5.9c.3 7.8.9 12.7 1.8 13.5 2 2 1.4 6.3-1.3 8.6-1.6 1.4-2.5 3.2-2.5 5 0 1.5-.5 3.3-1.2 4-.9.9-.8 1.6.5 3 1.1 1.2 1.7 3.6 1.7 7 0 2.8.5 7.3 1.1 10 .5 2.7.9 7.4.7 10.3-.3 5.2-.4 4.9-4.6-10.6-2.4-8.8-5.8-19.2-7.6-23-4.7-9.9-14.6-23.3-23.2-31.5-4.1-3.8-7.4-7.2-7.4-7.5 0-.5 15.2-1 31-1h10.5l.5 12.2zm-206 6.5c0 2.6-21.6 36.5-22.7 35.5-.2-.3 2.6-5.7 6.3-12.1s6.4-11.9 6.1-12.2-2.9 2.4-5.7 6c-2.9 3.6-5.6 6.6-6.2 6.6-2 0 5.2-10 13.6-18.8 5.6-5.9 8.6-7.6 8.6-5zm-898.8 7.1c4.4 3.7 11.8 12.7 11.8 14.3 0 2-11.2 7.2-17.3 8-4.5.7-4.7.6-4.7-1.9 0-4 2-17.7 3-20.3 1.2-3 3.7-3 7.2-.1zm746.8 4.6c0 4.3-1.1 9.1-2.1 9.1s-1.2-9-.3-11.4 2.4-.9 2.4 2.3zm-767.6.7c1.9 1.9 2.9 5.4 2.4 8.5-.4 2.3-.5 2.3-1.2.4-.6-1.7-2.1-5-4.4-9.8-.7-1.3 1.6-.7 3.2.9zm733.2-.1c12.8 2.2 19 4.2 22.1 7.1 2.2 2 2.4 2.4.8 1.9-1.1-.4-8.9-1.8-17.4-3.2-15.8-2.5-19-2.2-16 1.3 1.1 1.4 1.1 1.8-.6 3-2.1 1.6-5.5 1.9-5.5.5 0-.6.5-1.3 1-1.6 2-1.2 1-5.4-1.6-7.2-2.5-1.6-2.8-1.6-7.1.7-3.7 2-4.6 2.1-5.4.9-1-1.7-1.1-3.3-.2-4.2 1.2-1.3 21-.7 29.9.8zm-740.3 8.4c4.9 1.2 5.4 1.7 3.9 4.1s-1.5 5.5-.2 8.1c.6 1 .7 1.9.2 1.9-2 0-3.2-2.7-3.2-7.2 0-5.9-1.5-6.2-3.2-.7-1.1 4-1 4.5 2 9.9 6.7 12.1 6.2 28.9-.9 32.5-4.2 2.2-14.6 3.4-20.9 2.4-4.6-.7-6-1.4-8.3-4.4-2.1-2.5-3.7-3.5-5.8-3.5-3.2 0-3.2-.2-2.9-7.6.1-3.7-.9-8.2-3.6-16.1-2-6.1-3.5-11.7-3.1-12.6.6-1.6 10.9-4.3 12.6-3.2.6.3 1.3 2.2 1.6 4.3 1.5 9.3 5.2 11.8 4.1 2.8-1-8.9 2.5-11.3 16.9-11.5 3.9 0 8.7.3 10.8.8zM874 418c-.7 6.9-1.6 13.2-2.2 14-.6 1-.7-.7-.4-5 .3-3.6.8-11.9 1.2-18.5.3-6.6.9-12.5 1.3-13 1.2-1.9 1.3 10.2.1 22.5zm128.5-14.4c-3.6 6.2-4.4 4.8-.9-1.6 1.6-2.9 3-4.7 3.2-4.1s-.8 3.2-2.3 5.7zm-883.4-.9c.7 1.8.2 2.4-3.1 4.1-5.5 2.7-6.8.8-2.9-4.2 2.4-3.1 4.8-3.1 6 .1zm694.5-.2c27.1 1.7 40 1.9 40.9.5.3-.6 1.9-1 3.6-1 2.2 0 3.4.8 4.9 3.2 1.1 1.8 2 3.7 2 4.2s-10.3.6-23.7.3c-30.7-.7-55.1-3.8-61.7-7.8l-3.1-1.9 7 .5 30.1 2zm-132.8 1.9c5.4 2.8 27.6 5 66.7 6.6 30.4 1.3 48.6 2.6 62.5 4.5 5.8.8 19.9 1.9 31.3 2.5 11.5.5 21.3 1.2 21.8 1.6 1 .6 1.2 11.6.3 16.3-.5 2.4-1.1 3.1-2.3 2.6-2.3-.9-24.2-2.2-58.6-3.5-31.6-1.1-67.5-3.4-78.5-5-8.8-1.3-12.7-1.3-11.4 0 1.9 1.9 26 4.7 57.4 6.6l12.5.8-7.5.9c-7.5.8-51.1.2-58.4-1-2.4-.3-3.6-.2-3.3.4.9 1.4 5.4 2 22.2 3.3l30.5 2.6c10 1 20.7 1.4 27.2 1.1 9.7-.5 10.8-.4 12 1.4 1.8 2.6 8.6 3.6 30.2 4.4 9.9.3 18.7 1.1 19.5 1.6 1.1.7-6.1.9-21.9.6-21.3-.4-24-.7-28.2-2.6-6-2.7-11.1-2.7-13.6-.1l-1.9 2-4.8-2.1c-4.3-1.9-7.5-2.2-30.4-3l-36.5-1.5c-7.7-.5-10.7-.4-10.2.4 1.4 2.4 17.6 4.2 54.7 6.2 10.2.5 21.8 1.6 25.7 2.5 5.1 1 7.9 1.2 9.7.5 5.4-2 11.5-.1 11.5 3.5 0 .7.7 1.6 1.6 1.9 2.5 1 8.2.7 8.9-.4s23.9-1.2 32.5-.1c5.3.7 5.1.7-5.5 1.6-6 .6-16.8 1-24 1-11.1 0-13.4-.3-15.8-1.9s-5.8-2-26-2.7c-36.8-1.4-49.5-2.5-56.1-4.8-7.2-2.6-15.4-2.8-16.3-.5-.3.8 0 2.7.6 4.1.9 1.9.9 2.4-.1 2.1-.7-.3-2.1-2.7-3.2-5.4-2.8-7.4-9.2-20.5-11.8-24.4-1.4-2-2.3-4.1-2.1-4.7.3-.7-.9-1.9-2.5-2.7-3.4-1.7-15.2-14.3-15.2-16.1 0-2.8 2.7-3.2 6.8-1.1zm59.2.3c4.9.6 5.2.8 2.5 1.4-6.6 1.5-26.5.6-26.5-1.2 0-1.1 16.2-1.2 24-.2zm-621.7 17.5c-.1 3.1-.7 6.7-1.4 7.9-1.1 2.2-1.2 2.2-2.5.4-.9-1.1-1.4-4.4-1.4-8.3 0-6.3 0-6.3 2.8-6 2.6.3 2.7.5 2.5 6zm760.4 2c-.2 1.3-.4.5-.4-1.7-.1-2.2.1-3.2.4-2.3.2 1 .2 2.8 0 4zm98.3.7c3 .6 2.2.8-4.9 1.5-8.7.7-11.1 1.7-11.1 4.4 0 .9-1 2.6-2.2 3.9s-1.8 2.6-1.4 3c.4.5 5.1 1 10.5 1.1 7.9.3 10 .1 11-1.2 1.6-1.9 0-4.6-2.8-4.7-2.6-.1 1.9-1.7 5.2-1.8 3.4-.1 3.5 1.7.7 11.4-1.2 3.9-3.4 12.3-5 18.8-1.6 6.4-3.2 12.2-3.5 12.7-.7 1.1-5.5 1.4-5.5.4 0-.3 1.1-1.9 2.5-3.6 2.9-3.4 3-4.1 1-6.1-2.4-2.4-10-2.9-26.9-1.7-16 1.3-37.7.3-39.8-1.8-.4-.4-.5-5.1-.1-10.4l.6-9.6 10-.7c15.7-1.1 16.9-2.3 2.4-2.4-14.6-.1-14.6-.1-12.7-8.1 1.3-5.3 1.8-5.8 3.8-3.8 1.7 1.7 24.9 2.3 32.7.9 3.5-.7 6.3-1.8 6.8-2.7.8-1.5 2.5-1.6 13.1-1 6.6.4 13.7 1.1 15.6 1.5zm-345 11.3c.7 2.4 2.3 6.4 3.6 9.1l2.4 4.7-2.5 1c-1.5.6-4.3 1-6.3 1s-4.4.5-5.2 1c-2.7 1.8.9 3 9.3 3 4.4 0 7.7.4 7.7 1 0 .5-1.3 1-2.9 1-6 0-15.9 4.9-14.5 7.2.4.6-.2.8-1.2.6-2.3-.4-3.2-3.6-3.3-12-.2-13.2 3.4-21.8 9.2-21.8 1.9 0 2.6.8 3.7 4.2zm194.8 5c13.2 1.2 13.2 2.8.1 2.8-8.5 0-22.9-2.3-25.9-4.1-1.6-1 6.5-.6 25.8 1.3zm44.2 2.5c0 3.4-1.8 3.7-2.5.3-.8-3.5.3-6 1.6-3.9.5.8.9 2.4.9 3.6zm-13.5 1.8c0 1.7-6.8 1.7-9 0-1.9-1.4-1.6-1.5 3.5-1.3 3 .2 5.5.7 5.5 1.3zm17.6 11.5c.5 0 .9.4.9 1 0 .5-1.6 1-3.5 1s-3.5-.4-3.5-.9c0-1.2 2.1-2.1 3.8-1.5.8.2 1.8.4 2.3.4zm-77.1 6c-1.8 1.2-14.7 1.2-17.5 0-1.3-.6 1.7-.9 8.5-.9 7.1-.1 10 .2 9 .9zm-437.5 4c16.5.6 31.7 1.5 33.7 2.1 4.8 1.2 6.8 3.3 6.8 6.9 0 2.4-.6 3-3.5 4-3.1 1-4.1.9-7.6-.9-4.8-2.5-12.4-2.9-11.5-.6.6 1.6-4.8 1.6-47.9 0-6.6-.2-19.6 0-29 .4-9.3.5-17.2.7-17.5.4-.8-.7 4.3-4.3 6.2-4.3 1.8 0 3.4-1.8 2.5-2.7-.3-.3-2.7.2-5.3 1.1-4.8 1.6-6.3 1.1-6.4-1.9 0-2 3-5.4 5.3-5.9 2.6-.6 31.5 0 74.2 1.4zm606.8-1c-3.1 1.3-13 2.5-12.1 1.5s7.2-2.3 11.3-2.3c2.8-.1 2.8 0 .8.8zm-499.1 2.4c24.2.4 26.1 1 25.6 7.4-.4 4.3-1.6 4.8-13.8 5.2l-7.5.3 8.7.8c4.8.4 9.6 1 10.7 1.4 3.9 1.2 2.1 2.5-3.6 2.5-5.8 0-33.6-1.6-44.9-2.6l-6.1-.5-2.2-7.4-2.1-7.8c0-.2 3.3-.2 7.3-.1 3.9.2 16.5.5 27.9.8zm1.8 19.5c3.2.6-.2.9-11.5.9-8.8.1-17.8-.3-20-.7-5.4-1.1 25.3-1.3 31.5-.2zm-79.6 2.7c.9.4 1.6 1.8 1.6 3.4 0 2.3-.4 2.7-2 2.3-1.5-.4-4.4 2.1-12.6 10.6-10.6 11.1-16 15.8-17 14.8-.3-.3 1.9-3.4 4.8-6.9 7.3-8.6 9.3-11.6 10.8-16.3s2.7-6.4 5.5-7.5c2.4-1.1 6.8-1.2 8.9-.4zm512.4 9.2c7.6 2.9 15.1 8.4 22 16.1l6.2 7-4.3 9.8c-4.5 10.4-6.3 11.9-9.8 8.7-2.6-2.3-11.2-15.9-15.6-24.4-1.9-3.9-3.9-7-4.4-7-1.5 0-5.3-8.6-4.6-10.4.8-2.1 4.6-2 10.5.2zm-302 .8c2.4.7 2.6 1.2 1.3 3.2-1.4 2.3-8.1 3.2-24.8 3.2-27 0-41.8-2.9-37.5-7.5.8-.9 57.4.2 61 1.1zm26.9.5c2 2 12.7 2.3 16.3.5 5-2.5 12-2 12 .9 0 2.1-2.3 2.4-24.2 3.1l-21.2.7 3.5-3.1c2.7-2.5 4.3-3.1 8-3.2 2.5 0 5 .5 5.6 1.1zm65.7-.2c1.1 1.7-26.9 5-31.3 3.6-2.5-.8-2.8-3.2-.3-3.8 3.3-.9 31.1-.7 31.6.2zm158.4.8c1.4 2.8 2 7.4 3.7 28.3l3.1 36.1c.9 9.2 1.4 17.8 1 19.3-.9 3.6-6.5 4.9-20.6 4.9-11.7 0-20-1.5-20-3.5 0-1.5 10.2-29 21-56.8 4.9-12.4 9-23.6 9.2-25 .4-3.2-2.2-3.4-3.8-.2-1.5 3.1-2.4 3.8-2.4 2 0-2.4 3.9-6.8 6-6.8 1.1 0 2.3.8 2.8 1.7zm24.7 2.8c.6 2.2 5 10.5 9.7 18.5l15.2 26.7 6.8 12.2-2.9 2.6c-9.4 8.4-25.4 16.5-27.2 13.6-.4-.6-1.3-9.1-2-18.9l-4.7-53.5c-.7-5.7-.6-5.9 1.6-5.5 1.7.2 2.6 1.3 3.5 4.3zm9.5-1.8c-.1 2.7-.1 2.7-1.5.9-1.4-1.9-1.2-3.6.6-3.6.5 0 .9 1.2.9 2.7zm-53.6 1.3c-.1 1.4-1.8 6.3-3.7 11-2 4.7-7.5 18.4-12.3 30.5-10.6 27-13.9 33.5-16.9 33.5-2.6 0-16.5-10-22.4-16.1-2.3-2.4-4.7-6-5.3-8-1.9-6.4 1.3-10.3 23.2-29.1 17.7-15.2 24-21.2 23.8-22.7-.2-1.9.9-2.2 7-1.9 6.4.3 6.7.4 6.6 2.8zm34.3 5.2c-.2 1.3-.4.3-.4-2.2s.2-3.5.4-2.3a16.95 16.95 0 0 1 0 4.5zm65.6 1.7c7.7 7.4 8.7 10.8 1.3 4.7-5.1-4.1-11.3-11.6-9.7-11.6.6 0 4.4 3.1 8.4 6.9zM862 510c0 1.1-.4 2-1 2-.5 0-1-.9-1-2s.5-2 1-2c.6 0 1 .9 1 2zm-159.5.7c-.4 1-1.6 4.7-2.6 8.3-2.6 9-3 9.4-2.5 2.4.4-6.2 2.8-12.4 4.7-12.4.7 0 .8.7.4 1.7zM587.4 515c4.8.5 9.1 1.1 9.4 1.4s-.3 2.9-1.2 5.8c-4 12.2-2.6 29.5 3.9 49.6 4.1 12.7 4.3 11.6-4.1 25.8-10.3 17.5-16.9 35.3-22.4 60-2.9 12.7-4.3 17.4-5.6 17.4-.3 0-1.9-.7-3.5-1.6-4.1-2-6.3-1.2-5.5 2.1.5 2.1.1 2.9-2.9 4.6-5.1 3-6.5 6.3-5.8 13.6.5 5.5.3 6.7-2.2 10.8-4.9 8.5-16.5 13.7-30.6 13.9-6.2.1-8.1-.3-9.8-1.8-1.2-1.1-2.1-2.5-2.1-3.3 0-3.7 4.9-10 15-19.4 8.2-7.7 12.1-12.1 14.7-16.9 2-3.6 5.3-9.2 7.4-12.5 7-11.1 13.3-26.8 21.4-53.8 2.5-8.3 5-17.9 5.4-21.2 2.2-16.3-4.3-36.9-19.8-62.4-5.6-9.2-5.9-10.5-3.3-12 2.2-1.3 29.7-1.4 41.6-.1zm55.9 0c.3.3-.6 7.7-1.9 16.5-3 20.7-4.7 42.4-3.9 50 .3 3.3 1.2 10.7 2 16.5 2.4 17.8 2.4 18.1.3 17.4-1.5-.4-1.8 0-1.8 2.6 0 4.7-1.6 6.8-6 8-5.4 1.4-7 4.8-7 14.3 0 6-.4 8-2.3 10.8-4.8 7.1-15.3 11.4-26.3 10.7-3.5-.2-6.9-.9-7.5-1.5-1.4-1.4 3.1-8.3 11.1-16.9 4.1-4.4 6.7-8.5 9-14 8.6-20.5 9.5-26 9.4-55.4 0-27.4-1.6-38.1-7-47.7-4.1-7.3-3.8-9.8.9-11.2 3.2-1 30.1-1 31-.1zm226.6 15.1c.9 5.7.2 9.2-1 4.9-.8-3-1.1-11.6-.4-10.8.3.3 1 3 1.4 5.9zm-87.2-2.4c.5 1.2-1.1 3.3-5.5 7.4-7 6.6-11.9 9.6-13.4 8.1-1.2-1.2 2.9-6 10.4-12.3 6.4-5.3 7.5-5.8 8.5-3.2zm-175.6 5.5c9.9 10.8 11.8 56.4 3.4 78.8-1 2.5-3 8-4.5 12.3-1.6 4.3-4.1 9.5-5.6 11.5-4.8 6.3-13.7 14.3-16.6 14.9-2.3.4-2.8 1.1-2.8 3.4 0 1.6-.4 2.9-1 2.9-1.5 0-1.3-1.7 1.9-14.1 3.9-15.8 10.1-30.9 16.6-40.8 3-4.6 5.9-10 6.5-12 1.5-5.6 1.2-13-1-21.2-5.3-19.4-6.4-33.3-3.1-37.3 1.9-2.3 2.8-2 6.2 1.6zm146.4 1.9c.9 1.6 1.2 2.9.7 2.9s-1.6-1.6-2.5-3.6c-2-4.2-.4-3.6 1.8.7zm79.1 4.3c-1.4 3.1-2.8 5.6-3.1 5.6-.8 0 .3-3.4 2.8-8.9 3-6.4 3.3-3.4.3 3.3zm101.1 4.8c-3 6.2-6.6 12.3-7.9 13.6l-2.5 2.2.5-3c.2-1.7-.1-3.7-.8-4.5-1.6-1.9-.6-4.5 1.9-4.5 2.2 0 6.4-4.6 10.4-11.5 5.1-8.6 4.1-3.8-1.6 7.7zm-24.6-4.5c5.2 6 11 15.6 10.7 17.8-.2 1.4-1 2-2.8 2-2.2 0-3.2-1.4-7.7-10-7-13.4-7.1-17.6-.2-9.8zm-43.1 4.4c0 1.1 1.1 4.5 2.4 7.7 1.6 3.9 2.9 10.2 4 20.1.9 8 1.8 14.6 2 14.8.1.2 5.1-1.9 10.9-4.7 10.8-5.1 14.7-6.1 14.7-3.6 0 1.4-7.8 5.9-17.8 10-5.5 2.3-6.8 2.5-10.3 1.6-2.6-.7-4.3-1.9-4.8-3.3-.5-1.2-1.2-11.4-1.6-22.6s-.9-21.1-1.3-21.9c-.3-1-.1-1.3.6-.8.7.4 1.2 1.6 1.2 2.7zm-41.5 15.8c-4.3 12.5-8.1 21-10.2 23.3-1.7 2-5.8 2.4-6.8.8-.3-.6 2-6.8 5.1-14 5.3-11.9 5.9-12.9 8-12.4 2 .5 2.7-.1 4.6-4 1.2-2.5 2.3-4.4 2.5-4.2s-1.3 4.9-3.2 10.5zm96.5 2.4c0 .2-1.8 2.1-4 4.2s-4 3.3-4 2.6c0-1.3 5.9-7.1 7.2-7.1.5 0 .8.1.8.3zM581.6 664.5c.3 1.3 1.2 3 2 3.6 1.3 1 1 1.5-1.3 3-1.5 1.1-3.9 1.9-5.2 1.9-2.1 0-2.3-.3-1.6-3.7 1.3-7.2 4.8-9.9 6.1-4.8zm443.4 10c0 .3-1.5 1.4-3.2 2.5-5.5 3.3-11.9 2.2-8.2-1.4 1.4-1.5 11.4-2.4 11.4-1.1z"/><path d="M765.4 104.1c-.4.7.1 1.6 1 2.1 1 .6 1.6 2.3 1.7 4.6l.1 3.7 1-4.2c.6-2.3.8-4.9.5-5.7-.7-1.9-3.3-2.1-4.3-.5zm-10.8 137.4c1.1 2.7 15.7 11.5 17 10.2 1.1-1.1-1.7-3.8-8-7.9-6.1-4-10-5-9-2.3zm58.4 15.7c0 .7 1.6 2.6 3.6 4.1 1.9 1.6 3.9 4 4.5 5.4 1.1 2.9 4.3 2.8 4.6-.2.3-2.2-1.6-4.8-6.1-8.3-3.1-2.4-6.6-2.9-6.6-1zm-151.5 91.4c-.7 6.9.1 18.1 1.5 18.9 1.7 1 2.6-14 1.4-21.8-1-5.6-2.1-4.5-2.9 2.9zm6.1 14.7c-.9 3.5-.7 22.5.3 23.1 1.4.9 2.1-3.3 2.1-14.1 0-9.7-1.1-13.9-2.4-9zM48 248.6c-6.8 6.4-8.5 8.9-7 9.9 1.6 1 15-13.8 13.7-15.1-.3-.4-3.4 2-6.7 5.2zm72-4c0 .4 2.9 5.1 6.5 10.3 6.8 10.2 13.2 23 16 32.2 2 6.3 1.5 10-1 7.9-1.9-1.5-5.4-11-6.7-18-1.2-6.5-2.5-9.3-3.9-8.4-.7.4-.8 2.3-.4 5 1 7-.9 5.1-4.8-4.9-3.5-8.8-3.7-9-3.1-4.2 1.2 10.2 7.5 24.5 10.8 24.5.7 0 1.9 1.3 2.6 2.9 1.6 4 6.4 8.4 8.7 7.9 8.3-1.6-8.9-43.5-22.2-54-1.4-1.1-2.5-1.6-2.5-1.2zm-19 7c0 2.2 14.6 16.7 16 15.9.5-.3 1-.9 1-1.3 0-1.3-7.9-10.4-11.6-13.3-4.2-3.3-5.4-3.6-5.4-1.3zm32.7 3c-.3.4 1.1 2.7 3.3 5.3 4.5 5.4 8.7 14.8 12.5 28.1 3.1 10.8 4.4 13.7 4.6 10.5.2-3.6-.2-6.9-1.7-11.9-1.6-5.8-1.7-6.6-.5-6.6 3 0 6.4 14.5 8.5 36.3 1.1 11.4 2 16 3.9 20.1 3 6.5 11.4 15.6 14.5 15.6 3.2 0 2.8-3.2-.8-5.8-4.6-3.5-6-9.8-7.1-33.2-.5-11.2-1.2-20.6-1.4-20.9-1.4-1.3-2 2.6-2.5 17.7-.3 9.2-.9 15.6-1.3 14.2-.3-1.4-1.6-9-2.8-16.9-3.2-22.6-8.4-35.8-17.5-45.2-3.8-3.9-10.7-8.2-11.7-7.3zm33.3.9c0 1 1.5 6.6 3.4 12.4 1.9 5.9 4 14.7 4.6 19.6 1.4 11.9 1.9 13.7 3 13 1.6-1 1.2-20.4-.5-26.8-2.6-9.8-10.5-23.6-10.5-18.2zm38 23.7c0 .8 2 6.4 4.5 12.4 2.4 6.1 5.4 15 6.5 20 2.8 11.8 4 15.1 5.2 13 1.8-3.3-6.3-32-11.7-41.2-2.7-4.7-4.5-6.3-4.5-4.2zm68.1 4.2c-1 1.2-.8 3.7.7 12.3 1.1 5.9 2.6 12.1 3.3 13.8 1.3 2.9 1.4 2.8 1.7-3.9.4-8.3-1.4-20.6-3.2-22.4-1-1.1-1.5-1-2.5.2zm-35.1 6.4c2.4 4.9 5.7 21 6.6 32 .7 8.4 1.9 11.2 2.9 6.9 1.9-7.6-6.1-41.1-10.2-42.4-.7-.3-.5 1.1.7 3.5zm-16.4 8.9c.8 4.8 1.4 12.6 1.4 17.3 0 14.4 2 21 3.4 11.6.9-5.6-1-28.3-2.8-33.2-2.4-7-3.3-4.9-2 4.3zm31 11.3c.8 16.6 1.4 21.4 2.7 20.1.7-.7.7-4.7-.1-14.1-1.5-16.6-3.3-20.8-2.6-6zm-70.2-1.3c-1.4 12.1-.9 21.5 1.5 26.8 2.5 5.6 4.7 5.2 3.1-.5-.6-1.9-1-8.4-1-14.5 0-18.1-2.1-24.9-3.6-11.8zm6 2c-1.5 7.8 2.5 36.6 5.5 39.6 1.4 1.4 1.5-6.4.1-11.3-.8-2.7-2.1-16.3-3-31.8 0-.1-.4-.2-1-.2-.5 0-1.2 1.7-1.6 3.7zm12.1 3.8c-1.3 9.1.7 35.1 2.8 37.3 1.6 1.5 1.7 1.4 1.7-1.5 0-1.8-.5-5.4-1-8-.6-2.6-1.4-11.3-1.8-19.3-.8-13.6-.9-14.1-1.7-8.5zm6.8 20.8c.6 14.4 2.5 23.1 2.6 12.2.1-10.6-1.2-25.5-2.2-25.5-.7 0-.8 4.7-.4 13.3zm943.2-22.3c-4.7.6-4.8.6-2.1 1.4 3.5 1.1 30.6-.1 33.9-1.4 2.6-1-23.8-1.1-31.8 0zm56.7 2.5c3.7.8 7.7 1.9 8.7 2.5 2.4 1.2 6.1 1.3 6.1.1 0-1.1-7.2-2.7-15.5-3.5l-6-.5 6.7 1.4zm-203 4.5c4.3 1.3 14.6 2.2 15.9 1.5 2.4-1.5-1.7-2.5-10.1-2.4-5.9.1-7.7.3-5.8.9z"/><use xlink:href="#B"/><path d="M1054.8 321.7c2.3.2 5.9.2 8 0 2-.2.1-.4-4.3-.4s-6.1.2-3.7.4zm135.5.9c-.4 1.2.4 2.6 2.5 4.6 4.2 3.6 6.4 3.7 2.9 0-1.5-1.5-2.7-3.3-2.7-3.9 0-2-2-2.5-2.7-.7z"/><use xlink:href="#B" x="127" y="4"/><path d="M1220.2 328.2c.5 1.4 7.7 3.2 8.7 2.2.3-.3-.3-1.2-1.3-2-2.5-1.8-7.9-1.9-7.4-.2zm-51.9 4.9c-1.4.5-1.3.7.8 1.2 1.3.4 4.1.7 6.2.7 3 0 4 .5 4.9 2.5.6 1.4 1.9 2.5 3 2.5s1.8.7 1.8 2c0 1.8.6 2 5.3 1.9 2.8 0 8.6-.4 12.7-.8 5.5-.6 8.6-.4 11.5.5 4.6 1.6 17.1 1.9 18 .4 1.2-1.9-1.7-5.2-6.3-7.3-3.6-1.5-8.1-2.2-18.7-2.9-18.5-1.1-37-1.5-39.2-.7zM944.7 336c-9.1.3-16.8.8-17.2 1.2-1.2 1.2.5 2.7 4.3 3.7 2 .6 14.2 1.5 27.1 2.1s23.8 1.3 24.3 1.6c1.2.8 7.8-.7 7.8-1.7 0-.5-2.2-.9-4.9-.9-9.9 0-14.7-2.6-7.5-4.1 8.5-1.7-8.3-2.7-33.9-1.9zm54.1 0c-7.7.9-9.9 1.8-7.5 3.2.9.5 7.2.4 14.9-.2 7.3-.5 18.8-1 25.5-1 11.4 0 16.1-1 11-2.4-3.1-.8-35.8-.5-43.9.4zm-25.5 25.7c8.1.2 21.3.2 29.5 0 8.1-.1 1.4-.3-14.8-.3s-22.9.2-14.7.3z"/><use xlink:href="#C"/><path d="M930.8 400.7c1.7.2 4.7.2 6.5 0 1.7-.2.3-.4-3.3-.4s-5 .2-3.2.4zM1188.5 288c-.4.6.7 1 2.7 1 2.5 0 2.9-.3 1.8-1-1.9-1.3-3.7-1.3-4.5 0zm-42.5 1.8c0 1.7 5.5 3.4 12.5 3.9 9.2.7 7.7-1-2.9-3.1-9-1.8-9.6-1.9-9.6-.8zm38 4.2c0 1.9 7 4.2 14.8 4.7 9.6.8 9-1-1.1-3.1-13-2.7-13.7-2.8-13.7-1.6zm-287.8 2c0 1.9.2 2.7.5 1.7.2-.9.2-2.5 0-3.5-.3-.9-.5-.1-.5 1.8zm-2.1 140.5c-1.3 9.2-1.5 20.3-.2 19 .9-1 2.7-26.5 1.8-26.5-.2 0-1 3.4-1.6 7.5zm21.7 43.2c1.2.2 3 .2 4 0 .9-.3-.1-.5-2.3-.4-2.2 0-3 .2-1.7.4zM754.5 484c-11.4.9 25.4.9 41 0 10.2-.5 8.6-.6-10.5-.6-12.4 0-26.1.3-30.5.6zm69.7-.3c-3.3.6-1.6 2.3 2.3 2.3 4.1 0 6.7-.9 5.9-2.1-.5-.9-4-1-8.2-.2z"/><use xlink:href="#C" x="-370" y="86"/><path d="M844.7 485c.4.5 8.2 1.1 17.3 1.4 11.4.3 14.5.2 10-.4-9.6-1.2-28.3-1.9-27.3-1z"/><use xlink:href="#B" x="-466" y="167"/><path d="M616.8 488.7c1.8.2 4.5.2 6 0s0-.4-3.3-.4-4.5.2-2.7.4zm55.9 0c1.8.2 5 .2 7 0 2.1-.2.7-.4-3.2-.4-3.8 0-5.5.2-3.8.4zm245.1 0c1.8.2 4.5.2 6 0s0-.4-3.3-.4-4.5.2-2.7.4z"/><use xlink:href="#C" x="-128" y="93"/><path d="M697 303.9c-2.4.8-2.4.8 1 1.5 6.4 1.2 26.4 2.6 38 2.6 6.3 0 14.6.5 18.4 1 7.5 1.1 10.6.7 10.6-1.5 0-2.1-1.9-2.3-22-2.9l-31-1.1c-6.9-.2-13.6 0-15 .4zm-1.4 20c1.3 1.4 19.5 3.9 36.3 5 11.3.8 14.8 1.4 16.3 2.8 2.2 2 16.8 3.3 16.8 1.6 0-3.7-8.9-6.3-30-8.7-14.9-1.8-41-2.2-39.4-.7zm-12.6 7.9c0 .9 10.1 3.2 13.8 3.2 4.3 0 2.3-2.7-2.4-3.4-6.4-.8-11.4-.8-11.4.2zm4 6.1c-6 1.1-1.6 2.3 10.9 2.8 12.2.6 24-.3 22.5-1.7-1.2-1-28.9-2-33.4-1.1zm11 7l-3.5.7 3.5.7c12.2 2.2 81.2 1.6 77.3-.7-2.1-1.3-71.5-1.9-77.3-.7zm-10 7c0 1.4 3.9 2.3 8.6 1.9 6.1-.5 4.5-2.3-2.3-2.6-3.9-.2-6.3.1-6.3.7zm18.2.2c.8 2.4 6.5 2.9 37.8 3.9 16.8.5 33.2 1.3 36.5 1.8 3.3.6 11.2 1.3 17.5 1.7s13 1.3 14.9 2.1c4.4 1.8 18.2 3.3 34.1 3.6 10.7.3 12.5.1 12.8-1.3.2-1.4-2.2-1.7-18.6-2.5-16.9-.9-19-1.2-20.8-3-1.9-1.9-3.8-2.1-19-2.7-9.3-.4-19.6-1.2-22.9-1.8s-16.6-1.2-29.5-1.3-27.9-.6-33.4-1.1c-8.2-.7-9.8-.6-9.4.6zm-27.2 7.4c0 2.3 3.7 3.6 11.3 4.2 7.1.5 12.7-.7 12.7-2.6 0-1.1-4.6-1.8-16.2-2.5-6.2-.4-7.8-.2-7.8.9zm29.4 23.1c-1.5.6.4 5.1 2.6 6 .8.4 10.7.8 22 1 22.6.3 20.6-.9-3.5-2.2-10.7-.5-13.4-.9-11.2-1.6 1.5-.5 2.7-1.3 2.7-1.8 0-1.5-9.7-2.6-12.6-1.4zM513 477.2c0 6.8 1.8 13.7 3.1 11.7 2-3.2.3-16.9-2.2-16.9-.5 0-.9 2.4-.9 5.2zm-252.9-66.9c-1.1 1.8-4.7 8.9-7.9 15.7-4.6 9.8-6.9 13.4-10.6 16.8-6.9 6.3-21.3 15.3-27.9 17.4-6.2 1.9-13.2 2.4-14.1 1-.3-.5-4.4-1.2-9-1.5-10.6-.7-16.2-2.4-18.6-5.4-1-1.3-2.8-2.3-4-2.3-2.1 0-2.2-.3-1.6-4 .5-3.1.3-4-.8-4-2.1 0-3.9 7.1-2.7 10.3 1.2 3 8.5 8.3 15.5 11 10.6 4.2 32.4 1.9 45.8-4.9 8.6-4.3 22.5-14.1 25.1-17.6 6.9-9.2 17.2-35.8 13.8-35.8-.5 0-1.9 1.5-3 3.3zm-95.6 54.4c.4 1 1 2.8 1.3 4.1.6 2.8 5.1 6.3 12.5 9.7 6.4 2.9 16.7 4.5 16.7 2.6 0-1.3-.3-1.4-8.4-3-6.2-1.1-19.9-7-18-7.8.6-.2 5.2 1 10.2 2.7 9.3 3.1 18.9 4.3 19.4 2.5.2-.5-3.3-1.5-7.7-2.2-9.8-1.5-18.6-4.7-21.6-7.9-2.7-2.9-5.5-3.3-4.4-.7zm941.9-115.2c-10.7 1.9-18.1 4.3-26.9 8.5-7.8 3.8-26.8 17.3-31.2 22.1-8.4 9.3-29.6 48-36.6 66.9-22.2 59.9-7.5 146.5 31.8 187.9 17.8 18.7 32 24.2 63 24.2 18.4 0 28.8-1.6 38-6 28.1-13.1 46.3-36.2 62.4-79.3 11.8-31.2 15.4-53.9 15.4-95.3 0-14.1-.4-23.6-1.2-26.5-.6-2.5-2-9.7-3-16-1.9-11.7-6.3-27.6-10.1-36.5-5.8-13.6-21.3-30.4-35.4-38.4-19.6-11.1-44.7-15.5-66.2-11.6zm12.9 44.2l.7 55.8c0 8.8.3 17.7.6 19.7.6 3.3 1 3.8 3.5 3.8 2 0 3-.6 3.5-2.3 4.2-13.7 32.9-97.8 34.4-100.7 1.1-2.1 2.5-4.2 3.1-4.6 1.8-1.1 3.9 2.5 3.9 6.4 0 5-23 73-32.8 96.7l-2.9 7-8.4.3c-7.2.2-8.8 0-10.2-1.6-2.6-2.9-3.5-16.2-4.2-62.7l-1.1-50.3-.6-7.2h5 4.9l.6 39.7zm23.3-35.3c9 3.1 12.2 4.6 12.7 6.1.5 1.2-5.2 19.7-7.1 23-1.1 1.9-1.1 1.9-1.2.1 0-1.1-2.1-3.9-4.7-6.3l-4.8-4.3h3.5c4.1 0 6.8-1.4 5.1-2.5-.7-.3-6.4-.9-12.8-1.2l-11.5-.6.6-5.1c.3-2.8.6-6.8.6-9v-3.9l6.4.7c3.5.3 9.4 1.7 13.2 3zm-40.6.2c1.3 3.4 1.3 24.1 0 24.9-.6.4-1-2-1-6.4 0-9.7-1-10.6-13-11.5-5.7-.5-8.9-1.1-8.3-1.7 1.6-1.6 16.6-7.8 19.1-7.8 1.5-.1 2.6.7 3.2 2.5zm-29.6 13.3c.6.9-2.6 2.1-5.8 2.1-1.5 0-1.6-.3-.6-1.5 1.4-1.6 5.6-2 6.4-.6zm107.5 12.8c2.9 3.2 5 6.4 4.9 7.3-.2.8-2.1 2-4.3 2.6l-4 1.2 4.5.1c8.6.2 13.7 5.7 11 12-2.7 6.7-12 11.2-16 7.9-1.9-1.6-6.3-7.8-5.9-8.2.2-.2 3.1-1.1 6.4-1.9l6-1.7-5 .5c-2.7.2-6.7.7-8.7 1.1-3.8.7-3.8.6-3.8-2.8 0-3.7 5.2-20.1 7.1-22.4 1.8-2.1 2.4-1.8 7.8 4.3zM1066.7 398l31.8 66c.4 1.4 2.1 5.1 3.6 8.2 3.2 6.3 3.5 8.8 1.7 11.8-1.9 3-.1 3.6 5 1.6 11.9-4.6 15.5-5.7 16.4-4.8 1 1-3.7 7.7-10.9 15.5-4.4 4.7-4.4 4.8-3.8 10.5.5 4 .3 5.3-.4 4.2-.6-.8-1.3-3.9-1.7-6.8-.6-4.8-.8-5.2-2.3-3.9-.9.8-2.4 1.7-3.5 2.1-1.6.6-1.7 1.4-1.2 8.9.6 6.8.5 7.9-.6 6.2-.8-1.3-1.2-6.2-1.3-14.2 0-6.8-.2-12.3-.4-12.3s-.9.7-1.5 1.6c-1.3 1.8-4.6.9-4.6-1.2 0-.8 1.1-1.9 2.5-2.4s2.5-1.3 2.5-1.8c0-2.5-3.8-10.8-20.1-44.3-18.3-37.7-25.9-54.1-25.9-56.2 0-2.2 3.2-5.8 4.8-5.5 1.1.2 4.8 6.6 9.9 16.8zm28.9-12.5c.4.8 1.6 1.5 2.8 1.5 1.1 0 2.7.4 3.5.9 2.2 1.4-.6 2.5-7.7 3.1-3.4.3-6.3.9-6.4 1.5-.1.5 2.6 1.5 6.1 2.1 6.9 1.3 9.5 2.9 7.1 4.4-.8.5-3.2 1-5.3 1-5.1 0-4.4 2.3.9 3 7.8 1.1 8.1 4.2.5 6.4l-4.6 1.3 4.2.7c2.2.4 4.9 1.6 5.8 2.7 2.9 3.1.5 4.6-8 5.1-4.1.3-8.1 1.1-9 1.8-1.1 1-1.9 1-2.7.2-1.7-1.7-.2-4 2.8-4.4 4.3-.5 5.1-2.9 2.3-6.7-1.7-2.3-2.4-4.8-2.7-9.5-.5-7.2.7-10.2 4.5-11.7 1.5-.6 2.3-1.5 2-2.3s-.3-1.7 0-2c1.2-1.1 3.4-.6 3.9.9zm29.7 10.8c.3.8.1 2-.4 2.8-.6 1-.9.7-.9-1.4 0-2.9.5-3.5 1.3-1.4zm-74.8 5.7c.4.6-1.1 1.8-3.4 2.7s-4.1 2-4.1 2.4 2.4.9 5.3 1.1l5.2.3 4.3 8.8c2.4 4.9 4.1 9.1 3.8 9.4-.3.4-6.9.9-14.6 1.2-14.9.7-17 1.4-15 5 1.4 2.6.6 4.1-2.3 4.1-3.4 0-.5 2.1 3.4 2.5 4.9.4 6.9 1.5 6.9 3.6 0 1.8-.6 1.9-10.2 1.3-5.7-.4-10.5-.9-10.8-1.1-.2-.2 1.6-4.2 4-8.8l4.5-8.5h10.5c10.6 0 15-.6 15-2 0-.4-2.2-1-5-1.4-8.5-1.1-13.5-7.6-11.6-15.1 1.2-4.6 12.1-8.8 14.1-5.5zm31 2.9c.3.5-.3 1.2-1.3 1.6-2.2.6-5.2-.3-5.2-1.6 0-1.2 5.7-1.2 6.5 0zm60.1 5.4c-.9 4.7-4.2 8.7-7.2 8.7-2.9 0-3-.9-.4-6.1 4.3-8.4 9-10 7.6-2.6zm62.8 7.6c-3 6.6-53.7 60.2-59.6 63.1-4 1.9-4.6.5-1.9-4.5 5.9-11.2 48.2-56.9 57.5-62.2 2.8-1.6 5.4.7 4 3.6zm-43 3.7c.4 1 0 2.2-1 2.9-1.5 1-1.3 1.5 1.7 3.9l3.4 2.7-3.5-.6c-5.5-1.1-6.4-2.5-4.6-6.9 1.6-3.9 3-4.6 4-2zm19.4.6c-.7 1.9-3.8 2.2-3.8.4 0-1 .9-1.6 2.1-1.6s1.9.5 1.7 1.2zm-46.4 2.7c.8 1.2-2.9 12.9-6.2 20.1-1.7 3.8-2.6 4.9-2.9 3.7-.3-1 0-2.3.5-3 .7-.8.6-1.8-.4-3.1-2-2.8-1.7-8.3.7-12.6 2.6-4.5 7-7.3 8.3-5.1zm-32.9 1.4c2.8 2.1.9 3.7-4.4 3.7-5.5 0-6.4-.6-5-3.1 1.2-2.3 6.6-2.6 9.4-.6zm-36.9 7.8c2 1.7 1.7 2.6-1.3 4.3l-2.8 1.5 3.3.1c5.4 0 9.9 6.5 5 7.2-3.4.5-3.3 2.6.3 3.5 3.9 1.1 5.9 3.7 4.1 5.5-2.2 2.2-8.2-1.9-10.5-7.2-2-4.6-8.3-12-10.2-12-.6 0-2-.6-3.1-1.4-1.8-1.4-1.8-1.5.6-2.5 3-1.3 12.6-.7 14.6 1zm37.8 7.1c.3 4 .2 8.9-.2 10.8l-.8 3.5-1.3-2.4c-.7-1.3-1.5-4.6-1.7-7.3-.1-2.8-1-6.1-1.9-7.4-1.9-2.9-1.9-3.2.3-3.7 4.7-1.3 4.9-1 5.6 6.5zm100.4-3.7c.2 1.5-.2 3.2-1 3.6-1.7 1.2-8.8 1.1-8.8 0 0-1.4 7.1-7.2 8.3-6.8.7.2 1.3 1.6 1.5 3.2zm-38.7-1.5c3.8 2.1 2.1 3.3-3.6 2.7-6.4-.6-8.4-1.5-6.4-2.8 1.9-1.2 7.6-1.1 10 .1zm-3.6 6.9c.8 1.4-2.8 3.1-6.6 3.1h-3.2l2.3 2.4c3.6 3.9 1.5 7-3.1 4.6-4.9-2.7 0-11 6.5-11 1.9 0 3.7.4 4.1.9zm43.5 3.1c0 1.2-7.7 3.3-9.2 2.4-1.8-1.1 2.1-3.4 5.9-3.4 1.8 0 3.3.4 3.3 1zm-157.3 2.4c1.4 1.3-1.2 2.1-7 2.1-7.4 0-10.9-1.1-8.7-2.6 1.6-1 14.6-.6 15.7.5zm-10.9 8.5c13.6 6.9 51.9 27.4 55.7 29.8 2 1.3 2 1.3-.4 3.3-1.3 1.1-3.3 2-4.6 2-2.3 0-64.8-30.2-67.7-32.8-3.2-2.7-1.8-9.2 2-9.2.8 0 7.5 3.1 15 6.9zm14.9-2.2c.7 2.1-3.6 3.7-6.4 2.4-2.1-1-2.3-1.4-1.2-2.7 1.4-1.7 7-1.5 7.6.3zm131.6.5c.6 2 .9 2.1 11.5 1.5l10.9-.6 1.3 5.8c1.6 7.5 1.1 9.5-2.1 9.9-3.3.4-5.4-2-4-4.5.5-1.1.6-2.5.2-3.2-1.3-2-8.8-3.1-17.2-2.4-9.3.7-10.6-.4-5.8-5.3 3.9-4 4.5-4.1 5.2-1.2zm-115.3 8.6c.3.2-.1.7-.7.9-.7.3-1.3 1.1-1.3 1.9s-.2 1.4-.5 1.4c-1.2 0-9.5-4.5-9.5-5.1 0-.8 11.2 0 12 .9zm114.5 2.2c0 1.1-1.6 1.7-6.3 2.1-9.8.9-10.1 2.7-.6 3.5 3.3.3 6.6.8 7.4 1.1 2.4.8-1.7 2.1-7 2.2-5.7.1-12.2 1.9-11.5 3.2.6.9 7.4.5 13.5-.7 5.4-1.1.1 1.5-10.1 5-17 5.8-18.7 4.7-8.6-5.7 7.4-7.6 15.9-12.9 20.2-12.5 1.9.2 3 .9 3 1.8zm-142.6 12.3c12.4 6.2 22.6 11.8 22.9 12.5.3.9-1.9 1.2-8.1 1.2-7.6 0-8.7-.2-11.3-2.5-1.6-1.4-6.5-4.8-10.9-7.5-4.4-2.6-9.1-6-10.4-7.4-1.4-1.4-3.2-2.6-4.1-2.6-1.9 0-4-1.9-4-3.7 0-.7.8-1.3 1.8-1.2.9 0 11.8 5.1 24.1 11.2zm173.9-2.7c5.5 3.8 2.5 5.6-24.3 13.8-33.1 10.2-36.5 10.7-36.5 5.5 0-3 5.8-5.4 31-13.3 14.3-4.4 24.5-7.3 26.5-7.5.6-.1 2.1.6 3.3 1.5zm-199.4 10.9c1 .8 4.3 1.9 7.2 2.5 8.2 1.7 6.7 4-2.6 4-6.9 0-8-.6-8-4.6 0-3.7.6-4 3.4-1.9zm129.6 4.3c9 9 7.6 24.9-2.9 32.9-6.8 5.2-12.8 4.1-18.2-3.5-6.4-9.1-6.5-18.5-.1-27.1 3-4 7.2-6 13.1-6.1 3.7 0 4.9.5 8.1 3.8zm64 6.9c0 5.5-1.7 20.4-3.7 31.6l-1.6 9.9-2.9-.6c-4.7-.9-18.4-7.2-32-14.7-13.7-7.5-14.8-8.9-10.5-13 5.3-5 22.3-11.6 38.8-14.9 12.6-2.5 11.9-2.6 11.9 1.7zm-165.2 7.7c.3 1.2-.1 1.7-1 1.4-.7-.3-1.5-1.3-1.6-2.2-.3-1.2.1-1.7 1-1.4.7.3 1.5 1.3 1.6 2.2zm43.4 4.3c2.6 2.3 2.2 5-.9 6.7-2.2 1.1-27.4 9.2-71 22.7-1.8.6-3.7.8-4.3.4-.5-.3-1-3-1-5.9v-5.3l31.3-8.7 35.7-10.1c6.1-1.8 8-1.8 10.2.2zM1021 511c4.6.5 11 1 14.2 1s5.8.4 5.8.9c0 1.1-7.3 4.1-10.1 4.1-1.1 0-5.4 1.1-9.5 2.5-8.8 3-12.1 3.2-12.7.7-2.3-8.3-1.8-11.5 1.6-10.7 1.2.3 6 .9 10.7 1.5zm74.8 4c-.2.8-1.1 1.6-2.1 1.8-1.3.3-1.7-.3-1.7-2.6 0-1.6.3-3.2.7-3.6 1-1 3.4 2.5 3.1 4.4zm64.4 9.6c15.5 5.6 42.7 20.8 45.7 25.5 1.6 2.6.5 5.9-2 5.9-2.3 0-50.6-24.4-54.5-27.5-2.3-1.8-2.5-2.4-1.5-4.3 1.5-2.8 3.4-2.8 12.3.4zm-56.4 5c-.8.7-5.8-4.4-5.8-6 0-.6 1.4.4 3.2 2.1 1.8 1.8 2.9 3.5 2.6 3.9zm-13.3 1.4c.3.5.2 1.6-.2 2.4-1.3 2.2-52.4 57.5-59.2 63.9-5.1 4.9-6.4 5.7-7.6 4.7-.8-.7-1.5-2.7-1.5-4.5 0-2.7 1.5-5 8.4-12.7 16.8-18.8 55.1-54.8 58.3-54.8.6 0 1.5.4 1.8 1zm-19.5 1.4c0 2.4-51.4 56.5-52.6 55.4-.2-.3-2.1-5.2-4.1-10.9-2.7-7.7-3.6-12.1-3.7-17.1-.2-11.2 2.5-12.9 33.9-22.3l20-6c2.7-.9 6.5-.4 6.5.9zm59.4 1.5l4.9.6 3.5 8.5c4.2 9.9 24.5 50.2 32.1 63.7 5.4 9.7 7.7 11.9 5.8 5.7-1-3.3-.9-3.8 1.2-5.5 1.3-1.1 3.5-1.9 5-1.9h2.6l-2.5-2c-2.5-2-2.5-2-.5-3.6 2.7-2.1 6.9-1.4 7.3 1.1.4 2.7-8.1 15.5-12.1 18.3-4 2.6-8.8 2.9-10.9.4-.8-.9-2.8-5.1-4.3-9.2-3.6-9.6-20.2-42.3-28.5-56-7.7-12.9-11.6-17.9-14.6-19.1-1.3-.4-2.4-1.3-2.4-1.8 0-.9 1.9-.8 13.4.8zm35.6 11.2c21 10.6 27 14.8 27 19.2 0 5.5-11.7 31.2-17.4 38.2l-2.4 3-15.7-31.6c-8.6-17.4-15.8-33.3-16.2-35.3-.5-3.4-.4-3.6 2.1-3.6 1.4 0 11.6 4.5 22.6 10.1zm-60.6-6.5c.4 1.1 0 1.5-1.6 1.2-1.2-.2-2.3-.9-2.6-1.6-.6-1.8 3.5-1.5 4.2.4zm-1.4 5.2c0 3.7-16.1 57.5-24.1 80.2-7.1 20.4-13 28.3-16 21.6-1-2.1-.6-4 2.4-12.3 2-5.4 6.1-17.7 9.1-27.3 7.2-22.8 20.7-59.5 22.9-62 2.2-2.6 5.7-2.6 5.7-.2zm15 7.3c2.6 18.7 5.3 76.8 4.3 91.4-.7 9.5-1.8 12.1-5 11.1-4.2-1.3-4.5-4.8-5-55.2-.6-48.2-.6-48.2 1.6-50.5 1.1-1.2 2.1-2.7 2.1-3.3 0-3 1.2 1.1 2 6.5zm-36.5 14c-13.8 42.8-15.7 47.9-17.8 49.4-1.3.9-4.4 1.5-7.7 1.5-3 0-9.2.8-13.8 1.7-8.5 1.8-10.4 1.5-12.5-1.9-.6-.8-.7-2.6-.4-4 1.1-4.2 56-65.8 57.4-64.4.2.2-2.1 8.2-5.2 17.7zm55.4 12.4c6.1 12.6 11.1 24.2 11.1 25.6 0 3.2-1.4 3.9-8.3 4-9.2.1-10 1.8-1 1.8 13.2.1 19.3 3.8 19.3 11.7 0 4.7-15.5 17.5-26.1 21.5l-4.7 1.8-.7-10.3c-1-15.1-1.8-14 10.3-14.4 6.2-.2 10.2-.7 10.2-1.3 0-.7-3.3-.9-9.5-.7-5.3.1-9.8-.1-10.3-.7-2.3-2.4-4.5-65.3-2.3-63 .5.6 5.9 11.3 12 24zm-32.5 8.2l1 30.5.4 11.8h-4.6c-2.6 0-7.6.6-11 1.4-5.6 1.1-6.5 1.1-6.9-.2-1.1-2.7 1.4-4.7 7.6-6 7.9-1.8 8-3.5.1-2.6-4.6.5-6 .4-6-.7 0-2.3 17.2-52.9 18-52.9.4 0 1.1 8.4 1.4 18.7zm93.6-7.7c0 .5-.9 1-2 1s-2-.5-2-1c0-.6.9-1 2-1s2 .4 2 1zm0 5.9c0 1.9-3 3.2-6.6 2.9s-3.7-.4-2-2.1c1.8-1.7 8.6-2.4 8.6-.8zm-6.9 7.1c2.9 1.6 2.4 4-.8 4-3.7 0-5.5-1.3-4.7-3.3.7-1.9 2.7-2.2 5.5-.7zm-128.6 28c.8 1.2-5 18.9-7 21.6-1.3 1.8-1.9 1.4-10.4-7.1-8.7-8.6-10.2-10.7-8.2-11.9 4.5-2.8 24.3-4.8 25.6-2.6zm109.5 6.3c-18.5 14.7-40.9 28.2-43.2 25.9-1.7-1.7.1-3.2 4.1-3.2 3 0 4.4-.7 7.2-3.6 1.8-2 5.8-5 8.7-6.6 3-1.7 5.6-3.6 5.9-4.3.2-.7 1.7-1.5 3.2-1.8s5.1-2.2 8-4.1c4.9-3.4 9.5-5.1 6.1-2.3zm-68.6 5.3c2.6 1 1.9 2.4-2.1 4.1l-3.8 1.7 3.5.5c3.5.6 3.5.6 3.8 6.5l.3 5.8-10.8-.4c-11.5-.4-16.6-2.1-17.8-5.7-.3-1.1 0-2.9.7-4.1 3-4.9 20.6-10.5 26.2-8.4zm-2 23c3.4 1.3.2 2.4-6.9 2.4-6.8 0-10.3-1.1-7.3-2.3 1.9-.8 12.4-.8 14.2-.1z"/><path d="M1136.3 362.9c-5.4.9-6.3 1.8-2.8 2.7 2.6.6 15.5-.2 16.4-1.2 1.5-1.4-7.8-2.5-13.6-1.5zm-91.1 54.2c2.6 1.5 9 1.6 9.5.1.3-.9-1.1-1.2-5.4-1.2-4.3.1-5.4.3-4.1 1.1zm81.3 14.9c-.8 1.3.3 3 2 3 2 0 3-2.1 1.4-3.1-1.8-1.1-2.6-1.1-3.4.1zm3.3 61.1c-10.8 5.7-12 21.7-1.9 25.8 7.8 3.3 13.1-1.8 13.1-12.6 0-3.5.5-7.2 1.2-8.2.9-1.5.9-2.5 0-4.5-.9-2.1-1.8-2.6-4.9-2.6-2.1.1-5.5 1-7.5 2.1zm6 9.1c1.6 1.6 1.5 6-.1 8.3-2.2 2.8-6.7 1.3-6.7-2.3 0-3.1 2.5-7.2 4.4-7.2.6 0 1.7.5 2.4 1.2zm-91.2 108c-7.9.9-13.7 2.7-8.8 2.8 3 0 22.5-2.9 23.1-3.5.6-.7-4.9-.4-14.3.7zM1136 624c-3.1.7-2.9.7 2 .8 3 .1 7.3-.3 9.5-.7 3.8-.8 3.7-.9-2-.9-3.3.1-7.6.4-9.5.8zm-48.5 13.7c-1.1.3-2.4.9-2.9 1.4-1 .9 5.7.1 8.9-1.2 1.6-.6 1.5-.8-1-.7-1.6 0-3.9.2-5 .5zM229 362.7c0 3 4.3 8.3 5.7 6.9.8-.8-2.3-7-4.4-8.7-1-.9-1.3-.5-1.3 1.8zm8.8-.1c-1.1 1 .3 3.4 1.9 3.4.8 0 1.3-.7 1.1-1.7-.3-1.8-2-2.7-3-1.7zm975.5-5.6c4.9 1.5 15.7 2.3 15.7 1.2 0-1.7-2.8-2.2-10.8-2.1-5.8.1-7 .3-4.9.9zm7 10.7c-2.7.5-3 3.1-.5 4 .9.3 2.4 1.5 3.3 2.6 1.7 2 1.7 2 2.8-.1.6-1.2 2-2.2 3-2.2 2.2 0 4.6-2.6 3.2-3.4-1.4-.9-9.2-1.5-11.8-.9zM89.3 412c-4.2 2.5-5.9 8.1-3.8 12.4.8 1.6 1.5 4.2 1.5 5.8 0 3.9 2.5 3.6 4.6-.5.9-1.7 3.2-4.9 5-7 3.5-3.8 4.4-6.7 2.2-6.7-.7 0-2.2 1.2-3.4 2.7-1.4 1.7-2.6 2.4-3.7 2-2.2-.8-2.2-5.5 0-7.9 2.4-2.6 1.2-3-2.4-.8zm599.3 2.9c-4.2 1.6 1.3 2.3 31.6 3.6l35.1 2.1c4.1.7 5.3-1 1.4-2-3.5-.8-23.1-2.4-44.2-3.6-21.5-1.1-21.3-1.1-23.9-.1zm105.2 4.8c-2.3.6-2.3 2 .1 3.3 4.6 2.4 10.4.1 6.6-2.7-1.9-1.3-3.5-1.5-6.7-.6zm-96.2 3.1c-1.1 1.8 1.4 2.5 9.5 3 8.9.5 16.7-.5 13.4-1.8-3.5-1.3-22.2-2.3-22.9-1.2zm130 1.1c-.9 1.4 4.7 2.1 15.9 2.1s16.8-.7 15.9-2.1c-.3-.5-7.4-.9-15.9-.9s-15.6.4-15.9.9zm-80 2.1c1.2.5 7.5 1.1 14 1.5 6.6.3 17.8 1.3 25 2.1 11.1 1.2 26.4 2 68.4 3.6 5.1.2 6.5 0 6.5-1.1 0-2.4-4.7-3-29.4-3.6-13-.4-31.5-1.3-41.1-2.1-19.2-1.5-46.9-1.8-43.4-.4zm-48.9 2.6c-1 1.1.3 2.4 2.4 2.4 1 0 1.9-.7 1.9-1.5 0-1.5-3.1-2.1-4.3-.9zm4.5 7.6c.5 1.5 4.8 1.8 4.8.3 0-.6-1.1-1.1-2.6-1.3-1.8-.3-2.5 0-2.2 1zm253.5 7.1c-2 1.4-7 14.1-6 15.1.4.3 5.5.6 11.3.6 11.6 0 13.5-.8 12.8-5.2-.3-2-1.2-2.5-6.3-3.4-4.8-1-5.3-1.2-2.5-1.3 6-.2 11.2-2 10.8-3.9-.2-.9-1.4-1.9-2.8-2.3-4.4-1.2-15.5-1-17.3.4zm-29.9 1.4c2.3.2 5.9.2 8 0 2-.2.1-.4-4.3-.4s-6.1.2-3.7.4zM588.6 579.3c-2.2 3.3-4.7 10.9-4.2 12.4.8 1.9 3 1.6 5.1-.7 1-1.1 2.4-2 3.2-2 3.7 0 3.1-8.4-.7-10.8-1.7-1-2.2-.9-3.4 1.1zm-47.1 114.2c-2.1.9-5.3 1.2-10.6.8-5.1-.4-7.8-.2-8.3.5-.4.7.4 1.4 2.1 1.8 1.5.3 3.4.7 4.1 1 2.1.6 15.4-1.5 16.9-2.7 3.3-2.8.8-3.6-4.2-1.4zm88.5-173c0 3 2.6 8.5 4 8.5s1.2-5-.3-7.9c-1.7-3.5-3.7-3.8-3.7-.6zm-25.7 126.7c.2.7 1.6 1.3 3.2 1.3s3-.6 3.3-1.3c.2-.8-.8-1.2-3.3-1.2s-3.5.4-3.2 1.2zM782.2 36.6c-2.4 1.1 0 2.4 4.4 2.4 3.2 0 4.4-.4 4.2-1.3-.5-1.2-6.3-2-8.6-1.1zm3.2 5.9c-.8 2.1.4 3.5 3.2 3.5 2.9 0 3.2-2.5.5-4-2.6-1.3-3.1-1.3-3.7.5zM665.6 185.9c-2.2 2.4-1.3 6.1 1.4 6.1 4.7 0 9.2-4.2 7.5-7-1.1-1.7-7.1-1.1-8.9.9zm8.8 6.6c-1 .8-2.9 1.5-4.1 1.5s-2.5.4-2.8 1c-.8 1.3 5 1.2 9.9-.3 2.2-.7 4.1-1.8 4.4-2.5.5-1.7-5-1.6-7.4.3zm98.6 1.9c0 2.8 1.4 3.5 2.3 1.2.3-.8-.1-2-.9-2.6-1.2-1-1.4-.8-1.4 1.4zm198 67.5c3.7 3.3 6 4 6 1.7 0-2-2.2-3.5-6.1-4.2l-3.4-.5 3.5 3zm-.8 8.8c.5 2.6 3.8 2.9 3.8.4 0-1.5-.6-2.1-2.1-2.1-1.4 0-1.9.5-1.7 1.7zm118 0c-3.5 1.4-3.6 7.3-.1 7.3 1.3 0 1.9-.7 1.9-2.4 0-1.5.7-2.6 2-2.9 1.1-.3 2-1 2-1.6 0-1.1-3.4-1.4-5.8-.4zm163.3 31.5c-.9 2.2-.2 6.8 1 7.1 1.4.3 1.9-6.3.6-7.6-.7-.7-1.2-.5-1.6.5zm8.8 7.3c0 2.7.2 3.8.4 2.2.2-1.5.2-3.7 0-5-.2-1.2-.4 0-.4 2.8zm-9.1 42c0 1.6.2 2.2.5 1.2.2-.9.2-2.3 0-3-.3-.6-.5.1-.5 1.8zm-2 16c0 1.6.2 2.2.5 1.2.2-.9.2-2.3 0-3-.3-.6-.5.1-.5 1.8zm-4 85.5c-3.3 1.4-1.8 3 2.6 3 3.5 0 7.2-1.4 6.2-2.3-1.2-1.1-6.7-1.5-8.8-.7zm3 23.1c-3.5 1.3-1.8 2.9 2 1.8 4.3-1.2 5.9-2.9 2.8-2.8-1.4 0-3.5.4-4.8 1zM178 493.5c-.7.8-1.5 3.6-1.8 6.1-.4 3.7-.2 4.6.9 4.2.8-.3 1.6-2.4 1.9-4.9.3-2.4.9-5 1.3-5.7 1.1-1.7-.8-1.5-2.3.3zm13.7 5.9c-.9.9-1.8 2.4-2.1 3.4-1.1 3.8-2.6 13.8-2.6 17.4 0 3.1.3 3.8 2 3.8s2-.7 2.1-5.3c0-2.8.8-8.4 1.9-12.2 1.9-7.2 1.4-9.8-1.3-7.1zm44.5 5.3c-2.4 5.7-3.7 10.3-2.8 10.3.7 0 4.9-8.8 6.1-12.8 1.2-4.1-1.2-2.2-3.3 2.5zm17.4-.5c-.3 1.3-.6 3.9-.6 5.8s-.9 5-2 6.7c-3.2 5.4-5.3 3.8-3-2.3 1.4-3.6.3-4.5-2-1.7-2.6 3.2-4.4 3-3.6-.5 2-8.1 2-7.9.1-6-2 1.8-5.6 11.8-4.8 13.1.3.4 1.6 1.2 2.9 1.7s2.4 1.6 2.4 2.5c0 .8 1.6 2.3 3.7 3.2l3.6 1.8 3.9 15.5c2.2 8.5 6.1 22 8.9 29.9 3.6 10.7 4.9 15.9 4.9 20.1 0 10.5 4.2 29.2 8.5 38.5 3.6 7.5 5.4 15.6 6.7 29.2 1.4 15.1.1 27.6-4 40.6-1.7 5.1-3.5 11.4-4.1 14.1-1.6 6.8-4.7 13.1-14.1 28.1-4.4 7.2-8.4 14.1-8.7 15.4-.8 3.2 1.5 4.8 8.4 5.7 15.1 1.9 34.9-6.3 42.3-17.4 3.3-5 3.3-5.4 1.4-17.8-.7-4.9 2-11 6.3-14.2 2.6-1.9 2.7-2.2 1.2-3.7-1.6-1.6-1.9-1.6-5.3 0-4.6 2.2-10.6 9.1-10.6 12.3 0 1.3.7 3 1.5 3.8.8.9 1.5 2.9 1.5 4.5 0 1.7.4 3.9 1 4.9.9 1.7.2 1.8-8.9 2.5-5.5.4-11.2.4-12.8.1-3.2-.7-5.9.6-4.8 2.3.5.9 4.4 1.2 12.7 1 10.9-.2 12.2 0 13.5 1.7 1.9 2.7 1.3 4.5-2.5 7.1-10.9 7.3-38.2 10.2-38.2 4 0-.8 2.5-5.2 5.6-9.8 7.3-10.8 16-29.1 16.9-35.2.3-2.6 1.5-7.3 2.5-10.3 5.4-15.7 5-46.4-.7-65.1-.9-2.9-1.4-5.5-1.2-5.8.3-.2 1.9.1 3.7.7 3.7 1.4 4.1 1.1 5.2-3.8 1.2-5.1-.3-7.9-1.8-3.5-1.2 3.5-1.4 3.6-4.2 1.9-1.6-1.1-2.2-.9-3.3.7-1.4 1.8-1.5 1.8-2.1-.3-.4-1.2-.2-3.8.3-5.9 1.4-5 1.4-7.5 0-5.1-4.5 7.9-8-10.6-4.4-23 1.6-5.4 1.4-7.2-.9-7.2-1.7 0-8.6-15.1-12.4-27-3.3-10.6-4-15.9-5.1-38.5-.7-14.8-2-20.6-3.5-15.3z"/><path d="M196 507c-1.6 3-4 20.3-3 21.4.6.6 3 .4 6.2-.3 2.9-.7 6.1-1.1 7.1-1 1.1.3 2.2-.5 3-2 2-3.9 3.7-3.8 3 .2-.7 4.3 1 5.5 3.1 2.2.9-1.4 2.2-2.5 2.8-2.5 1.5 0 9.8 6.9 9.8 8.2 0 .5-.9 2.2-2.1 3.6-2.6 3.4-1 4 4.2 1.7 2.2-1 4.2-1.5 4.5-1.2.9.9-2.2 5.4-4.6 6.7-1.1.6-2 1.5-2 2.1s2.1-.2 4.8-1.7c2.6-1.5 7.3-4.1 10.5-5.6 3.1-1.5 5.7-3.2 5.7-3.8 0-.5-.1-1-.3-1s-3-.5-6.2-1.1c-6.8-1.2-10-2.7-17-7.9-2.7-2.1-7.4-5-10.3-6.5-2.9-1.6-7.9-5.2-11.1-8.2-3.3-2.9-6.2-5.3-6.5-5.3s-1 .9-1.6 2zm4.3 8.2c.5 1.6-1 4.8-2.3 4.8-1.1 0-1.4-4.3-.3-5.3 1-1.1 2.1-.8 2.6.5zm5.2 5.9c-.4.5-1.3.9-2.2.9-1.3 0-1.3-.3-.3-1.5 1.3-1.5 3.5-1.1 2.5.6zm525.2-11.9c2.3 12.3 13 36.5 21.8 49.8 7.5 11.1 22.4 26.2 32.9 33.1 9.8 6.5 19.3 10.6 20.9 9 1.4-1.4-.1-3.1-2.7-3.1-4.9 0-14.8-6.2-24.3-15.3-16.4-15.7-30.1-35.9-39-57.5-5.8-14.1-8.3-19.2-9.4-19.2-.5 0-.6 1.5-.2 3.2zM765 564c0 3.2 13.9 15.4 15.6 13.7.4-.3-2.5-3.8-6.3-7.6-6.4-6.7-9.3-8.5-9.3-6.1zm18.7 16.6c-.9 1 1.2 3.4 3 3.4 1.9 0 1.2-3.4-.8-3.8-.8-.1-1.8 0-2.2.4z"/><use xlink:href="#C" x="-156" y="202"/><path d="M719.5 603.1c-10.7 1.2-25.5 4-25.5 4.8 0 .4 2.8.4 6.3 0 3.4-.5 14.3-1.8 24.2-2.9 9.9-1.2 18.2-2.4 18.4-2.6.7-.7-15.9-.2-23.4.7zm144 2.4c-4.9.7-11.5 1.4-14.5 1.4-7.5.2-13 1.2-13 2.4 0 2.6 39.7-1.2 45-4.4 2.2-1.2-6.6-.9-17.5.6zm-47.5 1.4c1.8 1.2 14.5 3.5 16.2 2.8 1.9-.6-5.7-2.7-12.2-3.3-3.9-.4-5.1-.3-4 .5zm145.5 1.6c2.1 1.7 4.5 1.7 4.8 0 .1-.6-1.4-1.1-3.3-1.3-3.3-.2-3.4-.2-1.5 1.3z"/><use xlink:href="#D"/><path d="M945.3 609.7c1.5.2 3.9.2 5.5 0 1.5-.2.2-.4-2.8-.4s-4.3.2-2.7.4zm-197.5 2c1.2.2 3 .2 4 0 .9-.3-.1-.5-2.3-.4-2.2 0-3 .2-1.7.4z"/><use xlink:href="#D" x="243" y="2"/><path d="M726 613c-1.2.8-.9 1 1.3 1 1.6 0 2.6-.4 2.2-1-.8-1.2-1.6-1.2-3.5 0zm187 0c-1.1.7-.6 1 2 1s3.1-.3 2-1c-.8-.5-1.7-1-2-1s-1.2.5-2 1zm51.8.1c-1.9 1-2.4 2.9-.9 2.9.5 0 1.9-.9 3.2-2 2.6-2.1.9-2.8-2.3-.9zM856 621.5c-11.3 1.9-24.2 4.5-28.7 5.9-12 3.7-21.5 5.4-33.3 6.1-20.9 1.2-63.1 7.3-67 9.6-1 .6-.5.7 1.5.4 36-5.6 53-7.5 66.7-7.5 5.9 0 11.9-.5 13.4-1.1 1.6-.5 10.4-1.6 19.7-2.4 9.3-.7 17.1-1.6 17.4-1.9.4-.3-.8-.6-2.5-.6-1.8 0-3.2-.4-3.2-1 0-1.5 11.4-4.6 26-7 7.4-1.2 14.2-2.6 15-3.1 2.7-1.5-3.8-.8-25 2.6z"/><use xlink:href="#D" x="255" y="9"/><path d="M923 620c-1.1.7-.6 1 2 1s3.1-.3 2-1c-.8-.5-1.7-1-2-1s-1.2.5-2 1zm-21.4 1.9c-1.1.4-1.5 1-1 1.4 1.2.7 12.1-.7 13.1-1.6.9-.9-9.7-.7-12.1.2zM777 623.2l-6.9 1.3c-1.4 1.5 1.9 1.4 12-.3 8.6-1.5 10.2-2 6.4-2-2.7 0-7.9.5-11.5 1zm-600 3.3c-1.3 1.4-2 2.8-1.7 3.2.8.7 5.7-3.5 5.7-4.9 0-1.5-1.6-.8-4 1.7zm1036.3.1c-3.4 1.5-.3 2.2 10.5 2.3 6.4.1 13.5.5 15.7 1.1 5 1.2 11.2 1.3 10 .1-2.1-1.8-11.5-3.4-23-3.7-6.6-.2-12.6-.1-13.2.2z"/><use xlink:href="#D" x="232" y="18"/><path d="M748.5 628.8c-1.6.1-7.5 1.2-13 2.3-5.6 1.2-14.9 2.2-21.1 2.4-10.8.3-11.4.4-17.9 4-4.9 2.8-9.3 4.3-16.4 5.6-15.5 2.8-34.5 7-35.1 7.6-1 1.1 13.7-.7 24.5-3.1 6.1-1.3 13.2-2.7 15.8-3.1 2.6-.3 7.8-2.3 11.5-4.2 6.3-3.4 7.5-3.7 18.7-4.4 15.5-.9 38.9-5.5 36.5-7.1-.3-.2-1.8-.2-3.5 0z"/><use xlink:href="#D" x="288" y="21"/><use xlink:href="#C" x="78" y="232"/><path d="M184.8 633.6c-3.1 1.6-3.7 3.4-1.3 3.4 2.2 0 7.5-2.9 7.5-4 0-1.4-3.1-1.1-6.2.6zm756.2-.5c-1.9.4-7 1.1-11.3 1.4-4.3.2-10.8 1.4-14.5 2.6-5.4 1.7-10.6 2.3-27.7 2.9-15.7.6-24.5 1.5-35 3.5-7.6 1.4-14.1 2.8-14.4 3-1 1 7 .4 18.9-1.5 9-1.4 17.5-2 30.4-2 17.1 0 18.3-.1 27.3-3 10.7-3.4 14.3-3.9 12.3-1.5-1.6 1.9-1.1 1.9 8-.5 4.1-1.1 10.1-2.2 13.3-2.6 3.6-.4 5.6-1.1 5.4-1.8-.5-1.4-8.1-1.7-12.7-.5zm272.5 1.4c-3.8 1.3-8.7 2.4-10.7 2.4-3.6.1-9.5 1.8-8.7 2.6.5.5 28.7-3.1 33-4.3 1.8-.4 3.4-1.3 3.7-2 .6-2-9.6-1.2-17.3 1.3zM672 638.7c-8.3.8-24.8 3.4-28.3 4.4-7.4 2-2.8 2.1 10 0 7-1.1 18.1-2.3 24.6-2.7 6.4-.3 11.7-1 11.7-1.5 0-.9-10.6-1-18-.2zm107.4 8.8c-1.6 1.2-1.7 1.4-.2 1.5 2.3 0 4.8-1.1 4.8-2.1 0-1.4-2.4-1.1-4.6.6zm-311.1 2.1c2.4 1.3 3 1.3 5.5 0 2.7-1.5 2.6-1.5-2.8-1.5s-5.5 0-2.7 1.5zm352.7-.4c-11.4 2.4-32.4 8-33.9 8.9-1.3.8-1.1.9.9.4 1.4-.3 6.8-.8 12-1.1s11-.7 12.9-1c3.1-.5 3.2-.6 1.5-1.9-1.8-1.3-1.8-1.4.6-2 1.4-.3 5.9-1.4 10-2.4 5.5-1.4 6.6-1.9 4-1.9-1.9 0-5.5.4-8 1zm-65 1.9c-3 .5-9.5 1.2-14.5 1.5-5 .4-9.9 1.3-11 2-1.1.8-2.8 1.4-3.9 1.4-4.4 0 .2 2 5.9 2.5 4.6.5 5.6.4 4.3-.5-4.8-3-.3-3.6 10.8-1.4 2.6.5 3.2.2 3.7-1.7.6-2.1.9-2.2 8.9-1.6 8.3.7 11.7-.1 10.4-2.2-.8-1.2-6.5-1.2-14.6 0z"/><use xlink:href="#B" x="-589" y="332"/><path d="M862.5 652c-1.4.6.2.9 5 .9 3.9 0 7.9-.4 9-.9 1.4-.6-.2-.9-5-.9-3.8 0-7.9.4-9 .9zm-439.6 3c2.7 2.3 5.6 2.3 5.6 0 0-1-1.2-1.6-4-1.8l-4-.2 2.4 2zm-20.4 1c-.7 1.2 4.5 1.2 9 0 2.5-.6 2-.8-2.7-.9-3.1 0-6 .3-6.3.9zm114.9.5c-1.8 1.3-1.7 1.4 1.8 1.5 4.1 0 6.8-.8 6.8-2.1 0-1.5-6.5-1-8.6.6zm315.4.3c-2.7.9-4.8 1.9-4.8 2.3 0 .8 8.7-1.5 9.8-2.5 1.2-1.3-.5-1.2-5 .2zm-169.3.2c-1.6 2.5 3.9 4.5 10.6 3.8l3.4-.4-4.5-2.2c-4.9-2.3-8.5-2.8-9.5-1.2z"/><use xlink:href="#C" x="-536" y="262"/><path d="M716 661.6c0 .9.7 1.4 1.7 1.2 2.5-.5 2.8-2.8.4-2.8-1.2 0-2.1.6-2.1 1.6zm99.5-.9c-4.1 1-4.1 2.6 0 1.8 5.1-.9 8.1-2.5 4.5-2.4-1.4.1-3.4.3-4.5.6zm-293.3 1.7c-2.9.8-5.5 1.6-5.9 2-1.9 1.9 14-.6 16.2-2.5 1.3-1.3-4-1-10.3.5zm431.6 0c-3.1.7-7.5 2.5-9.7 4-3.4 2.4-5.6 3-13.1 3.7-5 .5-10.8 1.4-13 2-3 .9-6 .9-12.9 0-9.2-1.3-15.1-.8-15.1 1.1 0 .8 7.4.9 24.3.6 25.9-.6 27.1-.8 34.7-6.4 3.2-2.3 4.1-2.5 9.6-1.9 4.3.4 6.4.3 6.9-.5 1.8-2.9-4-4.2-11.7-2.6zm-257.8.3c-4.4.8-4.7 2.3-.4 2.3 4.7 0 7.5-1.4 4.9-2.4-.9-.3-1.7-.5-1.8-.5-.1.1-1.3.4-2.7.6z"/><use xlink:href="#D" x="172" y="53"/><path d="M359 667.6l-9.9 1.5c-8.5 1.3-16.3 3.7-12.1 3.8 2.8.1 31.2-4.8 31.9-5.5.5-.5-6.1-.3-9.9.2zm311.3.9c-3.9.7-9.3 2-12 2.9-5.8 1.9-14 3.2-29.3 4.7-7.1.7-14.1 2-18.5 3.6-9 3.2-24.6 8.4-35.8 11.8-8.6 2.7-13.3 5.4-6.7 4 2.9-.6 3.1-.5 2.5 1.4s-.3 2.1 4.2 2.1c2.6-.1 6.2-.7 7.8-1.5 3-1.3 3-1.3-2.5-1.5l-5.5-.1 5-2.1 22.5-8.5c15.6-5.7 18.7-6.5 28.5-7.4 19.8-1.7 25.8-2.7 37.4-6.3 15.5-4.8 16.1-5.6 2.4-3.1zm68.7 1.2c-9.4.5-21.3 2.4-25 4-1.9.8-8 1.9-13.4 2.4-11.4 1.1-25.4 3.9-37.3 7.5-9.4 2.8-11.3 4.9-2.5 2.9 3.1-.8 11.4-2.8 18.4-4.4 13.3-3.2 19.6-3.8 22.9-2.1 1.5.8 3.4.4 8.7-1.9 8.4-3.6 14-4.7 31.7-6.1 17-1.4 22.8-2.9 10.5-2.7-4.7 0-11 .2-14 .4zm-310.1 1.4c-1 .6-.7.9 1.4.9 2.9 0 3.5-.5 1.4-1.3-.8-.3-2-.1-2.8.4zm424 1.9c-2.7 1.6-13.3 2.8-17.6 2.1-5.7-1.1-13.9.2-27.4 4.3-13.7 4.2-17.8 5.7-16.3 6.2.6.3 8-1.3 16.5-3.5 20.3-5.1 21.3-5.3 23.5-3.6 3.5 2.6 12.2 1.6 31.8-3.6 2.9-.8 3.6-1.3 2.5-2-1.8-1.1-10.9-1.1-13 .1zm-362.6 1.7c1.5.2 3.7.2 5 0 1.2-.2 0-.4-2.8-.4-2.7 0-3.8.2-2.2.4zM470 677c-2.5 1.5-.7 1.7 4 .4l4.5-1.2-3.5-.1c-1.9 0-4.2.3-5 .9zm400.8 3.2c.9.9 1.5.9 2.4 0s.7-1.2-1.2-1.2-2.1.3-1.2 1.2zm-13.3 2.4l-4 1.4 4.4-.4c2.4-.3 4.8-.9 5.4-1.5 1.5-1.5-.7-1.3-5.8.5zM411 687c-1.1.7-.5 1 2.3 1 2.3 0 3.6-.4 3.2-1-.8-1.3-3.5-1.3-5.5 0zm203.1 3.1c-10 1.9-17.7 5.6-15.8 7.5.3.3 5.4-1 11.4-3 9.3-3.1 12.1-3.6 20.3-3.6 6.5 0 9-.3 8-1-1.8-1.2-17.8-1.1-23.9.1zm-199.9 2.4l-7.4 4.6c-1.6 1.2-5.1 3-7.6 4.1l-4.7 1.9 3.9-.5c2.1-.3 5.5-1.4 7.5-2.4l8.5-4.6c3.2-1.7 6.5-2.6 9.5-2.6 5.1-.1 4.1-1.3-1.9-2.4-2.7-.4-4.5 0-7.8 1.9zm63.1 2.2c-2.4.2-4.3.8-4.3 1.3 0 1.1 14.8.1 17-1.1 1.5-.9-4.3-.9-12.7-.2zm135.7 1.2c-1.3.9-1.2 1.1.1 1.6 2.5.9 14.9.1 15.2-1 .3-1.3-13.3-1.8-15.3-.6zm-152.5 1.6c-9.5 2.1-17.5 4.6-17.5 5.5 0 .4 2.8.2 6.3-.6 8.2-1.9 19.7-5.3 19.7-5.9 0-.7-1.7-.5-8.5 1zm22.5 2.7c-6.5 1.8-6 3.1 1 2.4 5.9-.6 6.3-.5 4.6.9-1.1.8-2.3 1.5-2.8 1.5-.4 0-.8.4-.8 1s2.9 1 6.8 1c5.7-.1 6.4-.3 5-1.4-1.5-1.1-1.6-1.5-.3-3.3.8-1.1 1.1-2.3.8-2.7-.9-.9-10.3-.6-14.3.6z"/><use xlink:href="#B" x="-649" y="383"/><path d="M361 704.7c-3.2.6-5.1 2.3-2.4 2.2 1 0 4.2-.7 6.9-1.4 4.6-1.2 4.7-1.3 1.5-1.2-1.9 0-4.6.2-6 .4zm-100 3.8c-1 1.2-.9 1.6.4 2.1 2.2.8 4.6-.2 4.6-2.1s-3.4-2-5 0zm-55.2 15.1c-2.7.8-4.8 1.9-4.8 2.4 0 1 7.4-1 10.6-2.8 2.7-1.6 0-1.4-5.8.4zm-43.8.8c-1.4.8-4.5 1.7-7 2.1s-9.4 2.3-15.5 4.2c-6 1.9-12.9 3.7-15.2 4-5.3.7-5.6 2.3-.5 2.3 4.1 0 19.4-3.6 22.7-5.3 1.1-.5 3.5-1 5.5-.9 3.7.1 13-4.3 13.8-6.6.5-1.5-.6-1.5-3.8.2zm23 .4c0 1.5 2.4 3.2 4.4 3.2 1.8 0 1.9-.1.1-2-1.8-2-4.5-2.7-4.5-1.2zm-82.5 14.3c-4.4 1.1-10.8 2.1-14.2 2.3-3.4.1-6.5.5-6.8.8-1.2 1.2 3.8 2 8.3 1.3 6.3-.9 21.3-4.5 23.2-5.6 2.6-1.4-1.7-.9-10.5 1.2z"/><defs ><path id="B" d="M1029.8 319.7a16.95 16.95 0 0 0 4.5 0c1.2-.2.2-.4-2.3-.4s-3.5.2-2.2.4z"/><path id="C" d="M914.3 398.7c.9.2 2.3.2 3 0 .6-.3-.1-.5-1.8-.5-1.6 0-2.2.2-1.2.5z"/><path id="D" d="M684.3 609.7c.9.2 2.5.2 3.5 0 .9-.3.1-.5-1.8-.5s-2.7.2-1.7.5z"/></defs></svg>