<svg xmlns="http://www.w3.org/2000/svg" width="1706.667" height="1125.333" viewBox="0 0 1280 844" preserveAspectRatio="xMidYMid meet" xmlns:v="https://vecta.io/nano"><path d="M915.8 1.6c-2.8 1.4-5.8 6-5.8 8.7 0 1.9 3.3 4.7 5.6 4.7 4.3 0 9.5 2.2 10.6 4.4l1 2.3 4.7-2.5c2.5-1.4 4.9-3.1 5.3-3.6 1.2-1.7.9-9.4-.3-10.1-2.1-1.4-6 .7-8.5 4.5-4.7 7-8.7 4.2-7.7-5.3.6-5.2-.2-5.7-4.9-3.1zM878 3.7c-.8.3-4.1 2.1-7.3 4.1-6.5 3.8-6.5 4.7.5 7.6 3.5 1.5 3.7 1.5 5.2-.9.9-1.4 2.9-3.1 4.5-3.9 3.6-1.9 4.5-4.1 2.5-6.1-1.6-1.6-2.8-1.7-5.4-.8zm12.8 8.4c-3.2 1.6-6.5 4-7.4 5.4-1.5 2.3-1.4 2.7.7 7.1 2.6 5.1 5.2 7.4 8.6 7.4 2.6 0 2.7-.3 1.1-2.9-1.5-2.4.8-5.5 8-10.7l5.4-3.9-3.1-.8c-1.7-.4-3.7-1.6-4.4-2.7-1.5-2.6-2.1-2.5-8.9 1.1zm54.3-1.7c-.9 1-.8 1.6.4 2.6.8.7 1.5 2.5 1.5 4.1 0 5.2 5.2 7.2 9.8 3.6 1.8-1.4 1.5-2.5-1.5-7.3C953 9.7 952 9 949.4 9c-1.7 0-3.7.6-4.3 1.4zm-99.7 6.5c-10.5 3.8-13.5 7.8-9.6 13 1.1 1.6 2.7 4.5 3.6 6.5.8 2 2.2 3.6 3.1 3.6s6.2-4.7 11.9-10.3l10.3-10.4-3.2-2.1c-3.9-2.7-9.2-2.8-16.1-.3zm63.3 5.1c-4.4 3.5-7 8.6-6.3 12.4 1 5.3 2.3 5.9 12.5 5.1l9.1-.8v-5.2c0-4.9-.3-5.5-4.5-9.4-5-4.6-7.1-5-10.8-2.1zm27 2.1c-2.7 1.6-5 6.8-4.2 9.7 2 8.1 7.9 10.5 13.5 5.4 4-3.5 5.4-10.6 2.2-11.6-1-.4-2.7-1.5-3.7-2.6-2-2.2-5-2.5-7.8-.9zm-70.2 3.3c-4.2 1.8-13.5 12-13.5 14.7 0 3.1 8.1 10.9 11.3 10.9 2.2 0 2.8-.6 3.6-3.8.7-2.5 3.2-5.8 7.6-10.2 3.6-3.5 6.5-7 6.5-7.8 0-1.5-7.5-5.2-10.5-5.1-1.1 0-3.3.6-5 1.3zm-54.1 7c-3.3 2.4-7.2 5.7-8.7 7.4l-2.9 3 2.7 4.7c1.5 2.5 3.8 5.3 5.1 6.2 4.7 3.1 6.7 2.1 16.1-7.7 4.8-5.1 9.1-9.8 9.5-10.5.5-.9-.8-2.3-3.9-4.4-6.7-4.5-10.6-4.2-17.9 1.3zm76.6 4.3c-3.8 1.4-10.9 7.6-12.5 10.8-2.1 4.6-1.3 8.5 2.6 12.3 3.4 3.3 7.8 4.4 14.7 3.5l4.7-.5-.3-4.4c-.3-3 .3-5.7 1.7-8.7 2.8-5.9 2.6-8.1-1-11.1-2.9-2.5-6.5-3.1-9.9-1.9zm-110.5 4.2c-1.6.4-4 1.3-5.3 2-2.9 1.6-8.2 8.8-8.2 11.3 0 2.8 11.6 22.9 15 26 5.6 5.2 8.4 3.3 11.5-7.7 1.4-4.9 2.7-6.9 7-11l5.3-5-2.1-3c-7.3-10.5-14.8-14.6-23.2-12.6zm149.5 1c0 .5-2.4 1.1-5.4 1.3-3.8.3-6.8 1.4-10.3 3.6-8.1 5.2-9.5 11.2-4 16.7 2.4 2.4 4.6 3.5 7.9 4 9.9 1.5 16.3-1.7 17.4-8.6 1.7-11.3 1.7-11.4-1.1-14.7-2.6-3.1-4.5-4.1-4.5-2.3zm19 2.4c-3.7 1.9-6.6 6.8-7.9 13.9-.7 3.5-1.5 7.1-1.8 8.1-.6 2.2 4.2 4.4 10.7 4.9 4 .3 4.6 0 5.7-2.4 1.6-3.2 3.3-10.6 4-17 .4-3.8.1-5-1.6-6.7-2.4-2.4-5.5-2.7-9.1-.8zm-110.5 2.1c-6.9 3.2-11.5 7.2-11.5 10.2 0 1.7 2 4.5 5.9 8.5 8.1 8.3 9.8 8 14.3-2.6.9-2.1 2.9-3.8 6.5-5.5l5.2-2.6-4.8-5.2c-5.5-6-7.7-6.4-15.6-2.8zM855.8 62c-4 2.2-7.8 6.4-7.8 8.9 0 3.7 7.3 13.1 12.2 15.7 3.4 1.8 5.4 1 6.6-2.5.6-1.6 2.2-3.3 4.1-4 3.7-1.6 8.5-9.3 6.6-10.7-.7-.5-3.6-2.8-6.5-5.2-5.9-4.8-9.3-5.3-15.2-2.2zM736 63.2c-2.5 1.3-5.5 3.8-6.7 5.7-4.4 6.5-2.9 11.4 9.2 30.1 9 13.9 11.8 14.4 17.4 2.8 1.9-3.8 4.3-6.5 8.4-9.7 8.2-6.1 8.6-7.5 4.8-14.7-1.7-3.3-3.1-6.4-3.1-7 0-1.7-5.2-6.2-9.2-7.8-5.6-2.4-15.4-2.1-20.8.6zm-566.3 2.3c-13.3 1.6-19.7 3.1-26.4 6.1-7.9 3.4-13.7 7.8-17.8 13.4-7 9.5-9.4 20.2-11.4 50.6-.6 7.7-1.4 15.2-2 16.7-1.5 3.8-12.7 20.5-16.4 24.5-1.7 1.8-8.1 6.6-14.2 10.6-13.2 8.8-26 21.6-30.3 30.3-6.5 13-10.5 28.4-12.1 47.8-1.1 13-1.3 13.9-6.5 38.5-1.9 9.1-3.7 19.9-4.1 24l-.6 7.5 8.5-8.7c10.6-10.9 13.3-14.9 18.8-27.4 8.6-19.3 20-34.9 28.8-39.4 2.1-1.1 7.7-2.4 12.6-3 6.8-.9 10-1.8 13.4-3.9 2.5-1.6 6.3-3.4 8.5-4.1 2.6-.8 6-3.3 10-7.4 10.6-10.8 31.3-29 38.7-33.8 12.7-8.4 27.6-13.5 45.8-15.7 5.2-.7 11.1-2 13-2.9 4.1-2 7.6-7.1 11.3-16.2 1.4-3.6 4.2-10.1 6.1-14.5 6.3-14.4 6.5-24.7 1-49.5-3-13.3-7.2-24.1-11.7-30.1-3.3-4.3-3.6-4.9-5.4-8.4-.5-1.1-2.7-2.9-4.9-4-3.4-1.8-6.1-2-22.9-2.2-11.2-.1-23.5.4-29.8 1.2zm635.8 1.9c-8.3 2.9-11.5 6-11.5 11.5 0 2.9.7 4.4 3 6.5 1.7 1.5 3.3 4 3.7 5.7.7 3.6 4.3 6.6 8.8 7.5 4.6.8 7.1-.8 8-5.3.9-5.4 2.9-7.9 8.5-11.4l4.9-3-3.7-5c-3.4-4.6-9.9-8.9-13.3-8.9-.8 0-4.5 1.1-8.4 2.4zm83 5.4c-3.7 2.3-13.1 12.4-13.7 14.9-1.2 4.5 3.7 9.5 14.9 14.9 4.3 2.1 6.3 2.6 10.4 2.2 8.8-.9 12.8-7.3 12.9-20.6l.1-4.7 1.9 2.4c2.6 3 2.6 9.5.1 15.3-2.2 5.2-1.4 7.7 3.5 10.9 7.6 5 12.7.3 17.2-15.7 1.7-6 1.8-7.4.6-8.5-.7-.8-2.2-2.4-3.3-3.6-3-3.3-9.5-4.8-12.3-2.8-3.1 2.1-5.2 1.9-9.7-.9-2.4-1.5-4.7-2.3-6-1.9-1.2.3-4.3-.4-7-1.6-6-2.5-5.9-2.5-9.6-.3zm-644.9 5.3c.5.8 3.1 4.8 5.8 8.9 8.4 12.8 10.2 17.8 14.2 39 3.6 18.6 3.7 20.5 3.7 40-.1 29.1-3.6 53-11.4 77.1-3.4 10.5-18.8 43.1-24 50.5-1.8 2.6-5.6 10.4-8.5 17.3-18.4 44.4-18.8 45.6-27.3 72.6-9.6 30.6-11.2 39.8-13.6 75.5l-3.5 44c-2 21.2-2.6 31.8-6 95-2.3 42.5-6.3 93.4-8.6 109-3.1 21.6-8.6 40.5-15.9 55.2-2.5 4.9-4.5 9.1-4.5 9.3 0 .3 4.9.5 10.9.5 7.5 0 11.2-.4 11.9-1.2.8-1.2 6.3-19.2 15.1-49.8l8-30c2.8-10.7 6.9-25.1 9.1-32s6.5-22.4 9.4-34.5c5.4-21.8 12.2-47.9 23.6-89.5l13-49c13.3-51 18.1-62.7 40.6-99.1 6.3-10.2 20.6-25.9 25.4-27.9 9.1-3.8 7.7 4.7-3.1 18-12 14.8-29 43.1-32 53.5l-5.4 17.5c-1.9 5.8-4.1 15.9-5 22.5s-2 13.5-2.5 15.3c-.8 3-.7 3.3.8 2.7a46.39 46.39 0 0 1 4.5-1.2c3.2-.7 5.2-3.3 6.2-8.3 1.1-5.2 8.1-18.3 12.7-23.5 4.7-5.4 6.9-6.7 12.3-7.4 3.8-.6 4-.8 4.6-5.1 1-6.3 2-8.6 7.2-15.6 3.5-4.8 5.8-6.7 11.3-9.5 3.7-1.9 7.6-4.6 8.6-6 1.1-1.4 2.4-5.7 3-9.5 2.6-16.8 4.1-18.9 16.9-22.7 4.6-1.5 9.4-3.3 10.6-4.2 1.2-.8 3.1-4.3 4.3-7.9 2.8-8.5 6.1-13.4 16.2-24.2 4.6-4.9 10.4-11.9 12.8-15.5 6-8.7 12.3-15.4 19.3-20.1 5-3.4 6.3-5 8.8-10.4 2.1-4.7 4.9-8.5 10.6-14.3 9.3-9.2 11.2-10.5 18.1-12.1 5.7-1.3 6.3-2 8.1-9.5 1.9-7.7 7-16.4 11.5-19.7 2.2-1.6 6.4-3.5 9.3-4.4 3.3-1 5.8-2.4 6.5-3.7.8-1.4 1.3-6.4 1.3-13.7 0-11.2-.1-11.9-5.4-27.5-6.6-19.7-17-46.4-22.3-56.8-4.7-9.4-10.3-15.8-16.3-18.6-5.9-2.8-17.5-2.8-26.5-.2-5.9 1.7-42.1 14.9-42.8 15.6-.2.1 1.8 3.2 4.3 6.8 13 18.6 14.6 30.7 8.5 61.8-4.5 22.5-13 76.1-13 81.6 0 3.2-.4 7.5-.9 9.6-.9 3.7-3.9 9.2-4.6 8.5s8.4-66.4 11.4-81.8c6.5-34 6.3-42.3-1.2-57.3-3.2-6.4-6-10.1-13.6-17.7-5.3-5.3-12.4-11.3-15.7-13.3-6-3.6-18.7-7.7-19.9-6.5-.4.3.3 5.5 1.4 11.5 3 15.6 5 29.4 5.7 40.3l.7 9.5-2.2-1.9c-3.4-3-7.6-12.8-12-27.9l-7.7-25.5-3.6-11.7-22.1-12c-28-15.2-37-20.6-43.1-25.7-2.7-2.3-4.5-3.5-4-2.7zm698.2 3c-2.3 1.3-2.3 3.6.3 9.4l2.1 4.7 2.4-2.3c2.9-2.7 3-5.4.4-9.7-2.1-3.5-2.6-3.7-5.2-2.1zm-107.3 2.3c-4.8 2.1-9.3 6.4-10.5 10.1-.9 2.9-.8 4.1.8 7.8 2.8 6.3 12.9 13.4 17.7 12.5 1.7-.4 2.4.2 3.3 2.5l1.1 2.9-7.3 3.3c-11.8 5.4-14 9.5-9.4 17.7 2.1 3.6 13.8 13.1 20.5 16.7 4.2 2.2 8.9 1.4 11.8-2 3.7-4.5 6.5-10.3 6.5-13.7 0-3-.6-3.6-12.5-13.6-2.6-2.2-5.6-5.8-6.6-8-2.9-6.4-2.4-10.5 2.1-19.1l4.1-7.6-3.7-4.5c-2.1-2.5-4.5-4.9-5.5-5.5-2.5-1.3-8.9-1.1-12.4.5zm-128.6 3.9c-8.7 2.5-18.9 10.6-18.9 15.1 0 .8 1.6 2.7 3.6 4.3 2 1.5 6.3 6.6 9.5 11.4 5.7 8.6 9.2 12 13.7 13.3 1.8.6 2.2.4 2.2-1.4 0-5.4 5.4-11.2 12.2-13 2.1-.6 5.3-2.3 7-3.9l3.1-2.7-4.2-8.5c-2.3-4.7-5.7-10-7.5-11.8-3-2.9-4.2-3.4-9.8-3.7-3.4-.2-8.4.2-10.9.9zm66.5 6.8c-3.8 2.6-8.7 6.3-10.7 8.1l-3.8 3.3 3.1 6.5c4.2 8.7 10.5 17 13 17 1.1 0 4-.5 6.5-1.2 3.4-.9 5-.9 6.3-.1 1.6 1 1.8.7 1.4-1.8-.9-5.8.7-9.7 6.4-15.8l5.5-6-1.6-3c-3.9-7.7-10.4-12.3-17-12-1.1 0-5.2 2.3-9.1 5zm90.5 6.4c-9.3 6.8-9.9 10.1-3.4 19.7 7.3 10.9 14.1 14.2 21.4 10.6 4.4-2.2 10.7-10.5 11.7-15.4.6-2.9.1-3.6-6.7-9.4-11.6-10-15.7-11-23-5.5zm74.7 6.6c-1.4 1.1-3.4 3.5-4.2 5.2-2.4 4.5-6.4 16.7-5.6 16.7.4 0 3.4-2.2 6.7-4.9 6.3-5.2 7.2-7 7.4-14.9.1-4.8-.5-5.1-4.3-2.1zm-271.6.8c-4.9 1.6-8.7 4-11.9 7.6-5.7 6.5-3.5 15.7 6.7 28.4 6.4 7.9 10.6 11.1 14.8 11.1 3.3 0 5.2-1.8 13.1-11.8 1-1.2 4-3 6.7-4 5.6-2 7.2-3.8 6.3-7.3-1-3.8-14.8-20-18.9-22.1-4.1-2.2-13-3.2-16.8-1.9zm138.5 1c-4.5 2.7-8.5 7.9-8.5 11 0 7.4 11.6 18.1 19.6 18.1 5 0 5.8-1 6.7-8 .4-3.6 1.3-5.2 4.6-8.1l4.1-3.7-4.4-4c-2.4-2.2-5.8-4.7-7.4-5.6-4.2-2.1-11-2-14.7.3zm98.7 5.1c-4.4 3.2-10.2 12.1-10.2 15.7 0 5.5 4.4 8.6 12.5 8.6s12.2-2.3 15-8.5c1.3-2.9 2.6-6.9 2.7-8.8.3-3.4.1-3.6-6.2-6.7-3.6-1.8-7.2-3.2-8.1-3.2-.9-.1-3.5 1.2-5.7 2.9zm-165.1 4.2c-7.1 3.7-14.1 10.6-14.1 14.1 0 2.8 8 13.4 11.9 15.8 1.6.9 3.8 3.3 5 5.3 4.5 7.2 9.1 6.8 9.1-.8 0-3.8.6-4.7 8.1-12.2l8.2-8.2-4.2-6.4c-7.6-11.4-13.2-13.2-24-7.6zm-416.1 8c0 1.4 2.3 5.8 3.2 5.8.4 0 .8-.3.8-.8-.1-.9-3.9-5.9-4-5zm312.6 6.9c-9.5 1.5-18.6 9.5-18.6 16.4 0 3.7 2.4 7.1 10.5 15.1 3.3 3.2 7 7.2 8.1 8.9l2.1 3 6.2-1.3c5.5-1.2 6.6-1.1 8.7.3 2.3 1.5 2.4 1.5 2.4-1.2.1-4.3 3.4-10.8 7.3-13.8l3.5-2.8-5-7.6c-9.8-15.1-15.2-18.7-25.2-17zm244.4 5.1c-5.2 2.6-7.3 6.2-7.4 12.6-.1 3.7.4 4.8 3 7.2 3.9 3.4 13.2 7 18.1 7 3.1 0 4.4-.8 8.4-4.9 5.6-5.8 7.2-11 4.5-14-1-1.1-4.4-2.9-7.8-4.2-3.3-1.2-6.5-3-7.1-4.1-1.6-2.5-6.3-2.3-11.7.4zm-108.7 1.3c-5.4 2.7-15.3 12.3-15.3 14.9 0 .8.4 1.8 1 2.1.5.3.7 2.5.3 5l-.6 4.5 6.4 3c7.5 3.5 10.8 3.7 20 1 6.2-1.9 7.1-2.5 9.4-6.4 1.4-2.3 2.5-5.3 2.5-6.6 0-1.5 1.7-3.8 4.6-6.5l4.5-4.2-3.3-2.5c-9.9-7.5-20-9-29.5-4.3zm-66.3 2.9c-9.4 7.4-13.3 12.1-12.7 14.9.9 3.4 11.8 14.9 18.3 19.2 3 2 5.6 3.5 5.8 3.3.1-.1 1.5-2.9 3-6.1 1.5-3.1 4.5-7.9 6.7-10.7 2.1-2.7 3.9-5.5 3.9-6.1 0-2.9-6.4-14.1-9.4-16.4-5-3.8-9-3.4-15.6 1.9zm212.7 1c-1.9 2-5.7 11.4-5.7 14 0 1.2 5.5-.7 7.8-2.7 1.2-1.1 2.7-3.9 3.3-6.1.5-2.3 1.2-4.9 1.5-5.9.8-2.7-4.2-2.2-6.9.7zm-102.3 3.5c-9.1 4.1-16 13.3-13.5 17.9 1.6 3 18.6 19.9 22.2 22.1 9.8 6 19.7-2.3 21.4-17.9l.6-5.5-6-6.7c-6.1-6.6-14.3-11.8-18.5-11.8-1.2 0-4 .9-6.2 1.9zM598 158.5c-5.6 1.8-11.8 6.8-13.6 11.1-4.8 11.4 4.9 35.7 15.4 38.9 3.5 1 12-1.4 13.3-3.7.6-1.1 1.7-4.2 2.6-7.1 2-6.8 3.9-9.5 8.2-11.5 4.7-2.2 5.5-7 1.9-11.1-1.3-1.4-4.3-5.2-6.7-8.4-2.9-3.9-5.7-6.5-8.5-7.8-4.8-2.2-6.6-2.2-12.6-.4zm70.9 3.7c-7.6 3.9-9.3 6.7-9.4 15.3 0 5.2.5 6.9 3.5 11.8 5.9 9.8 6.9 10.6 13.6 11.9 3.3.6 7.3.8 8.7.4 2.8-.7 8.5-7.6 13.2-16.1l2.8-5-4.7-6.7c-4.9-7.1-8.9-10.8-11.3-10.8-.8 0-2.6-.9-4-2-3.5-2.7-4.9-2.5-12.4 1.2zm189.6-.1c-3.1 2.4-4.2 3.9-4.7 7.1-.4 2.2-1.5 4.9-2.4 5.9-2 2.2-1.6 3.3 4.2 11.5 4.8 6.7 8.5 9.4 12.9 9.4 8.9 0 17.2-9.8 15.8-18.6-1-6.8-1.4-7.5-5.1-9.2-2-.9-5.7-3.4-8.1-5.4-5.2-4.5-7.3-4.6-12.6-.7zm50.2-.4c-.4.3-.7 1.1-.7 1.7s.5.5 1.2-.2c.6-.6.9-1.4.7-1.7-.3-.3-.9-.2-1.2.2zm-177.9 5.5c-3.9 2.3-6.8 7-6.8 11 .1 3.9 3.5 10.1 7.8 14 6.1 5.5 6.3 5.5 26.1 3.2l5.3-.7-.5-3.9c-1.1-8.2-8.8-18.9-16.6-23.1-5.9-3.2-10.3-3.4-15.3-.5zm166 3.7c-2.4 1.9-4.6 6.9-6.2 14.3-.8 3.3-.6 3.4 4.4.8 4.7-2.4 10.2-7.1 13.1-11.1l2-2.9-2.8-1.1c-5.6-2.1-7.8-2.1-10.5 0zm-111.3 5.2c-2.2 1.2-6.7 4-10 6.3-5.3 3.6-6 4.6-6.3 7.8-.4 5.1 2.4 10.1 10.9 19.2 8.6 9.2 14.2 12.8 20.3 12.8 9.5.2 15.1-6.7 16.2-20.2l.6-7.5-5.9-7c-10.5-12.5-17.9-15.7-25.8-11.4zm-223 8.3c-4.8 2.1-9.4 6.5-12.5 12-3.4 5.8-3.8 11.1-1.3 15.9 2.5 5 12.6 17.8 17.2 22 7.4 6.7 13 4.3 11.6-4.9-.5-3.5-.3-4.4.9-4.4.8 0 1.7-1.3 2.1-3.1.5-2.1 2.2-4.1 5.6-6.6 2.7-1.9 4.9-4 4.9-4.6 0-1.8-7-14-10.6-18.4-6.3-7.8-12.3-10.4-17.9-7.9zm75 .5c-1.7 1-3.8 3-4.8 4.4-3.8 5.8-10.7 20-10.7 22 0 1.3 2.1 4.2 5.3 7.2 2.8 2.8 6.8 7 8.8 9.3 3.2 3.8 4 4.2 8 4.2 2.4 0 6-.3 8-.6l3.5-.6v-6.3c-.1-5.5.5-7.3 4.5-15.5l4.7-9.3-4.7-5.1c-6.4-7-8.1-8.5-11.8-10.2-4.3-1.9-7.2-1.8-10.8.5zm205.7 4.1c-3.6 4.8-9.6 7.3-15.8 6.6l-5.1-.6-.7 5.3c-1.8 15.2-1.8 17.1.3 20.4 2.4 3.9 9.8 8.3 15 9 5.4.7 11.3-2.2 19-9.3l6.3-5.8-.5-4.7c-.9-7.1-4-12.4-9.1-15.4-2.8-1.6-4.8-3.7-5.5-5.5-.5-1.7-1.2-3-1.4-3s-1.3 1.3-2.5 3zm-142.3.5c-6.3 3.4-6.2 12.5.2 22.3 4.6 7.1 10.1 11.4 16.6 13.3 4.3 1.2 4.9 1.1 9.1-1.2 2.8-1.5 5.9-4.3 8-7.4l3.4-5-2.3-.5c-2.3-.6-3.5-2.2-6.4-9-.8-1.9-3-5.5-4.8-8-2.7-3.5-4.2-4.6-7.3-5.2-6.4-1.1-13.7-.8-16.5.7zm177.6 10.6c-4.2 1.1-8.9 6-10.3 10.6-.6 2.1-2 5.5-3.1 7.5l-1.9 3.8h4.2c4.8-.1 11-2.1 13.6-4.5 2.8-2.5 6.5-14.2 5.1-15.9-1.6-1.9-4.1-2.4-7.6-1.5zm-125 3.8c-4.5 2.1-7.9 5.4-9.3 9.1-1.9 4.9 3.6 14.9 10.3 18.9 1.8 1 5.2 4.7 7.5 8.1 5.3 7.8 11.1 10.9 17 9.1 5-1.5 8.7-4.5 11-9.2 3.7-7.1 2.2-14.2-4-18.7-1.7-1.3-3.6-3.4-4.2-4.8-.6-1.3-3.8-4.2-7.2-6.3-3.4-2.2-6.9-4.9-7.8-6.1-2.3-2.6-7.8-2.6-13.3-.1zm-85.2 5.2c-8.1 2.4-8.1 9.8.1 23.7 3 5 6.5 11.2 7.7 13.8 3.1 6 6.2 7.4 17.3 7.4 10.1 0 11-.8 12.1-10.3.4-3.1 1.6-6.8 2.6-8l1.8-2.4-9.9-10c-5.7-5.8-11.8-11-14.3-12.2-5.3-2.5-12.9-3.4-17.4-2zm-72.4 7.7c-6 3.1-11.9 10-11.9 13.8 0 1.7 3 5.6 10 13 5.5 5.9 10 11 10 11.5 0 2.7 14.9 6.1 18 4 1.2-.8 1.2-1.2-.3-2.9-1.7-1.8-1.6-2.2 2.4-9.3 2.3-4.1 4.8-8.1 5.6-9.1 1.3-1.4 1.2-2.1-.8-6-3.5-7-8.5-12.4-14.1-15.2-6.9-3.4-12.1-3.4-18.9.2zm-69.8.4c-4.6 1.3-10.8 5.7-15.4 10.7-5.9 6.5-5 11.5 3.6 21.4 2.9 3.3 7 8.7 9.2 12.1 4.5 6.7 3.9 6.6 15.3 4.5 5.2-.9 8-1 10-.3l2.7 1v-5.5c0-5.6 1.7-10.2 6.6-18.2l2.3-3.5-6.7-8.1c-11.4-13.8-17.7-17-27.6-14.1zm527.9 5.5c-1.4.3-17.1 4.1-35 8.5-27.8 6.8-36.5 9.4-60.5 18.3-28 10.2-40.8 14.6-79.6 26.9-15.9 5.1-21.6 7.4-25.1 10.1-3.3 2.4-8.1 8.6-16.1 20.7-6.7 10-15.9 22.2-21.8 28.8-5.6 6.3-14.7 17.1-20.2 24-18.5 23.3-24.4 30.5-33.9 41-5.1 5.8-13.2 15.2-17.8 21l-14.8 17.5c-3.6 3.8-9.9 11.5-14.2 17-9.3 11.9-11.5 14-19.8 19-5.5 3.2-10.2 8.2-10.2 10.7 0 .8 21.7-6.6 58-19.7 23.4-8.4 25.4-9.3 31.3-13.6 2.1-1.5 6.5-3.8 9.6-4.9 8.5-3.2 20.5-10 31.8-18.2 5.6-4 14.8-10.1 20.5-13.6s17.3-11.5 25.8-17.9c33-24.6 48.5-33.4 83-47.3 11.9-4.7 21.7-9.5 30.5-14.9 16.4-9.9 54.6-29 66-33.1 26.3-9.2 53.6-13 94.5-13 16.3 0 22.1.4 35.5 2.7 8.8 1.4 19.6 2.7 24 2.9 5.9.1 9.8.9 14.5 2.8l6.6 2.6c.1 0-.4-2.1-1.2-4.8-2.2-7.1-3.2-11.9-4.3-20.8-.5-4.4-2-10.6-3.1-13.8-3-7.9-11.3-16.6-19.8-20.8l-6.7-3.3h-18c-19.9.1-22.6.6-35.7 6.9-9.2 4.5-13.9 5.1-30.2 3.7-20.3-1.7-32.9.3-64.6 10.4-9.6 3-23 6.9-29.7 8.5-6.7 1.7-16.4 4.8-21.5 6.9s-13.1 5.1-17.6 6.6c-7.5 2.4-11.2 4.5-24.5 13.8-2.1 1.4-6.4 3.6-9.5 4.7-3.1 1.2-6.6 2.9-7.6 3.8-1.8 1.6-1.9 1.6-1.3-.1.4-1 .7-2 .7-2.3 0-.2 2.7-1.7 6-3.4 3.4-1.7 10.9-6.3 16.8-10.3 8.7-5.9 14.4-8.8 30.2-15.1 10.7-4.3 22.9-9.5 27-11.6 12.8-6.4 43.2-14.4 61-16.1 5.8-.5 14.3-1.6 19-2.4s10.9-1.5 13.8-1.5c2.8 0 5.2-.2 5.2-.5 0-1.7-7.7-7.1-15.5-11-11.1-5.5-21.8-7.5-31.5-5.8zm-240 2.2c0 1-.7 2.2-1.6 2.5-2.5 1-9.8.7-13.3-.5-1.8-.6-3.5-.8-3.9-.5-.3.4.2 3.6 1.1 7.2 1.7 6 1.7 6.8.2 9-2 3.2-1.2 4.7 6.7 11.8 9.8 8.9 13.1 8.8 22.6-.9 5.8-5.9 6.2-6.7 6.2-10.9 0-5.4-2.7-8.9-11.9-15.4-5.2-3.6-6.1-4-6.1-2.3zm-87.5 5.5c-5.5 1.7-8 3.2-12.5 7.2-4.5 4.1-5.9 8.4-3.7 11.8 1 1.5 1.2 2.7.6 3.3s1.3 2.7 5.3 5.9c9.6 7.5 13.9 11.5 16.4 15.6 1.5 2.4 3.4 4 5.2 4.3 1.5.3 4.3 1.1 6.4 1.7 5.1 1.5 7.8.5 13.8-4.9 5.3-4.7 8.9-10.8 9-15 0-1.2.5-2.5 1.1-2.9 1.7-1 .3 8.5-2.3 15.4-1.5 4-1.8 5.7-.9 6 .6.2 1.8 1.6 2.6 3.2.9 1.7 4.5 4.6 9.3 7.4 8.5 5 13 5.8 18.1 3.2 5.9-3.1 14.1-14.6 14.1-19.9 0-1.3-1.9-4.6-4.4-7.5s-5.4-6.6-6.6-8.2c-2.5-3.5-7.2-6.2-9.3-5.4-.8.3-2.4 1.8-3.6 3.4-1.8 2.6-2.8 3-6.7 3-7.8 0-14.3-4.4-22-14.6-9.7-13.1-18-16.7-29.9-13zm124.6 1.4c-7.7 3.8-12.1 8.2-12.1 12 0 1.6-.9 4.9-2 7.3-2.5 5.5-2.5 6.5-.1 7.2 2.1.5 21.7-5.5 23.5-7.3.6-.6 1.6-3.6 2.2-6.8 1.1-4.9 1-6.2-.4-9.1-2.9-5.9-4.9-6.5-11.1-3.3z"/><path d="M639 240.1c-12.8 7-15.7 13.7-9.3 21.3 5 6 20.2 19.4 24.3 21.4 5 2.4 8.5 1.8 14.2-2.9 2.1-1.6 4.6-2.9 5.6-2.7 1.2.2 2.1-1 3.4-4.7 2.3-6.8 2.2-8.8-.8-15.6-2-4.3-3.2-5.9-4.7-5.9-1.1 0-4.4-2.6-7.7-6-3.1-3.2-6.9-6.4-8.4-7-5-1.9-10.8-1.2-16.6 2.1zm-66.2 1.9c-10.2 1.9-17 12.9-13.8 22.5.7 2 3.3 6.2 5.9 9.3 6.6 8 7.4 9.5 5.9 12.6-.6 1.5-.9 2.8-.7 3.1.3.2 4.1-.7 8.4-2.1 5.4-1.7 9.4-2.4 12.3-2.1l4.2.5v-4.2c0-5.6 1.5-10.3 4.8-15.6l2.9-4.5-6.6-7.3c-9.3-10.4-15.5-13.7-23.3-12.2zm-86.9 7.4c-11.5 6.8-16.9 14-16.9 22.8 0 3.5.7 4.7 6.4 10.6 7.4 7.7 11.6 13.7 11.6 16.4 0 1.8.2 1.7 3-.3 1.9-1.5 4.9-2.4 8.7-2.7 6.4-.5 8.3-1.5 8.3-4.3 0-1 2.6-6.8 5.7-12.9l5.8-11.1-2.5-4.6c-3-5.6-11.3-14.9-15.1-16.8-4.4-2.3-6.9-1.8-15 2.9zm212.3 11.7c-5.3 2.7-11.9 10-13.2 14.8-2.5 9.4 6.9 22.1 21.4 28.7 4.6 2.1 6.8 2.5 10.7 2.2 9.3-.9 18.1-9.7 18.3-18.3.1-5.2-2.2-8.1-9.9-12.5-2.7-1.6-8.1-6.1-12-9.9-4.1-4.2-7.8-7.1-9-7.1-1.1 0-3.9 1-6.3 2.1zm124.6 2c-2.9 1.1-6.1 6.7-7.3 12.9-1.1 5.5-3.4 9-6.6 10.4l-2.9 1.2 3 2.9c2.7 2.6 3.2 2.8 6.7 1.7 2.1-.6 6.1-1.4 8.8-1.8 2.8-.3 5.8-1 6.7-1.5 2.6-1.4 10.8-12.7 10.8-14.9 0-3.1-6.4-9.5-10.8-10.8-4.5-1.4-4.8-1.4-8.4-.1zm-214.3 3.8c-8.4 4.3-10.9 13.9-6.3 23.8 4.7 10.1 19.3 22.3 26.6 22.3 6.1 0 11-3.8 16.9-13 1.9-3 4.4-6.5 5.6-7.8 1.3-1.4 1.6-2.2.7-2.2-.7 0-5.6-4.2-10.9-9.3-14.8-14.1-24.2-18.1-32.6-13.8zm-78 7.5c-9.3 4.3-17.5 15.2-17.5 23 0 2.8.7 4 3.5 6.2 2.3 1.7 3.9 4 4.6 6.7 2 7.4 11.7 13.6 19.6 12.4 4.6-.6 13.6-4 18.1-6.7 2.8-1.7 3.2-2.5 3.2-6.2 0-2.6.8-5.5 2-7.3 2.9-4.3 2.5-6.8-2.1-14-4.6-7.3-9.5-11.9-15.3-14.6-5.5-2.5-10.1-2.4-16.1.5zM756 286c-.8.5-5 1-9.2 1-7.1 0-9.4.9-6.8 2.5.6.3 1 2.6 1 5.1 0 3.5-.5 4.9-2.5 6.6-4.7 4.1-2.8 8.4 6.3 14.7 3.1 2.1 7 5.3 8.6 7 1.7 1.7 3.6 3.1 4.4 3.1s5-1.9 9.3-4.1c8.3-4.3 11.9-7.9 16.3-15.9l2.6-4.8-5.3-1.7c-7-2.3-10.9-4.8-15.5-10.1-3.9-4.4-6.3-5.3-9.2-3.4zm-301.7 2c-4.7 1.1-11.8 5.5-13.8 8.6-2.5 3.8-3 10.2-1.2 14.4.8 1.9 3.4 6 5.9 9s5.7 7.4 7.1 9.7c3.2 5.1 5.9 6 12.6 4.2l4.9-1.2-.2-6.1c-.1-5 .4-6.9 2.6-10.6 1.5-2.5 4-5.4 5.7-6.5s3.1-2.5 3.1-3c0-2.2-12.2-17.6-14.6-18.5-2.9-1.1-7.5-1.1-12.1 0zm213.7 2.9c-3.4 1.1-10 4.6-12.7 6.8-3.5 3-7.3 9.4-7.3 12.6 0 5.2 4.7 12.4 10.4 15.6 2.8 1.6 7.9 5.8 11.3 9.4 10.8 11.2 17.3 11.6 28.1 1.6 8.3-7.7 9.1-9.1 9.2-15.5v-5.1l-11.5-11.7c-6.4-6.5-13.1-12.4-15-13.2-3.7-1.5-8.5-1.7-12.5-.5zm-83.2 2.5c-4.8 1.7-14.7 10.2-15.4 13.3-2.2 8.8 8 26.4 19 32.7 7 4.1 12.2 5 17.2 3.1 3.6-1.4 5.5-3.2 10.5-10.1l6.1-8.5-3.9-5.2-6.8-9.2c-9.3-13.2-18.7-18.9-26.7-16.1zm215.2 1.1c0 .9-1.5 2.2-3.4 3-3.2 1.4-5 4.4-8 13.7-.3 1-1.2 1.8-2 1.8-2.1 0-6.7 6-6.4 8.3.7 4.6 15.8 4.8 24.5.3 5.7-2.9 8.7-5.8 10.8-10.8 2.6-6.3 3-5.6-12.7-16.1-2.5-1.7-2.8-1.7-2.8-.2zm426.5 12.1c3.7 4.8 16.2 16.8 23.2 22.2 5.4 4.3 13.3 16 16.8 25.2 1.5 3.9 3.7 8.3 5 9.8l2.2 2.6 2.7-4.1c4.5-6.7 4.5-12.7.2-26-6-18.5-12.8-23.9-38.5-30.8l-14.2-3.5c-.5 0 .7 2.1 2.6 4.6zm-735.3-.1c-8.4 2.6-15.2 9.9-15.2 16.3 0 6.3 2.1 9.6 16.2 25.1 1.7 1.8 4.9 4.2 7.2 5.2 5 2.3 12.9 2.5 14.6.4.7-.8 2.5-1.5 4.1-1.5 2.4 0 3.2-.9 6.5-7 2-3.9 5.2-8.4 7.1-10l3.4-3-3.8-1.5c-6.2-2.5-6.5-2.8-13.5-12.1-9.7-12.8-15.5-15.4-26.6-11.9zm233.3 7.5c-4.1 2.1-6.8 2.9-8.6 2.5-2.5-.6-2.6-.4-3.2 5.5-.4 3.4-1.2 7.1-1.8 8.3-.7 1.2-9.2 10.6-19.1 20.8-9.8 10.3-17.8 19.4-17.8 20.2 0 2.8 25.2 21.2 31.8 23.2 1.8.5 3.8-.6 9.7-5 6.5-4.9 7.9-6.5 10.8-12.7 3.1-6.6 3.5-7 4.6-5.1 1.8 3.5 1.3 7.7-1.4 11.3-3 4.1-3.3 8.5-.6 10 2.4 1.2 6.3 1.3 9.3.1 1.3-.5 5.2-1.5 8.8-2.2 5.5-1.1 7-1.9 10.6-5.5 5.7-5.9 7.1-9.6 5-12.9-2.1-3.2-11.3-8.5-14.8-8.5-1.4 0-4.1 1.2-5.8 2.6-2.8 2.4-3.7 2.6-9.3 2.2-7.4-.6-14-3.6-20.2-9-4.9-4.3-7.5-8.4-7.5-11.7 0-3 2-1.8 6.5 3.9 4.8 6.1 13.5 11 19.4 11 5 0 8.6-2.9 17.6-14.6l6.4-8.3-2.5-4.8c-2.4-5-17-23.3-18.4-23.3-.5 0-1.4-.2-2.2-.5-.7-.2-4 .9-7.3 2.5zM423 320.2c-3 1.1-6.7 2.9-8.1 3.9-3 2.1-5.9 8.5-5.9 12.9 0 7.7 9 22.1 17.2 27.5 5.5 3.6 9.5 4.1 13.6 1.5 3.3-2 3.4-2.2 2.7-6.8-.6-4.3-.4-5 2-7.2 1.5-1.4 3.9-5.1 5.4-8.2l2.7-5.6-9-9.6c-10.5-11-12.1-11.7-20.6-8.4zm213.7-.8c-7.4 2.7-14.9 10.1-16.1 16.2-.5 2.2.2 6 2.4 12.7l3.1 9.6 8.7 4.3c4.8 2.3 10.3 5.5 12.3 7 6.5 5 15.3 3.1 24.3-5.2 5.8-5.4 7.4-10.4 5.1-15.5-1.8-3.6-5.1-6.5-12.7-10.9-3.1-1.8-6.3-5-9.1-8.9-4.3-6.2-9.7-10.7-12.6-10.7-.9.1-3.3.7-5.4 1.4zm394.3 3c-1.9.7-6.4 3.1-10 5.3-8.7 5.2-20.9 10.3-35.5 14.8-20 6.1-23.5 7.4-36.1 14-6.7 3.5-16.8 8.3-22.5 10.5-25.6 10.2-40.2 19-80.6 48.7-55.6 40.8-86.5 58.5-190.8 109.1L530 587.1l-99 49.4c-3.6 1.8-9.2 5.4-12.5 7.9-6 4.8-12.1 7.9-21 11.2-2.7.9-10.6 5.6-17.5 10.3-22.1 15.1-26.2 17.7-43.8 27.5-20.9 11.6-26.6 15.4-40.2 26.6l-15.7 12.5c-2.9 2.1-5.1 4-4.9 4.2.4.5 15.6-5.7 27-11.1 5.5-2.5 17.4-8.9 26.6-14.1 9.1-5.2 20.4-11 25-12.9 4.7-1.9 13.7-6.2 20-9.5 7.1-3.6 15.7-7.1 22.5-9.1 18.9-5.4 25.4-7.9 46.5-18 23.1-11.1 35.1-15.5 52.5-19.4 6.6-1.5 17.9-4.7 25-7.1 19.8-6.7 55.5-12.2 85.1-13 14.6-.4 18.1-.8 20.5-2.2l13.1-8.7c15.1-10.1 34.8-22.2 76.8-47.6l45.8-27.9c4.6-2.9 15-9.1 23-13.8 19.1-11.2 23.9-14.4 36.4-25 10.4-8.9 17.2-14 32.8-24.8 5.3-3.7 16.8-14.2 30.5-27.7l22.8-21.8c1.4 0 .7 5.5-1.3 9.5-2 4.1-21.9 24.4-35 35.6-10.1 8.7-28.4 22.1-53 39.1l-41 28.3c-28.6 19.9-64.1 42.5-110.9 70.7-28.3 17.1-27.2 16.2-18.8 15.4 16.4-1.3 34.7-9.2 72.7-31.1l35.6-20.5c19-10.8 29.7-18.5 60.4-43l42-33.4c14.8-11.6 23.7-20 57-53.4 43.6-43.8 58.1-57.6 77.5-73.7 15.4-12.7 18.9-16 34.7-32.8 9.9-10.5 11.6-12.7 9.7-12.6-1.3 0-4 .6-5.9 1.3zM548.8 329c-7.5 4-16.1 17.9-16.2 26.2-.1 5.1 2.3 8.7 7.9 11.5 8 4.1 14 9 17.2 14 3.6 5.7 4.8 6.1 9.2 3.8 4.1-2.1 7.7-6.8 11.7-15.1 2.4-5.1 4.6-8.1 6.9-9.7l3.4-2.3-4.6-7c-6.3-9.4-15.1-17.9-21.5-20.9-6.3-3-9.1-3.1-14-.5z"/><path d="M766 328.9c-3.8 1.6-4.5 2.3-4.8 5-.2 1.9-.9 3.1-1.7 3.1-2 0-4.3 3.8-7.1 11.6-3.5 9.5-3.6 9.4 4.4 8.8 10.6-.9 16.7-2.3 23.1-5.5 5.3-2.6 11.1-8.2 11.1-10.7 0-.9-7.2-7.2-12.6-10.9-4.4-3.1-7.3-3.5-12.4-1.4zM464.8 340c-5.7 1-11.3 5.3-13.8 10.5-1.9 3.9-2.1 5.6-1.6 10.2.7 5.6 5.7 17.8 9.6 23.4 4.6 6.4-1.4 4.7-6.7-1.9s-7.2-7.9-12.4-9.2c-8.5-2.1-17.5 2.4-21.4 10.6-1.4 3-1.5 4.3-.5 8.7 2.5 11.2 15.6 32.7 19.8 32.7 1 0 4.1-1.8 6.9-3.9 3.8-2.8 6.7-4.1 10.3-4.6 6.1-.8 7.3-2.4 9-11.2 1.7-8.7 5.1-12.3 16.5-17.8 5-2.4 9.7-5.1 10.4-5.9s1.4-3.1 1.7-5.3c.3-2.1 1.3-5.7 2.1-8.1 1.6-4.2 1.5-4.3-.9-7-1.4-1.5-4-5-5.8-7.7-7.8-11.8-13.7-15.3-23.2-13.5z"/><path d="M393.2 351.1c-4.7 2.3-9.7 7.9-13.3 14.9-3.5 6.6-3.3 16.6.4 23.7 1.5 2.9 3.6 5.7 4.8 6.3 1.1.7 3.8 2.8 6 4.7 4.2 3.8 4.8 3.8 12.4.9 2.2-.8 5.5-1.5 7.4-1.6 2.7 0 3.2-.3 2.6-1.8-2.7-6.8-1.2-13.9 4.5-21.1 2.2-2.8 4-5.3 4-5.7 0-.8-6.9-12.1-9.8-16.1-2.6-3.6-7.7-6.3-11.9-6.3-1.5 0-4.7 1-7.1 2.1zm208.8 3.1c-5.7 2.9-19.3 15.8-21.5 20.5-1.7 3.6-1.7 3.8.5 8 2.3 4.4 6.3 8 16.3 14.7 6.5 4.4 11.7 9.9 11.7 12.3 0 .9 1.1 2.9 2.5 4.3 3.3 3.4 3.5 7.8 1 18.2-1.8 7.5-1.8 7.8 0 9.8 1 1.1 3.3 2.2 5.1 2.6 2 .4 4.5 1.9 6.3 3.9 3.8 4.4 8.2 6.5 14.6 7.2 9.3 1 17.3-3.1 22.6-11.5 4-6.3 3.9-10.4-.3-13.3-1.8-1.2-5.8-4.7-8.9-7.8-3-3.1-8.6-8.2-12.3-11.5l-6.7-5.9-6.1 3.2c-5.7 2.9-11.8 4.1-11.8 2.3 0-2.3 9.8-9.4 15.4-11.2 7.7-2.5 14.6-10.9 14.6-17.8 0-3.2-3.2-7.2-5.9-7.2-2.1 0-11.9-9.4-17.1-16.2-1.9-2.6-4.5-5.1-5.8-5.7-3.7-1.7-9.3-1.3-14.2 1.1zm-87.3 6.8c-11.6 3.5-17 17.9-11.1 29.7 3.4 6.9 9 11.8 19 16.4 9.3 4.4 13.2 5.4 16.9 4.5 2.8-.7 3.4-1.8 6-11.3 1.2-4.1 2.4-6.3 3.6-6.6 1.1-.3 2-1.8 2.4-4.1.7-3.4.4-4-6.4-11.2-13.6-14.6-22.7-19.7-30.4-17.4zm144.2 19.9c-7.3 4.6-14.9 16.1-14.9 22.7 0 4.1 1.8 6 13.9 15.4 7.7 6 11 7.3 15.6 6.4 7.7-1.5 14.6-7.8 21.8-19.8l3.5-5.8 1.7 2.6c1.9 2.8 1.8 3.6-1.6 11.4s-2.3 8.5 13.3 9c11.6.4 12.5.3 15.7-2 1.9-1.2 4.9-5 6.7-8.3l3.3-5.9-3-1.3c-1.7-.7-4.8-2.6-6.9-4.3-5-4-8.5-4.5-16.2-2.6-9.4 2.4-14.2.6-25.9-9.7C674.8 379 673.1 378 668 378c-3.3 0-5.8.8-9.1 2.9zM482 393.2c-2.9 2.4-6.6 5.3-8.3 6.5-6.6 4.8-7.3 10.3-2.4 18l5.9 10.2c2.4 4.5 3.6 5.4 11.9 9.5 14.1 7.1 22 6.3 24.9-2.6.9-2.5 3.3-6.4 5.3-8.7s3.7-5.1 3.7-6.3c0-2.7-17.6-20-23.2-22.9-2-1-4.3-3.1-5-4.6-2.2-4.6-6.4-4.3-12.8.9zm76.1-.9c-6.1 3.1-8.1 11.9-4.7 20.2 1.9 4.4 25.5 28.3 30.6 31 6.7 3.5 15.5 1.7 19-3.9 1-1.8 2.7-7.4 3.6-12.6 1.5-9.1 1.5-9.4-.4-10.9-1.1-.9-3.2-3.5-4.6-5.9-1.4-2.3-3-4.2-3.4-4.2s-1.6-1.3-2.7-2.9c-2.7-4.1-7.6-6.6-18.6-9.6-10.4-2.8-15.2-3.1-18.8-1.2zm-201.7 2.8c-9.1 5.8-13.4 11.6-13.4 18.1.1 5.5 5.4 15.1 14.1 25.1.4.5 1.8.2 3.1-.7 1.3-.8 5.6-2.2 9.6-3.1 11-2.3 13.2-4 13.2-10.5 0-1.7 1.1-5.3 2.5-8 4-7.9 3.2-11.1-5.3-19.3-4.4-4.4-5.2-4.8-7.2-3.7-1.6.8-3 .9-5.2.1-4.6-1.6-5.9-1.4-11.4 2zm45.1 16c-12.1 5.1-14.3 9.9-10.5 23.3 3 10.3 7.5 20.2 10.3 22.1 3.2 2.2 6.5 1.8 13.2-1.8 4.1-2.2 6.2-4 6.7-5.7.4-1.4 1.2-4.4 1.7-6.7.7-2.4 3-6.2 5.7-9.2 3.1-3.5 4.1-5.1 3-5.1-1 0-2.9-2.5-4.9-6.8-2.8-5.8-4-7.2-8.7-10-3-1.7-6.3-3.2-7.5-3.1-1.1 0-5.1 1.4-9 3zm135 9.6c-8.9 4.8-16.5 13.7-16.5 19.3 0 3.5 3.3 9.9 8.4 16.4 5.2 6.5 23.5 21.5 27.1 22.2 6.8 1.2 16.5-5.8 21.5-15.5 2.4-4.7 6.3-15.2 5.8-15.4-.1-.1-2.5-1.3-5.2-2.5-5-2.3-15.7-11.2-23-19-6.8-7.3-11.9-8.8-18.1-5.5zm-83 4.2c-4.6 2.1-11.5 9.2-16.2 16.6-5 8-4.8 9.7 1.7 17.2 12.3 14.1 18.6 18.3 27.6 18.3 4.2 0 5.1-.4 8.8-4.4 4.7-4.9 11.5-13.7 13.4-17.3 2.3-4.1 0-8.3-8.8-16.3-5.4-4.8-8.2-8.2-8.8-10.3-1.5-5.7-9.8-7.5-17.7-3.8zm231.5 2.3c-1.9.5-4.6 2-6 3.3s-3.7 2.7-5.2 3c-2.9.8-3.7 2-1.5 2.8.7.2-.8 2.8-4.1 6.8-10.5 12.8-7.7 16.6 11.4 15.7 10.5-.6 16.3-2.8 23.1-9.1 3-2.8 4.3-4.9 4.8-7.7.4-2.2 1.1-4.3 1.7-4.6 1.2-.7-2.3-4.6-7.6-8.5-4.2-3.1-9.7-3.7-16.6-1.7zm-352.5 2.1c-1.1.8-3.3 1.7-4.8 2.1-6.4 1.5-12.7 12.2-12.6 21.3 0 6.5 5.5 23 8.1 24.7 1.2.7 3.4-.1 8.9-3.4 8.3-5 8.7-5.4 11-12.8.9-2.9 3.3-7 5.3-9.2s3.6-4.9 3.6-5.9c0-1.1-1.8-4.1-4-6.6s-4-5.4-4-6.3c0-1-1.3-2.1-3.2-2.8-1.8-.6-4-1.4-4.8-1.8-.8-.3-2.4 0-3.5.7zm38 10.8c-8.6 3-13.5 6.7-17.2 12.9-2.6 4.3-3.3 6.5-3.3 10.7 0 6.7 1.9 10.5 10.4 20.5 3.5 4.3 6.9 8.5 7.4 9.4.7 1.3 1.9.8 7.6-3.5 3.7-2.9 9-6.3 11.6-7.6 3.7-1.9 5.1-3.3 6-5.9.6-1.8 2-4.2 3.1-5.2 4.4-3.9 4.3-4.8-1.6-16.7-3-6.3-6.6-12.4-7.9-13.6-3.4-3.2-8.9-3.5-16.1-1zm231.2 7.9c-1.6 1.2-4 2-6.6 2-4.1 0-7.1 2.5-7.1 6 0 .8-1.6 3.7-3.5 6.4s-3.5 5.6-3.5 6.4c0 2.6 5.7 7.1 11.1 8.6 3 .9 7.6 3.2 10.3 5.1 4.9 3.5 9.8 4.5 11.2 2.4.4-.7 2.2-.9 4.6-.6 3.2.4 4.5.1 6.6-1.8 1.5-1.3 4.2-3.6 6.1-5.1 3-2.5 5.6-6.9 7.5-13 .6-1.9.2-2.2-3.9-2.8-3.1-.5-6.9-2.4-12.1-5.9-15.4-10.6-16.5-11-20.7-7.7zm-97.7 8.1c-7.7 2.3-16 12-16 18.6 0 6.3 3.2 10.2 17.9 21.8 10.5 8.4 16.1 11.5 20.4 11.5 4.8 0 7.1-1.2 12.5-6.4 5.1-4.8 7.2-8.4 7.2-12.2 0-1.5.7-3.5 1.6-4.5 1.4-1.5 1.3-2-1.4-5.1-1.7-1.8-5.9-5.1-9.5-7.2s-9.3-6.7-12.7-10.2c-5.8-6-6.5-6.4-11.3-6.9-2.9-.2-6.8 0-8.7.6zm-87.6 4.8c-10.7 5-16.4 11.8-16.4 19.3 0 4.6 4.1 12.9 9 18.2l4.2 4.5-10.4-5.3c-12.3-6.4-15.4-7.2-20.1-5.3-7.3 3.1-15.7 14.7-15.7 21.8 0 4.1 3.2 7.6 12.1 13.2 3.1 2 7.9 6.3 10.8 9.6 6 6.9 8.2 7.5 12.9 3.6 1.7-1.4 4.5-3.1 6.4-3.7 1.8-.6 5.4-2.9 8-5 5.1-4.2 11.7-13.8 9.5-13.8-1.5 0-6.3-4.9-9.6-9.8l-2.2-3.2 4.9 3.1c6.5 4 15 4.9 20.2 2.1 1.9-1 6.6-5.9 10.3-10.8 3.8-4.9 8-9.6 9.4-10.5l2.5-1.6-4.3-3.4c-2.4-1.9-8.6-7.6-13.8-12.8-14.6-14.4-17-15.3-27.7-10.2zm231.9 2.6c-1.1.8-4.1 4.8-6.7 8.9-2.5 4-5.4 7.7-6.4 8.1-1.2.6 0 1.2 4.3 2.1 7.9 1.7 15.5 1.6 23.5-.4 5.6-1.5 6.9-2.3 9.7-6 3.9-5.1 4.1-6.2 1.2-6.2-1.2 0-5.4-1.8-9.4-4-7.8-4.3-12.6-5-16.2-2.5zm-350.9 7.4c-8.5 3.9-14.3 14.4-13.1 23.6 1.8 12.5 11.2 19.9 16.1 12.6 1.1-1.6 3.9-3.8 6.3-5 5.8-2.8 8.1-7.8 8.3-18.1.3-10.5.2-10.8-2-13-2.6-2.6-10-2.6-15.6-.1zm36.9 7.2c-5.3 2.6-13.9 11.9-15.1 16.3-2 7.1 2 14.7 9.8 19 6.9 3.7 8.1 6.8 6.4 15.5l-.7 3.1-4.5-6.2c-8.6-12.1-14.1-16.5-18.9-15.3-3.4.8-16.9 10.9-18.4 13.6-2.9 5.5 1.5 17.7 9.9 27.1 5.2 5.7 7.2 6 12.9 1.8 2.3-1.7 6.1-3.4 8.5-3.8 4.3-.7 4.3-.8 9.8-11.2 4.6-8.8 6.4-11.2 11.5-15.2 4.2-3.5 6.8-4.8 9.1-4.8 3.7 0 5.2-1.5 5.9-6.1.3-1.9 1.3-5.9 2.2-9l1.6-5.7-6.7-8.3c-10.6-13.2-14.6-15.1-23.3-10.8zm240.1 1.3c-1.1.8-3.8 1.7-6 2.1-7.8 1.2-13.9 2.8-15.1 3.8-.7.5-1.3 2-1.3 3.2s-1.8 4.9-4 8.1c-7.1 10.5-5.4 14.2 10.7 23 6.8 3.7 9.8 4.8 14.7 5.1 6.1.5 6.2.5 12.6-4.3 7.6-5.8 14.2-15.1 16-22.4l1.2-5.2-4.3-4.4c-2.4-2.4-4.8-4.4-5.5-4.4-.6 0-3.8-1.3-7-3-6.6-3.3-9-3.7-12-1.6zm-98.5 6.4c-1.5.9-4.7 4.2-7.2 7.3-2.6 3.2-7 7.2-9.9 8.9-6.2 3.9-7.7 5.6-7.8 9.1 0 4.1 3.3 7.4 14.1 14 5.4 3.3 11.7 8.2 13.9 10.7 3.9 4.3 4.4 4.6 10 5 3.3.2 7.3-.1 8.8-.7s6.1-4.8 10.2-9.3c7.3-8 7.5-8.3 7.3-13-.4-8.8-4.8-15-17.1-24.1-12.9-9.7-17.4-11.2-22.3-7.9zm146.6 5.3c-2.7 1.6-6.7 3.2-8.7 3.5-3 .5-3.8 1.1-3.8 2.8 0 2.3-4.4 9.9-8.6 14.9-3.2 3.8-3.2 7.3 0 8.1 3.5.9 12.3-1 18.1-3.9 2.8-1.4 9.1-5.9 14-10.1 5-4.2 10-8.1 11.3-8.7 1.2-.5 2.2-1.3 2.2-1.7 0-.3-2.8-2.3-6.2-4.3-7.7-4.6-11.5-4.7-18.3-.6zM273 502.7c-4.6 1.7-10.1 9.8-14.4 21.4-1.7 4.5-1.7 4.8.3 8.6 1.1 2.2 3.4 5.2 5.2 6.7l3.1 2.7 3.2-2c1.7-1.1 5.4-3.2 8.1-4.7 7.7-4.1 9.5-6.1 9.5-10.9 0-2.2.5-4.6 1.1-5.2 1.5-1.5-3.4-10.4-7.8-14.4-3.3-2.8-5.2-3.3-8.3-2.2zM528.2 515c-3.5 1.7-7 3-7.8 3-1.2 0-1.2.4-.2 2 1.1 1.8.9 2.9-1.9 8-1.8 3.2-3.3 6.5-3.3 7.3 0 2.3 14.8 15.7 19.6 17.9 5.9 2.6 13.4 2.6 17.6 0 1.8-1.2 5.7-4.5 8.6-7.5 5.1-5.2 5.3-5.6 5-10.3l-.3-4.9-9.3-4.5c-7.1-3.4-9.8-5.3-10.9-7.5-2-4-5.2-6.5-8.3-6.5-1.4 0-5.4 1.4-8.8 3zm-87.7 3c-3.1.6-5.3 2.2-10.3 7.5-5.5 5.8-6.3 7.1-5.7 9.4.3 1.4 1 4.5 1.4 6.9s1.7 5.2 2.7 6.1c8.1 7.7 21.5 18.6 24.1 19.8 9 3.7 19.5-.2 23.4-8.7 4.5-10 6.2-11.8 7.4-7.9.5 1.4-.1 3.9-1.6 7.1-2.8 6.1-2.5 6.7 6.7 13.1 5.5 3.8 7.5 4.7 9.9 4.4 5.5-.9 20.5-6.6 28.6-10.9l8-4.2-7.2-3.4c-6.2-3-7.3-3.9-9-7.7-2-4.6-6.1-8.5-8.7-8.5-.8 0-4.3 1.6-7.8 3.5-4.8 2.7-7.4 3.5-11.2 3.5-6.4 0-13.2-2.9-16.3-7-4.6-6-9.9-10.3-16.6-13.5-1.7-.8-4.1-3.1-5.3-5-2-3.2-5.7-5.7-7.8-5.4-.4.1-2.5.5-4.7.9zm-87.4 7.7c-8.6 4.3-18.1 16.2-18.1 22.9 0 3.5 1.2 5.5 9.1 15.5 10 12.6 19.2 16.7 27.4 12.2l7.9-4.2c4.5-2.4 5.1-3.2 6.9-8.5 1.4-4.1 3.3-7.2 6.1-10 4-3.9 4.1-4.2 2.4-5.9-1-.9-2.6-1.7-3.6-1.7-2.8 0-9.2-5-14.7-11.4-8.3-9.8-15.8-12.6-23.4-8.9zm236.9.3c-1.4.4-5.2 2.2-8.5 4-6 3.1-9.4 7.2-9.5 11.5 0 1.6.6 1.3 3.8-1.7 2.3-2.3 5.1-3.9 7.5-4.3 2.7-.5 4.7-1.8 6.9-4.6 1.7-2.1 3.8-4 4.7-4.1 1.3-.3 1.2-.5-.4-.9-1.1-.3-3.1-.2-4.5.1zm-341 16.9c-8.5 8.9-12.2 23.1-7.2 27.1 2.6 2.1 3.8 1.9 9.9-1.9 4.4-2.7 5.8-5.1 6.9-11.6.4-2.2 1.3-4.7 2.1-5.7 1.3-1.4 1.2-2-.2-5-2.3-4.4-4.5-6.8-6.3-6.8-.8 0-3.2 1.8-5.2 3.9zm31.7-.4c-4.7 2.4-8 5.4-12.4 11.3-6.9 9.2-6.7 11.7 1.9 21.9 2.4 2.8 5.8 7 7.6 9.2 1.8 2.3 4 4.1 4.8 4.1.9 0 2.8-1.4 4.2-3 1.5-1.7 3.6-3 4.9-3 2.5 0 5.3-3.4 5.3-6.5 0-2.3 5.1-11.5 7.4-13.4 1.9-1.6 2.1-3.1.4-3.1-.7 0-2-1.3-3-2.9-.9-1.7-3.4-4.1-5.5-5.4-2.1-1.4-4.9-4.3-6.3-6.5-2.7-4.5-4.7-5.1-9.3-2.7z"/><path d="M406.5 550.1c-8.9 5.1-12.1 8.2-14.1 13.5-2.4 6.4-.6 13.3 5.1 18.8l10.4 10.2c1.5 1.6 5.6 5.1 9.1 7.9 5.8 4.5 6.9 5 11.6 5 4.2 0 6-.6 9.6-3.1 5.6-4.1 13.3-13.6 15.4-19.1 2.3-5.9 1-8.1-7.9-12.9-7.4-4.1-20.7-17.3-20.7-20.6 0-2.3-3-3.8-7.7-3.8-2.7 0-5.9 1.2-10.8 4.1zm-85.5 6.6c-8.2 5.4-19 18.8-19 23.5 0 4.9 2.8 9.5 9.9 16 8.5 7.9 14.7 11.8 18.6 11.8 1.8 0 5.2-1.3 8.1-3.2 3.5-2.3 6-3.2 9-3.2 4.1.1 4.2 0 7.3-6.3 4.5-9.2 4.3-10.9-2.2-13.8-9.7-4.5-19.7-14.9-19.7-20.7 0-2.6-.3-2.8-4-2.8-2.4 0-4.2-.6-4.7-1.5-.8-1.3-1.2-1.3-3.3.2zm149 15.8a38.77 38.77 0 0 1-6.2 1.9c-3.3.8-5.7 4.4-3.7 5.7 1.1.6.6 1.6-1.8 4.1-4.1 4.2-5.5 8-4.3 11.3 1.5 3.9 5.4 4.2 11.9 1 6.1-2.9 16.9-9.9 21.5-13.8l2.9-2.5-3.8-3.4-5.4-4.5c-2-1.6-6.6-1.5-11.1.2zm-220.6 5.1c-13.7 9.2-15.8 17.1-7.3 28 7.8 9.8 9 11.8 8.7 13.9-.5 3.1-3.9 2.5-6.3-1.2l-4.9-7.8c-1.6-2.6-4-5.2-5.3-5.8-3.7-1.7-5.7 1.5-8.4 12.9-2.2 9.7-2.2 16.2.1 18.9 2.5 3 8.1 1.8 16.4-3.4 10.3-6.6 11.6-7.8 11.6-11.6 0-3.6 4.1-8.1 10.5-11.3 6.5-3.3 9.7-7.4 10.3-13.1.6-6.2-1.5-9.9-9.7-17-6.9-6-9.8-6.4-15.7-2.5zm126.5 3.6c-8.2 4.1-17.9 13.4-17.9 17 0 1.5.5 3 1 3.3.6.4.7 1.3.1 2.4-1 1.8 1.1 4.6 14.1 19.5 10.4 11.9 19.8 12.7 33 2.8 6.8-5.1 9.3-7.9 11.3-12.4 2-4.9 1.9-5.8-.4-5.8-1.1 0-4.1-2.4-6.8-5.5-2.6-3-5.6-5.5-6.6-5.5-3.4 0-5.7-2-10.8-9.6-4.1-6.1-7.7-9.4-10.3-9.4-.2 0-3.2 1.4-6.7 3.2zM156.3 592c-11.7 18-19 40.1-30.3 91-7.5 34.3-10.1 41.7-22.1 64.7l-8 15.3h2.9c1.6 0 4.5.6 6.3 1.4 3.9 1.6 16.8 3 19.1 2.1 3.1-1.2 13.7-15.4 20.6-27.6 10.6-18.7 12.8-27.3 14.3-55.9 1.1-22.9 2.4-90.5 1.8-95-.4-2.1-.9-1.7-4.6 4zm130.3 2.1c-3.4 2.7-5.6 7-5.6 10.9 0 7.1 11 22.8 20 28.5 8.6 5.4 14 5.5 22.7.5 4.6-2.6 5.1-3.3 4.2-4.8s-.6-2.6 1.5-5.9c3.6-5.5 3.2-8.4-1.4-9.5-5.2-1.3-8-2.8-13.2-7.3-16.6-14.3-22.5-16.9-28.2-12.4zm160.5 9c-4.5 3.7-10.5 6.5-16.1 7.4-6.3 1-7.7 2-8.5 5.7-.4 1.8-1.6 4.3-2.8 5.5-5.7 6.3 7.2 2.4 18-5.4l12.1-8.6c4.2-2.9 4.3-3 2.5-5.1-1-1.1-1.8-2.2-1.8-2.3l-3.4 2.8zm-106.2 11.8c-3.7 3.9-4.9 5.9-5.4 9.4-.7 4.8 0 6.9 4.6 12.7 1.5 1.9 3.3 5.4 3.9 7.8.9 3.5 2 4.9 5.8 7.3 9.3 5.9 16.5 6.1 27.1.8 5.4-2.7 14.1-10.7 14.1-13 0-.5-1.1-.9-2.5-.9-3.8 0-12.6-3.7-16.6-6.9-1.9-1.6-5.6-6.6-8.2-11-5.1-8.8-8.1-11.1-14.3-11.1-3.2 0-4.5.8-8.5 4.9zm-73.4.7c-6.7 3.4-13.3 16.6-9.5 18.9.6.3 1 1.9 1 3.4 0 3.5 1.3 5 7.6 8.9 2.8 1.8 7.2 5.8 9.7 9 2.4 3.2 5.6 6.4 7.1 7.1 2.3 1.3 3.1 1.2 7.8-1.1 2.9-1.5 7-3.1 9-3.8 2-.6 4.1-1.6 4.6-2.3 1.5-2 4.2-11.2 3.3-11.5-5-1.8-12.1-7.5-15.6-12.7-2.4-3.5-5-6.1-6.2-6.3-1.3-.2-2.7-1.8-3.9-4.3-1-2.2-2.7-4.7-3.8-5.5-2.7-1.8-7.3-1.8-11.1.2zM596 638c-4.1 1.1-9.7 2-12.4 2-4.8 0-11.1 1-30.6 5l-18.5 3.5c-13.8 2.5-24.4 6-44.1 14.5a1446.07 1446.07 0 0 1-33 13.6c-8.2 3.1-25.4 10.3-38.2 16.1-12.8 5.7-38 16.5-56 23.9-37.5 15.5-50.7 21.3-71.7 31.4-8.2 4-22.4 10.1-31.5 13.5l-27.5 11c-13.9 5.9-22.4 8.1-35 8.9-5.4.4-11.5 1.4-13.5 2.2-1.9.9-7.8 1.9-13 2.4-5.2.4-12.7 1.4-16.7 2.1-6.5 1.2-8.6 1.1-21.2-.9-8.4-1.3-16.5-3.2-20.3-4.7-3.8-1.6-11.6-3.4-19.8-4.7-21.8-3.2-36.8-1.5-65.5 7.7-14.6 4.6-18.4 6.7-24 13.3l-3.4 3.9 7.2 1.4c5.6 1.1 15.9 1.3 46 1.1 23.8-.2 41.1.1 44.5.8 3 .5 9.7 2.5 14.8 4.4 20.3 7.7 36.4 8.3 70.4 2.7 16.6-2.8 19.4-3.6 27.7-7.5 6.4-3.1 11.5-4.8 17-5.6 4.3-.7 10.9-2.5 14.8-4 3.8-1.5 10-3.7 13.7-4.8a961.63 961.63 0 0 0 20.5-7c7.6-2.8 17.2-5.7 21.3-6.7 16.2-3.7 19.9-4.7 30.7-8.6 10.2-3.7 45-13.1 58.3-15.8 3-.6 10.6-1.8 16.9-2.6s15.5-2.8 20.5-4.5c5.9-1.9 20.8-4.9 42.1-8.5l79-14c6.1-1.2 16-2.5 22.1-2.9 6.2-.3 25.5-2.6 43-5.2 30.1-4.4 33.2-4.7 53.9-4.8 12.1-.1 33 .7 46.5 1.6 24.4 1.6 24.6 1.7 41.5 6.7 10.3 3.1 22.5 5.9 31 7.2 7.7 1.1 32.7 5.2 55.5 8.9 36.3 6.1 74.1 11.1 81.2 10.9 4.2-.1-129.1-30.8-161.7-37.3-69.8-13.8-108.8-16.3-160-10.2l-33 3.6c-15.6 1.5-22.6 2.6-36.5 6-6.3 1.6-19.8 4.1-30 5.5-30.3 4.3-44.7 7.3-54.5 11.2-5.2 2.1-12.5 4.2-17.5 4.9-4.7.6-9.8 1.5-11.5 1.8-1.6.3.4-1 4.5-3 29.5-14.4 74.9-25.1 130.5-30.9 8.3-.9 24.9-3 36.9-4.6l22-3.1 46.5.5c52.5.4 50 .2 88.4 9.1 12.7 3 42.8 9.6 66.7 14.6l58.5 13.1c20.9 5.6 57 12.6 69 13.4 5.5.4 14.2 1.5 19.3 2.6 5.1 1 14.1 2.3 20 2.9s16.8 2.6 24.2 4.6c11.9 3.1 15.4 3.7 29.1 4.1 16.7.6 40.6-.9 51.6-3.2 6.2-1.3 13.1-3.4 20.7-6.4l3-1.2-3.2-1.9c-1.7-1.1-5.6-5.3-8.7-9.5-6.8-9.1-13-14-25.7-20-24.2-11.4-88.2-29.6-151.5-42.9-33.7-7.1-34.5-7.3-57.1-9.6-33.7-3.4-59.3-7.7-80.7-13.4-23.7-6.4-37.1-7.6-84.5-7.7-20.1 0-40.1-.4-44.5-.9s-16.8-1.2-27.5-1.5c-17.3-.4-20.3-.3-27 1.5zm-376.5 2.6c-.3 2.1-1.4 7.5-2.5 11.9-1 4.4-2.1 10.2-2.5 13l-.6 5 2.1-2.5c1.2-1.4 4.4-7.1 7.2-12.8l5.1-10.3-4-4.1-4.1-4.1-.7 3.9zm104.9-1.7c-4.4 2.7-10.3 9.9-11.6 14.4-.9 3-.9 4.9 0 8.3.7 2.4 1.2 5.5 1.2 6.8 0 3.1 4.9 8.3 8.6 9.2 4.1 1 13.8-2.6 23-8.6 4.1-2.7 8.4-5.2 9.4-5.5 2.9-.9 2.5-1.8-2.4-5.2-2.5-1.8-7.2-6.7-10.6-11s-6.9-8.4-7.8-9.1c-2.3-1.7-6.2-1.5-9.8.7zm-84.6 3.6c-5.9 4.6-7.8 7.1-7.8 10.2 0 1-.6 3-1.4 4.4-.8 1.6-1 3.2-.5 4s1.6 3.7 2.4 6.6c1.6 5.6 5.7 9.6 16.7 16.6 5.4 3.4 7.6 6.7 6.6 9.7-.2.7-5-1.9-10.9-5.8-7.5-4.9-11.5-8.4-14.2-12.1-4.9-6.8-7.8-6.9-14.5-.7-13.4 12.6-12 24.6 4.6 38 9 7.2 10.6 7.6 16.2 3.3 5.9-4.5 10.3-6.7 13.3-6.7 2 0 2.7-.8 3.7-4.4 1.9-6.8 4.5-10.3 9.7-13 6.1-3 7.5-4.6 10.8-12.6l3.7-9.1c1.1-2.4.4-3.3-14.2-17.7-8.4-8.4-16-15.2-16.9-15.2s-4.2 2-7.3 4.5zm53.4 27c-6.2 6.4-11.2 14.9-11.2 19.3 0 3.6 2.6 8.9 5.4 10.7 2.1 1.4 3.1 1.5 6 .5 4.9-1.6 12.9-8.2 16.5-13.7 3.4-5.1 3.8-7.5 1.8-9.2-.8-.6-1.9-3-2.6-5.3-3.3-11.1-6.8-11.6-15.9-2.3zM266 698.2c-4.2 2.8-9 11.7-9 16.8 0 4.5 3.3 8 7.7 8 3.6 0 11.2-5.5 14.2-10.3 3.1-5 3.7-10.7 1.4-13.6-2.9-3.5-9.8-4-14.3-.9zm-66.6 21.6c-7.4 18.7-8.5 24.1-5.5 27.1 2.7 2.7 8 2.7 13.4 0 3.9-2 14.5-12.2 18.7-18l1.9-2.5-11.2-11.2-11.2-11.1-6.1 15.7zm42.3-.2c-3.1 1.7-6.2 6.4-9.9 14.9-4.4 10.4-4.5 12.2-.7 16.1 2.1 2.2 4.2 3.4 5.8 3.4 3.1-.1 7.3-3.3 6.6-5.2-.2-.7 3.1-5.3 7.4-10.1l7.9-8.9-3.2-5.6c-3-5.3-3.4-5.7-7.1-5.9-2.2-.2-5.2.4-6.8 1.3zm396.8 8.4c-3.3 2.2-7 4-8.3 4-3.1 0-7.1 2.2-10.6 5.9l-3 3.1h5.5c3 0 7.5.7 10.1 1.4 3.3 1.1 5.7 1.2 8 .5 4.3-1.1 10.1-7.3 11.5-12.2l1.1-3.7h-3.3c-2 0-3.8-.6-4.2-1.5-.7-1.2-1.9-.7-6.8 2.5zm32.8.8c-3.5 1.5-6.3 3-6.3 3.3 0 .8 7.2 2.9 10 2.9 1.3 0 2.8-.6 3.4-1.4s4.3-2.8 8.1-4.5l7-3h-8c-6.5 0-9.2.5-14.2 2.7zm-68.8 1.7c-1.6.8-4.3 1.4-6 1.5-1.6 0-4.1.7-5.5 1.5s-3.7 1.4-5.1 1.5c-3.3 0-13.9 5.3-16.8 8.4l-2.2 2.4 4.8.7c2.6.3 6.3 1.5 8.1 2.5 3.2 1.9 3.2 1.9 7-.2 2-1.2 5.2-3.4 7-5 3.5-3 7.3-4.4 9.7-3.4 1.7.6 2.9-1.7 4-7.8.8-4.1 0-4.4-5-2.1zm84.2 3.8c-7.3 1.8-9.9 7.9-11.2 25.9-.8 12.1-.1 13.8 5.8 13.8 4.8 0 5.6.4 8 4.2 2.6 4.1 6.1 3.7 13.2-1.7 3.3-2.5 6.7-4.5 7.6-4.5 2.7 0 2.7-.9.8-8.3-2.3-9-2.4-15.5-.3-18.6 1.6-2.3 1.6-2.5-.7-4.3-3.5-2.8-11.8-6.5-15.9-7-1.9-.3-5.2-.1-7.3.5zm78.3 3.6c-1.1.8-1.7 3.9-2.1 12.8-.3 6.5-.9 12.5-1.2 13.3-.5 1.1 1.2 2.4 6.1 4.9 7.8 3.8 9.4 3.7 15.7-1.4 5.6-4.5 8.3-5.8 11-5.1 1.9.5 2.3.1 2.9-2.5.9-4.6.7-10.4-.4-13.3-1.2-3.2-5-4.9-16.5-7.1-13-2.6-13.8-2.7-15.5-1.6zm-225 2.5c-6.9 1.2-11 3.4-13.3 7-1.4 2.1-1.4 2.2 1.7 2.3 1.8.1 5.6 1.3 8.4 2.7 7.1 3.6 8.9 3.4 14.3-2 2.6-2.5 5.7-5.1 7-5.8 3.3-1.6 3.4-3.4.4-4.6-3.3-1.3-10.2-1.1-18.5.4zm113.3 1.4c-6.4 2.3-11.8 6.3-13.9 10.4-1.8 3.4-3.3 17.1-2.6 23 .4 3.3.8 3.9 4.1 4.8 8.7 2.5 10.8 2.4 15.8-.6 2.6-1.6 6.6-3.6 8.8-4.4 4.5-1.7 5.2-3.4 5.4-13.2 0-3.1.6-8 1.2-10.9 1.1-4.8 1-5.3-1.3-7.5-3.3-3.4-10.6-4-17.5-1.6zm-439.8 6.8c-4.4 5-8.1 6.3-17.6 6.4-6.1 0-8.1 1.4-11.4 7.9l-1.7 3.4 6.8-.7c8.5-.9 13.4-3.2 15.4-7.1l1.4-3.1 2.6 2.8c2.3 2.5 2.8 2.7 7 1.7l8.3-1.6c3.3-.5 3.7-.8 3.1-2.7-1.9-6.2-5.8-11.6-8.3-11.6-.9.1-3.4 2.1-5.6 4.6zm590-1.3c-1.9 2.7-1.9 5.8-.1 10.2 1.3 3 2.3 3.6 8.1 5.4 8.1 2.5 16.2 2.7 19.3.5 1.3-.9 4.4-2.1 7-2.7l4.7-1.2.3-5.5c.1-3-.1-6-.5-6.6-.5-.7-7.3-1.3-19.1-1.6-17.7-.5-18.3-.5-19.7 1.5zm-296.5-.6c-8.2.6-18.4 2.3-23.1 3.9-4.4 1.4-8.8 4.8-7.7 5.9.5.6 21.3 6.5 22.8 6.5.5 0 3.2-1.9 5.9-4.3l9-7.5c6.4-5.2 6-5.5-6.9-4.5zm425.8 1c.7.3 1.6.2 1.9-.1.4-.3-.2-.6-1.3-.5-1.1 0-1.4.3-.6.6zm5.5 1c.9.2 2.3.2 3 0 .6-.3-.1-.5-1.8-.5-1.6 0-2.2.2-1.2.5zm-85.3 2c-3.4 1.8-7 6.6-5.9 7.8 1.1 1.1 14.9 4.5 18.2 4.5 2.5 0 4.6-1 7.8-3.8 2.4-2.2 5.1-4.1 5.9-4.4 2-.7-11.3-4.8-17.5-5.4-3.6-.4-6 0-8.5 1.3zm-298.7 1.8c-1.7.9-3.6 2.9-4.1 4.3-1.3 3.6-4.1 18.6-4.8 25.9-.8 7.3.7 9.3 6.8 9.3 2.2 0 6.8.8 10.3 1.7l6.3 1.7 3.5-2.7c1.9-1.4 4.4-4.6 5.5-7.1 2.5-5.2 3.7-17.8 2.5-24.6-.7-3.9-1.4-4.8-5.2-6.9-5.7-3.1-16.2-3.9-20.8-1.6zm-104.5 3.2c-2.1.8-3.8 2.1-3.8 2.7 0 1.5 9.6 5.6 12.9 5.6s10.7-4.5 11.4-6.9c.4-1.5-.2-2-2.5-2.5-5.4-1.1-14.2-.5-18 1.1zm-31.1 1.8c-2.1.8-6.6 2.9-10 4.7l-6.2 3.3 7.7.5c6.1.4 8.2.9 9.8 2.6l2.1 2.1 5.8-5.6c4.6-4.4 5.6-6 4.9-7.4-1.1-2.1-8.5-2.2-14.1-.2zm98.8 1.1c-11.5 2-11.9 2.6-13.5 20.3-.6 7.8-.9 15.7-.6 17.6l.7 3.5 3.1-1.6c2.8-1.5 3.4-1.5 6.9.1 5.6 2.6 11.5 1.6 19.9-3.4l7-4.2v-13.8c0-13.1-.1-13.9-2.3-15.9-2.5-2.3-7.8-4.3-11.2-4.1-1.1 0-5.6.7-10 1.5zm382.5-.7c0 1 4 2.2 5.2 1.5 1.8-1.1.6-2.4-2.2-2.4-1.6 0-3 .4-3 .9zm-517.9 7c-2.9 1-6.4 3-7.8 4.3l-2.5 2.5 7.6 1.2 8.5 1.1c.8 0 3.1-7.5 3.1-9.9 0-1.6-2.7-1.3-8.9.8zm87.1-.7c-2.6 3.4-4.2 8.2-5.2 15.9-1.7 13.9.3 19.9 6.8 19.9 6.3 0 15.4 1.9 17.2 3.5 1.6 1.4 1.8 1.4 2.4 0 .5-1.4 3-2.7 9-4.9 1.6-.5 1.6-.9.5-2.3-1-1.1-1.4-4.8-1.4-12.7 0-9.6-.2-11.3-2-13.2-3.7-3.9-8.3-5.7-13.2-4.9-3.2.5-5.1.2-6.8-.9-2.9-1.9-5.9-2.1-7.3-.4zm-34.9 2c-3.9 1-6 3.9-7.9 11-1.7 6.5-1.8 19.7-.2 25 1.8 6.2 8.8 8.8 18.5 6.8 6.8-1.5 10.6-4.8 12.3-10.9 1.5-5.5.3-24.7-1.6-26.6-1.6-1.6-10.4-5-14.9-5.7-1.6-.3-4.5-.1-6.2.4zm-34.8 6.7c-6 3.6-12.5 19.7-12.5 30.9 0 9.7 3.8 13.2 14.7 13.2 3.6 0 4.6-.5 6.5-3 1.6-2.2 3-3 5.3-3 5.4 0 7-2.9 6.8-11.7-.2-4.6.3-8.5 1.1-10.1 1.9-4-.6-12.2-3.7-12.2-1.2 0-4.4-1.4-7.2-3-5.9-3.5-7-3.6-11-1.1zm-38.8 8.7c-3.2 2.5-6.5 6-7.2 7.7-1.9 4.6-2.9 21.5-1.6 25.1 1.1 2.8 1.4 2.8 6.1 2.3 4.2-.5 5.4-.2 9.2 2.3 3.5 2.4 4.4 2.6 4.6 1.4.2-.9 2.7-2.6 5.6-3.9l5.2-2.3 1.8-16.6c1-9.2 1.7-16.8 1.5-17-.2-.1-3.2-1-6.6-1.9-9.8-2.7-12-2.3-18.6 2.9zm-20.4.3c-9.9 3.6-20 11.7-22.5 18-1.9 5.1-2.9 15.3-1.7 18.8 2.4 7.4 15.3 8.6 20.8 1.9.8-.9 2.5-1.6 4-1.6 4.8 0 5.4-1.1 5.2-10.1-.1-8.1 1.2-22 2.5-26.7.8-2.8-1.1-2.9-8.3-.3zm-73.9 20c-16.4 8.7-23.7 15-27.5 23.8-3.7 8.6-3.5 8.8 9.2 9.1 13.1.3 15-.5 18.2-7.6 2-4.5 9.8-29.4 9.4-29.9-.2-.1-4.3 2-9.3 4.6zm-37.2 13.4c-.7.8-3.3 2.2-5.8 3.1-5.3 1.8-12.8 7.1-17.7 12.5-6.7 7.4-5.8 11.1 2.6 11.1 2.8 0 6.5.5 8.2 1.1 4.1 1.5 7.7.6 11.7-3 2.7-2.4 3.2-3.6 3.5-8.7.2-3.2 0-8.6-.4-11.8-.7-5.1-1-5.7-2.1-4.3zm-160 7.2c.3.4 4.9 2.6 10.1 4.9 5.1 2.4 12.6 6.4 16.5 9 7.4 5 10.5 5.5 11 1.9.3-1.9-1.1-2.9-10.2-7.3-5.8-2.8-12.7-5.7-15.3-6.5-6.3-1.7-13-2.9-12.1-2z"/></svg>