<svg xmlns="http://www.w3.org/2000/svg" width="1706.667" height="853.333" viewBox="0 0 1280 640" preserveAspectRatio="xMidYMid meet" xmlns:v="https://vecta.io/nano"><path d="M792 102.1c-71.9 2-151 10.3-273.5 28.9-15.5 2.3-37.1 4.7-53.5 6-41 3.1-87.5 7.5-205.5 19.5-66.7 6.8-63.5 6.4-63.5 8.1 0 .8 1 1.4 2.3 1.4 2 0 37.5-3.6 104.2-10.5l143.4-13.4c1.4.1-3.7 1.2-11.4 2.5L381 154c-47.8 8.4-89.9 13.9-120 15.5-9.9.5-88.4 5.7-108.8 7.1-8.8.7-11.5 1.6-9.6 3.4.5.4 5.9.4 11.9-.1 30.2-2.4 99.9-6.8 100.3-6.4.3.3-.1.5-.9.5s-16.9 1.6-35.8 3.5l-35.8 3.5c-.8 0-1.3.7-1.1 1.7.2 1.3 1.1 1.7 3.3 1.5 1.7-.1 18.1-1.8 36.4-3.7l33.8-3.2c.1.2-12.9 2.9-29 6.1l-94.9 19.3c-5 1.1-7.8 2.1-7.8 3 0 1.9 1.7 1.7 25.6-3.3l129.1-25.8c17.2-3.2 55.1-8.2 56-7.3.2.2-4.5 1.2-10.4 2.1C272.4 179.6 203 194 175 202.1c-12.4 3.6-13.2 4-12.1 5.8.7 1 2.4.8 8.9-1.3 25.3-8 84.8-20.4 153.2-32 63.3-10.8 72.5-11.9 132.5-16.6l88.5-8 190-17.5 76.7-5.2c.1.2-12.9 4.1-29 8.6L668.5 170l-25.5 8c-42.6 13.3-115 37.7-159.5 53.8-13.7 5-35.3 12.3-48 16.2-23.1 7.1-123.7 40.4-156.5 51.8-9.6 3.4-25.8 8.6-36 11.6l-97.5 28.2-34.5 9.6-29 7.9-18.5 5.1c-22 6-37.8 9.8-44 10.8C6.9 374.9 2 376.2 2 377.8c0 1.7 8.6 1.1 25-1.8l26-4.5 34-6 22-4 3.5-.5-3 1.3c-1.6.8-10.5 4.2-19.7 7.7-11.8 4.5-16.5 6.7-16.1 7.7.7 1.9.9 1.8 14-3.3 29-11.3 49.2-18.6 55-19.8 3.5-.7 6.1-1.1 5.9-.8-.4.3-24.6 9.6-60 23-6.1 2.3-8.8 4.4-7.3 5.8.2.3 9.4-2.9 20.3-7.1 62.3-23.9 72.6-27.5 91.8-32 100.5-23.2 181.7-47.6 269.6-80.8l81-30.7 105.5-39.5c8.3-3.1 22.2-7.5 43.8-13.9l10.5-3.2c.9-.3 0 .5-2.1 1.9-4.3 2.7-4.1 3 3.8 7 11 5.4 19.6 7.9 26 7.4 6.6-.5 12.7-3.1 16.2-6.9l2.3-2.4-2.8-2.6c-4-3.9-14.3-10.8-15.9-10.8-2.6 0-.3-1.8 2.9-2.2 2.2-.4 5.3.5 10.2 2.8 10.4 4.7 19 7.4 23.8 7.4 6.4-.1 18.8-6.3 18.8-9.5 0-.7-2.2-3.1-5-5.3-3.8-3-4.6-4.1-3.4-4.6 2.9-1.1 5.6-.6 15 2.9 11.8 4.4 18.7 4.7 26.1 1 2.8-1.4 5.8-3.4 6.8-4.5 1.8-2 1.8-2.1-1-5l-2.9-3h4c2.2 0 7.3 1.1 11.2 2.5 8 2.8 12.9 3.1 18.5 1.1 6-2.2 11.9-6.7 11.4-8.7-.4-1.5.4-1.9 4.7-2.4 3-.4 6.3-.2 8.1.5 3.9 1.5 13.1 1.4 17-.2 1.6-.6 4.7-2.3 6.9-3.7 3.6-2.4 4.7-2.5 18-2.6 12.3-.2 14.7-.5 19.1-2.4 4.5-2 5.9-2.2 14.8-1.6 5.3.4 9.9 1 10.1 1.4.3.4-7.5 1.9-17.2 3.5-75.6 11.9-141.4 29.4-221.2 58.9l-19.5 7.2c-1.4.5-1.1-.1 1-1.8l3-2.5-2-2.2c-3.1-3.4-13.6-10.6-17.6-12-3-1.1-4.8-1.1-9.8 0-5.9 1.2-22.1 9.4-22.1 11.1 0 2.6 23.8 11.9 30.3 11.9 2.2 0 3.7.3 3.4.7-.6.6-22.6 9.2-23.6 9.3-.2 0 .4-1 1.5-2.1 1.9-2.1 1.9-2.2-3.3-6.8-12.4-11.1-19.7-12.1-34.7-4.7-12.9 6.4-13.1 6.8-5.7 10.6 9 4.5 23.8 9.2 26.4 8.4 1.2-.3 1.9-.3 1.5.1-.7.7-19.7 8.5-20.7 8.5-.2 0 .3-.7 1-1.6 1.2-1.4.7-2.2-3.6-6-2.8-2.5-7.8-5.8-11.3-7.5-5.9-3-6.4-3.1-11.8-2.1-5.5 1.2-23.4 9.8-23.4 11.4 0 1.8 19.9 10.4 28.5 12.3 2.9.7 2.9.7-2.8 3-8.3 3.4-10.1 3.9-9.3 2.6 1-1.5-9.7-8.1-16.8-10.3-5.5-1.7-6.3-1.7-11-.3-2.8.8-6.9 2.7-9.2 4.2-5.6 3.9-13.4 10.4-13.4 11.3 0 .4 2.8 1.5 6.3 2.5 16.4 4.7 25.2 5.6 31.3 3 2-.8 4-1.3 4.4-1 .7.5 14.3-4.5 34.9-12.9 6.3-2.5 11.6-4.4 11.9-4.2.2.3-.6.9-1.7 1.6-4.5 2.4-8.8 14.9-9.2 27-.2 4.3.1 5.4 1.2 5.2 2.5-.6 13.4-7 19.7-11.6 8.8-6.5 13.3-16.3 11.6-25.2-.6-3.1-.9-3.5-3-3l-5.1 1.1c-2.4.5-2.5.4-.8-.4 3.9-1.9 57.2-22.4 78.5-30.1 76.7-27.8 142.5-44.5 226-57.4 34-5.2 39.2-5.7 48.8-4.3 7.8 1.2 10.2 2.7 4.2 2.7-4.1 0-13.3 5.1-15.5 8.7-1.5 2.4-3.7 3.8-9 5.7-3.8 1.4-7.3 2.6-7.6 2.6s-.1-2.4.4-5.4c.5-2.9.7-6.6.3-8.1-.6-2.5-1-2.7-4.4-2.1-7 1.2-16.4 5-19.9 8.1-2.5 2.2-4 4.9-5.7 10l-2.2 6.9-6 1.8c-7.7 2.3-7.9 2.3-5.7-1 3.3-4.8 4.3-8.2 4.3-14.7 0-6.1-.1-6.5-2.3-6.5-3.4 0-12.5 2.8-17.9 5.6-5.7 2.9-9 8.5-10.8 18.5l-1.5 7.5c-.2.6-3.4 1.9-7.2 2.9l-8.2 2.3c-.8.3-.1-1.2 1.6-3.4 3.7-4.5 5.6-11.1 5.1-17.4-.4-5.2-.7-5.3-11.9-2-11.7 3.5-16.7 8.7-18.9 20-2.4 11.9-1.6 10.9-11.5 14.1l-9.3 2.9c-.2 0 .8-1.5 2.2-3.3 4-5.2 5.6-10.1 5.6-17.2V171l-2.7.6c-8.5 1.8-16.4 4.7-20 7.3-4.9 3.5-8.1 10.9-9 20.7l-.6 6.2-13.6 4.5c-7.5 2.5-13.7 4.4-13.9 4.3-.1-.2 2.7-2.3 6.3-4.7 9.8-6.6 14.1-14.5 13.3-24.9-.3-4.3-.4-4.5-3.3-4.2-4.7.5-15 4.1-18.7 6.5-4.9 3.3-8.6 11.4-10 22.6l-1.3 9.3-19.5 6.9-20 6.9c-.3 0 2.2-1.5 5.5-3.3 10.1-5.4 18.4-11.6 21.5-15.8 3.3-4.7 5.4-13.2 4.4-18.3-.6-3.2-.9-3.5-3.3-3-14.3 3.1-21.2 6.7-24.1 12.4-2.8 5.6-4.9 14.3-5.2 22.2-.2 3.8-.7 6.8-1.1 6.8-1.1 0-50 18.2-71.1 26.5-16.3 6.3-60.6 20.8-61.4 20-.2-.2.7-.9 2-1.6 5.6-3 12.6-9.2 14.8-13.1 1.7-3.1 2.5-6.2 2.8-12.1l.5-7.9-3.4.7c-1.9.3-6.1 1.5-9.4 2.6-14 4.5-17.1 8.9-19.9 28.3l-1.1 7.9-8.5 2.8L429.5 341c-121 42.7-161.3 55.3-225.5 70.3-64.8 15.2-134.3 24.8-169.8 23.5-8.5-.3-9.2-.2-9.2 1.6s.9 1.9 23.3 1.3c49.3-1.3 108-10.6 177.5-28.2 58.6-14.9 93.1-25.8 196.7-62.5 62.9-22.3 190.7-65 194.1-65 .5 0-4.7 2.5-11.6 5.6-6.9 3-28 13.2-47 22.6-61.2 30.2-121.3 55.6-253.5 107.3l-105 40.5-83.5 31.5-60.7 22.8c-.1.2.2.8.6 1.6.6.9 4.9-.2 18.7-5.2 9.8-3.6 24.9-8.5 33.5-11.1 15.1-4.5 58.4-15.6 60.4-15.6.8.1-87.6 33.5-119.8 45.3-4.7 1.7-7.7 3.4-7.7 4.3 0 1.9 2 1.8 7.2-.4 5.2-2.3 40.3-14.2 41.5-14.2 1.5.1-7.2 4.4-17.7 8.6-5.9 2.4-10.5 4.8-10.5 5.6 0 .7.5 1.3 1 1.3 1.8-.1 12.7-3.6 29.8-9.7 27-9.5 50.3-17.3 78.7-26.3 37.8-11.8 70.8-24.1 124.5-46.3 43-17.7 106-45.2 147-64.2l91-40.7c98.1-41.5 246.8-96.4 327-120.9 44.8-13.6 115.3-28.7 207.6-44.4l31.2-5c1.3 0 1.5.7 1 3.2-.3 1.8-.7 3.4-.8 3.6-.1.1-9.6 1.8-21.1 3.8-82.4 13.9-158.2 29.9-197.9 41.9-79.3 23.9-225 77.4-327.3 120.1-32.8 13.8-46.2 19.7-77.7 34.4-89 41.5-188.3 83.6-250 106-8.8 3.2-28.4 9.7-43.5 14.4-32.9 10.2-92.5 30.7-94.2 32.4-.4.4-.4 1.3 0 1.9.5.9 5.7-.6 18.2-5.3 15.8-5.8 48.4-16.6 100-33.2C259.4 481 370.4 434.6 477 385c53.6-24.9 105.4-46.5 184-76.7 111-42.6 200.6-73.2 253-86.3 43.2-10.8 133.3-28.6 182-35.9l21-3.5 15.2-2.6c.3 0 .4 1.8.1 4l-.6 4.1 5.4-2.1c9.9-3.9 20.1-9.5 23.6-12.9 4-3.9 7.2-10.3 7.3-14.3 0-1.5.3-2.9.8-3.1 1.5-.9 28.3 8.2 36.8 12.4 18.4 9.1 44.1 27.8 62.1 45.3l6.3 6 2.9-2.8 2.9-2.8-6.9-6.5c-22.5-21.2-50.9-41.1-70.4-49.2-3.9-1.7-15.1-5.4-24.8-8.3s-17.7-5.6-17.7-5.9c0-.4 1.4-.9 3.1-1.3 2.2-.4 3-1 2.5-2.1-.3-.9 0-1.5.9-1.5 2.4 0 1.7-2.8-.7-3.2-1.4-.2-3.2-2.1-5.1-5.3-4-6.9-8.5-11.3-12.7-12.5-4-1.1-16.4-1.3-23.4-.4-4 .6-4.7 1-4.3 2.5.6 2.4-2.7 2.6-4.5.3-9-11.2-12.6-13.3-23.1-13.4-6.1 0-18.7 2-18.7 3.1 0 .4 1.2 2.1 2.6 3.8l2.6 3.1h-2.3c-1.3 0-4.5-2.2-7.9-5.4-4.7-4.5-6.5-5.6-10.5-6.2-4.8-.7-17.1-.1-23.2 1.2l-3.3.6 2.1 2.9 2 2.9h-2.3c-1.5 0-3.8-1.4-5.9-3.6-1.8-2-4.8-4.3-6.6-5-3.9-1.7-17.9-1.8-24.3-.2-6.7 1.6-33.2 1.7-52 .1-14.4-1.2-99.9-3.4-118-3.1l-35 .9zm36 3.5c-.8.1-10.3.8-21 1.4-22.2 1.2-77.7 5.3-101.5 7.5l-120.3 11.6c-10.7 1.1-19.9 1.8-20.4 1.7-.6-.2 10.1-1.9 23.8-3.7 101.9-13.4 164.9-18.7 221.4-18.8 10.7-.1 18.8.1 18 .3zm58.3 3.1c-7.8.2-20.8.2-29 0-8.1-.1-1.7-.3 14.2-.3 16 0 22.6.2 14.8.3zm-3 4.9c-14 1.7-33.1 4.8-44.8 7.4-6.1 1.3-20 2.6-43 4-58.7 3.6-118.4 8.7-238 20.5l-102.3 9c-.3-.3 0-.5.6-.5s15.7-2 33.4-4.5L672.5 126c112.4-13.2 116.6-13.6 186.5-13.7 34.5-.1 35.2 0 24.3 1.3zm66 5.1l6.1 3.8-3.7.3c-3 .3-4.6-.4-8-2.9-6.3-4.9-6.3-4.9-3.3-4.9 1.5 0 5.5 1.7 8.9 3.7zM999 117c1.1.7.4 1-2.7 1-2.3 0-4.5-.5-4.8-1-.8-1.3 5.5-1.3 7.5 0zm-93.5 2.2c-2.2 1.1-4.7 2.7-5.6 3.4-1.4 1.2-2.3 1.1-6.5-.7-2.7-1.2-4.4-2.4-3.9-2.6 1.9-.6 13-2.1 16.5-2.1l3.5-.1-4 2.1zm-208 .4l-53 6.5-147 18.9-83.5 11.9c-20.9 3.1-70 8.4-70.7 7.7-.5-.5 2.1-.8 69.2-9.6L530 139.6l174.5-21.4c2.2 0-.9.7-7 1.4zm307 1.3c-1.2 1.1-9.5 1.9-9.5.9 0-.4 1.7-.9 3.8-1.1l5.2-.5c.8-.1 1 .1.5.7zm-148 1.1c-1.1.5-2.9.8-4 .8-1.6 0-1.5-.2.5-.8 3.4-1.1 6-1.1 3.5 0zm232.7 4.3c2.1 1.7 3.8 3.2 3.8 3.3 0 .3-3.9-.2-10.6-1.2-2.7-.4-5.4-3.4-5.4-6 0-1.6 8.9 1.3 12.2 3.9zm-44.9-1.8c3.3.7 6.2 1.6 6.5 1.9s-2.5.6-6.1.6c-3.7 0-6.7-.2-6.7-.4s-.3-1.1-.6-2c-.7-1.9-.5-1.9 6.9-.1zm-32.1 1.5c1.8 1.1 2.8 2 2.2 2s-8.1.7-16.7 1.6c-8.7.8-17.2 1.4-19 1.2-2.7-.3-2.2-.6 3.8-2.2 3.9-1 11.1-2.4 16-3.1l9.7-1.4c.4 0 2.2.8 4 1.9zm-51.2 0c-.8.5-3.7.9-6.5.8l-5-.1 4.5-.7c7.3-1.1 8.8-1.1 7 0zm-135 3.6c-20 5.5-37.6 10.9-67 20.3-15.1 4.9-30 9.4-33 10.1-6.1 1.3-84.6 24.7-132.4 39.4-17.1 5.3-31.2 9.4-31.4 9.2-.2-.3 5.4-2.3 12.5-4.6l33.8-11c83.7-27.3 218.3-66.9 227-66.9 1.7 0-2.6 1.6-9.5 3.5zm38-3.2c0 .2-1.7 1.4-3.7 2.6l-3.6 2.1 2.9 2c2.7 1.7 2.7 1.9.7 1.9-1.2 0-4.3-1.1-6.9-2.5-2.9-1.6-6.4-2.5-9.3-2.6l-4.6-.1 7-1.8c6.3-1.6 17.5-2.6 17.5-1.6zm42.5 1.6c.3.5-.3 1-1.4 1s-2.3-.5-2.6-1c-.3-.6.3-1 1.4-1s2.3.4 2.6 1zm224 4.1l4 3.9-4-.1c-2.2 0-6.2-.6-9-1.3-4.7-1.1-4.9-1.2-2.7-2.4 1.8-1.1 2-1.6 1.1-3.3-1-1.9-.8-2 2.8-1.3 2.5.4 5.2 2 7.8 4.5zm-158.2-2.4c-.7.2-2.1.2-3 0-1-.3-.4-.5 1.2-.5 1.7 0 2.4.2 1.8.5zm-139.8 3c-2.2.9-7.2 3.6-11 5.9l-7.1 4.2-5.1-1.7-5.1-1.7 14.6-4.1c15.7-4.4 20.2-5.2 13.7-2.6zm81-.7c-1.1.5-3.1.9-4.5.9-2 .1-2.2-.1-1-.9.8-.5 2.9-.9 4.5-.9 2.6 0 2.7.2 1 .9zm-355 .5c-.5.2-8.6 1.3-18 2.5l-61.7 8c-60.7 8.1-62 7.6-3.8-1.4 31.9-5 89.4-11.2 83.5-9.1zm481.5 4.6c-5 1.9-6.2 1.9-14.2.8-4.8-.6-8.5-1.6-8.2-2 .3-.5 6.7-.9 14.2-.8h13.7l-5.5 2zm37.5-1.1c21.7 1.9 21.8 2.1 2.5 4.5-11.7 1.5-17.7 1.9-18.1 1.2-.5-.6-3.4-.8-8-.3-4.1.3-8.7.2-10.4-.2-2.9-.8-2.7-1 4.5-3.4 8.4-3 13.4-3.3 29.5-1.8zm-208 2c.4.6-.9 1-3.2.9-3.4-.1-3.5-.2-1.3-.9 3.5-1.1 3.8-1.1 4.5 0zm-417.8 3.6c-.3.3-1.2.4-1.9.1-.8-.3-.5-.6.6-.6 1.1-.1 1.7.2 1.3.5zm678.3 2.9c8 1.8 17.4 4.3 21 5.3l6.5 1.9-4 1.2c-2.2.6-7 1.1-10.7 1.1-6.6 0-6.8-.1-6.8-2.5 0-1.4-.6-2.5-1.2-2.5-4.1 0-15 2.3-19.4 4.1-3.5 1.4-6.8 1.9-10.5 1.7l-5.4-.3 9.8-2.4c10.1-2.4 11.1-2.9 9.9-4.8-.7-1.1-8.2.4-17.4 3.3-1.4.4-1.5-.1-1.1-3.6.7-4.7.3-4.8-10.6-2.9-9.3 1.7-14.4 4.1-17.7 8.6-1.5 2.1-3.1 4.2-3.6 4.7-.4.5-3 1.2-5.8 1.6-4.4.6-5 .4-4.4-.9 1.9-4.5 3.3-8.8 3.4-10.2 0-1.3 2.5-2 13.3-3.4 32.2-4.3 36.8-4.3 54.7 0zm-90.6-.6c1.7.6 1.4 1-2 2.3-2.1.9-5.9 1.9-8.2 2.3-3.9.6-4.3.5-4-1.1.6-3 9.6-5.3 14.2-3.5zM787 145.5c0 1.4-15.6 6.3-16.7 5.1-.2-.2 3.1-1.5 7.4-2.9 8.6-2.7 9.3-2.9 9.3-2.2zm36-.1c0 .9-4 1.3-4.6.5-.3-.5.6-.9 2-.9s2.6.2 2.6.4zm210 6.2c0 .5-4.7 2.6-8.7 3.8-1.8.6-2.2.4-1.7-.8.3-.8 2.5-1.9 4.7-2.5 5.5-1.2 5.7-1.2 5.7-.5zM778.5 154c-.3.5-2.3 1-4.3.9-3 0-3.3-.2-1.7-.9 2.8-1.2 6.7-1.2 6 0zm250.3 7.1c-1.3 3.1-1.8 3.3-10.1 4.9-4.8.9-8.7 1.6-8.7 1.5 0-1.5 18.8-11 19.8-10 .2.1-.3 1.8-1 3.6zm113-3.4c-1.7 3.7-4.6 7.4-6.1 7.9-2.6.8-2.7.4-1.4-4.4 1-3.9 1.4-4.2 4.5-4.2 1.8 0 3.2.3 3 .7zm-37.3 6.7l-3 6.5-9 1.6-12 2.1c-2 .4-.2-1.1 5.8-4.5 4.8-2.8 9.5-5.1 10.5-5.1 3.4 0 6.2-1.3 6.2-2.7 0-1.1-.8-1.4-3-1.1-2 .3-3 0-3-.8 0-1.1 2.3-1.8 8.5-2.2 2-.2 1.9.1-1 6.2zM742 160.9c-2 1.2-13.3 4.1-13.8 3.6s11.7-4.4 13.8-4.4c1.3 0 1.3.1 0 .8zm248.7 2.9l-1 3.8-16.6 5.9-18.1 6.3c-.8.2 1.1-1.2 4.3-3.2 8.1-4.9 15.5-10.4 15.9-11.8.2-.6 3.5-1.9 7.4-2.9 9.7-2.4 9.3-2.5 8.1 1.9zm76.1.9c-.3 1.4-2.7 2.2-11.8 3.9-6.3 1.2-11.7 2.1-11.8 1.9-.8-.8 4.9-3 12.8-5.1 10.6-2.8 11.2-2.8 10.8-.7zm-40.2 4c-.8.8-104.9 27.3-105.4 26.8-.8-.8 37.7-13 50.3-15.9 40.6-9.4 56.8-12.6 55.1-10.9zm108 4c-1.2 3.6-1.4 3.7-8.7 4.9-4 .7-7.5 1.1-7.7.9s1.3-1.3 3.5-2.3c2.1-1.1 4.7-2.9 5.8-4 2.3-2.1 4.2-3 6.7-3.1 1.5-.1 1.6.3.4 3.6zM948 177.3v4.3l-13.2 3.8c-18.5 5.2-60.5 17.9-97.8 29.7-17.2 5.5-31.8 9.8-32.2 9.7-.9-.3 10-4.3 83.2-30.4l56.5-20.4c3.3-1.4 3.5-1.2 3.5 3.3zm117-3.7c0 2.5-2.5 4.2-7.2 4.8-17 2.3-90.7 16.5-127.8 24.7-38.3 8.4-58 13.9-99.3 27.5-12.6 4.2-23.1 7.3-23.4 7.1-.8-.9 70.4-23.6 105.6-33.7 27.3-7.8 57.2-14.2 116.6-24.9l27-4.9c6.2-1.2 8.5-1.4 8.5-.6zm-386.1 3.8c-1.1 1.2-32 11.5-57.4 19.2l-129 39.5-41.4 13c-14.1 4.6-17.7 4.6-4.4.1l18.8-6.5c13.5-4.8 74.3-23.6 159-49.2l42.5-13c10.3-3.3 12.8-3.9 11.9-3.1zm226 7.1c-.4.4-18.6 6.8-25.4 9-1.1.3-.6-.2 1-1.2 4.6-2.7 26.3-9.7 24.4-7.8zm-38.1 12.6c-.2.6-2.6 2-5.3 3l-50.2 18.3c-26.6 9.7-52.1 18.3-62.3 21.1l-32.7 9c-8.6 2.5-15.8 4.4-15.9 4.2-.8-.7 61.8-23 103-36.7 14.3-4.7 19-5.9 19.6-5 .6 1 2.2.5 6.6-2 5.2-2.9 32.8-12.7 36.2-12.9.8-.1 1.2.4 1 1zm21 6.4c-.7.7-14 4.5-15.3 4.4-1.2-.1 12.4-4.7 14.4-4.8.8-.1 1.2.1.9.4zm-300.8 8c-2.9 1.2-95.3 36.1-134 50.7-61.9 23.3-116.3 40.8-179.5 57.6-32 8.6-67.6 17.4-68.2 16.9-.2-.2 5.4-2.4 12.4-5l45.3-16.2c61.2-21.9 123.3-42.7 183-61.3l115.1-35.6 24-7.5c1.3-.5 3.1-1 3.9-1s-.1.6-2 1.4zm226 19.1c-27.9 10.2-51.7 18.4-112.5 38.9-32.7 11-78 28.8-128.4 50.5-11.7 5-21.5 9-21.7 8.7-.5-.4 31.5-15.5 54.1-25.4 46.1-20.3 113.7-45.6 185-69.3 18.2-6.1 48.8-14.6 53-14.8 1.1-.1-12.2 5-29.5 11.4zm-22.1 12.8c-.8.8-43.3 15.6-43.6 15.2-.4-.4 15.5-6.3 32.2-12 9.7-3.3 12.3-4.1 11.4-3.2zm-65.4 6.6c-1.1.5-16.2 6.4-33.5 13-54.7 21.1-107.1 43.1-234.5 98.5C260.7 447.1 204.4 469.8 166 479l-22.5 5.5c-4.9 1.3-9.1 2.2-9.3 2.1-.1-.2 9.1-3.8 20.5-8.1L386 388.8c86.9-34.8 118.6-48.6 173-75.3 62.4-30.6 85.6-40.4 117.5-49.9 50-14.8 54.8-16.1 49-13.6zM282 305.1l-94 34.1c-9.8 3.7-25 8.1-25.7 7.4-.5-.5 45.3-17.6 83.5-31.2 17.6-6.3 54.9-18.2 57.2-18.2.8-.1-8.6 3.5-21 7.9zM198.5 329c-1.1.5-15.5 5.9-32 12-24.8 9.3-32.6 11.7-45 14.2l-52.2 9.5c-.1-.2 10-3.1 22.5-6.5l85.7-24.1c18.7-5.5 25.8-7.2 21-5.1zm342.4.4c-2 2.1-43.1 21.3-73.4 34.3-36.8 15.9-104.5 43.6-105.1 43-.2-.2 4.3-2.2 9.9-4.6L537 330.4c2.4-1.3 4.8-1.9 3.9-1zM350.5 416c-.3.5-1.2 1-1.8 1-.7 0-.6-.4.3-1 1.9-1.2 2.3-1.2 1.5 0zm-4.5 1.9c-4.7 2.7-64.5 27.5-75 31.1-6.9 2.3-22.8 8-35.4 12.6s-23.1 8.2-23.3 8c-.2-.1 11.3-4.7 25.4-10.1L342 418.7c3.8-1.7 6.4-2.2 4-.8zm-73.1 34.5c-.7.7-39.3 16.5-58.9 24.1-22.8 8.8-62.9 22.1-61 20.1.5-.5 32.5-12.7 55.5-21.2l37.5-13.8c24-8.9 28-10.2 26.9-9.2zM207 472c-.8.5-1.9 1-2.5 1-.5 0-.3-.5.5-1s2-1 2.5-1c.6 0 .3.5-.5 1zm518-264.7c-8.9 3-12.8 6-15.6 12.1-2.3 5.1-5.4 23.9-4.2 25.2.9.9 13.4-6.1 21.1-11.7 8-5.8 11-11.3 11.5-21.2l.4-6.7-3.3.1c-1.9 0-6.3 1-9.9 2.2zm-34.7 12.1c-9.4 3.1-13.1 5.8-15.9 12-3.1 7-5.9 25.6-3.8 25.6 1.6 0 14.6-7.6 20.5-11.9 8.1-6 11-11.2 11.7-21.2l.5-6.9h-2.9c-1.6.1-6.1 1.1-10.1 2.4z"/></svg>