<svg xmlns="http://www.w3.org/2000/svg" width="1706.667" height="1681.333" viewBox="0 0 1280 1261" preserveAspectRatio="xMidYMid meet" xmlns:v="https://vecta.io/nano"><path d="M625.7 1.1c-4.6 2.7-5.7 9.6-4.8 28.9.3 5.3-.1 7.5-2.3 12-1.4 3-2.6 6.6-2.6 7.9s-1.2 6.2-2.6 10.9c-3 9.8-3.2 15.8-1 25.2 2.4 10.1 2.1 15.4-1.3 21.4-1.6 2.8-3.8 7.5-4.9 10.4-2.6 6.8-5 10.4-6.4 9.6-.7-.5-.7-.8.1-1.3 1.4-.9 1.6-12 .1-15.6-.6-1.6-2.6-9.5-4.5-17.5-1.8-8-4.5-17.9-6-22-1.4-4.1-3.9-12.4-5.6-18.3-3.3-12.1-5-15.9-8.7-19.9-3.1-3.3-4.2-2.8-4.2 2 0 2-.5 7.2-1.2 11.7-1 7.3-1 8.6 1 14.7 2.5 7.5 7.1 15.9 15 26.8 6.6 9.1 9.8 15.3 10.7 20.6.9 5 .3 4.3-7-7.6-15.8-25.9-28.5-36.9-47.8-41.7-7.5-1.8-13.9-1-14.5 1.7-.5 2.8 6.1 8.1 15.6 12.8 7.3 3.5 10.4 5.8 14.5 10.3 2.9 3.1 8.6 8.5 12.7 12 10.1 8.5 17 14.8 19.9 18.2 2.4 2.9 10.4 23.5 9.5 24.8-.2.4-1.5 7.2-2.8 15.1-2.3 13.4-3.9 19.8-5.1 19.8-.2 0-3.6-4.6-7.4-10.3-8-11.8-10.2-14.3-15.3-18.1-2.1-1.5-6.4-6.2-9.7-10.4-6.4-8.4-11.9-12.3-20.5-14.2-5.7-1.3-32.6-.2-32.6 1.2 0 1.9 6.3 6.8 12.4 9.7 3.3 1.6 9.5 3.6 13.6 4.6 10.1 2.2 16.6 5.3 25.8 12.3l14.7 11.1c9.2 7 11.7 9.3 10.6 10-.5.3-1.1 2.1-1.2 4-.4 3.2-.1 3.5 2.7 4.3 5 1.3 5.9 3.2 6.1 12.7.1 5.2.8 10.4 1.8 13.1 1.2 3.3 1.5 6 1 10-.4 3-1 15.5-1.4 27.8-.5 12.2-1.1 22.5-1.4 22.8s-2.7-1-5.4-2.9c-15.5-11-34.5-17.7-50.4-17.7-6.2 0-9 .6-15 3-9.7 4.1-15.3 7.4-17.2 10.4-1.6 2.4-1.6 2.6 1.1 4.7 2.4 1.9 3.5 2.1 10.7 1.5 4.4-.3 12.6-1.4 18.2-2.6 7.2-1.4 14.7-2 25-2.1 16.2-.1 21.2 1 29.4 6.7l3.9 2.7.1 18.1c.1 31.9 1.5 57.6 3.4 62.6.9 2.5 1.9 6.3 2.1 8.5.6 6.1 1.3 8.6 3.5 11.6 3.5 5 2.4 7.6-6.3 14-2.9 2.2-9.3 8.8-14.3 14.6-4.9 5.9-11 12.1-13.5 13.8s-6 5.1-7.7 7.6c-8.1 11-15.1 17.4-17 15.5-1.3-1.3 1.6-7.8 7.6-16.9 6.7-10.1 9.1-15.1 9.1-19 0-3.4-2.7-.1-5.2 6.4s-5.3 10.7-6.3 9.7c-.8-.8 1.1-19.1 3.1-29.7.7-4 2.7-10.9 4.4-15.2 1.8-4.8 3-9.7 3-12.6 0-3.2.7-5.9 2.2-8.3 1.8-2.8 2.4-5.5 2.8-13.2.3-5.3.9-10 1.3-10.5.9-.8 3.8 2.4 6.3 7.1 1.4 2.5 1.5 4.2.4 12.5-1.3 10.6-4.1 25-7 35.1-2.6 9.4-2.9 11-2 11 1.3 0 6.9-17.9 7.4-23.6.3-2.8 1.5-8.9 2.7-13.5 2.8-10.6 3.2-23.2.8-25.1-.9-.7-2.9-3.2-4.3-5.6-1.4-2.3-3.2-4.2-4-4.2-2.2 0-4.5 3.4-6.8 10.1-1.1 3.5-4 9-6.4 12.2s-4.8 7.7-5.4 10l-4.1 15.8c-3.5 13.1-3.6 19.5-.4 37.2 1.7 9.7 1.7 9.8-.5 16.5l-2.1 6.9-4.7-1.2c-4.5-1.1-4.9-1.4-8.4-8.4-3-5.8-3.8-8.5-3.8-12.8 0-2.9-.9-7.9-2.1-11.1-4.1-11.3-5.3-17.4-8.9-45.7-2.6-20.4-4.9-24.6-9-16.5-3.1 6-5 15.6-5 25 0 10.9 2.5 32.7 4.1 36.5 2 4.6 6.6 11.2 14.8 21l7.5 9-4.5.6c-2.4.4-6.9 1.6-9.9 2.7s-6.6 2.3-8 2.6c-4 .9-8.1 10.6-4.5 10.6.9 0 2.4-1.9 3.5-4.4 1.7-4.1 2.2-4.5 7-5.5 7.3-1.6 7.8-1.5 7.2 1.4-.7 3.9 2.1 3.1 4.1-1.1 1.5-3.1 2.1-3.5 5-3.2 2.8.3 3.6 1 5.9 5.8 3.3 6.6 3.4 10 .7 16-2.2 4.9-14.9 22.2-17.8 24.2-1 .7-2.1 2.4-2.6 3.8-.4 1.4-1.8 4.4-3.1 6.7s-3.9 7.8-5.8 12.2c-5 11.7-6.7 13.7-16 18-10.4 4.9-15.3 9.3-26.7 24.3-8.6 11.3-9.3 12-10.1 9.7-1.3-3.4-.2-10.3 3.2-20.8 6.4-19.4 11.6-59.3 8.7-66.5-.7-1.8-1-1.7-3.8 1-5.4 5.1-9.8 13.8-14.5 28.5-4.2 13.1-6.4 18.3-6.4 15.2 0-.7-3.1-4.6-7-8.7-8.7-9.4-10-12.4-10.1-23.5 0-4.7-.5-11.1-1-14.1-2.2-13.1-2.2-13.1 1.5-24.8 2.3-7.3 3.6-13.3 3.6-16.9 0-3 1.1-10.2 2.4-16.1 3.3-14 3.9-19.8 2.9-24.7-2-9.3-8.4-1.2-14.8 18.7-6 18.8-6.3 21.7-3.4 32.7 1.8 6.8 2.1 9.4 1.3 11.2l-1.1 2.4-1.5-3c-.9-1.7-3-7-4.7-12-3.8-10.6-8-19.2-12.7-25.7-1.8-2.6-3.6-6-4-7.5-.3-1.5-1.9-6.2-3.5-10.3-3.4-8.9-4.8-15-4.9-20.6 0-2.7-.6-4.7-1.9-5.8-1.8-1.6-1.9-1.4-4.1 6.6-2.9 10.7-2.9 19.8 0 31.3s4.9 15.4 10.4 20.1c2.4 2.2 6.5 7.1 9 11 4.3 6.8 10.6 13.4 12.7 13.4 1.3 0 4.2 7 6.8 16.1 2.1 7.5 5.4 25 4.8 25.5-.6.7-7.6-9.5-15.6-22.6-4.4-7.4-9.2-14.8-10.5-16.5l-2.4-3-1.2 4.4c-1.7 6.4-.5 12 4.6 22 7.6 14.9 13.4 21.5 26.4 30.4 16.5 11.1 17.9 12.7 19.1 21.6.6 4 2.8 13.4 5.1 20.9 2.2 7.5 4.2 16.4 4.5 19.7.5 6.4.4 6.4-6.4 15.4-1.9 2.5-3.6 6.4-4.3 9.5-.6 3-1.7 6.2-2.5 7.2-1 1.3-1.4 4.8-1.5 11.7 0 7.9.5 11.1 2.5 16.9 1.4 3.9 2.5 9.2 2.5 11.7 0 9.2-1.6 7-4.8-6.7-4.5-19.3-11-33.4-20.1-43.5-4.4-4.9-5.5-4.8-4.7.5.4 2.4.9 5.6 1 7.3.1 1.6 1 5.2 1.9 8 .9 2.7 2.8 10.1 4.2 16.4s3.3 13 4.1 14.9c1.8 4.4 1.9 3.9-1.6 5.7-1.7.9-2.8 2-2.4 2.6s1 .6 1.9-.1c2.2-1.8 3.6-.3 2.5 2.6-.6 1.4-1 4.2-1 6.2 0 3.1-.5 4-2.7 5-1.6.7-4 2-5.5 2.9-1.5 1-3 1.4-3.4 1.1-1-1 1.4-6.3 3.8-8.5 2.6-2.3 5.2-7.3 3.8-7.3-1.8 0-8.7 6.9-10 10-1.1 2.6-1.8 3-4.9 3-7.4 0-12.7 6-14.6 16.2l-.7 3.7-9.7-9.7c-5.3-5.4-11.5-10.8-13.8-12l-4.3-2.3v2.2c0 2.2 5.5 12.1 16.9 30.4 6.1 9.8 17.5 22.2 23.1 25 7 3.5 14 8.8 17.2 12.7 1.7 2.2 4.6 7.9 6.4 12.5l3.1 8.5-3.3 5.6c-1.9 3.1-3.4 6-3.4 6.5 0 .6-2.9 6.9-6.4 14.1s-8 17.8-10 23.5c-4.9 13.9-8.2 19.9-17.7 31.1-4.4 5.2-10 12.7-12.5 16.7-5 7.9-7.8 9.6-17.6 10.9-2.9.4-6.6 1.3-8.3 2.2-1.6.8-6.1 2.1-10 2.9-10.3 2.1-25.1 9.8-40 20.8-7.1 5.3-17 12.3-22 15.6-13.1 8.6-13.5 8.9-14.7 11.5-1.1 2.3-1.4 2.4-9.2 1.8-9.8-.8-24.7.9-32.9 3.7-11.5 3.9-19.8 11.4-22.7 20.4-2.1 6.5-6.8 10-18.9 13.9-18.2 5.9-28.5 7-40.6 4.2-5.3-1.3-6.2-1.3-7.7.1-1.5 1.3-5.4 1.7-22 2-11.2.2-25.2-.1-31.3-.7-25.6-2.3-32.1-3-37.5-4.2-4.2-.8-6.4-.8-8.9 0C18.2 941.5 5 950.2 5 951.7c0 1.8.1 1.8 6-2.2 5.6-3.8 12-5.9 14.9-5 1.7.5 4.1 4.4 4.1 6.6 0 .5-1.6 2.5-3.5 4.4-3.4 3.5-3.5 3.5-12.7 3.6-5.1.1-10.4.4-11.8.8-4.1 1.1-.4 2.6 7 2.7 3.6 0 12.8.4 20.5.9l18.4.7c2.4-.1 12.8 1.3 23 3 23.2 3.8 34.9 4.1 44.4 1 5.9-1.9 7.5-2 11.8-1.1 3.9.9 8 .7 18.7-.6 16.6-2.1 26.6-4.5 34.5-8.5l5.9-2.9 5.9 1.6c3.3.9 6.2 1.3 6.6.9.4-.3-.1-2-1-3.5-2.4-4.2-2.1-5.7 1.6-7.4 4.9-2.4 25.7-7.8 26.9-7.1.5.4 6.1 1.2 12.3 2 9.6 1.1 12.1 1.1 16.6-.2 9.7-2.5 17.6-1.9 31.1 2.7 8.6 2.9 16.8 4.7 28.6 6.5 21.6 3.1 27.4 4.8 30.1 8.5 1.3 1.7 3.1 2.9 4.4 2.9 1.4 0 2.8 1.1 3.8 2.9.9 1.6 3.9 4.1 6.5 5.7 2.7 1.5 9 6.6 13.9 11.4 8.6 8.2 14.5 12 20.9 13.6 5.1 1.2 2.5-1.9-3.4-4-3.8-1.4-7.6-4.1-13.9-10.1-4.7-4.5-11.4-9.8-14.8-11.9-4.2-2.5-6.5-4.6-6.9-6.2-.4-1.4-.5-2.7-.3-2.9s2.4.1 4.9.5c2.5.5 7.6.9 11.3 1 4.2 0 8 .6 9.9 1.6 2.4 1.3 3.6 1.4 5.6.5 2.2-1 3.8-.5 13.7 4.4 6.2 3.1 12.4 6.8 13.8 8.3 4.3 4.5 13.8 22.9 14.7 28.5 1.3 7.9 2 10.4 6.1 20.5 4.8 11.7 13.6 21.9 24.9 28.8 4.1 2.6 9.5 6.5 12 8.8s7.4 5.9 11 8c6.7 4 28.5 13.6 30.7 13.6 4.4 0-2.4-4.5-17.9-11.9-7.3-3.4-12.5-6.7-16.5-10.4-3.2-3-8.3-6.6-11.3-8.1-10.9-5.4-18.7-12.9-25.6-24.3-4.2-7-7.2-15.5-5.5-16.1s1.3-2.7-.9-4.7c-1.1-1-2-2.8-2-3.9 0-1.2-1.1-5.6-2.5-9.8-1.3-4.3-2.2-8.4-1.9-9.1.8-2.2-8.9-12-18.1-18.3-4.7-3.2-8.3-5.9-8.1-6.1.1-.2 4.3.8 9.2 2.3 12.9 3.7 26.4 11.1 37.3 20.5 5.1 4.4 10.2 8.4 11.2 9 2.6 1.3 2.5 6.4-.2 13.1-6.1 15.3 2.8 37 20.6 50.3 3.3 2.5 6.4 4.5 6.9 4.5 2.2 0-.4-11.1-4.7-19.7-6.7-13.2-13.6-30.6-15.1-37.8l-.6-3 2.6 3c7.6 8.9 27.6 41.7 31.3 51.5 1.1 2.9 3.5 6.8 5.2 8.6 3.5 3.6 10.1 19.6 12.6 30.4 1 4.3 2.5 7.5 4.3 9.5l2.8 3-2.1 4c-1.8 3.3-2.2 5.6-2.2 13.6v9.6l-10 10.5c-5.9 6.2-11.8 13.7-14.5 18.2-3.7 6.3-4.8 7.5-6.5 7.1-7.7-2.2-9.5-1.9-13.7 2.1-13.1 12.7-12.3 32.6 1.3 30 1.9-.3 6.7-3.1 10.7-6.1 4.7-3.6 7.2-5 7.2-4 0 3.3 2.1 1.2 5.4-5.3 5.5-10.9 8.5-19 11.6-30.9 2.5-9.6 3.4-11.7 6.2-14.2 3-2.7 3.4-2.8 5.1-1.4 2.1 2 2.3 1.8 2.9-3.3.4-2.6.1-4.7-.8-5.9-.8-1-1.4-3.7-1.4-5.9 0-4.2 3.8-13.3 5-11.9.3.4 3.3 7.3 6.5 15.3s7.6 18.1 9.8 22.5c3.7 7.5 4 8.7 4.4 18.4.4 9.9.3 10.5-2.2 13.7l-2.7 3.5.4 17.7.3 17.8 3.3 6.6c2.9 6 10.8 14.8 13.2 14.8 1.1 0 5-11.8 5-15.1 0-1.5-.9-4.9-2-7.5-1.2-2.6-3-10.2-4.1-16.8-1.4-8.2-2.8-13.5-4.5-16.3-2.6-4.6-3-7.8-1.3-13.8l1.1-3.9 2.1 2.4c1.1 1.4 3.8 6.3 6 11 5.1 11 12 21.3 16.3 24.6 2.9 2.2 3.4 3.3 3.4 6.7 0 5.2 2.9 11.3 7.8 16 4 3.9 35.5 20.1 46.1 23.7 9.3 3.1 23 5.3 33.6 5.4 10.7.1 15.5-1.4 20-6.4l2-2.2-5.1.7c-4.5.6-6.3.2-13-2.5-9.3-3.8-33.5-9.5-46.6-11.1-21.7-2.6-28.9-4.6-34.7-9.5-3.4-2.8-4.3-6.1-1.3-4.9 6.2 2.4 18.8 5.4 25.3 6 5.8.5 9.1.3 14-1 3.5-1 9.6-2.3 13.4-3 7.9-1.3 11.7-3 19.3-8.7 3.6-2.6 5.1-4.3 4.4-5-1.2-1.2-21.2-4.8-27-4.8s-11.5 1.5-25.4 6.7c-9.1 3.3-13.2 4.3-18.2 4.4-7.6.1-8.6-.3-8.6-4 0-2.2-1.1-3.8-4.5-6.5-6.2-5.1-12.2-13.9-19.5-28.6-3.4-6.9-6.7-13.2-7.3-14s.1-.4 1.7 1c1.5 1.4 4.2 5 6 8 3.8 6.5 8.3 9.4 27.6 17.9 18.9 8.3 27 9.7 32.6 5.6 1.7-1.2 1.3-1.8-4.7-7.8-7.9-7.8-12.6-10.3-31.1-16.3-24.5-7.8-33.2-12-38.1-18.5-1.4-1.9-6.9-13-12.2-24.8-8.1-17.8-9.6-21.9-9.1-24.6.6-3.1.4-3.4-2.8-4.6-3.8-1.4-4.8-3-7.1-12.1-.9-3.5-3-8.3-4.5-10.8-1.6-2.5-3.6-6.6-4.5-9-.9-2.5-2.9-5.8-4.4-7.5-1.6-1.6-4.2-5.7-5.8-9s-6.2-12.2-10.2-19.8-7.2-14-6.9-14.2c.2-.2 2.3.5 4.6 1.5 3.4 1.5 5.2 3.4 9 9.5 6.6 10.6 22.5 31.7 26.2 34.9 2.5 2 4.2 2.6 8.1 2.6 4.5 0 4.9-.2 4.9-2.3 0-1.3-1.4-5.2-3.2-8.7-6-12.2-25.6-29.2-47.7-41.6-2.9-1.7-5.9-4.4-7.6-7.1-1.5-2.4-6.4-7.6-10.9-11.6l-16.1-14.9c-9.2-8.9-13.1-11.8-21.9-15.9-11.4-5.3-23.5-7.7-45.3-8.9-20.1-1.1-32.3-2.6-32.3-4 0-.8 3-2.1 9.9-4.2 2.5-.7 4.7-1.9 4.9-2.7.8-2.5-7.5-.5-13.6 3.2l-5.7 3.5-11.5-3.3c-6.4-1.8-15.4-3.9-20-4.6-4.7-.7-9.1-1.7-9.9-2.3-.7-.6-3.9-1.1-7-1.2-3.4-.1-9.8-1.6-16.3-3.8-11.7-3.9-15.1-4.2-24.8-2.1-8.5 1.9-14.2 1.9-18.8-.1l-3.7-1.5 14-7.2c16.8-8.7 24.5-14.1 24.5-17.4 0-1.3.6-2.3 1.3-2.3s14.1 2.2 29.9 5l29.2 5c.3 0 .6 1.1.6 2.3 0 3.1 1.9 4.7 10.8 9.2 7.4 3.8 40.6 12.9 44.6 12.3 2.9-.5 4.3-3.3 2.5-5.4-3.2-3.9-22.2-9.6-41.4-12.5-4-.6-8.1-1.8-9.5-2.9l-2.5-2 4 .1c2.2 0 6.2.4 9 .8 2.7.5 5.9.5 7 .1 1.4-.5-.1-1.1-5.5-2-4.1-.6-23.3-4.1-42.5-7.5L270 902c-12.9-1.6-13.1-1.7-8.3-4.4 2.3-1.3 11.9-8.2 21.5-15.2 19.7-14.7 28.8-20.2 39.7-24 4.2-1.4 9.9-3.7 12.7-5s6.2-2.4 7.5-2.4 6.1-.9 10.7-2c9.2-2.2 15.3-2.5 18.2-1 1.3.7 2.7.6 4.4-.2 3.1-1.4 3.3-2.9.6-5.3-3.5-3.2-2.6-6.5 3.6-12.5 10.3-10.1 18.2-24.1 25.9-46 2.1-5.8 7.8-18.4 12.7-28l9-17.5 5.7-1.2c17.5-3.6 42.4-17.5 59.3-33.1 10.1-9.4 23-24.4 25.4-29.7 2.1-4.5 2.4-9.5.5-9.5-2.8.1-20.8 11.7-33.3 21.5-20.5 16.2-22.3 17.9-27.8 26-6.6 9.7-10.4 13-20.6 18-4.9 2.4-9 4.3-9.1 4.1-.2-.1.9-3.6 2.3-7.7s5.2-17.5 8.5-29.9c9.3-35.1 8.6-33 11.9-33 4.5 0 15.1-3.7 20.5-7.1 7.5-4.7 27.9-25.6 30.8-31.5 5.2-10.4 7.6-29.3 4.7-36.3-1.4-3.6-2.1-3.7-6.1-1.4-2.1 1.2-4.4 4.6-7.5 10.8-2.5 4.9-6.3 11.8-8.5 15.2s-6.7 12.1-10 19.4c-7.1 15.9-11 22.2-15.2 24.8-4.1 2.5-13.6 3.4-12.2 1.2.3-.6 1.2-6.1 2.1-12.3.8-6.2 2.4-14 3.5-17.2 2-5.8 1.9-10.8-.1-7.6-1.5 2.4-2 .6-1-3.2.6-1.9 1.9-4.3 3-5.3 1.2-1.1 2-3.1 2-4.8 0-6.8 6.8-26.6 22.8-67 .5-1.2 6.3-4.2 15.7-8.3 17.5-7.5 22.9-10.3 30.8-15.6 6.3-4.3 17.7-15 17.7-16.6 0-.6-2.4-1.6-5.4-2.2-4.3-.9-6.7-.8-12.7.5l-15.1 3.3c-4.2.9-8 1.3-8.4 1-.3-.4.3-1.9 1.4-3.5 1-1.5 4.4-8 7.4-14.3s6.2-12.1 7.1-12.9c.9-.7 3.6-1.4 5.9-1.6 2.4-.2 6.5-1.2 9.1-2.4 2.7-1.2 6.7-2.4 9-2.7 2.3-.4 8-2.5 12.6-4.7 6.4-3.1 10.1-4.2 15.5-4.7 8-.7 7.5-.5 21.2-9.3 14.9-9.8 27.4-19.1 27-20.2-.5-1.7-13-1.7-20.1 0-13.5 3.1-26.5 10.4-45.5 25.6-5.5 4.4-11.1 8.4-12.4 8.8-1.2.5-4.4 2.3-7.1 4-4.6 2.9-8.4 3.9-9.8 2.5-.6-.6 6.2-9.8 17.9-24.4 2.9-3.6 7.2-8 9.7-9.8 3.1-2.4 4.3-3.9 4-5.2-.3-1 0-2.1.6-2.4.6-.4 1.1 0 1.1 1 0 2.7 2.5 0 9.1-9.6 6.2-9.2 9-12.5 12.9-15.5 1.4-1.1.7-.1-1.4 2.3-2.2 2.3-3.7 4.4-3.5 4.7 1.1 1 8.6-6.5 10.4-10.5 1-2.2 2.1-3.7 2.4-3.1.9 1.4 13.1-10.5 13.1-12.8 0-2.4 2.8-5.4 4.1-4.5.6.4.3 1.4-.7 2.5-.9 1-1.2 1.9-.6 1.9s1.4-.5 1.7-1c1.3-2.2 3.3-.8 4 2.7 1.3 7.2 11.5 31.6 13.8 33.2 5.3 3.8 9.5 8.3 10.1 11.1.3 1.6 2.6 6.5 5.1 10.7 5.2 8.9 7.2 15 5.6 16.6-1.4 1.4-4.6-1.6-9.2-8.4-2-2.9-4.6-5.3-6.3-5.9-4.2-1.4-4.6-.3-1 2.8 1.7 1.5 4.7 4.8 6.8 7.4 2 2.7 5.7 5.9 8 7.3 4.2 2.4 4.4 2.8 7.5 13.3 5.1 16.9 8 24.6 11.8 30.9 5.4 9.1 8.9 27.7 10.8 57.8.6 9.6.6 9.9-1 7-2.6-4.8-6.5-8.3-11.2-10.1-2.9-1.2-4.3-2.3-4.3-3.5 0-2.2-1.1-2.4-2.9-.7-1 1.1-2 .5-5-2.9-7-7.8-8.5-20.8-4.5-39.9 3.3-15.9 3.6-26.3 1-32.2-1-2.3-2.3-4.2-2.8-4.2s-2 2.6-3.4 5.7c-1.4 3.2-4.5 9.8-7 14.8l-4.5 9 2.1 9c2.5 10.1 6.4 22.5 8.7 27 .9 1.6 3.1 4.7 5 6.8 4.1 4.5 3.9 6.1-.8 6.5-5.2.4-7.9 1.1-7.9 2.2 0 .6 1.8 1 4 1 4.2 0 4.9.7 2.8 2.9-.8.7-1.3 3.7-1.3 7 0 4.8-.4 6.2-2.7 9-1.6 1.8-2.8 3.9-2.8 4.7 0 1-.8 1.2-2.9.8-3.3-.7-5.9.5-11.9 5.3-3.4 2.8-4.3 3.1-4.7 1.9-.3-.9-.7-2.2-.9-3-1-3.1 1.7-8.5 7.1-14.7 9.9-11.1 10-11.4 2.1-5-7.6 6.1-12.8 11.7-12.8 13.9 0 1.2-1.7 1.8-8.3 2.7-14.3 1.9-18.5 20.1-6 26 5 2.4 9.5 1.3 14.3-3.5l3.9-3.9 1.1 3.3c1.1 3.3 1 3.4-7.4 12-8 8.3-8.3 8.6-5.1 8 2.8-.5 3.4-.2 4 1.5.3 1.1 1.8 3 3.2 4.1 6 4.7 17.3.8 21.2-7.3 2.5-5.1 2.6-7.2.6-11.1-1.6-3.1-1.6-3.2 2.7-5.7 2.7-1.5 5.8-8.4 5.8-12.8 0-2.2-.7-5.5-1.6-7.4-1.6-3.3-1.5-3.5 1.5-8.9 2.4-4.3 3.1-6.7 3.1-11 0-6.8 1.6-8.7 5.2-6.4 1.4.9 4.7 1.9 7.4 2.2 2.7.4 6.4 1.5 8.1 2.6 3.4 2 3.1 1.2 9.2 22.4 2.2 7.6 1.4 16.5-3.1 33.4-1.9 6.9-3.2 14.3-3.2 18.5-.2 5.8-.9 8.6-4.3 16.5-2.3 5.2-5.7 14.2-7.6 20-4.8 14.4-5.7 16.2-7.6 15.5-6.9-2.7-10.8-1.2-21.6 8.4-10.8 9.5-10.6 9.4-13.5 13.5-2.1 3-3.1 3.5-6.5 3.6-9.7.1-16.2 9.9-13.1 19.7.9 3 7 5.6 11.1 4.9 8.2-1.6 14.7-14.9 10.2-21.1-1.2-1.5-1.1-2.4.5-5.6 1-2.2 2.6-3.9 3.4-3.9.9 0 5.1-3.4 9.3-7.5l7.7-7.4v4.2c.1 2.3.3 6.1.5 8.4.2 3.2-.2 4.8-1.7 6.5-1.1 1.3-2.9 4.4-3.8 7.1-1 2.6-3.8 7.4-6.2 10.7-4.4 5.8-20.3 21-22 21-.5 0-5-1.8-10-3.9-11.8-5.1-18.5-6.4-27.7-5.1-9.9 1.4-17.2 3.8-22.5 7.5-7.8 5.3-6 7.5 2.8 3.4 5.6-2.6 12.1-2.6 25-.1 8.3 1.7 10 1.7 13.4.5 5-1.7 8.8-1.7 13.3.2l3.6 1.5-2.5 2.8c-1.3 1.5-3.5 4.3-4.8 6.2-3.9 6-8.2 9.9-11.9 11.1-2 .6-6.3 3.7-9.6 6.9s-7.4 6.5-9.2 7.4-4.4 3.1-5.8 5-8.3 7.3-15.3 12c-7 4.8-15.5 10.8-18.9 13.5-7.8 6.2-15.6 9.2-25.8 9.8l-8 .5-1.8-3.1c-2.5-4.4-9.5-10-22.1-18.1-12.2-7.8-15.1-8.5-16.1-4.2-1.5 6.9 2.9 11.1 20.4 19.5 9.9 4.8 12.1 6.2 10.5 6.8-2.7 1.1-20 1-25.4-.1-7.2-1.4-58.4 5.9-66.4 9.5l-3.1 1.4 3.5-.5c45.4-6.2 49-6.6 64.5-6.6 8.8 0 24.3-.6 34.5-1.4 31.5-2.4 32-2.5 32-4s8.9-10.8 9.7-10.1c.2.3-1 1.8-2.7 3.5-1.6 1.7-3 3.7-3 4.5 0 1.6 6.1 3.7 13.5 4.4 12.5 1.3 55.1-4.3 78.5-10.2 8.9-2.3 15.8-3.5 20.3-3.5 5.2 0 7.4-.5 9.5-2 1.5-1.1 6.2-3 10.4-4.1 5.1-1.4 9.6-3.4 13-6 13.8-10 28.9-19.6 45.3-28.6l35.3-20.2c19.3-11.3 32.7-18.3 34.5-17.9.7.1 3.5-1 6.2-2.4 3.6-1.8 5.7-3.8 7.5-6.9 2.8-5.1 10-13 18.5-20.3 6.7-5.7 6-4.5-3.6 6.4-8.6 9.8-11.7 14.6-12.5 19.7-.6 3.9-.8 4.2-5.3 5.3-6.8 1.6-17.6 5.8-26.1 10.1-15.2 7.6-46.6 25.8-50.6 29.3-2.3 2-4.5 3.6-5.1 3.6-.5 0-3.1 1.4-5.9 3.2-2.7 1.7-7.6 4.5-10.9 6.1s-9.7 5.6-14.3 8.9c-10.7 7.8-20.5 12.8-24.7 12.8-2.1 0-4.4.9-6.1 2.4-2.7 2.2-2.7 2.4-1.2 4.8 2.9 4.4 10.9 8.8 23.6 12.8 10.6 3.4 16.9 5.9 15.2 6-.3 0-5.1-1.3-10.7-2.9-12.3-3.5-21.4-7.5-27.2-12l-4.4-3.3-30.1 5.6c-33.1 6.2-53.8 9.2-70.4 10.2l-10.8.7-3-2.9-2.9-2.9-.3 2.3c-.3 1.9-.8 2.3-2.6 1.8-1.3-.3-3.5.3-5.6 1.6-3.1 1.9-6.4 2.4-30 4l-26.5 1.7-2.3-2.7-2.3-2.7.4 2.8c.6 3.7-1.1 4.3-6.9 2.7-3.7-1.1-5.5-1-10.1 0-4.4 1.1-5.9 1.1-7.5.1s-2.8-.9-6.6.3c-2.6.9-12.1 2.7-21.2 4.1-9.1 1.3-18 2.9-19.7 3.4-2.7.8-3.3.7-3.3-.6 0-.8-.3-1.3-.7-1.1-.5.2-2.5 1.2-4.6 2.3-3.6 1.8-3.9 1.8-6.7.2-1.8-1.1-3.1-1.4-3.5-.7-.3.5-1.4 1-2.3 1-2.9 0-9.2 2.1-9.2 3 0 .5 1.9 1.1 4.3 1.3 3.7.3 3.6.4-1.4.5-3.1.1-8.1.7-11 1.4-3 .6-7.2 1.2-9.4 1.3s-5.8 1.1-8 2.2-5.9 2.7-8.3 3.4-4.8 2.1-5.3 3.1c-.5.9-3.5 3.5-6.7 5.7-3.2 2.1-6.4 4.6-7.1 5.5-1 1.2-1.8 1.3-3.3.5-2.9-1.6-4.8-.4-4.8 3 0 2.6-.6 3.3-4.5 5-4.6 2-9.5 6.2-9.5 8.1 0 .5 1.2 1 2.8 1 1.9 0 6.7-3 16.2-10.1 16.9-12.7 24.8-17.9 27.1-17.9 1 0 5.5-1.8 10-4 6.9-3.3 9.3-4 14.3-4 3.4 0 10.7-.9 16.4-2 5.6-1.1 12-2 14.1-2s5.9-.9 8.3-2c6.9-3 15.9-4.8 31.3-6 7.7-.7 16.6-1.7 19.7-2.4 4.8-1.1 6-1.1 6.9 0 .6.8 2.9 1.4 5 1.4 2.9 0 4.2.6 5.1 2.1.7 1.1 4.4 4.3 8.1 7.1 3.8 2.8 8 6.8 9.3 9 1.7 2.7 3.1 3.8 4.9 3.8 2.6 0 5.5 4.1 5.5 7.7 0 1.3 3.3 3.5 11.3 7.7 13.8 7.3 21 12.1 26.2 17.6 11.7 12.3 34 22.2 36 16 1-3.1-.2-5.2-5.8-9.8-16-13.4-39.3-26.1-55.2-30.2-6.9-1.8-8.2-2.5-11.9-6.6-5.4-6.2-7.6-9.5-7.6-11.7 0-1.1-.8-1.7-2.4-1.7-1.4 0-2.8-.4-3.1-1-1-1.7 3.8-1.1 6.6.8 1.5.9 6.2 4.7 10.4 8.4 7.8 6.8 12.1 8.7 16.4 7.3 2.1-.6 2.1-.7.4-3.7-2.3-3.7-8.6-8.4-18.6-13.7-7.2-3.8-8.4-4.1-15.6-4.1-6.3 0-8.1-.4-9.4-1.8-1-1-1.7-2.1-1.7-2.5 0-1.6 9.3-2.9 27.3-3.7 11-.5 22.3-1.4 25.3-2.1 5.4-1.2 5.5-1.2 8.7 1.8 1.8 1.7 7.4 5.2 12.5 7.7 5.2 2.6 11.2 6 13.4 7.6 4 2.9 9.1 3.9 10.2 2.1.3-.5-4.7-3.6-11.2-7-16.9-8.8-23.6-12.8-22.6-13.3 2.1-1.2 10-2 26.9-2.8 15.9-.7 22.2-1.5 54.3-7.4l36.3-6.7 2.9 2.5c1.6 1.3 5.1 3.2 7.7 4.2 2.6.9 8 3 11.8 4.7 3.9 1.6 8.8 3.3 11 3.8 7.4 1.7 9.5 3.1 13.9 9.3 2.4 3.4 5.1 6.8 6 7.5 1.2 1.1 1.3 1.7.4 3.4-.6 1.2-1.6 4.2-2.3 6.7l-1.1 4.5-9 2.6c-4.9 1.4-10.1 3.3-11.6 4.3-2.3 1.5-3.3 1.6-6.2.6-4.1-1.3-7.1-.6-10.4 2.4-3.5 3.1-5.3 7.1-5.4 12.1-.1 7.2 4 11.5 10.9 11.5 5.4 0 12.3-11.2 12.3-20 0-3.2.4-3.8 3.5-5.3 4-1.9 6.3-2.1 8.5-.7 1.2.7.7 1.6-2.7 4.5-2.5 2.1-4.8 5.3-5.9 8l-1.7 4.6 2.9 3c2.9 3.1 7.4 5.9 9.3 5.9 1.7 0 8.1-6.1 9.7-9.1 2.6-5.1 1.8-9.1-2.6-13.4-2.2-2.1-4-4.3-4-4.8 0-.4 1.3-1.9 2.9-3.3 1.9-1.6 3.3-4.1 4.1-7.3 1.3-5.6 4.2-9 6.2-7.3.7.5 3.5 1.6 6.2 2.4 4.5 1.3 5.1 1.9 6.7 6.1 1 2.6 1.6 5.5 1.2 6.4-.4 1-2.8 3.8-5.5 6.1-2.6 2.4-4.8 4.8-4.8 5.3 0 1.9 2.8.8 5.3-2.1 1.5-1.7 3.4-3 4.2-3 1.2 0 1.2.7-.2 5.2-2 6.8-4.8 11.7-14.6 25.5-7.5 10.6-8.2 11.3-11.4 11.3-8.1 0-16.4 8.5-16.5 16.9 0 4.8 1.5 7.7 5.5 10.1 10.3 6.3 19.8-3.4 20.1-20.5.2-8.3 2.1-14.2 6.6-20.5 2.7-3.7 3.7-3.8 4.5-.2 1 4.9 5.5 9.3 9.5 9.5 3.3.2 3.5 0 3.4-3-.1-1.9-1.7-5.3-4.3-8.8-3.9-5.5-4-5.8-2.6-8.6 2.5-4.7 4.5-15 4.5-23.2 0-4.2.2-7.7.4-7.7s2.9.9 5.9 2.1l5.5 2.1-.5 3.9c-.5 3.1-.2 4 1.2 4.5 2.2.9 4.7-.6 6.2-3.8 1.1-2.2 1.7-2.4 5.5-1.9l4.2.6 1.5 9.1c.7 5 1.1 10.3.7 11.8-.3 1.4-3.7 5.9-7.4 10-5.4 5.9-7.2 8.7-8.8 13.8l-2 6.3-5 .5c-2.8.3-6.3 1.3-7.8 2.3-4.3 2.9-8.6 10.4-8.6 15.2 0 3.6.5 4.4 4.2 7.3 3.4 2.6 4.8 3.1 7.3 2.6 5.2-1 11.9-5.7 14.3-10.1 2.1-3.8 2.2-4.6 1.1-8.5-2.4-9-.9-17.1 4.6-23.6 2.2-2.6 3-3 4.1-2.1 1.8 1.5 1.6 1.8 4.9-7.4 2.2-6.1 2.7-8.8 2.2-12.6-.4-3.7-.1-5.7 1.4-8.6 1.6-2.9 1.7-4 .8-5.1-.6-.8-.9-1.7-.5-2.1.3-.4 7.1-.7 15.1-.9 10.6-.1 14.9.2 16.2 1.2 1.7 1.2 1.7 1.3 0 1.9-.9.4-3 .2-4.6-.5-1.7-.6-4-.9-5.3-.5-7.1 2.2-14.8 13-14.8 20.7 0 5.6 4.1 9.8 10.3 10.5 2.6.3 4.7.9 4.7 1.3s-.7 2.1-1.6 3.9c-.8 1.7-1.6 5.1-1.7 7.4-.2 3.7.4 5 3.1 8.1 3.2 3.7 3.3 3.8 1.6 6.4-.9 1.5-4.3 5.1-7.5 8s-6.4 6.8-7 8.7c-1.2 3.2-1.7 3.5-5.2 3.5-7.6 0-13.5 5.8-15.7 15.4-2.1 9.3 2.3 16.6 9.9 16.6 2 0 4.6-.7 5.8-1.5 3.5-2.4 9.4-11.2 10.9-16.1 1.3-4.3 1.2-4.8-1.2-9.5-2.3-4.3-2.5-5.3-1.4-7.8.6-1.6 3.8-5 7-7.5 3.4-2.5 6.8-6.3 8-8.6s2.8-4 3.8-4c2.8 0 7.8-3.6 10-7.2 3.5-5.6 4.5-12.1 2.6-16.7-1.4-3.5-1.4-4.2 0-6.3.8-1.3 2.2-5.3 3.2-9.1.9-3.7 2-6.7 2.4-6.7s3.3 3 6.4 6.6l5.6 6.6v11.5c0 6.4.5 13.3 1.2 15.5 1 3.4.9 4.2-.9 6.6-1.1 1.5-4.6 4.7-7.8 7.2-3.5 2.7-6.9 6.4-8.2 9-2.3 4.4-2.5 4.5-7.3 4.5-5.5 0-9.1 2.1-12.7 7.5-3.3 4.7-3.2 12.2.1 15.5 5 5 10.3 4.5 16.3-1.5 5.8-5.7 6.9-9 5.5-15.7-.9-4.4-.9-6.2.2-8.7 1.6-3.9 7.7-9.3 13.3-11.8 5-2.2 5.8-4.2 5-12.9-.3-3.2-.1-6.1.3-6.4.5-.3 2.4 1 4.4 2.8 3.4 3.3 7.4 10.8 11 20.9 2.1 5.7 13.2 18 18.9 20.9 3.2 1.7 4.5 1.9 6.3 1 1.3-.6 2.4-1.8 2.4-2.6 0-7.3-23.2-34.6-37.4-44-6.2-4.1-7.5-5.5-7.6-7.7 0-5.4.8-6 4.8-3.3 2 1.4 4.2 2.5 5 2.5 1.5 0 3.2-4.1 3.2-7.9 0-4 .8-4.3 5-1.5 2.1 1.4 5.7 2.8 8 3.1 4.9.7 5.2 1.1 11 18.8 6.5 19.8 14.6 36.1 21.7 43.6 1.3 1.4 2.5 3.6 2.6 4.8.1 1.3.9 2.7 1.8 3.2s3 2.9 4.5 5.4c3.8 5.9 5.3 6.3 8.6 2.6 6.8-7.6 5.5-24.8-2.7-36-3.9-5.3-3.1-6.9 1.5-2.7 2.2 1.9 6.5 5.2 9.6 7.3 5.2 3.5 6 4.5 11.9 16.3 7.7 15.3 9.5 17.8 23.2 32.1 6 6.3 13.4 14.6 16.6 18.6 5.7 7.2 15.4 15 22 17.8 5.6 2.3 6.7 2 6.7-1.9 0-5.1-2.5-11.2-7.7-18.4-4.9-6.9-28.8-31.5-41.3-42.5l-7.5-6.6 15 5.9c8.3 3.2 16.6 6.1 18.5 6.5 3.1.6 3.7.3 5.3-2.3 2.4-4.2 2.2-5.1-2.3-10.6-2.2-2.6-4-5.1-4-5.5 0-.3 4.7 1.7 10.5 4.5 15.8 7.7 36.8 12.2 43.5 9.4 5.4-2.2 5.5-4.3.6-8.8-6.7-6.1-11.6-7.3-35.6-8.1-19.6-.7-20.8-.9-26.3-3.5-3.2-1.6-5.6-3-5.4-3.2.2-.3 7.5-1.6 16.2-2.9 17.1-2.7 32-6.2 43-10.1 8.3-3 23.4-10.5 23.8-11.9.1-.5-1.3-2-3.2-3.2-2.8-1.9-4.7-2.3-11-2.3-13.8.1-21.8 2.2-35.2 9.2-6.6 3.4-14 7.9-16.3 10-3 2.6-6.1 4.1-11.1 5.4-11.8 3-15.7 2.5-29.2-3.9-11.3-5.4-22.4-8.7-34-10.2l-5.2-.7-.7-4.4c-.5-3.6-1-4.4-2.7-4.4-4.2 0-10.6-4.2-16.7-11.1-7.1-8-10.2-9.9-16.2-9.9-2.5 0-5.8-.8-7.8-2-1.9-1.2-4.7-2.6-6.2-3.3-2.6-1-2.8-1.6-2.8-6.7 0-4-1.1-8.2-4-15.4-2.2-5.5-3.8-10.2-3.6-10.4s3.6 1.3 7.5 3.2c3.9 2 16.4 7.9 27.8 13.2 11.5 5.2 28.6 13.5 38.2 18.5 20.7 10.6 23.5 11.6 28.5 9.9 2-.6 3.6-1.6 3.6-2.1s-1.9-2.2-4.1-3.7c-4.6-3-5.4-3.8-13.4-13.4-10.2-12.3-22.2-19.2-47.7-27.2-15.6-5-17.7-5.2-31.8-4.1-7.7.6-10.2.4-13.3-.9-4.2-1.7-4.2-3 0-4 1.6-.3 6.2-1.5 10.3-2.6 12.5-3.4 30.8-6.1 42.2-6.1 9 0 12.2-.4 21-3 5.6-1.7 13.6-4.6 17.7-6.5 9-4.2 23.6-13.7 25.7-16.9l1.5-2.3 7.3 5.5c6.9 5.1 7.4 5.8 8.1 10.1 1.1 7.4 4.7 15.9 14 32.8 9.6 17.5 11.8 20.9 17.9 27 2.3 2.2 5.4 5.6 6.9 7.4 4 4.8 5.2 3 5.1-7.3s-1.1-12.6-14-32.4l-14.6-22.6c-4.8-7.6-6.9-9.4-19.7-16.7-7.2-4.1-7.3-4.3-6.8-7.6.9-5.2-2.3-4.5-6.8 1.6-2 2.7-4.1 5-4.6 5-.6 0 .6-2.1 2.6-4.6 1.9-2.6 3.5-5.1 3.5-5.5 0-1.8-2-.8-3.7 1.8-7 10.3-30.1 22-47.5 23.9l-6.3.7 6.1-4.6c5.9-4.3 11.1-10.2 14.5-16.4.9-1.7 4.3-4.3 9-6.8 4.6-2.5 10.6-7 16-12.2 6.9-6.7 10.2-9 17.4-12.3 7.4-3.4 10-5.3 16.4-11.9 6.3-6.6 7.9-7.8 9.6-7.1 1.1.5 4.7 1.6 8 2.5l6 1.7-3 2.5c-1.7 1.4-8 5.8-14.1 9.9-12.5 8.3-20.5 15.6-23.4 21.4-1.1 2.2-2 4.2-2 4.5 0 2.3 7.4-3.4 12.8-9.8 2.1-2.6 7.8-7.1 13-10.4 5-3.2 12.2-8.4 15.8-11.7 6.2-5.5 6.8-5.8 10.6-5.3 2.2.3 4.2.8 4.6 1.1.3.4 0 8.7-.7 18.5s-1 18.8-.6 20.1c.6 1.8.4 2.2-.8 1.7-3.5-1.3-15.7-4.6-21.1-5.7-6.3-1.3-12.6-.9-17 1.1-6.1 2.8-.8 4 6.4 1.4 3.7-1.3 5-1.3 11.8.1 8.5 1.7 23.7 7.1 32.3 11.4 8.4 4.3 23.4 14.6 25.3 17.5 2.9 4.5.7 5.5-6.6 3.1-2.4-.8-10.1-3-17.2-5-16-4.5-23-7.6-32.4-14.4-9.9-7.1-11.9-8-20.9-9.7-9.2-1.8-9.3-1.8-9.3-.6s5.2 3 11.6 4.1c3.7.6 7.4 2.4 13.2 6.4 4.5 3 12 7.4 16.7 9.6 8 3.9 8.5 4.4 9.5 8.3l1.6 5.9c.7 2.2 4.3 6.8 5.5 6.8 1.7 0 4.9-6.4 4.9-9.8 0-2 .5-3.2 1.3-3.2s6.2 1.3 12 3c12.2 3.4 14.7 3.7 14.7 1.5 0-4.7-4.8-9.8-16.9-18.2l-8.3-5.8-.4-6.5c-.6-9.6-2.3-19.2-5.6-30.9-1.6-5.7-2.7-10.5-2.6-10.7.2-.2 3.7.2 7.8.8 13.3 1.8 34.6-.4 35.7-3.7.8-2.6-22.4-10.2-39.9-13l-3.7-.6 3-4.9 3.1-5 8.1-.1c12.7-.2 16.8.2 22.3 2.2 4.5 1.7 5.2 2.3 5.7 5.3.3 1.8 3.2 8.6 6.4 15.1 5.4 10.9 5.8 12.4 6 19.3.1 4.1.7 8 1.2 8.5 1.8 1.8 1.3 3.8-2.1 9.4-3 4.9-3.5 5.3-7.1 5.3-5.2 0-9.6 2.3-12.9 6.7-5.6 7.3-4.6 14.1 2.5 17.6 4.8 2.4 8.8 1.5 13-2.7 4.3-4.3 6-9.9 4.5-14.8-1.2-4.1-.6-7.3 2.2-10.8l2-2.5 2.3 2.9 2.4 2.9-5.3 14.1c-9.3 25.3-8.6 24-13.2 24.8-2.3.4-5.3 1.4-6.7 2.4-3.8 2.5-7.5 9.4-7.5 14.1 0 3.6.5 4.3 4.6 7.2l4.6 3.3 3.9-1.8c4.8-2.1 9.3-7 10.9-11.8 1-3.2.9-4-1.1-7.6-2.2-3.8-2.2-4.2-.7-6.8.9-1.5 2.1-5.6 2.8-9.2.7-4.3 2.5-8.8 5.2-13.4 5.4-9.1 5.8-13.3 2.3-21.1-2.3-4.8-2.8-7.6-3-14.5-.2-9.5-1.9-14.3-8.5-24.5-3.8-6-6.2-13.5-4.2-13.5 2.9 0 16 4.8 26.2 9.7 15.7 7.4 24.4 10.8 31.5 12.3 3.3.7 6.8 1.7 7.9 2.2 2.2 1.2 3.8-.5 2.9-3.1-3.3-9.4-18-18-51.3-30-9.6-3.4-13.4-5.2-13.1-6.2 2-7.2 2.2-9.7 1.2-13.7-1.5-5.3-7.1-11.7-11.7-13.4-1.9-.6-3.4-1.6-3.4-2.1 0-3.8 36.4-47.7 38.1-46 1.6 1.7 2.9 13.4 2.9 27.1 0 11.8.4 16.3 2.6 25.5 3 13.4 5 19.1 7 20.8 1.9 1.5 3.4-.2 3.4-3.9 0-1.2.9-4.1 2.1-6.4 2-3.9 2.1-5.1 1.4-21.7-.4-10-1.3-20.4-2.2-24.1-3.7-15.5-12.6-26-22-26-2.6 0-3.2.9-8.2 11.5-4.1 8.7-6.5 12.5-10 15.7l-4.5 4.2-.7-3.2c-.3-1.7-.9-10.9-1.3-20.4-1.1-28-2.6-35.9-9.4-49.5-2.3-4.4-5.8-12.8-7.8-18.6-2-5.9-4.2-11.4-5-12.4-1.3-1.7-1.5-1.7-3.5.7-1.9 2.3-2.1 3.3-1.6 11 .3 4.7 1.4 11.6 2.5 15.5 6.8 24.8 8.8 30.7 14.1 42.7 3.3 7.3 6.5 15.3 7.1 17.7 1.9 7.1 1.5 18.2-.8 23.2-2.8 6.3-12.6 19.6-21.7 29.6l-7.8 8.5-1.8-3.5c-1.4-2.6-1.6-4.2-1-6.4.5-1.5 1.2-6.4 1.5-10.8s1.5-11.2 2.7-15c4.5-14.4 1.9-26.9-12.7-61.3-3.6-8.4-7-17.8-7.5-21-3-17.1-4.6-20.4-6.7-13.5-1.9 6.6-2.5 16.6-1.3 24.3 1.3 8 11.9 41.3 18.3 57 2.1 5.2 4.2 11.9 4.7 14.9 1 6.2-.2 18.2-2.4 25.1-1.1 3.4-1.2 5.4-.5 8 1.3 4.5.4 9.2-3 16-4.1 8-9.5 14-12.8 14-1.5 0-7 .9-12.2 2-5.2 1-9.5 1.8-9.7 1.6-.1-.1 3.1-4.5 7.3-9.7 10.1-12.5 9.9-12.2 5.9-14.3-4.3-2.3-7.6-1.3-17.9 5.4-8.5 5.6-13.6 8.3-13.6 7.4 0-.3 3.1-6.5 7-13.8 8.3-15.8 9.1-19.6 6.2-28.7-1.2-3.5-2.2-7.5-2.4-8.9-.3-2.3-.5-2.2-5.3 2.6-2.8 2.8-9.1 10.4-14.2 17-5 6.5-10.4 13.2-11.8 14.9l-2.6 3 .5-6c.3-3.3 1.4-9.4 2.5-13.6 1.6-6.3 1.9-10.4 1.7-24-.2-15-.5-17.2-3.1-25.3-2.2-7-2.6-9.1-1.5-9.4 3.4-1.2 9.1-8 15.5-18.6 12.1-20.3 20.3-29.6 26.1-29.6 3.2 0 4 4.5 1.9 11.6-1.3 4.4-3 7.1-8 12.4-5.3 5.6-6.5 7.5-7 11.4-.9 5.5.8 8.6 5.4 10.6 3.8 1.5 7 .8 11.1-2.6 7-5.9 7.9-12.9 2.5-19.4-4-4.8-4-4.8-1.9-7.1 2-2.2 2.3-15.4.5-18.7-1-1.9-1.9-2.3-4.8-2-2 .1-3.8-.2-4-.8-.4-1.3 8.3-17.4 15.1-27.9 6.9-10.6 23.9-32.6 29.8-38.7l4.7-4.8h6.8c26.2-.1 49.5-4.6 66.4-13.1 7.3-3.6 23.6-15.6 22.6-16.5-1-1-20.4 2.9-31.7 6.3-15.7 4.7-26.7 9.1-38.3 15.2-10.3 5.4-14.5 6.2-20.1 3.8l-2.8-1.2L1038 502c24.7-31.9 40.9-51 43.1-51 1 0 7 2.7 13.3 5.9 12.4 6.4 18.7 8.2 49.6 14 26.7 5 30.9 5.6 32.1 4.4.8-.8-.4-2.2-4.2-5.3-12.5-9.8-23.8-13.1-55.4-16-17.8-1.6-31.5-4.7-31.5-7 0-2.2 4.9-10.6 7.8-13.4 2.4-2.2 3.6-2.7 5.7-2.2 1.7.4 9.9-1.3 23.8-4.9 30.2-8 39.5-11.1 43.9-15.1 2-1.8 4.9-3.9 6.5-4.7 1.5-.8 3.6-2.4 4.6-3.5 1.7-1.9 1.7-2-.4-2.5-5.7-1.5-31.5 5.2-45.7 12-4 1.9-10.2 5.7-13.9 8.4-7.8 6-10.6 7.2-14.4 6.4-2.5-.6-2.7-.9-1.6-2.6.7-1.1 3.7-3.7 6.9-5.9 3.1-2.2 6.8-5.4 8.2-7.1 6.1-7.2 21.5-13.7 37.6-15.8 4.8-.6 21.7-1.1 39-1 22.7.1 31.8-.2 35.5-1.3 2.8-.7 5-1.8 5-2.3 0-1.3-13.8-5.9-23.7-7.9-9.4-1.9-25.3-2-32.8-.2-3 .7-10 3.1-15.5 5.3-16.1 6.5-34.5 12-34.5 10.3 0-4.2 35.1-24.6 44.2-25.7 2.4-.3 5-1.2 5.9-1.9.9-.8 5.4-3.5 10-5.9 7.4-4.1 9.4-4.7 17.5-5.5 9-.8 13.8-2.4 16.3-5.4 2.2-2.6-8.2-5.1-21.4-5-12.6 0-19.3 1.8-30.5 8.4-8.2 4.8-20.9 16-28 24.5-3 3.6-6.5 6.8-7.8 7.2-1.3.3-4 3-6.3 6.5-2.2 3.2-5.7 7.1-7.8 8.6s-8.9 7.6-15.2 13.4c-6.3 5.9-12.4 11.5-13.6 12.3-2.2 1.5-2.3 1.5-2.3-.9 0-1.4 2.9-8.2 6.4-15.3 3.6-7 7.8-16.6 9.4-21.3 1.6-4.9 5.1-11.9 8-16.4 5.9-9 8.1-15.2 8.9-25l.6-7-4.8 4c-7.7 6.2-20.2 22-24.5 30.9-6.4 13.1-8.3 23.1-8.4 43.1l-.1 17-2.9 4.5c-1.6 2.4-8 9.6-14.3 16-8.5 8.7-14 15.6-22.1 27.6-6.5 9.7-14.2 19.7-19.4 25.1-8.4 8.9-8.6 9-9.7 6.6-1.6-3.5-1.4-12.6.4-19.5.8-3.2 2-14 2.5-24.1s2-24.8 3.4-32.8c2.3-13.8 2.4-21 .5-21-1.1 0-6 6.8-9.9 13.5-4.1 7.1-8.7 21.7-9.7 30.5-1.6 14.3.8 34.7 5.8 48.3 1.6 4.3 2.9 9.8 2.9 12.2 0 4.1-.6 5.1-6.1 11.2-3.4 3.8-7.3 8.5-8.7 10.5l-2.4 3.8-2.9-2.4c-2.5-2.1-3.3-2.3-7-1.5-4.7 1.1-9.1 3.2-13.4 6.5-1.9 1.5-3.5 2-4.4 1.5-2.4-1.5-5.5.1-10.6 5.3-4.9 5.1-5 5.3-4.4 10 .6 5.8 3.4 8.6 8.4 8.6 7.2 0 14.2-10.1 13.1-18.8-.7-5.6-.1-6.7 3.9-7.4 1.7-.3 4.4-1.1 6.1-1.8 4.6-1.9 6.4-.8 6.4 3.9 0 3.3-1 5.2-6.5 12.1-4.3 5.4-9.1 13.4-13.9 22.9-4 8-12.7 22.9-19.3 33.1l-13.7 21.7c-1.8 3.5-5.2 6.3-7.7 6.3-1.1 0-2.6-2.2-4.4-6.5-1.6-3.6-3.1-6.5-3.5-6.5-1.4 0-4.9 9.6-5.9 16.1-.6 3.5-1.1 9.1-1.1 12.5 0 5.4-.3 6.3-3 8.9-1.6 1.6-3 3.5-3 4.2 0 1.8.8 1.6 3.7-.7 1.4-1.1 2.9-2 3.3-2s1 6.6 1.3 14.7c.7 16 1.6 20.7 4.7 24.6 4.6 5.8 5.1 24.7.9 32.9-1.1 2.2-3.2 9.9-4.5 17.1-2.5 13.3-5.3 20.9-9.7 26.2l-2.5 3-4.8-9.8-4.8-9.9 1.4-6.1c.8-3.4 1.3-9.6 1.1-13.7-.1-4.1.3-8.9.9-10.5.7-1.7 1.6-8.6 2-15.5.6-8.6 1.5-14.1 2.9-17.8 1.2-2.9 2.1-7.4 2.1-10.2 0-2.7.5-7.2 1.1-9.9 1.2-5.5.1-11-2.9-14.4-2.2-2.5-2.7-2.2-4.7 3-4.1 11-6.5 14.9-10.4 16.6-2 .9-6.1 3.5-9.1 5.7l-5.5 4.1-1.2-4.7c-.6-2.6-1.9-10.3-2.8-17.2-2.5-19.2-5.8-27-12.8-30.5l-3.7-1.9 2-2.5c2.1-2.7 1.9-4.3-.6-4.3-.8 0-1.4-.4-1.4-.9 0-1.5 4.9-6.8 5-5.4 0 .6-.4 1.5-1 1.8-1.2.7-1.4 3.5-.2 3.5 2.3 0 12.2-19.7 12.2-24.2 0-1-.7-2.1-1.5-2.4-1.6-.7-2.1-4.4-.6-4.4.5 0 1.3.9 1.6 2 .8 2.6 3.2 2.6 4 0 .4-1.3-.3-3.2-2.3-5.7-2.7-3.5-3.1-4.9-4.1-16-1.2-13.4-1.4-30.8-.3-33.6.4-1 2.6-2.9 4.9-4.2l4.1-2.5 10.4 7.8 18.5 14.2c11.7 9.4 27.3 18.3 28.9 16.7 1.3-1.3-5.5-13.5-10.6-19-11.1-12.1-24.1-19.5-37.8-21.2-8.9-1.2-9.5-1.1-13.2.9-2.1 1.1-4.2 1.8-4.5 1.4-.4-.4.2-8.4 1.3-17.8 1.6-13.7 2.4-17.6 4-19.3 1-1.2 3.4-4.4 5.2-7 2.8-4.3 4.6-5.5 14.3-10.3 8.9-4.4 12-5.4 16.1-5.4 3.2 0 8.9-1.3 15.1-3.5 5.5-1.9 10.7-3.5 11.6-3.5s2.3-.7 3-1.6 5.6-4.7 10.9-8.4c5.2-3.7 11.1-8.4 12.9-10.4 3-3.1 3.2-3.6 1.5-3.6-1.1 0-5.8 1.3-10.4 2.9-4.7 1.6-13.8 3.7-20.4 4.6-6.5.9-13.9 2.3-16.5 3.2-9.5 3.2-28.7 18.1-38.2 29.7-3 3.5-5.4 6.4-5.5 6.3-.3-.3 2.3-20 3.1-24 1.7-8.4 11-34.7 12.4-34.7.7 0 3.7-1.4 6.6-3l5.3-3 24.9-1c26.6-1 49.7-3.2 57.8-5.5 2.9-.8 6.2-2.7 7.8-4.3l2.7-2.9-2.6-1.1c-1.4-.7-5.6-1.7-9.2-2.2-3.7-.5-9.8-1.6-13.7-2.5-8.8-1.9-14.1-1.9-24.6 0-14.9 2.6-30.8 8.9-43.8 17.3-5.6 3.7-12.4 6.2-13.6 5-1-.9 13.7-39.5 18.6-48.8 7-13.3 7-13.4 26.7-13.8l15.3-.4-1.4 3.3c-1.1 2.9-1.9 3.4-6.9 4.4-11.4 2.3-18.1 9.9-15.9 18.2 3.3 12.1 17.8 11.7 24.1-.7 2.4-4.7 2.5-8.5.5-12.4-1.4-2.7-1.4-3.3.6-8.1l2.2-5.2 9.9-2.3c11.9-2.7 15-2.4 26.8 3 13.7 6.1 72.4 23.8 73.5 22 .9-1.5-3.5-7.7-8.1-11.3-6.1-4.8-30.2-16.6-40.9-20.1-9.5-3-21.1-4.8-25.7-3.9-1.8.3-6.7 2.1-10.8 3.9-5.4 2.3-9.8 3.4-15.7 3.9-8.8.8-9.8.2-6-3.2 3.1-2.9 5.8-4.1 15.8-7.4 9.4-3 17.3-8.6 37.9-26.5l15-12.6c3-2.4 6.5-6.2 7.7-8.5 2.3-4.1 4.4-15.2 3.5-18.5-.5-2.2-4-2.4-8.5-.4-9.5 4-50 36.7-57.1 46.1-1.3 1.6-4.9 7.7-8 13.5-6.8 12.6-9.8 16-14 16-1.7 0-4.2.9-5.6 2-2.7 2.1-7 2.7-7 1 0-.6 2.4-2.5 5.3-4.4 8.6-5.6 9.8-7.4 13.8-22.7 1.5-5.9 3.9-12.9 5.3-15.6 1.6-3.1 3.1-8.7 4.2-15.6 2.6-16.5 6.9-21.8 23.5-28.4l7.7-3.1 19.3.9c19.1.8 22.3 1.3 46.4 6.9 10.5 2.4 34.1 3.8 36.5 2 1.3-.9.6-1.9-3.8-6-11.9-11.2-17.4-12.7-48.8-13.5-25.3-.7-32.4 0-39.6 3.9-4.5 2.5-22.8 7-22.8 5.6 0-1.6 9.3-12.2 13.1-15 3.7-2.7 4.3-2.8 12.6-2.3 10.5.5 9.7-1.2-1-2.2-7.8-.8-7.3-1.9 1.3-3 6.9-.9 9.4-2.4 13.1-8.3 5.2-8.2 24.4-28.6 22.7-24-1.2 3 .3 2.7 5.5-1.3 2.8-2.1 6.4-4.1 7.9-4.5 1.6-.3 3.3-1.4 3.8-2.5.6-1 3-2.9 5.3-4 15.4-7.9 34.5-25.9 33.5-31.8-.3-1.9-1.6-1.3-14.5 6.3-21.4 12.6-31.5 21.2-36.4 30.8-1.1 2.1-2.4 3.8-3 3.8-.7 0-.4-1.2.7-2.8 22.4-34.1 24.8-38.7 25.8-47.7.8-6.5-1.2-12.1-3.9-11.7-4 .7-8.6 5.5-13.9 14.5-3 5.1-6.5 10.1-7.7 11.2-2.9 2.7-10.4 14.2-13 20.2-1.2 2.6-4.3 10.6-7 17.7s-6.6 16-8.6 19.7c-3.3 6.2-4.2 7-9.4 9.3-9.2 4.2-9.5 3.4-2.3-6.1 3.2-4.2 4.5-8.3 2.5-8.3-.4 0-2.3 2.7-4 6-2 3.8-3.9 6-5 6s-4.3 3.9-8.8 10.7c-6.1 9.4-18.3 24.6-19.1 23.9-.1-.2.5-2.5 1.3-5.2s1.5-6.4 1.5-8.2c0-2.4 1.6-5.8 5.3-11.5 10.6-16.2 11.4-18.1 13.7-34.2.6-4.4 2.3-13 3.7-19 4.1-18.1 2.7-23-9.5-34-3.8-3.5-5.6-4.5-6.4-3.7-2 2-2.1 11.1-.3 19.1l1.7 7.7-2.5 7.9c-5.8 18.5-9.7 44.7-9.7 65.2 0 12.7-.2 13.8-2.2 16l-2.2 2.4-2.1-6.3c-1.5-4.9-2.8-6.8-5.4-8.5-1.9-1.3-3.8-2.3-4.2-2.3-1.4 0-5.7 9.4-7.9 17.2-1.1 4-2.5 12.7-3.1 19.3-1.4 15.9-1.8 17.3-8.6 26.7l-5.8 8-1.8-3.8c-1.6-3.5-1.8-5.9-1.3-22.5.6-18.8 2.9-43 4.5-47.2.5-1.2 2.3-3.6 4.1-5.2 7.4-6.9 11.6-16.1 10.4-22.3l-.6-3.1-4.7 3.9-11 9.2c-4.4 3.6-7.5 7.3-9.9 11.6-3.2 5.8-3.4 7.1-4.5 21-2 24.7-1.7 29.4 2.3 39.2 1.8 4.7 4.9 10.2 6.7 12.3 1.8 2 3.3 4.7 3.3 6-.1 3.8-5.4 13.6-11.8 21.7-.9 1.1-4.2-4.4-6.1-10.3-1.2-3.4-3.2-12-4.6-19-2.7-13.6-4.6-19.4-7.8-24-1.7-2.5-1.8-3.2-.7-5.2 1-1.9 1-3.7.1-8.2-1.8-9.5-3-33.2-2.4-48 .6-15.2-.2-19.2-3.6-17.4-1.7.9-3.4 5-9.7 22.1-3.5 9.7-3.2 12.2 3.5 26.8 3.3 7 6.2 14.1 6.6 15.7l.6 3-2.6-3c-6.6-7.6-14.2-19.4-15.8-24.5-1.1-3.6-2.9-6.8-5.2-9l-3.5-3.4v4c0 2.1-.5 6.8-1.1 10.3-.8 5.4-.7 7.4.6 11.5 2.3 6.9 12.7 22.7 16.4 24.9 2.2 1.3 4.3 4.5 8 12.2 2.7 5.7 8.2 15.2 12.1 21 8.7 12.9 11 18.1 11 24.6 0 6.2-1.5 9.7-8 19.4-6.8 10.1-8.6 14.3-12.6 29.6-1.8 7-4.1 14.4-5.2 16.6l-2 3.8-5.2-10.6c-6.9-14.1-7.3-18.2-3.1-31.3 3.7-11.5 4.1-18.5 2.1-32.9-1.1-8-1.2-11.7-.2-19.5.7-5.3 1.2-11.1 1.2-12.9 0-4-1.7-12.3-3-14.3-1.3-2.1-3.1.5-7 10-5.8 14.4-7.3 22.1-7.3 38 0 16.8 2.1 28.1 9.9 51.6 2.5 7.5 4.4 14 4.2 14.5-.6 1.6-6.8-2.1-8.7-5.3-1.1-1.7-2.9-6.2-4.1-9.9-1.7-5.7-3.1-8-9.4-14.8-4.1-4.4-9.1-11.1-11.1-14.8-6-10.9-10.1-15.8-18.8-22.9-4.5-3.7-11-9.6-14.3-13-3.4-3.5-6.7-6.4-7.3-6.4-1.7 0-1.4 10.5.4 14.7 1.7 4.1 7.2 11.8 15 20.8 2.9 3.3 8.5 10.9 12.5 16.8 6.1 9 9 12.2 17.5 19.2 5.6 4.6 11.9 10.3 14 12.7 3.3 3.6 3.7 4.3 2.1 4.6-1 .2-3.8-.4-6.2-1.3-5.4-2.1-10.1-.9-13.8 3.6-7.6 9-4.3 21.9 5.6 21.9 5.9 0 13-8.3 15-17.6 2.4-10.9 12.4-4 15.7 10.8.9 3.7.7 5.4-.9 9.5-1 2.8-2.8 10.1-4 16.4l-5.7 29.2c-.2.4-2.3-.8-4.5-2.7-9.5-8.1-16.6-9.6-46.8-9.6-24.6 0-30.2.8-39.2 5.7-2.7 1.5-6.7 4.7-9 7.1-3.7 4-3.9 4.6-2.3 5.5 1 .5 6.1.9 11.4.8 5.3 0 12.1.4 15.1 1 4.8.9 6.2.8 11-1 3-1.2 7.7-2.4 10.5-2.7 2.7-.3 8.1-1.9 11.9-3.6 7.4-3.3 9.3-3.5 25.4-2.1 9.6.7 10.6 1 12.8 3.6 3.2 3.7 3.1 8.6-.1 26.2-2.2 12-2.5 15.4-2 28.3.6 16.4 2.2 38.8 3.1 44.4 1.1 6.4-2.2 14.1-12.5 29.3-10.3 15.3-12.5 19.7-13.6 26.5-.7 4.8-1.4 6.2-8.2 15.7l-4.4 6.2-3.3-3.7c-1.9-2-3.5-4.6-3.7-5.7-.3-1.2-1.2-2-2.4-2-1.5 0-2.1-.8-2.3-3-.2-1.7-1.9-7.8-3.8-13.6-3.2-9.7-3.5-11.8-3.7-23.6-.2-12.6-.3-13.1-3.1-16.8l-3-3.9-4.4 5c-8 9-9 12.4-7.5 26.4.7 6.9 2 8.7 13.2 17.9 4.6 3.8 9.1 9.3 9.1 11.2 0 .4-2.3.9-5.1 1.1-3.4.4-5.8 1.2-7.2 2.7-1.9 1.9-2 2.1-.4 2.1 1 0 3.7-.5 6-1.1 3-.7 5.1-.7 7 0l2.8 1.1-2 2.1c-1.1 1.2-1.7 2.7-1.5 3.4.3.7-.4 3.1-1.5 5.4-2.2 4.2-2.7 7.1-1.2 7.1 1.6 0 2.9-2.4 3.6-6.7 1.3-8.1 6.2-10.8 8.5-4.7 1.4 3.7-.3 9.4-4 12.9l-3 2.9-3.7-2c-3.2-1.7-4.4-1.9-7.6-1-3.2.8-4.1 1.8-6.7 6.9-3.5 7.1-3.6 7.7-1 11 2.6 3.2 2.5 3.7-.4 3.7-1.6 0-3.6 1.4-6 4.2l-3.6 4.3v-3.2c0-1.7-.5-5.4-1.2-8.1-1.1-5-1.1-5 3.5-12.2 5-7.7 6.6-12.5 4.8-14.3-.8-.8-1.1-.7-1.1.5 0 .9-2.5 5.3-5.5 9.9s-5.5 8.9-5.5 9.6c0 1.6-.2 1.6-3.4.3-4.2-1.6-8.6 0-13.7 4.9-6.8 6.6-8.2 13.5-3.9 18.6.9 1.1 2 2.5 2.4 3.2.7 1.4-8.6 7.4-32.9 21.3-20.3 11.5-22 12.6-43.5 26.4-25.7 16.5-30.4 18.2-73 27-38.9 8-55.9 10-71.4 8.6-5.5-.6-10.2-1.2-10.5-1.6-1.2-1.2 11.7-12.2 16.5-13.9 11.5-4.2 13.2-5.3 17.3-10.8s7.6-8.6 22.7-19.6c5.6-4.1 10.5-8.8 15.6-15.2 7.9-10 13-14.9 17.8-17.4 2.7-1.4 3.1-1.4 3.6 0 .3.8-.8 4.4-2.4 8-2.3 4.8-3.6 6.5-5.1 6.5-2.9 0-7.8 4.6-9.1 8.6-3.6 10.8 6.6 18.8 15.1 11.7 6.5-5.5 7.8-13.8 2.8-18.9-2.9-3-3-3.3-1.5-5.5.8-1.3 1.9-5.3 2.5-8.8s1.7-7.3 2.6-8.5c3.1-4.2 6.3-9.2 8.9-13.9 4.4-7.8 5.4-7.8 19.5-.8 6.6 3.4 14.5 6.6 17.4 7.2 2.8.6 8.5 2.4 12.5 4 7.2 2.9 13.2 3.8 13.2 2 0-.6-.5-1.3-1-1.6-.6-.3-2.8-3.3-5-6.5-5.7-8.4-8.6-10.1-18.9-11.3-4.7-.5-12.2-1.1-16.6-1.2l-9.6-.4c-.8-.1-2.3-.7-3.3-1.4-1.6-1.2-1.5-1.5 1.2-5.3 5.7-7.8 7.7-13.2 4.6-12-1 .4-1.4.1-1.1-.6.2-.7 1.5-1.3 2.8-1.3 1.9 0 3-1.2 5.6-6.5 1.8-3.6 4.8-11.5 6.6-17.7 1.9-6.3 4.7-13 6.3-15.4 4.4-6.3 5.3-8 6.4-12.6 1-4 1.2-4.2 3.9-3.7 3.6.7 8.2-1.6 10.1-5 3.1-5.8 12.9-2.3 30.9 11.1 12.8 9.5 25 15.8 34.3 17.7 5.9 1.2 11.8 1 11.8-.3 0-.9-14.8-14.5-24-22.1-8.7-7.1-15.3-11.3-22.3-13.9-7.3-2.7-13.1-2.7-19.2 0-2.7 1.2-5.1 1.7-5.6 1.2-1.1-1.1 10.4-15.2 15-18.4 3.1-2.2 4.3-2.4 12.7-2.1l9.2.3 11.9-6.2 11.8-6.2 6.5 1.4c9.5 2 22.4 1.4 40.3-2 15.1-2.8 28.7-7.5 28.7-9.9 0-.5-2.4-2-5.2-3.2-7.8-3.4-16.9-3.7-33.2-1-7.6 1.2-14 2-14.2 1.7-.2-.2 2.2-2 5.4-4 7.4-4.6 14.4-12 17.8-19 4.6-9.4 1-11.3-8.1-4.3-3.2 2.4-8.2 4.4-18.7 7.5-24.4 7.2-28.1 9.5-43.1 27.4-5.9 7-10.4 10.5-14.5 11.3l-3.2.6 5-10.5c9.7-20.8 13.4-34.7 14.3-53.2.5-10.1-.1-14.6-1.8-15.2-1.3-.4-11.9 16.1-14.4 22.4-2.7 6.9-3.2 11.2-3.5 31.8-.3 22-1.2 24.7-10.1 31.6-4.5 3.4-6.8 6.2-10.2 12.4-5.1 9.2-6.7 11.1-10.7 13.2-2.8 1.4-3 1.4-5.9-1.5l-3-3.1 3.2-14.6c1.7-8.1 3.4-17.4 3.8-20.8.3-3.4 1.5-7.7 2.5-9.5 2-3.3 2-3.3 0-5.5-3.4-3.8-5.6-23.8-3.6-34.2.9-5.2 3.7-11.6 7.2-16.8 4-5.9 5.8-11.1 7.7-21.3 3.6-20.8 7.4-27.2 17.1-29.2 8.4-1.8 12.4 0 12.4 5.5 0 2.9-.3 3.3-1.9 2.8-2.4-.7-8.7 1.8-12 4.8-5.4 5-7.8 15.8-4.5 20.5 1.9 2.7 6.5 5.2 9.6 5.2 3.9 0 8.6-3.7 11.5-9 2-3.6 3.2-4.8 4.3-4.3.8.3 3.4.8 5.7 1.1 7.8.8 15.4-6.4 15.5-14.6.1-5.3-2.3-8.5-8.8-11.9-2.9-1.5-5.4-3.3-5.4-3.8.1-.6 1.4-2.6 3-4.5 3-3.4 3.8-6.4 2.1-7.4-.5-.3-1.6 1.5-2.6 3.9-.9 2.5-2.4 4.9-3.3 5.4-2.3 1.2-27.2 2.5-27.2 1.4 0-.5 3.5-4.3 7.8-8.5 6.2-6.2 9.2-8.3 15.2-10.9 7.1-3 18.2-9.7 19.5-11.9.3-.5 2.5-1 4.8-1s7.6-.4 11.7-1l16-1.9c5.1-.6 10.7-2 14-3.4 3.1-1.4 8.6-2.8 12.5-3.2 10.8-1.1 15.5-3.8 17-9.6l.6-2.6-13.3-.6c-12.2-.7-14.1-.5-22.6 1.8-10.9 2.9-13.6 4.2-22.2 10.5-3.6 2.7-7.9 5.2-9.5 5.6-2.5.6-1.2-1.1 7.7-9.5 10.8-10.3 21.9-24.2 26.4-33.1 2.8-5.5 3.1-11.5.8-14.8l-1.6-2.3-6.1 5.4c-3.4 3-12.5 10.2-20.2 16.2l-15.3 11.8c-.9.7-.8 0 .2-2.4.8-1.9 1.9-6.3 2.6-9.9.7-4.4 2.6-9 5.6-14.3 2.6-4.5 5.3-11 6.3-15.2 1.1-4.1 2.8-9 4-10.8 4.8-7.8 16.7-16.4 28.3-20.4 4.5-1.6 8.9-4 11.6-6.4 4.5-3.9 9.5-6 19.2-8 7.5-1.6 15.4-5.4 18.5-9 1.4-1.7 2.5-3.5 2.5-4s-4.4-.9-9.9-.9c-8.5 0-10.4.3-14.5 2.5-3 1.6-6.3 2.5-9.2 2.5-2.4 0-6 .7-7.9 1.5-4.8 1.9-13.3 10.1-22.1 21.2-6.6 8.2-10.6 11.5-12.1 9.9-.3-.3 1.1-4.2 3-8.8 2-4.6 4.1-10.6 4.7-13.4 1.1-4.9 1.3-5.2 13.4-14.2 16.9-12.6 24.7-20 31-29.5 6.1-9.2 11.6-20.2 11.6-23.2 0-4.5-1.5-5-6.2-2.2-7.3 4.2-16 14.6-29.4 34.8-6.9 10.5-12.8 18.9-13 18.7s.8-3.1 2.1-6.5c2.4-5.8 3.2-10.4 5.5-30.2 1.6-13.6 2.7-15.8 12.5-23.3 8.3-6.3 16.9-15.7 23.8-26.1 7.4-11 9.3-15.4 11.7-26.8 1.6-7.6 1.7-9.8.7-11.8-1.9-3.8-3.5-3.6-7.8.9-6.1 6.3-17.4 29.9-21.4 44.6-1.3 4.4-3 9.4-3.9 11.1-1.4 2.9-7 8.3-8.4 8.3-.4 0-.5-5.4-.3-12.1.3-11 .6-12.6 3.2-17.6 1.6-3 2.9-6.1 2.9-6.9s1.2-3.8 2.7-6.7c2.1-4 2.8-6.6 2.8-11.4 0-7.1-.7-8.3-3.4-5.9-3 2.7-5.7 9.4-7 17.1-1.7 10.3-2.2 12.7-2.7 12.2-.3-.3-1.6-7.6-2.9-16.3-5.6-37.2-7.6-47.8-9.6-51-1.6-2.6-3.8-4.4-5.4-4.4-.1 0-1 1.9-2 4.2-1.1 2.9-1.7 7.2-1.7 13.8 0 11.3 2.4 19.6 11.7 40 3.2 6.9 6.6 14.9 7.6 17.9 3.1 8.8 2.4 18.8-2.2 31.3-2.2 6-3.4 7.1-4.3 4-.3-.9-4.1-6-8.5-11.1-4.3-5.2-9.8-13-12.1-17.3-4.7-8.8-8.1-12.6-18.8-20.5-8.5-6.4-10.2-6.1-10.2 1.6 0 9.4 11.5 23.2 29 35 12.1 8.2 17.4 12.4 19.9 16 2 2.8 2 3.2.6 11.7-3.3 18.9-8.2 35.4-16.8 56.3-4.5 11.2-5.2 12.2-6.4 10.5-1.8-2.5-3-7.3-4.2-16.9-1.3-10.3-2.6-14.4-5.6-18.9l-2.4-3.5 3-2.1c5.5-4 3.4-6.2-5.3-5.5-2.9.2-4.3.2-3-.1 2.1-.5 2.2-.9 1.6-5.7-1.1-8.6-4.3-15.8-9.5-21.2-2.6-2.7-5-4.7-5.3-4.4s-.9 4.4-1.2 9.2c-.8 9.8.9 16.2 5.2 19.6 1.3 1 2.4 2.1 2.4 2.4 0 .2-2.1.7-4.7 1-8 .9-21.4 6.4-31.1 12.7-5.6 3.6-9.2 5.4-9.5 4.7s-1.3-.1-2.6 1.5c-5.6 6.9-38.3 29-46.4 31.3-3.1.9-6.2 1.5-6.9 1.3-1.8-.6 7.9-9.7 20.8-19.5 6.9-5.3 15.7-13.1 20.5-18.3 7.9-8.7 26-22.6 31.7-24.4 5.2-1.7 1 6.5-7.7 14.9-2.2 2.1-4.1 4.6-4.1 5.4 0 1.9 6.9-4.7 11.5-10.9 1.8-2.5 3.8-6.4 4.5-8.7 1.4-4.7.7-8.2-1.3-6.5-.6.6-5.7 2.5-11.2 4.2-13.2 4.2-17.3 6.7-24 14.6-3.1 3.7-8.8 9.3-12.8 12.7-4 3.3-7.8 6.8-8.5 7.8s-3.2 3.2-5.5 4.8c-7 4.8-9.8 8.2-13.7 16.6-4.2 9.1-7.1 12-17.1 17-3.7 1.9-7.1 4-7.4 4.6-.9 1.4-12.8 8.9-13.3 8.4-.3-.2 1.4-2.8 3.7-5.7 4.6-6 4.2-5.6 9.4-9.9 2.6-2.2 5.5-6.5 8.9-13.3 2.8-5.6 7.7-14.7 11-20.4 10.1-17.6 11-20.7 8.4-29.2-1.3-4.1-1.2-4.8.6-8.2 2.5-4.4 1.8-7.2-1.4-6.3-3.1 1-6.1 3.8-11.3 11-2.5 3.3-6.4 7.7-8.8 9.6-5.7 4.8-9 11.3-12.6 24.6-1.7 6.1-4.8 15.5-7 21-2.2 5.4-4.3 11.1-4.7 12.6-.9 4-1.8 2.5-4.2-7.8-1.8-7.6-2.3-14.4-3.3-44.3-.6-19.4-.8-36.4-.5-37.7.4-1.6 2.1-3.2 4.9-4.6 2.3-1.2 5-2.8 5.9-3.7 1.4-1.2 2.1-1.2 3.2-.3.9.8 2.8 1 5 .6 5.2-1 6.1.2 2.6 3.7-6 6-8.7 14.8-6 19.9 1.3 2.3 6.1 4.9 9.3 4.9 8.2 0 16.6-14.7 12.7-22.1-.6-1-3.2-3-5.8-4.3s-5.6-3.3-6.6-4.5c-1.3-1.4-3.1-2.1-5.5-2.1h-3.5l3.6-3.8c2-2 6.6-8.2 10.3-13.7s9.1-12.5 12-15.5 6.3-7.5 7.5-10c1.3-2.5 5.7-8.9 9.9-14.3 13.3-17 13.2-16.8 10.8-20.1-1.1-1.5-1.8-1.6-5.3-.7-14 3.8-33.2 29.3-37 49.2-3.1 16.9-13.5 31.6-23.7 33.6l-4.2.9-.3-8.6c-.1-4.7.4-17.1 1.2-27.5 1.4-18.7 1.4-19.1-.7-23.2-1.7-3.6-1.8-4.7-.9-6.8.7-1.4 1.2-5 1.2-7.9 0-4.3.6-6.1 2.9-9.3 3.2-4.4 16.5-13.3 19.8-13.3 4.2 0 13.9-4.2 21.9-9.6 5.2-3.4 11.7-6.6 17-8.4 14.9-5.1 21.3-10.3 23-18.8l.7-3.2h-7.5c-13.8 0-27.7 5.5-34.4 13.7-2.2 2.7-6 5.6-9.7 7.4-9.3 4.7-15.3 9.7-25.7 21.8-5.2 6-9.6 10.9-9.7 10.7-.4-.4 6.6-17.4 9.7-23.5 4.3-8.6 11.6-17.8 16.7-21.4 24.9-17.2 46.5-36.5 55-49.2 3.8-5.7 4-6.3 3.4-11.5-1.1-9.6-2-9.8-13.2-3.8-4.3 2.3-8.1 4-8.4 3.6-.4-.4 1.4-5.2 3.9-10.7 3.1-6.7 4.6-11.4 4.6-14.1 0-3.9-.1-4-2.2-2.9-7 3.7-19.1 18.4-25.1 30.4-3.4 7-6.7 16.7-6.7 20.2 0 1.7-16.6 20.4-23.6 26.5l-3.4 3 1.6-3.9c.9-2.1 3.2-7 5.2-10.8 2.8-5.6 3.7-8.7 4.3-15.6.8-8.8 4.2-19.2 14.8-45.7 4.9-12.3 5.1-16.3 1.7-33.1C631.2 5.9 629.3 0 628.1 0c-.3 0-1.4.5-2.4 1.1zM676 73.2c0 5.4-3.8 13.5-9.2 20-5.1 6.2-29.8 27.5-41.4 35.8-9.2 6.5-10.4 6.6-10.4.7 0-6.3 6.1-15.3 23.4-34.6 8.1-9 12.3-12.8 16-14.6 2.8-1.4 7.9-4.5 11.4-7 8.2-5.9 10.2-5.9 10.2-.3zm-64.4 59.4c-.3 3-1.6 7.4-2.7 9.7-2.9 5.7-7.3 12.7-8 12.7-1 0 .8-9.2 3-14.9 2-5.4 6.6-13.1 7.8-13.1.3 0 .3 2.5-.1 5.6zm-22.6 43c0 2.3-2.8.4-3.3-2.2-.4-2.4-.3-2.4 1.4-.8 1.1.9 1.9 2.3 1.9 3zm36.7 96c-.7 4-2.3 6.4-4.2 6.4-2.4 0-2.3-2.8.1-6.4 3.2-4.7 4.8-4.7 4.1 0zm331 22.3c1.4 3.5 1.8 7.5 1.8 17.1 0 14.3-2.1 23.1-7.6 31.3-1.9 2.9-2.9 5.5-2.6 6.7.3 1.1-1 5.9-2.7 10.7-2.7 7.1-3.7 8.9-5.5 9.1-2.1.3-2.2.1-1.6-4 .3-2.4 1.2-13.8 2-25.3 1.7-25 3.8-35.8 9.6-50.2 1.2-3 1.4-3.1 3.1-1.6.9.8 2.5 3.6 3.5 6.2zm-310.5 15.7c-1.4 4.4-5.2 12-10.7 20.9-4.8 7.7-10 16.6-11.6 19.8-2 3.9-4.2 6.5-6.5 7.9-1.9 1.1-4.3 3.7-5.3 5.7-2 3.8-6.1 8.1-6.1 6.4 0-.6 2-4.1 4.5-7.8 5.4-8.3 9.9-18.8 15.3-36.1 3.6-11.4 5-14.3 10.7-22.3 3.5-5 7-10.1 7.7-11.4 1.1-2 1.3-1.7 2.6 3.9 1.4 5.7 1.3 6.6-.6 13zm102.7 7.4c1 2.5 5 9.4 9 15.4 7.9 11.7 12.1 19.8 12.1 23.3 0 1.2-.9 3.7-1.9 5.5-1.1 1.8-2.9 6.4-3.9 10.3-1.1 3.8-4.1 11.3-6.6 16.6S753 399 753 400.6c-.1 4.5-3.9 12.7-12.7 27.4-4.5 7.4-9.6 17.1-11.4 21.4-2 4.8-4.9 9.6-7.2 12l-3.9 4.1-1-2.5c-1.5-3.9.1-9.7 5.3-19.7 4-7.5 5.1-10.8 5.9-17.1.6-4.2 2.1-11.8 3.5-16.7 2.8-10.1 3.2-19.1 1.1-22-1.4-1.9-1.5-1.9-3.5.5-3.3 4.1-7.8 13-9.9 20.1-2.3 7.4-3.8 19.5-4.7 37.9-.8 14.3-1.8 20.7-4.1 25.6-2.2 4.6-9.9 12.2-13.1 13-2.2.6-2.5 1-2 4.2.4 2.1.1 4.6-.9 6.4-.8 1.5-2.6 8.3-3.9 15-2 10.3-3.1 13.4-7.3 20.7-2.7 4.7-5.2 9.3-5.5 10.1-.5 1.7-.5 2-4.2-17.5-2.3-11.9-3.3-14.9-6.6-20.1-2.1-3.4-6.1-12.8-8.9-20.9l-5.1-14.6 2.5-2.9c1.3-1.6 3.6-6.6 5-11 1.5-4.4 4.3-10.6 6.5-13.9 3.4-5.4 4.1-7.7 7-22.9 3.4-17.9 4.1-25 2.9-31.8l-.8-4.1 11-1.3c14.5-1.7 15.3-1.3 10 4.8-8.6 9.7-19.4 30.9-23.6 46.2-1.9 7-4.7 13.5-7.2 16.3-.8.9-1.2 2-.7 2.5.4.4 2.1-1 3.9-3.1 1.7-2.2 5.5-6.6 8.4-9.9 2.9-3.4 6.5-8.8 8.1-12.2l6.4-13.6c2.2-4.5 6.2-10.4 10.1-14.9 3.6-4 7.2-9.2 8.1-11.5l1.7-4.3 10.8-1c8-.8 11.9-1.7 14.9-3.4 2.3-1.2 4.1-2.6 4.1-3 0-2-8.2-7.2-14.2-9-6.7-2.1-6.7-2.1-6.1-5.2.3-1.8.7-3.4.9-3.6.7-.8-1.8-4.1-3.1-4.1-.8 0-2.6 2-4.1 4.6-2.5 4.2-2.9 4.5-5.8 3.8-6.2-1.3-31.8-.7-40.9 1-11.3 2.2-26.4 7.5-24.5 8.7 2.1 1.3 12.8 1.1 26.1-.7 8.5-1.1 15.3-1.4 22.2-1l24.3 1.6c14.1.9 23 2.5 21.7 3.8-.8.8-11 3-19 4.2-3.7.5-9.5.4-15.1-.3-7.7-.9-10.7-.8-19.7.7-9.1 1.6-11.7 1.7-18.6.7-10.3-1.5-17.4-4-26.7-9.3l-7.4-4.2 4.8-4.3c5.4-5.1 10.8-7.8 17.2-8.8 6.1-1 9.1-2.7 17.8-10.1 6.1-5.2 8.3-6.5 13-7.4l13.4-3.1c4.2-1 9.6-1.9 12.1-1.9 3.5 0 6-1 12.8-5.1 9.8-5.9 22-12 23.2-11.6.5.1 1.7 2.3 2.6 4.7zm276.7 1.9c-.9 1.6-4.6 5.6-8.3 8.8s-9.9 9.1-13.7 13.2c-11.4 11.9-29.3 24.5-39.3 27.5-1.3.4-2.3.3-2.3-.2 0-2.1 9-10.9 18.4-17.9 5.6-4.2 13.3-10.9 17.1-15 7.5-7.9 28.7-22.9 29.3-20.7.2.7-.4 2.6-1.2 4.3zM937 351.2c0 2.9-.5 9.1-1 13.8-1 8.8-2.4 11.7-7.1 15.2-2.5 1.9-15.6 5.4-16.5 4.5s3.6-8.7 13.2-22.8c5.2-7.7 9.4-14.3 9.4-14.9a1.08 1.08 0 0 1 1-1c.6 0 1 2.4 1 5.2zM627.6 368c.5.5 3.4 1.4 6.4 2s8.1 2.6 11.3 4.6c3.1 1.9 7.4 3.7 9.5 4 8.1 1.1 12.3 2.6 11.8 4.3-3 9.9-5.5 29.1-6.1 47.6-.7 19.8-1.6 24.1-6 29.2l-3.2 3.7-1.1-4.7c-.7-2.5-1.2-5.9-1.2-7.5s-1.1-4.6-2.5-6.6l-5-7.3c-1.4-2-3.1-5.7-3.7-8.2-.9-3.6-2.5-5.9-7.5-10.6-5.1-4.9-6.6-7-7.9-11.5-2.2-7.4-5.4-15.1-7.3-17.3-.8-1-1.4-3.1-1.3-4.6.1-1.6-.5-3.4-1.3-4.1-3.1-2.6-1.5-4.7 7.6-10.5 6.3-3.8 6.2-3.8 7.5-2.5zM993 379.8c2.5.4 4.1 1 3.5 1.3-.5.4-3.7.3-6.9-.2-3.3-.4-6.3-.6-6.8-.3-.4.3-.8 0-.8-.5 0-1.2 4.2-1.3 11-.3zm14.5 4.4c.7.7.1.8-1.5.3-4-1.2-5.9-2.6-2.5-1.9 1.7.4 3.5 1.1 4 1.6zM592 390c0 .5-.5 1-1.1 1-.5 0-.7-.5-.4-1 .3-.6.8-1 1.1-1 .2 0 .4.4.4 1zm201 .5c0 6.4-12.1 26.6-21.1 35.2-26.6 25.3-34.5 31.3-41.2 31.3-3.4 0-3.2-.9 1.5-10.5 7.5-15 20.5-28.6 44.4-46.4 8.2-6.1 15.2-11.1 15.6-11.1.5 0 .8.7.8 1.5zm145 13.2c0 2-3.8 6.3-5.7 6.3s-1.6-2.4.8-5.4c2.3-2.9 4.9-3.4 4.9-.9zm-403.8 27c2.3 2.6 3.1 6 1.9 8-.8 1.6-1.1 1.4-2-1.2-.6-1.7-1.7-4.2-2.5-5.8-1.2-2.1-1.2-2.7-.2-2.7.7 0 2 .8 2.8 1.7zm7.4 8.8c-2.1 1.6-3.2 1.3-2.1-.4.3-.6 1.4-1.1 2.3-1.1 1.5.1 1.5.2-.2 1.5zm309.3 6.4c2.4 1.6-1.2 8.1-4.5 8.1-1.9 0-1.8-3.5.2-6.5 1.8-2.7 2.2-2.9 4.3-1.6zm28.6 8.8c1.1 3.8-1.3 2.6-3-1.3-.8-2-1.5-3.9-1.5-4.2 0-1.4 3.8 3.4 4.5 5.5zm-146.2 27.4l3.9 1-5.1 5.4c-2.8 3-5.1 6.1-5.1 7s-.4 1.3-1 1c-.5-.3-1-3-1-6 0-4.1-.4-5.7-1.7-6.4-1.6-.9-1.6-1.2-.3-2.1 1.9-1.3 5.5-1.3 10.3.1zm9.3 6.4c2.4 1 3.9 2.6 5 5 1.8 4.3 1 7.6-2.6 11.5-2.2 2.4-3.6 3-7 3-2.2 0-5.5-.7-7.2-1.6-3-1.5-3-1.6-2.3-7.2.9-6.9 1.7-8.7 5.3-10.6 3.4-1.9 4.5-1.9 8.8-.1zm-236.2 2.7c-.8 2.8-5.5 11-6 10.6-.4-.5 5.5-12.8 6.2-12.8.3 0 .2 1-.2 2.2zM717 503c0 3.3-2.4 5-4.3 3.1-.8-.8-.5-1.7 1.3-3.6 1.3-1.4 2.5-2.5 2.7-2.5s.3 1.4.3 3zm-186.1 5.6c-2.8 3.4-14.2 10.6-24 15.3-12.6 6-45.9 17.1-45.9 15.2 0-1 7.1-7.7 9.5-8.9 1.1-.5 6.9-2.6 13-4.6 6.4-2.1 13.1-5.1 16.3-7.2 3.8-2.7 8.9-4.7 18.5-7.4l13.6-3.9c.2 0-.2.6-1 1.5zM474 540.4c0 .2-1.3 3.3-3 6.9-2.8 6.3-3.2 6.6-8.2 8.2-2.9 1-7 2.6-9 3.7L450 561v-2.8c0-6.1 8-14.9 15.8-17.2 2.8-.9 8.2-1.3 8.2-.6zm-11 19.4c0 2.6-3.5 8.6-9.9 17.2-3.1 4.1-6.4 8.7-7.3 10.1-2.8 4.5-4.8 13-4.8 20.8 0 4.2-.5 9.3-1.1 11.5-1 3.6-1.1 3.7-2.5 1.8-2.5-3.6-4.4-13.5-4.4-23.1 0-8.6.3-10 3.4-16.5 4-8.4 10.9-15.6 19.3-20.3 6.7-3.8 7.3-3.9 7.3-1.5zm500.6 7c-1.4 1.4-1.6 1.4-1.6.1 0-2 2.3-4.4 2.9-2.8.2.6-.4 1.8-1.3 2.7zM794 568c-4.2 8.2-11.7 14-38.6 29.4-14.6 8.5-25.5 13-29.4 12.4-1.7-.3-.6-2 7-11.5 10.1-12.6 13.1-15.2 21.3-18.2 3.1-1.1 8-3.2 10.8-4.7 2.8-1.4 8.5-3.2 12.7-4 7.8-1.5 16.2-4.8 16.2-6.5 0-.5.5-.9 1-.9.6 0 .1 1.8-1 4zm-336.7 14.8c-1.7 6.7-3.3 8.2-3.3 2.9 0-2.9 3.6-10.5 4.5-9.5.2.2-.3 3.2-1.2 6.6zm146.1 5.5c.8 1.3.6 2.1-.7 3.4-1.6 1.6-1.8 1.6-3.3.1-1.3-1.3-1.4-2-.4-3.7 1.3-2.4 2.8-2.4 4.4.2zm26 1.2c.7 2-.2 4.2-2.1 5-2.7 1-3.8-1.1-1.9-3.9 1.9-2.9 3.1-3.3 4-1.1zm-179.9 4.3c.6 3.1-.9 8.2-2.4 8.2-1.7 0-2.3-3.9-1.1-7.5 1.4-4.2 2.6-4.5 3.5-.7zm1.5 14.4c0 7.1-3.6 22.3-8.2 34.6-1.9 5.1-2.1 5.3-3.4 3.3-2.2-3.1-2-7.7.9-17.6 1.4-5 3-11.5 3.6-14.5 1.1-5 4.2-10 6.3-10 .4 0 .8 1.9.8 4.2zm174.8 3.6c3 3.9.3 12.2-5.1 15.9-4.3 3-6.1 2.9-8.6-.3-3.5-4.5-2.6-10.9 2.2-16.1 1.7-1.9 2.7-2.2 6.1-1.7 2.3.4 4.7 1.3 5.4 2.2zM973 635c0 2.1-1.5 2.7-2.5 1-.7-1.2.2-3 1.6-3 .5 0 .9.9.9 2zm-543.9 10.7c1.6 2.8 5 7.4 7.4 10.1 2.5 2.8 4.5 5.5 4.5 6.2 0 .6-3.4 13.6-7.5 28.8l-8.6 33c-1.3 6.5-2.7 5.9-5.8-2.7-2.5-6.9-12.3-22-22.7-34.7-4.1-5.1-7.4-9.4-7.4-9.6 0-.3 1.9-.8 4.2-1.1 2.2-.3 5.4-1.5 7-2.7l2.9-2.1 4.3 2.5c4.2 2.4 4.4 2.5 7.7.8 4.2-2.1 7.5-8 8.4-14.8.7-5.1.7-5.2-2.8-7.6-2.5-1.7-3.3-2.8-2.7-3.8.4-.8 1.1-3.8 1.5-6.5.4-2.8.9-5.4 1.3-5.9.7-1.2 4.3 3.3 8.3 10.1zm17.6.5c-.3.7-.5.2-.5-1.2s.2-1.9.5-1.3c.2.7.2 1.9 0 2.5zM439 652c1.7 2.3 1.8 2.9.5 2.4-.9-.4-2.3-2-3.1-3.6-1.9-3.6-.3-2.9 2.6 1.2zm227 5c-1.8 3.3-2.5 1.5-.9-2.2.9-2.3 1.5-2.8 1.7-1.6.2.9-.2 2.7-.8 3.8zm411.9-1.4c1 2.3.9 2.5-.7 1.9-1.1-.3-2.4.1-3.2 1-2.6 3.2-4.1.5-2-3.6 1.5-2.7 4.5-2.4 5.9.7zm-677.5 0c1 .9 1.6 3.3 1.6 6.1 0 3.8-.5 5-3.5 8-2.7 2.7-3.9 3.3-5.7 2.8-5.7-1.8-7.3-6.6-4.3-12.5 2.9-5.5 8.7-7.7 11.9-4.4zm15.6 1.3c0 2.4-3.5 6.8-4.3 5.4-.6-.9 2.7-7.3 3.8-7.3.3 0 .5.9.5 1.9zm432-.7c0 1.5-8.9 17.8-9 16.4 0-2.3 7-16.6 8.2-16.6.4 0 .8.1.8.2zm9.3 5c2.3 2.7 2.2 4.9-.9 14.9-2.1 7-2.5 9.9-2.2 17.4.3 7.9.8 10 4 16.7l3.6 7.6-4.4 4.6c-9.7 10.1-22.1 15.7-35.4 15.9-8.7.1-20-1.9-20-3.5 0-1.7 6.1-9.8 16.9-22.6 15.7-18.6 18.6-23.2 24.1-38.3 4.1-11.3 7.4-16.2 10.3-15.4 1.2.4 3 1.6 4 2.7zm-197.7 11.4c-1.1 3-1.5 3.3-1.5 1.6-.1-2.4 1.7-6.7 2.5-5.9.2.2-.2 2.1-1 4.3zm171.8 17.8c-2.1 3-4.1 5.3-4.3 5-.2-.2 1.3-2.9 3.4-5.9 2.1-3.1 4-5.3 4.2-5.1.3.3-1.2 2.9-3.3 6zm-177.2-2.2c-.7.7-1.2.8-1.2.2 0-1.4 1.2-2.6 1.9-1.9.2.3-.1 1.1-.7 1.7zm-8.8 6.4c1.5 1.4 1.5 1.8 0 4.3-.9 1.5-2.5 3.8-3.5 5.2-1.9 2.3-2 2.4-3.4.5-4.5-5.9 1.9-15 6.9-10zm-209.7 2.6c-.3.8-.6.5-.6-.6-.1-1.1.2-1.7.5-1.3.3.3.4 1.2.1 1.9zm527.7 15.3c0 5.1-.7 7.5-4.5 15.5-8.1 16.9-28.8 48.9-35.5 55.1-7.8 7.1-11.1 7.7-8.4 1.6 1.1-2.4 2.9-9.6 4-16.2 2.4-13.4 5.4-20.7 12.8-31.7 6.6-9.8 19.4-26.2 24.5-31.6l4.1-4.2 1.5 2.7c.9 1.6 1.5 5.4 1.5 8.8zm-78.6-.3c-1 4-2.1 11.8-2.5 17.4-.5 9.1-.3 11.1 2.6 22.5 1.8 6.8 4.9 17.5 7 23.7 3.1 9.4 3.5 11.5 2.3 12.4-1.1 1-.7 1.7 2.2 4.4 3.8 3.5 4.9 6.3 4.4 11.5-.2 2.6-.8 3.5-2.5 3.7-1.4.2-2.3 1-2.3 2 0 6.8-7.2 16.9-15.5 21.7-3.4 2-5 2.4-8.6 1.9-3.9-.5-4.7-.3-6.8 2-1.9 2-3.4 2.6-6.5 2.6-5 0-16.6 2-30.6 5.4l-14.6 3.1c-4.7.7-5.3.2-10.3-10.9l-3-6.7 3-1.1c8.7-3 19.3-9.1 23.1-13.3 2.2-2.4 4.8-4.7 5.7-5 1-.3 3.9-3.5 6.6-7.3 2.7-3.7 9.4-11.4 15-17.2 11.1-11.4 13.2-14.6 14.1-21.5.6-4.2.5-4.5-2-5.5-7.8-2.9-16.9.4-25.2 9.2-2.8 3-10.6 13.7-17.4 23.8-12.9 19.5-18.5 26.8-23 30-2.6 1.8-2.9 1.9-6.8.3-7.5-2.9-11.4-.1-18.9 13.6-5.9 10.8-9 14.1-13.5 14.1-6.4 0-6.6-.8-2.5-11.7 6.1-16.2 6.2-19.9.6-18.3-7.1 2.1-15 13.6-16.4 24.1l-.7 4.9-6.6-.5c-11.6-1-14.6-1.6-18-3.4l-3.4-1.7 3.7-3.3c3.3-2.9 7.7-5.3 14-7.7 1.7-.7 1.5-.9-1.2-1.2-3.8-.4-6.9 1.1-14.7 7.2-3.6 2.8-7 4.6-8.6 4.6-2.9 0-16.8-3.4-17.7-4.4-.4-.3.4-1.7 1.6-3 1.3-1.4 2.1-3.1 1.9-3.8-.4-.9-1.7 0-4.1 2.4-2 2.1-4.2 3.8-4.9 3.8-.8 0-4.9-.9-9.2-2-8.1-2.2-15.4-5.4-19.5-8.7l-2.4-1.9 5.7-2.8c3.1-1.5 13.4-8 22.9-14.3 15.8-10.7 27.5-17.3 30.4-17.3.6 0 3.8-2.2 7-5 3.2-2.7 10.1-7.3 15.3-10.1l15-8.5c5.9-3.5 7-3.2 7 1.9 0 5.9 3.6 9.6 9.2 9.7 8.6 0 16.8-13.5 12.8-21-2-3.8 1.6-7 9.5-8.4 2.2-.4 5-1.4 6.2-2.2 1.4-.9 4.5-1.4 8.2-1.3 7.1.2 9.3-.8 6.5-2.8-1.8-1.4-1.8-1.4.6-1.1 1.4.2 2.5 1 2.5 1.8s.5 1.9 1 2.3c1.8 1.4 21.7-.4 26.8-2.4 2.7-1.1 5.6-1.8 6.5-1.7 1.2.2 1.6-.3 1.4-2-.2-1.5.2-2.2 1.4-2.2.9 0 5.1-3.4 9.3-7.5 4.3-4.1 8.1-7.2 8.4-6.8.4.3.7 2.8.7 5.5 0 5.3.7 5.9 3.6 2.7 1.5-1.6 2-4 2.3-10.5.2-7 .6-8.4 2-8.4.9 0 3.6-1.6 6-3.5s4.7-3.5 5.1-3.5-.2 3.3-1.2 7.2zm-243-1.2c-.7 1.1-1.7 2-2.2 2s-.1-.9.9-2 2-2 2.2-2-.2.9-.9 2zm405 2.7c5.6 4.2 7.7 12.5 4.7 18.3-2 4-3.7 4.7-14.6 6.5-10.6 1.7-19.7 1.9-21.9.5-1.5-1 .2-3.3 14.8-20.3 7.3-8.4 7.4-8.4 11-7.6 1.9.4 4.7 1.6 6 2.6zm-617.7 7.4c-.6 1.6-1 1.8-1 .7-.1-2.2 1.2-5.5 1.6-4.2.2.6-.1 2.2-.6 3.5zm204.9 2.6c-3.1 7.1-9.4 14.7-20.5 24.6-5.5 4.9-11.7 10.9-13.7 13.4-2.1 2.5-3.8 4.1-3.8 3.6 0-2.2 7.3-10.3 15.3-17.1 12.1-10.3 16.1-15 20.3-23.9 3.9-8.2 6-8.8 2.4-.6zm136.8 7.1c.2 1.4-.2 2.2-1.2 2.2-1.7 0-3.9-3.4-2.9-4.4 1.4-1.3 3.8 0 4.1 2.2zm19.8 2.3c.7 1.2-1.2 2.9-3.4 2.9-1 0-1-.5-.2-2 1.2-2.2 2.5-2.6 3.6-.9zM837 741c-2 1.3-10.3 1.3-9.5 0 .3-.6 3-1 5.8-1 3.7 0 4.8.3 3.7 1zm-417.5 8.1c-.9 1.7-1.9 2.9-2.1 2.6-.7-.7 1.8-5.7 2.8-5.7.5 0 .1 1.4-.7 3.1zm168 27.4c-1.7 1.3-3.2 2.1-3.5 1.9-.2-.3.9-1.6 2.5-2.9 1.7-1.3 3.2-2.1 3.5-1.9.2.3-.9 1.6-2.5 2.9zm-184 7.5c-.4 1.2-.9 1.9-1.2 1.7-.3-.3-.2-1.5.2-2.7s.9-1.9 1.2-1.7c.3.3.2 1.5-.2 2.7zm175.6-1c-2.2 1.9-4.1 2.6-4.1 1.5 0-.5 5.1-3.4 6-3.4.3 0-.6.9-1.9 1.9zm343.2 8.1c-1 1.7-4.9 5.6-8.8 8.5-6.2 4.7-7 5.1-7.3 3.3-.6-3.2 2.2-6.3 8.7-9.7 3.3-1.8 6.3-3.7 6.6-4.2.4-.6 1.1-1 1.6-1 .6 0 .2 1.4-.8 3.1zm-357.1 2.6c-.6 1-2 2.7-3.3 3.8-2.4 2.1-1.9.9 1.5-3.7 2.1-3 3.4-3.1 1.8-.1zm-10.3 10.9c-1.5 1.9-8.9 5.7-9.6 5-.3-.2.8-1.2 2.4-2.2 1.5-.9 3.7-2.3 4.8-3 2.8-1.8 4-1.7 2.4.2zm-162 3.6c-1.7 3.3-5.9 8.2-5.9 6.8 0-1.2 6.3-10 6.8-9.5.2.2-.2 1.4-.9 2.7zm146.7 5.3c-1.1.8-2.5 1.5-3 1.5-.6 0-.2-.7.8-1.5 1.1-.8 2.5-1.5 3-1.5.6 0 .2.7-.8 1.5zm512.7.5c2.2 1.7 2.5 2.6 2 5.3-1.4 7.5-6.6 13.4-10.8 12.3-4.1-1.1-6.6-4.2-5.9-7.4 1.4-5.5 7.3-12.1 11-12.2.6 0 2.3.9 3.7 2zm-669.8 9.1c-.7 1.5-6.5 6.4-6.5 5.5 0-.3 1.4-2.1 3.1-4.1 3.1-3.5 4.5-4.1 3.4-1.4zm542.5 2c-4 3.4-13 7.9-15.7 7.9-1 0 1.4-1.6 5.2-3.6 3.9-2 8.4-4.6 10-5.9 4.3-3.3 4.7-1.9.5 1.6zm-131.5 1.1c2.9 2.3 6.4 9 6.5 12.3 0 1.2 4.5 7.7 10 14.5 10.8 13.4 17.2 24.7 18.9 33.2.7 3.2.8 8.6.3 13.7l-.7 8.4-7.4-7.4c-11.7-11.7-21.6-28.3-28.2-47.4-1.9-5.6-2.4-8.9-2.3-16.8.1-7.3-.2-9.7-1.2-9.7-.7 0-1.6.4-1.9 1-.9 1.5-5.5 1.2-5.5-.3 0-4 7.1-5 11.5-1.5zm-6.7 12.1c.3 7.8-.4 8.5-7.1 7.1-3.3-.7-4.3-1.4-4.5-3.2-.8-5.5 4-11.5 8.8-11 2.4.3 2.5.7 2.8 7.1zm109.1-1.3c-2.4 1.4-12.9 4-15.9 3.9-2.4 0 12.9-4.6 16-4.8 1.2 0 1.2.1-.1.9zm-527.2 5.7c-1.6 1.6-1.7 1.6-1.7-.3 0-1.1.3-2.4.7-2.8.4-.3 1.1-.2 1.7.4.7.7.5 1.6-.7 2.7zm494.8-.6c-1.6.5-6.6 1.2-11 1.5s-12.2 1.9-17.4 3.6c-10.3 3.2-22.1 4.8-22.1 3 0-1.4.8-1.6 16.3-4.7 14-2.8 24.6-4.2 32.2-4.3 4.5 0 4.7.1 2 .9zm-154 3.9c4.4.4 11.6 1.6 16 2.6 11.1 2.5 40 2.7 46.2.2 4-1.6 8.3-1.5 8.3.3 0 .5-1.7.9-3.8.9s-7.6 1.1-12.2 2.5c-6.8 2-9 2.3-11.9 1.5-2-.5-8.4-1-14.4-1-8.2 0-12.1-.5-16.4-2-6.9-2.4-9-2.6-7.4-.7 1.6 2 7.7 3.6 17.5 4.6 4.8.5 8.8 1 9 1.2s.6 2.9 1 6c.5 5 .3 5.8-1.8 7.8-1.4 1.3-3.5 2.3-4.8 2.3-2.6 0-22-7.6-31.5-12.3-8.1-4-16.4-12.9-12-12.9.6 0 3.6.9 6.5 2s6.4 2 7.8 2c4.8 0 .9-2.6-7.7-5-4.7-1.4-7.5-2.6-6.8-3.1.7-.4 3.3 0 5.8.8s8.2 1.9 12.6 2.3zm74.5 7.1c5.6 1.2 5.7 2.5.2 3.4-2 .4-5.9 1.3-8.6 2.1-4.5 1.4-5 1.4-6.8-.3-1.9-1.7-1.9-1.8.7-4 2.9-2.6 6.7-2.9 14.5-1.2zm267 2.5c0 2.7-3.3 7.4-5.2 7.4-2.5 0-2.3-4 .2-6.8 2.4-2.6 5-2.9 5-.6zm-286.2 3.8l2.1 3.5-6.5 4.1c-6.4 4.3-12.4 6.9-15.7 7-1.6 0-1.5-.5.7-4.8 3-5.7 9.2-12 13.2-13.1 3.6-1 3.7-.9 6.2 3.3zm32.7 15.6c.3.5.2 1-.4 1-.5 0-1.3-.5-1.6-1-.3-.6-.2-1 .4-1 .5 0 1.3.4 1.6 1zm.9 7.1l5.2 3.1-2.6 7.6c-3.5 9.8-5.6 12.2-10.9 12.2-2.3 0-4.1-.2-4.1-.4 0-.3 1.1-2.6 2.5-5.2 2.7-5 3.3-11.1 1.4-14.5-.8-1.6-.7-2.5.7-4 .9-1 1.9-1.9 2.1-1.9.3 0 2.8 1.4 5.7 3.1zm-17.4 3.6c0 1.2-3.3 4.3-4.7 4.3-2 0-1.6-1.7.9-3.4 2.4-1.7 3.8-2 3.8-.9zm-90 6.7c0 2.5-1.2 4.6-2.6 4.6-1.7 0-1.8-3.2-.2-4.8s2.8-1.5 2.8.2zm-446 13.5c0 .5-6 3.9-13.2 7.5-20.9 10.4-38.8 15.6-37.1 10.8 2.1-6 9.5-12.4 17.7-15.2 8.9-3.2 32.6-5.4 32.6-3.1zm27 .8c.7.7-4.3 4.5-15.7 11.7-9.9 6.3-13.5 7.9-20.5 9.1-2.1.3-4.5 1.6-5.5 2.8-1 1.3-4 3.2-6.8 4.2-6.9 2.8-7.3 2.8-5.1 1.1 3.4-2.8.7-3-6.7-.7-3.9 1.2-8.7 2.5-10.4 2.8l-3.3.5v-4.3-4.4l11.3-3.6c16.6-5.4 37.7-15 37.7-17.1 0-2.7 5.4-3.8 15.5-3.1 5 .3 9.2.7 9.5 1zm598.8 16.2c9.1 10.4 19 25.2 23.6 35.4 3.5 7.5 3.5 7.5 2.1 13.4-.8 3.2-1.5 7.1-1.5 8.8-.1 3-.2 2.9-6.3-3.6-10.5-11.3-18-25.3-28-52.9l-5.3-14.5c-1.3-3.4 7 3.9 15.4 13.4zm11.1 5.3c.5 1.3.7 2.5.4 2.8-.5.6-3.3-3-3.3-4.2 0-1.7 2.1-.7 2.9 1.4zm19.2 10.2c23.1 5.9 47.6 17.4 57.7 27.2 6.5 6.3 7.4 8.6 4 10.8-1.3.8-3 .5-7-1.3-2.9-1.3-10-4.1-15.7-6.3-15.9-5.9-30.2-15.1-49.5-32-1.6-1.3.4-1 10.5 1.6zm-711.5 1.3c-.4 1.6-.8 3.7-.9 4.9-.1 1.1-.8 2.8-1.5 3.7-2 2.4-9.6 6.6-15.8 8.7-8.2 2.9-33.2 6-45.4 5.8-6.1-.2-13.3.4-17.2 1.2-6 1.2-9.1 1.2-28-.4-12.3-1.1-22.7-2.5-24.8-3.4-2.6-1.1-5.5-1.3-11.6-.8-11.2.9-12.1.4-8.2-4.5 2.6-3.2 3-4.4 2.5-7.4-.5-3.3-.4-3.5 2.1-3.5 1.5 0 9.2 1.4 17.2 3.1 12.4 2.6 16.6 3 28.8 3 7.8-.1 18.3-.5 23.1-1.1 4.9-.5 16-.9 24.7-.8l15.9.1 16.3-4.7c9-2.5 17.1-5 18-5.6 1-.5 2.5-1 3.6-1 1.5 0 1.7.5 1.2 2.7zm496.6.5c-.7.7-1.2.8-1.2.2 0-1.4 1.2-2.6 1.9-1.9.2.3-.1 1.1-.7 1.7zm77.6 26c.2 1.4-.6 3.5-1.7 4.9-1.6 1.9-2.3 2.2-3.7 1.3-2.7-1.6-2.7-2.9.2-6.3 3-3.6 4.8-3.6 5.2.1zm-255.2 199.1c-.9 2.9-3.4 8.8-5.5 13.2-3.1 6.3-3.9 7.4-4 5.3-.1-1.5-.8-4.6-1.7-6.8-1.6-3.9-1.6-4.2.4-6.3 1.1-1.2 3.2-4.7 4.7-7.7s3.7-6.6 4.9-7.8l2.1-2.4.3 3.6c.2 2-.4 6-1.2 8.9zM485 1185c-1.3 2.3-4 2.7-4 .5 0-.9 1-3 2.3-4.6l2.2-3.1.3 2.5c.2 1.5-.2 3.5-.8 4.7z"/><path d="M655.9 11.8c-12.5 11.2-14.5 14.5-17 27.7-1.6 8.9-2.8 12.3-6 17.6-4.7 7.9-5.3 11.6-1.1 6.7 1.6-1.8 6-7.6 9.9-12.8l11.2-14.5c8.5-10.1 16.6-30.9 12.6-32.1-.5-.1-4.9 3.2-9.6 7.4zm-88.5 157.4c-3.7.9-4.3 1.5-5.8 5.8l-1.7 4.7-3.9-1c-5.5-1.5-10.9.4-15.3 5.3-7 7.7-6.6 17.4.9 22.1 1.9 1.1 3.1 2.5 2.8 3.1-.3.5-.3 2.4 0 4.2.7 3.8 6.5 7.6 11.6 7.6 7.3 0 15-6.8 16.5-14.6.5-3 .1-4.3-2.1-7.5-2.6-3.8-2.6-3.9-.9-8.1.9-2.4 1.9-7.7 2.1-11.8.3-6.3.7-7.7 2.6-9.2l2.3-1.8-2.5.1c-1.4.1-4.3.6-6.6 1.1zm1.5 12.1c0 2.8-.6 6.5-1.6 8.5l-1.7 3.6-1.3-3c-2-4.8-1.6-12.4.9-16.4l2.2-3.5.7 3c.4 1.6.7 5.2.8 7.8zm-17.9 12c0 1.4-2 3.7-3.2 3.7s-1-2.4.4-3.8c1.6-1.6 2.8-1.5 2.8.1zm15.9 6.3c2.8 3.5 2.6 6.8-.4 11.9-4.7 8.2-10.5 9.7-16.1 4.1-1.9-1.9-3.4-3.9-3.4-4.4 0-.6 2.8-3.1 6.3-5.6 3.4-2.5 7.1-5.4 8.1-6.5 2.5-2.7 3-2.6 5.5.5zm460-22.2c-9.7 2.6-19.5 10.9-24.5 20.8-2.1 4.2-2.9 7.5-3.6 16.8-.6 6.3-2.1 17.1-3.4 23.9-2.8 14.6-3.1 20.1-.9 20.1.9 0 1.5-.9 1.5-2.4 0-1.4.9-6.2 2-10.8s1.9-11.7 1.9-15.9.7-11.8 1.6-16.8c1.9-9.9 1.2-8.7 13.8-24 5.7-7 9.2-9.1 15.5-9.1 5 0 2 9.9-8.5 28.2-6.5 11.2-15.3 34.1-15.3 39.3l.1 3 1.6-3c.9-1.6 3.6-8.3 6-15 2.4-6.6 7.5-17.6 11.3-24.5 9.7-17.5 11.8-24.7 9-30.1-1.2-2.2-1.8-2.2-8.1-.5zm50.6 67.6c-6.2 1.3-23.8 7.5-30.9 10.9-7.3 3.5-15.5 8.9-20.6 13.5-1.9 1.8-4.8 3.9-6.5 4.6l-3 1.5 4.4.3c2.8.2 4.9-.2 6-1.2 2.7-2.4 6.8-3.6 16.5-4.6 5-.5 12.4-2.1 16.5-3.5 5.4-1.8 10.4-2.6 18.5-3.1 6.1-.3 13.1-1 15.6-1.5 2.6-.5 5.8-.6 7.5-.1 2.3.7 3.7.4 6-1.2 7-4.8 6.9-4.5 1.3-8.3-2.8-2-7.1-4.4-9.5-5.5-5-2.2-15.9-3.1-21.8-1.8zM313 419.8c0 4.2 5 11.2 12.7 17.9 14.4 12.3 20.3 15.5 36.7 19.2 6.8 1.6 14.4 3.8 17.1 5 10.1 4.4 10 2.1-.2-5.8-5.1-4-14.3-9.3-26-15.2-17.9-8.9-25.6-13.5-34.1-20.4-5.3-4.2-6.2-4.3-6.2-.7zm170.5 21.1c-5.2 2.3-8.5 8.5-8.5 16 0 5.6 2.7 8.9 8.2 9.7 6.1 1 13.3-4.4 15.8-12 1.4-4.2-.5-9.6-4.3-12.1-3.1-2-8.5-2.8-11.2-1.6zm5.3 8.1c-.4 2.8-3.3 4.9-4.8 3.4-.6-.6-.2-2 1.3-4.1 2.3-3.4 4.1-3 3.5.7zm124.7-.5c-.9 2-1.5 4.6-1.3 5.8.3 1.9.7 1.6 2.6-2 2.3-4.4 2.8-7.3 1.3-7.3-.5 0-1.6 1.6-2.6 3.5zm169.5 1.4c0 3.7 9.8 8.9 35 18.3 21.8 8.2 29.8 12.2 37.1 18.7 3 2.6 6.5 5.3 7.8 6l2.3 1.3-2.3-4.2c-3.1-5.5-15.3-17-24.1-22.7-9.2-5.9-21.9-11.8-32.3-14.8-9.9-2.8-23.5-4.4-23.5-2.6zm-179.5 7.8c-9.6 2.4-15 17-8.9 24.2 4.9 5.8 13.9 3.2 19.5-5.8 3.9-6.1 3.9-11.2 0-15.2-1.6-1.6-3.6-2.9-4.4-2.9-.9 0-2.1-.2-2.9-.4-.7-.2-2.2-.1-3.3.1zm5.5 6.9c0 2.2-3.8 5.4-5.5 4.8-2.1-.9-1.9-3.4.7-6.1 1.6-1.7 2.4-2 3.5-1.2.7.6 1.3 1.8 1.3 2.5zm607.5 38.1c-19.4 18.1-24.5 25.9-26.5 40.3-2.4 17.6-11.1 33-21 37.5-2.3 1.1-4.1 2.6-4.4 4-.3 1.3-1.6 2.5-2.8 2.9-1.3.3-3.2 2.2-4.3 4.3-1.7 3.1-3.2 4.2-8.7 6.5-8.8 3.5-12.8 6.4-27.3 19.3-11.1 10-22.5 18.5-24.8 18.5-2.2 0 3.6-13.9 10.2-24.5 6.7-10.5 9.3-16.6 11.2-26.4 1.1-5.2 3.9-15.1 6.3-22 5.9-17.1 8-26.2 7.1-30.9l-.7-3.7-3 3.5c-6.3 7.3-18 23.5-20.4 28.1-3.3 6.5-5.1 14.9-6.4 29.9-1.4 15.2-3 23.6-7.8 40-2.8 9.7-4.3 13.2-6.9 16.1-3.2 3.6-4.2 5.9-2.4 5.9.5 0 4.2-2.2 8.3-4.9 7.2-4.9 7.4-4.9 12.9-4.1 8.6 1.2 16.3 5.8 34.6 20.5 20.8 16.7 29.5 21.5 41.5 22.6l13.1 1.5c2.6.4 4.7.3 4.6-.2 0-1.1-8.3-7.2-24.9-18.2-19.3-13-51.2-27.7-62.2-28.8-10.7-1.1-10.7-1.1-5.2-4.8 2.7-1.9 10.7-8.6 17.9-15 14-12.7 21.1-17.9 27.6-20.1 5.7-2.1 6.5-2 14.4 1.9 8.6 4.3 11.5 6.8 20 17.6 3.7 4.7 10.4 12.5 14.9 17.5a395.8 395.8 0 0 1 13.5 15.3c6.9 8.2 11.7 11.4 16.7 11 5.1-.4 5.4-2.3 1.5-10.3-8.6-17.4-39.9-44.3-62.4-53.6-5-2.1-9.3-4.2-9.5-4.7-.1-.5 1.3-2 3.3-3.2l3.6-2.2 2.2 2c1.5 1.4 4 2.1 8.2 2.4 7.6.5 12.7 3.1 28 14.1 6.6 4.8 17.2 11.5 23.5 14.9a919.3 919.3 0 0 1 20.5 11.5c12.6 7.5 17.2 8.4 21.8 4.5 2.6-2.3 2.1-3.8-2-5.5-2.1-.8-5.5-3.5-7.5-6-4.7-5.6-15.8-13-26.8-17.7-11-4.8-46.9-16.7-54.1-18.1-5.8-1-10-3.2-8.7-4.5.5-.4 2-.2 3.5.5 2.3 1.1 2.9 1 4-.5.7-.9 1.4-2 1.5-2.5.5-1.3 24.5-3.1 42.8-3.1 24.7 0 42.2-.4 46.2-1.2 1.9-.3 4.7-2 6.3-3.6l2.9-3-3.4-3.5c-5.8-6-10.2-7-29-6.9-24.4.1-32.7 2-47.1 11.4-3.3 2.1-8.1 4.6-10.7 5.4-5.3 1.7-18.2 3.9-18.9 3.2-.3-.2 2.8-2.7 6.9-5.4 10.3-7 24.9-22.4 27.3-28.7 2.1-5.6 5-10.6 10.6-18 5.2-7 9.5-16 12.4-26.1 2.7-9.2 3.1-12.9 1.5-13.9-.5-.3-6.6 4.7-13.5 11.2zm-352-4.7c.3.5 1.1 1 1.6 1 .6 0 .7-.5.4-1-.3-.6-1.1-1-1.6-1-.6 0-.7.4-.4 1zM583 502.1c0 5.8 3.8 12.5 12.6 22 4.2 4.6 9.1 10.1 10.8 12.3 4.5 5.6 10.2 8.6 16.3 8.6 3.7 0 6.8.9 11.7 3.3 3.6 1.9 6.6 3.2 6.6 3s-3.3-3.6-7.3-7.6c-4-3.9-10.2-10.8-13.8-15.2-3.5-4.4-9.2-10-12.5-12.5l-15.3-11.2-9.1-6.6v3.9zm15.5 112.8c-3.3 1.5-5.8 1.7-15 1.3s-12.4-.1-19 1.7c-10.8 3-33.9 12.1-32.8 13.1.4.4 5.8 1.3 11.9 2 18.7 2.1 33.5-1.5 49.3-11.8 5.1-3.4 10.2-6.2 11.2-6.2s1.9-.5 1.9-1c0-1.5-3-1.2-7.5.9zm-6 17.7c-1.6 3-3 6.1-3 6.7 0 .7-1.3 1.3-3 1.5-8.1.7-11.6 3.7-14 11.8-1.4 4.9-1.4 5.6 0 7.8 1.7 2.6 6.5 5.3 11.4 6.2 4 .8 8.3-2.3 11-7.9 2.6-5.4 2.6-8.9.1-14.3l-2.1-4.2 2.1-6.1c2.2-6.8 2.3-7.1 1.3-7.1-.5 0-2.1 2.5-3.8 5.6zm-4.9 14.5c.3.6 0 1.7-.8 2.5-1.2 1.2-1.7 1.2-3.2.1-1.1-.8-1.6-1.9-1.2-2.5.9-1.5 4.3-1.5 5.2-.1zm202.6 44.1c-1.4 1.4-1.6 4.8-.2 4.8 1 0 3-3.2 3-4.9 0-1.4-1.3-1.4-2.8.1zM986 732a1.08 1.08 0 0 0 1 1c.6 0 1-.5 1-1a.94.94 0 0 0-1-1c-.5 0-1 .4-1 1zM447.5 841c-.9 1.5 1.4 4 3.6 4 2.8 0 3.2-1.7.7-3.4-2.6-1.9-3.5-2-4.3-.6zm31.1 41.6c-1.6 4.2.2 9 6.4 16.4 2.1 2.5 5.3 7 7.3 10.1 5.6 8.9 15.6 15.2 20.4 13 4.5-2 2.3-6.9-6.8-15.7-3.5-3.3-9.9-8.4-14.1-11.2-7.9-5.3-10.8-8.4-10.8-11.4 0-2.3-1.6-3.2-2.4-1.2zM412 893.9c-5.5 1.7-16.6 8.3-24.5 14.6-2 1.6-2 1.6.4 3.6 1.6 1.3 3.9 1.9 7.6 1.9 4.5 0 5.5.3 6 2 2 6.4-9.9 6.6-16.7.2-2.3-2.1-3.4-2.4-7.8-2-3.1.3-5.8 1.2-6.8 2.3-1.6 1.7-1.5 1.7 2.8 1.2 3.3-.4 5.2-.1 7.5 1.3 1.6 1 7.1 2.5 12.1 3.4 5.3.9 11.9 2.9 16 4.8 6.5 3.1 7.8 3.3 23.4 4.1 22.2 1.2 22.1 1.2 25.2.4 3.2-.8 4.7-4.9 2.8-7.2-3.9-4.8-21.6-7.5-36-5.6-9.7 1.3-14.4.4-18.7-3.4-3.4-3-3.3-3 9.2-8.1 9.9-3.9 15.5-7 15.5-8.5 0-.6-1.1-2.1-2.5-3.4-2-2.1-3.3-2.5-7.7-2.4-2.9 0-6.4.4-7.8.8zm-82.5 3.6c-2.2.7-6.6 1.4-9.8 1.4-6.1.1-11.7 2.2-11.7 4.5 0 2.1 7.3 3.5 21.6 4.1 7.1.4 16.2 1.3 20.3 2.1 9.6 1.8 14.4.7 13.9-3.4-.3-3-5.2-6.7-10.7-8.1-6.7-1.8-19.3-2.1-23.6-.6zm245.8 82.7c-1.1 1.3-3 4.2-4.2 6.5-1.1 2.3-2.4 4.4-2.8 4.6-.5.3-.6 4.5-.3 9.5.6 8.7.7 9.1 5.7 16.8 6.9 10.5 8.5 14.7 8.7 22.4.1 8.5-2.6 14.5-11.9 26.5-3.9 4.9-8.5 11.1-10.3 13.7-2 2.9-4.4 5.1-6 5.5-3.6 1-15.1 1-23.4-.1-7.9-1-9.1.3-2.5 2.8 6.7 2.5 15.2 2.9 26.6 1.2 16.9-2.6 30.9-1.8 33.3 1.8 2 2.8.7 4.5-4.5 6-4.3 1.3-5.8 2.3-8.4 6-2.1 2.9-4.7 5.1-7.6 6.4-6.2 2.7-10 8.6-10.1 15.4-.1 4.3.3 5.3 2.7 7.4 3.6 3.1 7.8 3.1 11.4 0 2.8-2.4 2.9-2.4 6.3-.6 3 1.6 3.8 1.6 6 .5 3.3-1.7 10.3-9.3 12.5-13.5 1.6-3.2 1.6-3.4-1.3-9.2-2.7-5.5-2.8-6.3-1.6-8.6.8-1.7 1.1-4.1.8-6.4l-.6-3.8 4.3 1.4c21.7 7 20.3 6.3 35.7 17.8 8.5 6.4 18.1 12.7 22.7 14.9 4.9 2.3 9.5 5.3 11.8 7.8 4.7 5 9.8 6.6 18.6 5.7 3.5-.3 6.6-.8 6.9-1.1.9-.9-2.3-3.8-5.7-5.2-1.9-.8-7.5-5.4-12.5-10.2s-11.3-10.2-14-12.1c-9.3-6.3-25.3-11.9-49.7-17.4-5.8-1.3-12.3-3.2-14.4-4.1-3.8-1.5-3.9-1.7-2.1-3 1-.8 3.9-1.7 6.5-2 2.5-.3 7.3-1.3 10.6-2.1 3.3-.9 11.2-1.9 17.5-2.4 6.3-.4 13.4-1.3 15.8-1.9 3.1-.9 5.2-.9 7.5-.2 2.2.8 4.3.8 6.7.1 1.9-.6 5-1 6.8-1s5.5-1.1 8.2-2.5 6.3-2.5 8.1-2.5c1.7 0 10.7 3.4 20.3 7.6 22 9.8 29.6 12.5 37.3 13.2 5.8.4 15.3-1.2 15.3-2.7 0-1.9-4.5-7.4-8.1-10-6.5-4.8-13.1-6.7-32.8-9.5-10.2-1.5-19.2-3.1-20-3.6-2.4-1.4 46.8-1.2 59 .2 16 1.9 19.7 1.7 21.9-1 3.3-4.1 0-8.6-9.2-12.7-5.7-2.6-6.8-2.7-16.2-2.3-8.7.4-12.2 1.2-25.7 5.7-14.7 4.8-24.9 6.6-24.9 4.2 0-1.1 5.5-3.1 8.4-3.1 1.2 0 4.8-1.6 8.1-3.6s7.8-3.9 10-4.2c2.2-.2 6.7-2 10-3.8 4-2.2 8.5-3.7 13.5-4.5 4.2-.6 12.2-3 18-5.4s14.9-5.7 20.2-7.3c10.6-3.3 19.8-7.8 19.8-9.7 0-.7-.8-1.9-1.8-2.8-1.5-1.4-4.1-1.7-14.1-1.7-10.6 0-13.3.4-19.9 2.6-14.5 4.9-22.1 9.2-29.6 16.5-3.8 3.8-7.4 6.9-8 6.9-2 0-14.9 6.7-20 10.3-3.9 2.9-5.5 3.4-8.2 3-2.7-.5-4 0-7.3 2.8-2.1 1.9-7.4 4.7-11.8 6.3-4.3 1.7-10.5 4.3-13.8 5.8-5.9 2.7-12.5 3.7-12.5 1.9 0-.5.9-1.2 2-1.6 3.4-1.1 10.3-9.9 17.4-22.4 4.2-7.3 9.6-15 13.6-19.4 7.8-8.6 11-12.6 11-14 0-1.7-10.3 0-17 2.8-8.8 3.7-14.1 7.5-17.5 12.6l-2.8 4.3 1.3 9.7c1.2 8.8 1.1 10.2-.4 14.3-2.3 6.1-11.7 14.6-16.1 14.6-1.6 0-6.2.9-10 2-4.7 1.4-9.8 2.1-15.4 2-6.2 0-9.5.5-12.8 2-3.1 1.4-5.7 1.8-8.2 1.4-2.7-.4-5.4.1-10.1 2-10.2 4.2-14.3 4.8-19.2 3.1-3.4-1.1-5.1-1.2-8.1-.3-2 .6-4 .8-4.3.5-1.4-1.3 4.3-8.2 15.5-18.6 7.6-7.2 12.8-12.9 14.7-16.3 2.8-5.1 2.9-5.7 2.6-17.3-.3-15-1.7-19.8-9.9-33.3-4.7-7.8-6.3-11.3-6.3-14.1 0-3.3-1.4-6.1-3-6.1-.4 0-1.6 1-2.7 2.2zm15.1 119.7c.9 1.5-10.5 8.1-13.9 8.1-3.1 0 .7-4.9 4.9-6.4 8.1-2.9 8.3-2.9 9-1.7zm-17.4 17.8c0 8.6-1.5 11.7-5.8 12.1-2.6.3-3.4-.1-4.3-2.2-.7-1.4-.9-4-.5-6 .8-4.3 6-10.6 8.7-10.6 1.7 0 1.9.8 1.9 6.7zm18-3.5c0 1.5-5 5.9-6 5.3-1.6-1-1.2-3 1.1-5.9 1.7-2.1 2.4-2.4 3.5-1.5.8.6 1.4 1.6 1.4 2.1zm-104.2 86.1c-9.1 6.3-13.7 15.1-10.4 20.2 2.1 3.3 6.5 5.4 9.8 4.8 3.6-.7 9.3-5.7 12.2-10.6 5.1-8.7 2.9-17.8-4.1-17.7-1.6.1-4.9 1.5-7.5 3.3z"/></svg>