<svg xmlns="http://www.w3.org/2000/svg" width="853.333" height="1706.667" viewBox="0 0 640 1280" preserveAspectRatio="xMidYMid meet" xmlns:v="https://vecta.io/nano"><path d="M250.7 9.7C223.3 54.2 205 97.8 200.1 130c-4.1 27-.7 56.9 8.4 75 8.9 17.7 26.2 27.9 47.4 28 39.3.1 59.1-26.6 59.2-79.9.1-30.5-8.9-61.9-29.6-103C275.3 29.7 258.5 1 256.8 1c-.4 0-3.1 3.9-6.1 8.7zm169.8 161.8c-50.6 12.9-86.2 30.1-108.5 52.5-19.1 19.1-27.9 36.5-26.8 53.5.7 10.7 4.8 18.7 14.6 28.5 15.9 15.8 31.9 18.8 51.6 9.6 32.2-15.1 56.4-48.1 74.1-101.1 4.8-14.4 12.9-44.9 12.3-46.4-.2-.5-7.9 1.1-17.3 3.4zM146 237.7c0 2.2 5.6 23.7 9.6 36.8 8.3 27.2 19.3 51.9 30.9 69.5 9.6 14.5 29.7 33 43.4 40 14.5 7.3 28.1 8 40.5 2 9.3-4.4 20-15 24.6-24.4 4.3-8.6 5.2-19.8 2.5-29.2-5.4-18.8-23.8-41.2-46-55.9-21.4-14.1-55.7-27.7-91.5-36.5-13.6-3.3-14-3.3-14-2.3zm303 49.4c-30.7 7.1-65.1 19.1-88.5 30.9-29.4 14.9-48.9 31.5-64.2 55.1-13 20.1-14.8 39.7-5 56.9 4.9 8.6 17.1 20.1 26.3 24.6 7 3.5 8.5 3.9 17.5 4.2 8 .4 10.9 0 16.5-1.7 13.9-4.5 26.5-12.6 40.9-26.3 23.3-22 40.6-54.2 55.9-103.8 3.7-11.9 10.6-38.5 10.6-40.7 0-1.5.6-1.6-10 .8zm-324 68.7c0 .5 2 8.7 4.5 18.3 14.6 57.1 34.3 98.5 58.6 122.8 35.7 35.6 67 41.4 92.5 17.1 7.1-6.8 11.1-12.1 14.6-19.5 4.1-8.8 5-20.3 2.3-30.5-5.9-23-30.4-51.3-59.6-68.8-22.9-13.7-56.7-26.8-93.8-36.3-15.8-4-19.1-4.5-19.1-3.1zm364 58c-1.4.2-10.4 2.4-20 4.8-60.8 15.5-110 37.6-138.4 62.3-15 12.9-33 35.8-39.1 49.5-4.9 11-6.8 20.1-6.3 30 .8 15.2 6.1 26.5 18.3 39.1 30.7 31.8 67.3 27.2 110.1-13.7 5.3-5.1 12.5-12.9 16-17.4 21-26.9 40.9-71.6 54.8-122.9 3.7-13.8 7.9-31.7 7.4-31.9-.2-.1-1.4 0-2.8.2zM92.4 485.2c2.5 11.5 8.7 35 12.3 46.8 12.3 40.1 25.5 70 41.8 94.5 9.1 13.6 15.6 21.2 26.4 31.1 41.2 37.4 74.9 42.2 104.1 14.7 9.1-8.5 16.1-18.3 19.2-26.8 3.3-9.1 3.6-22.9.8-33.1-7-25.9-33.8-58-64.5-77.6-21.8-13.9-50.9-26.7-85-37.5C133.8 493 96.1 483 93.3 483c-.9 0-1.2.8-.9 2.2zm449.1 181.5c-2.2.9-8.7 3.4-14.5 5.6-30.7 11.6-63.5 30.6-90 52.1-18.8 15.2-44.6 42.7-59.9 64-21.8 30.2-43.8 74-56.6 112.4-1.6 4.5-2.9 8.1-3.1 8-.3-.4-2-69.7-3.4-139.3l-1.6-64.3-.6-12.2h-11.3-11.3l-.6 12.2c-.3 6.8-.8 24.9-1.1 40.3L286 817l-3 134.5-5 225-1.6 72.8-.7 30.7h24.8 24.8l-.7-29.3c-.5-22.5-.3-33.1.9-46.1 15.8-177.4 89-359.5 210.2-523.4l11.3-15.7c0-.7-1-.5-5.5 1.2z"/></svg>