<svg xmlns="http://www.w3.org/2000/svg" width="1706.667" height="1654.667" viewBox="0 0 1280 1241" preserveAspectRatio="xMidYMid meet" xmlns:v="https://vecta.io/nano"><path d="M918.1 3.7c-.1 4.6-3.5 12.9-11.4 28.3-12.6 24.5-23.8 39.3-38.9 51.4-4.5 3.7-18.9 13.8-31.8 22.4-19 12.6-25.2 17.4-32.6 24.7-13.7 13.9-22.5 28.2-24.2 39.8l-.8 5.2-3.1-6c-6.1-12.1-13.9-39.7-16.4-58.1-2.5-18.9 1-48.2 8-66.9 2.1-5.5 3.7-10.2 3.5-10.4-.4-.5-25.4 23-25.4 23.8 0 .4-1.5 2.2-3.3 4.1-3.2 3.4-16.6 21.5-21.9 29.5-7.7 11.8-27.5 46.8-29.4 52-1.2 3.3-5.3 22.5-9 42.7-3.8 20.2-7.1 36.4-7.5 36-1.3-1.3-7.7-19.7-9.8-27.7-4.6-18.3-5.4-41.9-2.2-63 1-6.6 1.7-12.1 1.6-12.3-.5-.6-10.4 15.6-14.5 23.8-13.9 27.7-19.7 54.8-18.7 88 .3 9.6 1.3 21.5 2.2 26.5 4 21.8 14.8 44.6 26.6 56.3 11.2 11 29.1 13.7 41.2 6.2 4.2-2.6 4.7-2.7 4.7-1 0 3.1-3 15-4.3 17.1-.7 1.1-4.5 3-8.9 4.5-11.1 3.7-26.8 3.6-38.9-.2s-19.5-8-27-15.5c-14-13.9-23.2-37-26-65.4l-1.6-14.5c-.5-2.7-6 57.3-6.2 67.8-.1 3.3-1.3 2.2-6-5.8-8.2-13.8-14.5-39-15.7-62.4-.4-9.3-.1-15.3 1.5-25.8 1.1-7.6 2.2-14.3 2.6-15 .6-1.3-.3-.2-9.1 10.8-15.5 19.2-30.2 47.4-41.8 79.9-11.3 32.2-14.5 50.1-14.7 82.5v17.5l-2-4.5c-3-6.8-6.8-20.3-8.4-30.5-2.7-16.2-1.5-56.3 1.8-60.3.5-.7.7-1.5.4-1.8-.3-.4-1.9 1.5-3.4 4.1s-4 6.4-5.6 8.4c-10.4 13.8-23.7 37.3-35 62.2-1.9 4.2-6.6 17.9-10.5 30.5l-7 22.9-1.6 32-1.6 32 2.9 14.5 3.6 17c1 3.4-7.7-10.4-13.1-20.9-4.7-9-8.3-19.3-11.1-31.1-1.5-6.3-1.8-12.1-1.7-36.7 0-16.1-.3-29-.7-28.8-.3.3-5.2 7.6-10.7 16.3-14.4 22.5-23.4 41.9-34.9 74.9l-9.7 27.8-.6 42.9-.5 42.9-3.7-5.5c-13-19.7-20.7-45.6-22.4-75.8l-.7-12.1-3.9 7.3c-11.8 22.2-21.1 52.6-26.9 88.3-2.3 14.3-4.2 28-4.2 30.5 0 5.4 10 71.7 11.3 74.5.4 1.1 2 4.6 3.4 7.9 3.8 8.5 10.9 18.8 16.7 24 5.2 4.6 17.7 11.6 21 11.6 1 0 2 .4 2.3.8.5.8-9.8 14.3-10.9 14.3-.3-.1-2.7-4.2-5.3-9.2s-7.8-13-11.6-17.8c-24.7-30.6-28.8-36.1-33.5-45.1-9.1-17.5-13.9-35.6-15-57.4l-.6-13.1-2.6 5c-1.5 2.7-3.6 8-4.8 11.8-1.3 3.7-2.9 7.3-3.6 8s-1.6 2.8-2 4.7-1.1 4.1-1.6 5c-.4.8-2 5.3-3.5 10s-3.6 10.3-4.6 12.4c-2.3 4.5-9.8 47.1-9.8 55.7 0 10 9.6 72.9 11.9 78.3 4.9 11.1 15.5 22.7 25.9 28l3.3 1.7-2.8 5.2c-3.3 6-24.3 34.6-75.7 103.2l-82.1 108.3c-.2-.2.3-3 1.1-6.3 7.8-32.8 15.3-79.5 19.1-117.9 2.1-21.5 2.3-73.9.4-90.1-4.6-39.7-12.6-65-26.3-83.4-3.2-4.2-5.4-6-10.4-8.2-6.8-3.1-18.7-5.5-32.1-6.6-9-.7-10.8.4-4.1 2.5 7.2 2.3 22.1 10.1 29.1 15.3 7.7 5.8 11.2 11 13.9 20.8 5 17.7 7.1 42.8 7.1 84.6.1 42.4-1.7 65.9-8.3 109-4 25.8-8.6 47.5-15.3 71.5l-2.4 8.4-.6-21.9C93 983.2 79.6 940.4 51.5 907.7 44 899 39.2 895.4 30.6 892c-9.8-3.9-16.6-2.9-25.3 3.8-3.9 2.9-4.3 4.5-.7 3.2 6.9-2.7 17.4-.3 25.2 5.7C48.5 918.9 70 995.7 70 1048c0 27.2-6.6 74-16.6 117.3-2 9-2.3 11.7-1.5 16.5 1.2 7.5 2.6 10.4 8.5 18.5 4 5.4 5.8 6.9 9.4 8.2 8.2 2.7 17.8 1.8 28.5-2.7 4-1.7 5.4-3.2 9.1-9.2 2.4-3.9 4.7-8.1 5-9.2.7-2.3 12.3-9.3 43.2-25.9 17.7-9.6 21.8-11.1 44.9-16.9 81.5-20.5 152.3-16.7 207.6 11 17.3 8.6 37.2 23.1 43.4 31.5 3.7 5 4.4 3.5 1.4-2.9-3.8-7.9-18.5-21.6-34.9-32.4-15.1-10-36.1-21.7-46.7-26.2-7.9-3.3-23.2-7.1-34.3-8.6-12.4-1.7-43.1-1.4-59 .5-13.5 1.7-44.1 6.9-47.6 8.1-1.3.5-1.6.4-.9-.3.6-.6 8.4-4.2 17.5-8.1 66.7-28.3 121.8-43.6 165.6-46 66.8-3.7 105.1 19.3 118.4 71.2 5 19.6.4 56.5-10.8 86.9-4.5 12.3-4 12.5 5.5 2.3 23.6-25.2 37-62.1 32-88.2-6.7-34.8-31.8-66-66.5-82.5-12.2-5.8-30.2-11.6-44.3-14.1-10.9-2-15.8-2.3-39.9-2.3-31.6 0-44.9 1.6-74 8.6-42.2 10.3-90 30-142 58.4-19.8 10.8-27.4 14.7-25.5 12.8 27.2-26.7 99.3-82 155.3-119 16.6-10.9 59.9-38.3 60.7-38.3.2 0 .9 1.6 1.5 3.5 3.4 10.3 15.9 21.7 33.4 30.3 11.6 5.7 17.6 7.8 26.1 9.1 3.3.5 8 1.5 10.5 2.2 6.2 1.7 45.5 1.8 59 .1 10.2-1.3 16.6-2.6 27.9-5.9l5.4-1.5-9.7-3.3c-20.3-6.9-37.1-17.7-46.1-29.7-2.6-3.4-6.9-10.1-9.7-14.7-7.8-13.2-15.5-24.5-19.5-28.5-2-2-3.4-3.8-3.2-4s2.5-1.2 5-2.3l4.6-2 1.2 6.3c3 14.8 12 26.5 29.2 38 11.3 7.5 22.6 12.9 36.4 17.4 13.9 4.4 53.3 8.5 73.5 7.5 13.2-.6 33.6-2.8 41.5-4.4 4.5-.9 4.9-.7-8.8-5.6-10.3-3.7-15.7-6.2-22.2-10.3-8.2-5.3-17.9-13.8-23.7-20.9l-6-7.4 3.8 1.7c9.9 4.3 19.8 7.6 29.4 9.9l18.5 4.6c11.5 2.9 33 4.2 51 3 8.3-.5 16.1-1.4 17.5-1.9 1.4-.6 9.5-2 18-3.2 16.9-2.3 39-6.9 39-8 0-.4-2.1-1.1-4.6-1.5-13.4-2-34.1-10.4-48.5-19.7-8.9-5.7-27.3-22.4-32.1-29.1-1.8-2.6-1.5-2.5 3.3 1.2 11.4 8.6 41 19.1 68.4 24.2 16.4 3 57.1 3.8 75 1.4 17-2.2 38-6.1 43-7.8l4-1.5-3-.7c-28.7-6.7-48.8-15.9-63.3-29.2l-5.7-5.2 9.5 3c42.5 13.3 39.6 12.6 69.7 15.5 32.2 3 44.5 2.8 71.3-1.2 16.8-2.5 24.6-4.1 20.3-4.3-4.1-.2-18.6-5.3-31.3-11-22.3-10.1-38.8-21.5-49.1-33.9l-5.2-6.4 7.4 3.7c11.1 5.6 23.2 10.1 38 13.9 29.6 7.7 46.5 9.8 79.4 9.8 20.4.1 26.9-.3 43.5-2.6l20.8-2.6c.6 0 1.2-.4 1.2-.8s-3.5-1.6-7.7-2.6c-15.7-3.6-39-13.5-52.8-22.4-7.4-4.7-26.3-19.3-26.4-20.3-.1-.3 3.6.7 8.2 2.3 19.3 6.9 39.1 11.9 52.7 13.4 28.4 3 83.7 2.7 89.7-.5 1-.5 6.8-1.7 12.8-2.6 6.1-.9 13.3-2.1 16-2.7l5-1.1-13-3.1c-20.9-5.1-40.6-13.4-57-24-10.5-6.9-36.5-27.8-43.9-35.4-6.5-6.7-6.4-6.8 2.8-7.4l4.8-.3 2.2 6.1c4.5 12.3 13.2 20.9 28.7 28.4 12.1 5.9 20.5 7.4 36.3 6.7 7.2-.3 16.5-1.3 20.6-2.2 10.5-2.3 46.8-13.2 51-15.4 6.3-3.2 30.4-18.3 34-21.2 1.9-1.6 4-2.9 4.7-2.9 3.5 0 35.8-35.9 33.2-36.8-.5-.2-3.7.6-7.2 1.7-11.7 3.9-20.1 5.2-37.7 5.8-19.9.7-32.8-.5-47.1-4.2-54.9-14.5-62-15.7-77.9-13.5-4.8.6-12.1 2.6-16.8 4.4-9.7 3.9-9.6 5.7-1.1-15.9 6.4-16.3 11.7-24.5 21.2-33.1 10.6-9.5 26.1-18.4 35.8-20.5 5.3-1.2 8.7-2.9 5.8-2.9-.7 0-7.7-.7-15.4-1.5-22.4-2.3-32-1.9-68 3-12.5 1.7-35 7.8-44.4 12.1-4.6 2.1-15.7 9.5-37.3 25.1l-4.7 3.4.8-2.8c1.6-5.1 5.2-13.7 8.9-20.8 4.6-8.9 22.1-26.7 34-34.5l8.3-5.5-6.3-.3c-15.2-.8-46.3 4.6-71.3 12.4-9 2.8-26.9 11.3-39.2 18.6-6.8 4-11.2 8-25 22.4-9.2 9.6-16.9 17.1-17.1 16.6-.6-1.9 5.1-21.3 8.3-28.1 6.8-14.2 15-24.6 30.9-38.9l6.8-6.1-6.8.6c-6.4.5-19 3.5-40.9 9.6-15.1 4.2-48.4 21.4-62.6 32.4-7.9 6.1-22.6 21.7-28.7 30.3-2.8 4.1-5.2 6.7-5.2 5.8 0-3.4 6.1-18.4 10.7-26.3 6.1-10.6 12-18.2 21.9-28.3 4.4-4.5 7.9-8.2 7.6-8.2-3.7 0-30.3 7.3-40.4 11.1-14.2 5.4-39 17.9-46 23.3l-10.4 7.3c-11.8 8.1-19.5 16.7-34.5 38.8-7.8 11.5-15.4 23.7-17 27l-2.7 6 .5-4.5c1.2-11.2 4.5-27.5 6.9-34.2 5.6-15.8 20.8-39.6 31.3-49.1 2.3-2 4.1-3.9 4.1-4.1 0-.7-22.1 6.2-30.1 9.4-4.3 1.8-9.9 4.5-12.5 6.2l-4.7 2.9 6.7-8.5c3.6-4.6 6.6-8.7 6.6-9 0-.2-1.3.2-2.9 1-7.2 3.6-27.2 10.5-35.5 12.3-25.6 5.5-47.8 5.4-70-.3-7.7-2-14.1-3.8-14.3-4s3.3-.4 7.9-.5c7.7 0 11.4-1 49-12.5l40.8-12.5 18.7-12.6c10.4-7 21.1-14.6 23.8-16.8 13-10.7 34.2-30.8 41.3-39 8.8-10.3 17.7-22.6 16.9-23.3-.3-.3-3.3.9-6.8 2.7-8.5 4.2-30.1 11.3-43 14-14.9 3.1-49.9 3.2-49.9.1 0-.4 14.7-5.2 32.8-10.6 23.5-7 34.5-10.8 39.2-13.5 7.5-4.2 49.6-34.9 58.3-42.4 7.4-6.4 27.6-28.8 35.1-39 3.1-4.2 5.5-7.7 5.3-7.7s-3.3 1.3-6.8 2.9c-9.2 4.2-34.2 11.7-45.1 13.7-12.1 2.1-29.5 2.1-43.4.1-6.1-.9-11.9-1.9-12.8-2.3-1.1-.4 12.4-6.2 37.1-16.1l40.2-16.6c.9-.7 10.8-8.8 22.1-18.2 32.1-26.6 43.7-38.9 64.8-68.8 3.4-4.8 5.9-8.7 5.4-8.7-.4 0-3.4 1.6-6.7 3.6-21.2 12.9-50.8 20.7-78.5 20.7-24.5 0-24.8.6 9.9-17.2l30-15.4 20-17.8c12.9-11.5 23-21.5 28.3-28 8.3-10.2 24.8-32.4 24.8-33.5 0-.3 2.4-4.5 5.4-9.3 3-4.9 7.3-12.4 9.5-16.9l4.1-8.1-8.1 5.5c-21.6 14.7-51.1 25.8-75 28.2-7.1.7-25.9.2-51.4-1.6-13.2-.8-13.5-1.3-7.5-10.2l4.1-6 8 5.6c20.1 14.1 42.3 13.4 62.5-1.9 11.4-8.7 15.7-15.1 34.7-53.3 9.7-19.3 18.3-37.8 19.1-41 .9-3.2 2.7-16.7 4.1-29.9l3.3-29c1-6.4-1.2-50-3.2-62.7-.8-5.3-2.2-11.1-3-13L918.2.5l-.1 3.2zM707 345c1 1.8.8 2-2.5 2-3.4 0-3.4-.1-1.8-2 1-1.1 2.1-2 2.5-2s1.2.9 1.8 2zm-82.7 25c5.3 3.1 12.6 5 19.9 5h6.8l-4 5.2c-2.2 2.9-4.6 7.2-5.4 9.5s-4.7 8.1-8.8 13l-7.3 8.8-.1-11.5c-.1-10.4-2.2-23.1-4.9-30.3-.9-2.2-.4-2.1 3.8.3zm17.7 62.4c0 1.8 4 8.8 7.6 13.2l3.3 4.2-14.2.4c-7.8.3-14.3.3-14.5.2s3.2-5 7.4-10.8c6.1-8.3 8-10.3 9.1-9.5.7.7 1.3 1.7 1.3 2.3zm-91 30.7c6.2 2.3 21.3 2.9 26.3 1 1.6-.6 3.2-1.1 3.7-1.1s-4.6 6.9-11.3 15.3l-14.3 18.1-2 2.8-1.2-9.4c-1-8.2-4.3-21.6-6.7-27.1-.9-2.1-1.1-2.1 5.5.4zm25.5 71.5c.8 2 3.1 5.8 4.9 8.4l3.5 4.8-9.9-.5c-5.9-.4-13.1-.1-17.5.6-4.2.7-7.8 1.1-8 .9s4.9-7 11.3-15.1l11.7-14.6 1.2 5.8c.7 3.3 1.9 7.6 2.8 9.7zM466 553c7.3 4.7 16 7.1 25.7 7.1 4.5.1 9.2-.2 10.3-.6 2.9-.9 3.3-1.6-13 20.8-12.4 17.2-13.6 18.4-14.2 15.9-.3-1.5-1.6-7-2.7-12.2-1.3-5.5-4.9-15.9-8.6-24.5-3.5-8.3-5.5-13.8-4.4-12.3 1 1.4 4.2 4 6.9 5.8zm37.7 72.9c.5.3 1.7 2.7 2.6 5.2 3.6 9.6 10.6 17.7 19.2 22.2 3.7 2 2.6 2.1-5 .2-11.9-2.8-27.3-3.9-36.9-2.7-4.9.7-9.1 1.1-9.2.9-.2-.1 5.9-8.8 13.4-19.2l13.7-19 .6 5.9c.4 3.2 1.1 6.1 1.6 6.5zm-80.9 40.3c-1.3 1.8-4.4 5.9-6.8 9.1s-4.6 5.4-5 5c-.5-.4-2-3.7-3.4-7.3l-3.3-7.7c-.4-1 1.2-1.2 6.8-.7 4.1.3 8.8.1 10.4-.5 1.7-.5 3.2-1 3.4-1 .2-.1-.8 1.4-2.1 3.1zm3.6 65.3c3 8.7 3 8.4.9 7.9-1-.3-4.6-.8-8-1.2l-6.3-.7 5.2-7.4c4.3-6.1 5.3-7.1 5.8-5.5.4 1 1.5 4.1 2.4 6.9zm161.8 3.7c-1.1 1.8-5 8.5-8.7 14.8-10.4 17.6-9.8 17.3-9.1 4.5.3-6.1 1-11.1 1.5-11.3.6-.2 4.7-2.7 9.3-5.7l8.6-5.4c.2-.1-.5 1.4-1.6 3.1zM882.1 750l7.2 6.4-5.4 1.7c-3 .8-6.7 2.3-8.4 3.1-1.6.9-6.6 2.1-11 2.7l-10.9 1.8c-2.9.5-2.8.3 2.8-5.8 5.4-6 13.5-20.2 13.6-23.8.1-.9 1.2.4 2.4 2.9 1.3 2.5 5.6 7.4 9.7 11zm-109.7 5.8c.3.9 3.9 4.9 7.8 8.8 5.1 5 8.8 7.7 12.3 9l5 1.9-5 .7c-5.2.9-29.4 5.5-33.2 6.5-2.2.5-2.1.2 1.2-5.2 3.8-6.4 9.5-19.5 9.5-21.9 0-2.2 1.7-2 2.4.2zM510 761.1c0 2.3-4.2 7.9-5.8 7.9-.9-.1-3.7-1.1-6.1-2.4l-4.3-2.3 7.3-2c9.2-2.6 8.9-2.5 8.9-1.2zm158.5 9.6c1.8 10 10.1 21 19.1 25.6l4.9 2.5-3.6 1.6c-5 2.1-32.8 9-33.5 8.3-.4-.3.3-1.8 1.3-3.4 5.2-7.4 10.2-24.9 9.7-34.1-.3-5.9 1-6.2 2.1-.5zM853 794.6v8.5l-9-6.2c-5-3.4-9.2-6.5-9.5-6.9s3.7-1.4 8.8-2.3l9.5-1.6c.1 0 .2 3.7.2 8.5zm-93.1 15.3c-.7 2.3-1.6 4.1-2 4.1s-1 2.6-1.4 5.7c-.3 3.2-.9 7.1-1.2 8.6l-.5 2.9-3.2-2.9c-4.8-4.5-9.6-7.7-16.1-11l-6-3.1 7-2 24.3-6.7c.2.2-.2 2.1-.9 4.4zm-400.7 15.2c13.2 12.8 35.3 21 48.6 18.1 2.3-.6 4.2-.6 4.2-.2 0 .5-.9 2.9-2 5.5-1.9 4.5-2.1 4.6-5.2 4-1.8-.4-11.8-4.3-22.3-8.7-10.4-4.4-22.4-8.9-26.5-10s-7.7-2.2-7.9-2.4c-.3-.3 6-10.3 6.6-10.4.2 0 2.2 1.9 4.5 4.1zm224.6 6.8c2.1 1.2 2 1.3-4.8 3.8l-7.3 2.8c-2 .8-2 1.3.3-9.2l1.2-5.2 4.4 3.4c2.5 1.9 5.3 3.9 6.2 4.4zm-101.3 9.3c0 3.5.3 8.2.8 10.5.7 4.1.6 4.3-1.6 4.3s-2.4-.4-2.6-6.3c-.1-3.4-.4-8.1-.7-10.5-.6-3.9-.5-4.2 1.7-4.2 2.3 0 2.4.3 2.4 6.2zm181-3.5c-5.5 12.7-6.4 23.7-2.6 33.3l2.1 5.9c0 .3-2.5-2.3-5.6-5.7-6.7-7.5-14.7-13.7-23.8-18.7-3.7-2.1-6.5-3.9-6.4-4.1.7-.6 34.3-12.3 35.7-12.3.9-.1 1.1.5.6 1.6zm-173.7 29.9c1.9 2.5 3.2 4.7 3 4.9-.8.7-12.8 6.5-13.6 6.5-.4 0-.5-2.7-.2-5.9.4-4.7 1.1-6.4 3-8 1.4-1.1 3-2 3.5-2 .6 0 2.5 2 4.3 4.5zm67.6 14.6c-.8 2.9-1.4 6.3-1.4 7.6 0 2.2-.3 2-5-2-2.7-2.4-5-4.6-5-4.9 0-.5 10.5-5.6 12.1-5.8.3-.1 0 2.2-.7 5.1zm-155.9 34.2c-3.5 3-102 59.4-107 61.2-5.1 1.9-59.9 35.8-72.9 45.1-2.6 1.9-4.7 3.1-4.5 2.6 1.3-3 70.8-105.5 73.3-108.1 1-1 2.3-.6 6.8 1.8 15.4 8.3 34 9.2 70.8 3.1 17.3-2.8 25-4.5 29-6.4 7.6-3.6 9.3-3.3 4.5.7z"/></svg>