<svg xmlns="http://www.w3.org/2000/svg" width="1176" height="1706.667" viewBox="0 0 882 1280" preserveAspectRatio="xMidYMid meet" xmlns:v="https://vecta.io/nano"><path d="M747 1.1C736 2 727.9 4 715 8.8l-10.5 4-.6-2.6c-.7-3.4-2.7-6.6-4.9-8-1.5-.9-1.9-.6-2.3 1.8-.9 4.4-6.4 8.9-19.7 16.3-6.7 3.7-12.4 6.7-12.5 6.5-.2-.2 3-4.7 7.2-10.1 8.4-11.1 8.8-10.8-7.2-4.6-11.9 4.6-18.8 9-24.7 15.9-5.7 6.6-8.6 6.5-15.4-.6-2-2.2-4.1-3.4-5.8-3.4-2.5 0-2.6.2-2.6 5.4 0 3.5-.5 5.8-1.5 6.6-2.1 1.7-4 .7-4-2.1 0-1.5-.6-2.4-1.5-2.4-1.1 0-1.4.9-1.2 3.2.3 3.1-3.1 11.3-4.7 11.3-2 0-3.3-3.3-3.5-8.7-.1-6.2-.7-6.8-4.6-4.1-2.4 1.7-2.4 1.8-.5 3.2 1.9 1.3 1.8 1.5-1.8 3.2-2.8 1.3-3.6 2.2-3 3.3 1 2.4.7 6.9-.6 8.5-1 1.2-1.8 1.3-4.9.2-4.9-1.7-6.1-3.9-4.1-7.4 1.2-2.2 2.2-2.7 4.7-2.4 1.8.1 3.2-.2 3.2-.8 0-.9-1.4-1.4-3.2-1.1-.5 0-.8-.4-.8-.9 0-1.6-4.8 1.3-13 8-4.1 3.3-8.5 6.3-9.8 6.6-2.5.7-5-1-6.1-4-.6-1.6-1.2-1.1-3.6 3-6.2 10.9-17.4 24.3-24.8 29.8-6.1 4.5-9.8 4.7-12.6.7-1.2-1.6-2.1-3.4-2.1-4 0-2.5-1.8-.7-5.8 5.8-2.3 3.7-4.2 7.1-4.2 7.5 0 1-15 27.1-20.2 35.1-4.3 6.6-9.2 12.5-10.4 12.5-.3 0 .2-1 1-2.2 2-2.8 2-4.4.1-5.2-1-.4-2.2.8-3.6 3.7-3.1 6.1-15.4 23.2-18.5 25.6-4.3 3.4-5.6 2.8-4-1.7 2.9-8 10.2-18.7 23.9-34.9 4.5-5.4 9.9-12.1 11.9-14.8 4-5.6 11.1-18.5 10.4-19.2-.4-.4-1.9 1.2-17.8 18.4-11.8 12.7-18.5 22.9-22.2 33.7-.9 2.7-2.7.7-3.5-3.9-1.5-9.1-4.1-1.6-6.8 19.7-.9 7.6-2 13.8-2.4 13.8-1.4 0-2.9-3.7-2.9-7.2 0-1.8.7-7.3 1.6-12.3 1.3-7.8 1.2-16.7-.2-15.2-.3.3-2.5 8.3-4.9 17.9-9.6 38-17.6 55.1-34.9 73.8-4.7 5.2-7.6 9.1-7.6 10.5 0 4.1-6.8 15.9-15.4 26.6-14.2 17.8-21.9 23.2-22.8 16.3-.3-2.7-.2-2.8-17.9 25.5-15.2 24.4-24.4 36.1-28.5 36.1-1.9 0-2.3.8-3.3 7.4-1.3 9.3-2.7 13.2-11.2 33.1-3.7 8.8-7.1 17.9-7.5 20.3-1.1 6.8-2.5 3.5-3.2-7.4l-.6-9.9-1.3 5.5c-1.5 6.7-3.3 32.4-3.3 47.7 0 6.9-.4 11.3-1 11.3-.5 0-1-.4-1-.8 0-.5-1.9-2.4-4.1-4.2l-4.2-3.3.5 18.1c.3 10 .2 18.2-.2 18.2s-1.1-1-1.7-2.2c-.8-1.8-1.1 0-1.5 7.8-.3 5.6-1.1 11-1.7 12-.5 1-3.3 6.9-6 12.9-6 13.1-7.1 19.1-7.1 39.5v14.5l-21.1-.3c-23.7-.5-34.7.6-51.7 4.8-18.6 4.7-37.1 12.8-51.5 22.6l-5.2 3.4-.9-14.2c-.5-8.6-.5-25.8.1-42.8 1.3-38.9.6-37.4 26.8-60.6l7.9-7-1.3-5.6c-1.8-7.5-.9-10.4 5-16l5-4.7-1.7-3.2c-1.6-3.3-1.6-3.3 1.2-5.9 1.6-1.5 3.8-3.7 4.9-5 1.7-2.1 1.5-2-1.5.4-3.3 2.7-3.8 2.8-10.6 2.3-13-1.1-12.9-1.5 1.7-8.7 12.8-6.4 15.8-8.4 14.5-9.7-.3-.3-3.1 1.1-6.1 3.2-4.7 3.2-6.1 3.7-9.1 3.2-2-.4-3.9-.8-4.1-1.1-.3-.3.8-2.8 2.3-5.6 2.6-4.7 2.9-5 3.8-3.1 1.9 4.4 3.3 2.4 6.6-9.4 2.2-8 4.7-13.5 6.2-13.5 1.4 0 .9 7.4-.7 10.4-.8 1.5-1.5 3-1.5 3.3 0 .5 13.4-10.8 13.8-11.6.4-1.2-5.5-4.1-8.3-4.1-3 0-6.1 1.4-9.2 4.3-7.2 6.5-.6-7.5 10.5-22.3 4.3-5.8 9.8-12.2 12.3-14.3l4.4-3.9-3.9.6c-4.5.6-8 3.5-10.7 8.9-2.1 4.1-4.5 4.1-3.4 0 .4-1.9.1-2.6-1.4-3-1.6-.4-.1-2.5 9.7-13.4 12.3-13.7 20.1-24.1 18.3-24.7-1.2-.4-10.5 4.9-17.2 9.7-3.4 2.5-4.5 2.9-4.7 1.7-.5-2.2 2.2-7 9.3-16.6 6.8-9.2 9.5-14 9.5-16.6 0-1.3-.6-1.2-3.4 1-4.6 3.4-5.4 3.3-2.2-.4 2.8-3.4 4.2-8.6 3.1-12-.6-2 .9-5 2.6-5 1.1 0 2.9 6.7 3 11.5.1 7.8 1 8.2 5.7 2.6 4.6-5.4 7.2-9.7 7.2-12 0-2.1-2.8.6-4.9 4.7l-1.8 3.4-1.1-7c-2.2-12.9-2-13.8 4.8-20.5 5.4-5.4 7-7.7 5.4-7.7-.3 0-2.5.5-5 1.1-3.4.9-4.8.9-5.7 0-1.6-1.6.7-3.1 4.8-3.1 3.8 0 2.1-1.9-2.6-2.9l-3.3-.7 3.9-2.4c4.8-2.9 11.6-8.2 11.2-8.7-.2-.1-2.2.4-4.5 1.3-5.1 2.1-7.6 1.3-7-2.1.7-3.5-1.4-5-5.1-3.7l-2.9 1 2.9-4.3c1.6-2.4 5-8.9 7.4-14.5 5.5-12.3 8.5-17 12.5-19.3 2.7-1.6 3-2.2 2.4-5.2-.5-2.8-.3-3.4 1.6-4 1.2-.4 5.7-3.1 10.1-6.1s8.4-5.2 8.8-4.9c1.7 1 4.1-.7 4.1-2.8 0-1.9-.1-1.9-2-.2-2.1 1.9-2.7 1.3-3.2-3.3-.3-1.9.5-2.7 4.2-4.1 5-1.9 13.2-7.1 11.3-7.1-.7 0-3.5.9-6.3 2-2.7 1.1-5 1.7-5 1.3s1.2-1.9 2.7-3.5c3.4-3.5 2.7-4.3-1.5-1.6-2.1 1.3-3.5 3.2-3.9 4.9-.9 4.6-5.5 3.5-6.4-1.4-.4-1.7-.8-1.6-4.3 1.2-7.8 6.2-6.3.5 2.4-9.6 7.1-8.1 21.2-20.5 26.2-23.1 3.4-1.7 3.9-2.2 2.4-2.8-.9-.4-2.9-.1-4.4.5l-2.7 1.1 2.8-2.4c1.5-1.4 4.5-3.1 6.7-3.7 2.2-.7 3.9-1.7 3.7-2.3-.6-1.9-5.7-1.8-9 .3-6.4 3.9-26.7 25.9-26.7 28.8 0 .7-.4 1.3-1 1.3-1.5 0-1.2-6.5.4-10.3.7-1.8 4.8-7.7 9-13.2 10.5-13.8 17.6-23.6 17.6-24.7 0-5.4-37.3 31.5-47.1 46.5-4.1 6.3-3.9 6.3-5.2-.8-.3-1.4-1.3-.2-3.6 4.5-2.9 5.9-3.2 7.2-2.9 14.8.2 7.2 0 8.5-1.6 9.4-2.9 1.6-4.1-.6-3.9-7.2.1-6.2-.3-6.8-4-4.9-4.5 2.4-4.8 5.7-1.2 14.4 3.4 8.3 1.8 9.6-4.1 3.1-5-5.7-4.5-6.3-7.4 8.8-1.2 6-3.1 13.4-4.4 16.5-2.2 5.5-7.2 14.1-8.1 14.1-1.1 0-3.5-6.2-3.5-9.1 0-5.8-.1-5.6-8.1 26.3-1 3.8-1 3.8-3.4 2.2-4.5-2.9-5.9-1.2-5.2 6.1.7 7.1 3.5 13.5 6.9 15.9l2.2 1.6h-3c-1.8 0-3.8-.8-4.8-1.9-2.1-2.3-5.6-11.3-5.6-14.2 0-1.8-.3-1.9-1.4-1-2.8 2.4-2.8 6.7-.1 15.7 1.4 4.7 2.5 8.8 2.3 9-.2.1-3.4-3.7-7.2-8.6-9.1-12.1-9.9-11.8-2 .6 2.4 3.8 3 5.3 2 5.7-1.6.6-2.9-.2-4.4-2.8-1.1-1.9-1.1-1.8-1.2.8 0 1.5 2.1 7.3 4.6 12.9 5.8 12.6 5.3 14.5-3.2 12.4-2.3-.6-2.5-.5-1.9 1.1 1.4 3.1 2.8 14.8 2.2 17.4-1.3 4.8-2.3 5.5-4.7 3.4-2.7-2.4-6-8.7-6-11.3 0-2.9-1.2-3.4-2.7-1.2-.9 1.2-2.6 2-4.4 2-3.7 0-3.8 1.8-.4 9.4 3.6 8.1 3.4 10.3-1 11.2-1.9.3-3.5.8-3.5.9 0 .2.5 1.6 1.1 3.2 1.6 4.2-.8 14.3-3.7 15.3-4.7 1.8-5.4 4.4-5.5 20 0 12.3-.2 14-1.2 11.3-1.9-5-3.3-5.9-4.9-3.2-.9 1.8-1.3 7.4-1.3 21.4-.1 25.4-.3 30.1-1.4 29-1.4-1.5-5.8-16.8-7.7-26.9-1.8-8.9-1.8-8.9-3-5.5-2.1 5.8-1.6 17.7 1.6 35.5 1.7 9.3 3 18.4 2.8 20.4l-.3 3.5-3.8-5.5-3.7-5.5v3.3c0 1.8-.9 5-2 7.2s-2 4.8-2 5.8c0 3.1 3.8 9.8 12.6 22.3 14.6 20.9 13.2 15.7 14.4 51.4l2.6 53.2 1.5 22.2-13.4 13.3c-18.6 18.5-33.5 38.3-47.9 63.8-24.7 43.6-37.6 80.9-43 125-1.7 13.6-1.6 54.3 0 68.5 2.6 21.2 6.8 42.8 11.9 61 5 17.5 20.5 57.5 39.1 100.8l9 20.8-4.2 4-4.1 3.9 4.2-2c2.3-1.1 4.6-2 5.1-2s2.8 4.6 5.2 10.3c12.6 29.4 24.2 50 42 74.2 5.4 7.3 7 10.5 8.9 17 2.9 10.8 10.7 26 18.7 37 3.6 4.9 7.6 10.6 8.8 12.5 1.3 2 6.1 6.9 10.6 11l8.2 7.4-10.8 2.1c-11.1 2.2-15.4 2.2-32.8 0-4.4-.6-5.7-.5-5.2.4 1.5 2.3 14.3 7.9 24 10.5 5.5 1.5 10.2 2.8 10.4 3s-1.2.7-3 1.1-8.9 2.4-15.8 4.5-15.9 4.1-20 4.5-9.5 1.4-12 2.1c-2.4.7-4.6 1.1-4.9.8-.3-.2-.7-3.7-1-7.6-.7-7.8-1.8-7.9-4.4-.5-.6 2-1.6 3.7-2.2 3.9-.5.2-1.6-2-2.5-4.8-1-3.3-3.3-7-6.7-10.9-2.9-3.3-5.3-5.6-5.3-5.3 0 2.6 3.3 18.7 4.4 21.3l1.5 3.4-6.2.3-6.2.3 9 3.2c5 1.7 12.3 3.4 16.3 3.8l7.3.7-.3 3.2c-.3 2.6 0 3.1 1.8 2.9 1.2-.1 5-1.9 8.5-4l6.4-3.8h16.8c15.7 0 16.8.1 16.3 1.8-.7 2.6 1.4 3 6.7 1.2 4.3-1.4 4.9-1.4 7.9.1 2.3 1.2 6.5 1.9 13.8 2.1 8.2.3 13.4 1.2 23.5 4.1 10.7 2.9 14.7 3.6 22.7 3.6l9.6.1 10.4-5.2c5.6-2.8 11.5-5.4 13-5.7 7.1-1.5 10.9-8.8 10.6-20.1-.1-3.8.6-6.4 3-11 1.7-3.3 3.6-9 4.2-12.8.7-3.7 1.6-6.7 2.1-6.7 1.4 0 1.1 3.8-1.2 14-2.7 12.2-3.3 36.7-.9 36.1.8-.2 6.2-.7 12-1.1 6.6-.4 11.7-1.3 13.7-2.3 3.7-2 7.3-6.2 7.3-8.8 0-1 1.8-3.9 4-6.4 2.3-2.6 5.2-6.9 6.6-9.6 1.3-2.7 2.8-4.9 3.2-4.9s1.5 2 2.6 4.5c1 2.5 3.5 6.3 5.5 8.4 2 2.2 4.8 5.4 6.3 7.3 2.4 3.2 3.2 3.6 11 4.6 12.2 1.7 16.5 1.5 24.1-1.4l6.9-2.6 5.3 2.7c3.4 1.7 6.5 2.5 8.7 2.3 3.2-.3 3.3-.5 3.6-5.2.4-5.5-.9-5.3 13.2-1.6 7.4 2 9.9 2.2 19.5 1.6 6.1-.3 12.9-1 15.2-1.6 6.2-1.5 15.3-5 15.3-6 0-.4-4.2-3.5-9.3-6.8-5.5-3.5-11.6-8.5-15-12.3-6.5-7.2-10.2-9.9-13.4-9.9-1.9 0-2.3-.5-2.3-3.4 0-1.9.5-4.7 1.2-6.3 1.5-3.6 2.6-23.4 1.3-23-.5.2-2.7 3.3-5 7-5.6 9.2-6.9 10.3-5.9 5.2.8-4.6 6.1-14 9.9-17.5 2.4-2.2 3.5-2.5 10.4-2.5 6.8 0 8.3.3 11.9 2.8 5.4 3.5 9.9 9.7 10.7 14.9.9 5.2 2.5 3.2 2.5-3.2-.1-6.5-6.1-17.5-11.8-21.4-3.5-2.5-5.5-3.1-11.2-3.4-5.8-.4-7.7 0-12.6 2.2-3.1 1.4-5.8 2.5-5.9 2.4-.4-.4 5.2-38.7 5.9-40.4 1.7-4.5 36.5-48.2 52.4-65.8 10.7-11.8 37-38.2 49.7-50 61.3-56.4 141.4-107.6 221.2-141.2 5.1-2.1 9.1-4 8.9-4.1-.5-.5-34 12.4-48.4 18.6-56.9 24.6-123.1 60.7-159.9 87-3.1 2.3-6 3.8-6.3 3.4-.4-.5-1.2-2.8-1.9-5.2-5.4-18.8-19.8-20.1-40.8-3.7-13.4 10.5-45.1 46.2-57.4 64.7-2.9 4.3-5.4 7.7-5.5 7.6-.2-.1.8-8.7 2.2-19l2.4-18.8 10.9-16.2c6-8.9 12.5-17.9 14.5-20 2.1-2 3.4-3.7 3.1-3.7-.9 0-8.7 5.4-17.9 12.3l-7.9 6 .6-3.4 4.8-32.9c3.8-26.8 4.3-29.7 6.4-31.5 68.8-59.8 91-78.4 109-91.5 53.2-38.6 96.6-59.2 140-66.6 13.8-2.4 40.7-2.4 53.5 0 46.8 8.6 88.5 40.4 121.7 92.8 3 4.9 5.6 8.8 5.8 8.8 1.1 0-9.7-22.8-16.1-34-25.1-43.9-60.3-72.7-101.7-83.2-8-2-9.1-2-44.2-.9l-36 1.1-14 3.6c-61.2 15.6-119 44.5-168 84.1-4.4 3.6-14.7 12.8-22.9 20.6-10.1 9.6-14.6 13.3-14.2 11.7.4-1.4 1-3.2 1.2-4.1.4-1.6 18.1-19.2 31.4-31.3l7.5-6.8-7 5.3c-6.2 4.7-13.8 10.9-25.3 20.4-2.9 2.4-3.4 2.6-2.8 1l5.3-15c20.2-58.7 50.8-113.9 76.5-138 13.6-12.7 27.1-19.7 38.4-19.8 4.4-.1 6.1-.4 5.7-1.3-.2-.7 1.1-1.7 3.4-2.4 5.4-1.8 5.6-2 3.6-3.5-1.7-1.3-1.7-1.4.2-3.5 3.9-4.3 25.6-14 31.2-14 1.5 0 2.2-.4 1.7-1.1-.4-.8-3.5-1-9.2-.7l-8.6.5 4-1.8c2.1-1 7.5-3.2 12-4.9 4.4-1.6 8.9-3.7 10-4.5 1.7-1.3 1.6-1.4-2.1-.9l-4 .6 5.3-3.2c3-1.7 12.4-8.5 21-15 8.7-6.5 19-13.6 22.9-15.7l7.2-3.9-2.1-2.2c-3-2.9-1.5-4.2 5.4-4.9l5.6-.6-3-4.4c-1.7-2.5-3.7-4.7-4.5-5-1.1-.4-1-.8.4-1.8 3.6-2.5 13-4.6 27.4-6 8-.8 16.4-2.1 18.5-2.9 3.6-1.3 3.1-1.4-7.4-.8-10.7.5-19.2-.8-19.2-2.8 0-.4 4.4-1.9 9.8-3.4 17.1-4.8 19.5-6.4 8.4-5.8-12.5.7-12.1-.2 1.6-3.7 9.7-2.5 13-3.7 12.2-4.5s-.2-1.4 2.2-2.2c3.3-1.2 3.3-1.2-3.2-2l-6.5-.8 4-1.2c2.2-.7 6.1-1.3 8.8-1.3 5.2-.1 5.3-.2 3.5-3.2-1.8-2.9.7-4.5 10.5-6.6l7.9-1.7-3.6-1.8c-2-1-3.6-2.3-3.6-2.8 0-1.2.2-1.2 3.6 0 1.5.6 3.6.8 4.6.4 1.8-.5 1.7-.8-1.1-2.5-4.4-2.7-3.8-3.9 1.9-3.9 2.8 0 5-.5 5-1 0-.6-.6-1-1.2-.9-2.4.3-3.8-.1-3.8-1.1 0-.6 2.1-1 4.6-1 3.8 0 5.1-.5 7.4-3 2.2-2.3 4.5-3.4 10.1-4.7 6.1-1.3 6.9-1.8 5-2.5-4.4-1.6-1.8-3.3 4.7-3 7 .4 11-1.6 13.7-6.9 1.7-3.3 1.6-3.4-2-1.7-1.8.8-2.9.8-3.6.1-1.5-1.5 2.9-3.7 10.5-5.3 3.2-.7 7.5-1.8 9.5-2.6l3.6-1.4-3.5.5c-1.9.2-5.1.1-7-.4l-3.5-.8 5-.8c5.2-.8 11.5-3 11.5-4 0-.3-1.3-1.2-2.9-1.8-2.9-1.2-2.7-1.4 9.2-5.4l12.2-4.2-3.5-1.2-3.5-1.3 5.9-1.3c5.3-1.2 16.1-6.1 15.3-7-.2-.2-2.8.2-5.7.8-3 .6-8.2.9-11.6.6-5.5-.4-6.3-.2-6.7 1.4-1.1 4.1-6.7 3-6.7-1.2 0-2.5-.1-2.4-6.4 1.1-7.5 4.3-11.5 5.3-14.8 3.9-1.6-.6-2.8-1.6-2.8-2.2s-1-.1-2.3 1.1c-1.7 1.6-3.6 2.2-7.1 2.2-6.1 0-5.7-1.5 1.2-5.3 4.9-2.7 6.4-4.8 4.2-6.2-1.4-.9-13.1 1.6-12.4 2.6.3.5-.8.9-2.5.9-4.2 0-7.9 1.6-12.7 5.6-5 4-5.6 4.2-5.2 1.2.2-1.4 1.9-3.2 4.3-4.6l4-2.3-3.5.6c-5.2 1-14.8 4.3-21 7.3-4 2-6 3.7-7.2 6.2l-1.7 3.5-.1-6.6c0-4.7-.5-7-1.5-7.9-1.2-1-1.5-.9-1.5.6 0 3.7-4.8 12.1-10.3 18-4.8 5.1-5.6 5.6-6.3 4-.5-1.4.2-2.7 3-5.3 2-1.9 3.4-3.9 3.1-4.4-.8-1.2-4 .5-5.9 3.3l-1.6 2.2v-2.5c0-1.3.6-4.9 1.4-7.9s1.3-5.6 1.1-5.8c-.6-.6-4.3 5.5-5.5 9.2-.7 2.1-1 5.8-.7 8.2l.5 4.4-3.4-2.1c-1.9-1.1-4.1-1.9-4.8-1.6s-2.4 3-3.7 6.1c-1.9 4.8-2.7 5.6-4.8 5.6-4.3 0-5.5-1.4-3.1-3.5 2.5-2.3 4-7.7 3.1-11.1-.7-2.6-.7-2.6-2.6 1.5-3.6 8.1-25.7 26.3-31.4 25.9-1.4-.1-3.9.5-5.6 1.4-1.6.8-4 1.9-5.3 2.2l-2.2.7 2.1-3.5c1.4-2.4 1.9-4.8 1.7-7.6l-.3-4.1-4.4 7.5c-5 8.5-8.5 12.2-15.6 16.2-3.9 2.2-4.6 2.3-3.4.8 2.8-3.3 4.9-8.2 4.9-11.4 0-2.8-.2-3-2.1-1.9-1.2.6-2.4 2-2.7 3.1-1.7 6.7-14.9 25.5-16.6 23.8-.7-.7-.6-2.5.1-5.2 1.1-4 1-5.8-.2-4.6-.3.3-1.5 5.4-2.7 11.4-2.5 12.7-3.7 15.1-5.5 10.8-.7-1.6-1.2-4.1-1.3-5.7 0-3.5-1.6-3.5-2.3 0-.3 1.6-1.3 3.7-2.1 4.8-1.5 2-1.5 2-1.6-.5-.1-1.7-.8-.6-2.4 3.6-1.2 3.3-3.8 8.2-5.7 10.8l-3.4 4.8-.6-3.4c-.7-4.6-1.6-5.8-4.5-5.8-2.2 0-2.4.3-1.7 2.7 1.3 5.1.4 8.6-4.4 16.5-2.6 4.3-5 7.8-5.4 7.8s-.9-.9-1.2-2.1c-.4-1.5-1.2-2-2.8-1.7-2 .3-2.8 1.9-6 12.5-3.5 11.2-7.2 20.3-8.4 20.3-.3 0-.3-1.1.1-2.4.6-2.4-.8-4.2-2.5-3.2-.6.4-.5 2.1.1 4.2 1.1 4.1.1 5.4-4.1 5.4-1.8 0-2.2-.4-1.6-1.8 3.1-7.5 4.4-15.2 2.5-15.2-.5 0-1 .8-1 1.8s-1 4.9-2.3 8.7l-2.3 6.8-10.7 2.4c-9.6 2.2-30.3 8.7-40.2 12.7l-4 1.6 2.9-2.2 5.5-4.5 2.6-2.1-3.5-.9c-2-.5-3.6-1.7-3.8-2.6-.3-1.4.5-1.7 4.5-1.7h4.9l-.4-3.5c-.4-3.5 2.9-10.7 6.2-13.5.9-.7 1.6-1.7 1.6-2.3s-2.8 1.7-6.3 5c-9.1 8.7-17.2 12.4-20.5 9.1-2.7-2.7 3.3-6.8 10.3-6.8h3.2l-.5-5.3c-.4-4.3-.2-5 .9-4 1.6 1.6 3.9 1.7 3.9.2 0-.5-1.3-1.5-3-2-4.9-1.7-3.5-3 2.5-2.3 3 .4 5.5.4 5.5.1s-2.7-2-6-3.8-5.8-3.4-5.6-3.6c.2-.3 4.6.1 9.8.7 6.4.8 10.1.8 11.8.1l2.5-1-3-.1c-2.9-.1-2.9-.1-1.1-1.5 1.9-1.4 1.9-1.5-.6-1.5-1.4 0-3.1-.7-3.8-1.5-1-1.3-.9-1.5 1-1.5 4.8 0 14-7.4 11.8-9.5-.2-.2-4 1.5-8.5 3.7-9.3 4.6-11.6 4.5-11.1-.4.3-3.2.5-3.3 5.8-4 8.4-1.2 21.3-8.1 28.6-15.4 3.3-3.3 6.3-7 6.6-8.2.4-1.2.5-2.2.3-2.2-.1 0-2.3 1.1-4.7 2.5-10.6 5.9-24 8.3-28.4 5.1-1.9-1.5-1.9-1.5.1-3 1.1-.8 4.5-2.8 7.5-4.3l5.9-3c.2-.2-.3-2-1.2-4-.9-2.1-1.9-5.6-2.3-7.8s-1.3-5.3-2.1-6.8c-.8-1.6-1.3-3-1.1-3.1.2-.2 6.2-4.2 13.3-9.1 15.6-10.6 15.8-10.7 11.4-9.5-2.9.8-3.2.7-1.6-.4 1.8-1.4 2.4-4.6.8-4.6-.5 0-1.2.7-1.5 1.5-.6 1.7-8.1 5.5-10.6 5.4-.9 0-.4-.8 1.3-2 2.8-2.1 5.7-6.7 5.7-9.1 0-.7-5.3 4-11.8 10.5-10 9.9-12 11.6-13.1 10.4-1.7-2.1-5.5-2.9-8.7-1.7-2.6 1-2.6 1.1-.9 3 1.4 1.6 1.7 3.1 1.2 7.6-.3 3-1.3 6.6-2.1 7.9-1.9 2.8-6.3 4-10 2.5l-2.8-1 2.7-3.1c2.7-3.3 4.8-7 5.9-10.6.7-2.2.7-2.2-3.4-.6-2.2.9-4 2.2-4 3s-.4 1.2-.8.9c-.4-.2-3.3 1.9-6.3 4.7-5.3 5-8.2 10.3-12.3 23.1-.5 1.4-.9 1.6-2 .6-1.7-1.3-4 .6-6.9 5.9-1.1 2.2-2.2 3.1-3.2 2.7-.8-.3-1.5-.4-1.5-.3s.7 2.4 1.5 5.1c2 6.7 2 6.9-1.6 5-2.6-1.3-3.3-1.4-4-.2-1.4 2.1-.5 3.3 2.9 3.6 4.6.5 4.4 4.3-.4 8.5-2 1.8-4.5 4.5-5.5 6.1l-1.7 2.9-1.2-4.4-1.2-4.4-1.6 3.2c-.9 1.9-2.3 3.3-3.3 3.3-2.3 0-3.4 1.9-1.5 2.6 2.1.8 2.8 3.2 1.5 5.5-.8 1.6-1.7 1.8-4.2 1.4-3.4-.7-4 0-11.7 14l-4.2 7.6-2 3.5-23.6-6.6-29.7-8.5-6-1.7 6.2-5.6c33.7-30.9 48.3-43.1 75.6-63.6 49.5-37 95.5-65 174.2-106.1 9.3-4.8 7.6-4.2-16 5.7-62 26.2-117.1 55.2-168 88.6-27.2 17.8-38.9 26.8-65.9 50.5-15.9 14-23.6 20.2-23.1 18.6 3.6-11.5 24.3-64.7 33.7-86.4 11.1-25.5 15.6-30.2 32.8-34.4 4.7-1.2 11.1-3.1 14.3-4.2l5.7-2.1v-4.5c0-5.5 3-8.6 10.1-10.4 4.8-1.2 4.9-1.4 4.9-5 0-3.5.2-3.7 3.8-4.4l3.7-.7-4-1.3c-2.2-.6-6.5-2.7-9.5-4.6l-5.5-3.4 13.5-.6c17.8-.9 16.6-.7 15.3-2-.8-.8-2.6-.8-6.7.1-5.1 1-5.8 1-8.6-1-1.6-1.2-3-2.3-3-2.5 0-.6 7.3-5.5 8.2-5.5.4 0 .5.7.2 1.5-1.4 3.5 2.8 1.1 7.8-4.5 5.3-6.1 9.5-9.6 10.5-8.7.8.9-2.6 6.5-4.9 8.1-1.2.9-2 1.6-1.8 1.6 1.4-.1 15.3-3.9 15.7-4.4 1.1-1.1-2.6-5.3-5.7-6.6-2.5-1-4.2-1.1-7.4-.2-4.9 1.3-5.5.9-3.1-1.9 4.7-5.1 23.6-15.1 33-17.4l5-1.3-2.8-1.1c-4.2-1.7-6.6-1.4-11.4 1.5-4.5 2.6-6.6 2.6-4.4 0 .9-1.1.8-1.7-.4-3-1.5-1.5-1.5-1.7.2-2.2 7.3-2.5 25.8-10.2 30.6-12.6 9.2-4.9 7.3-5.8-8.2-3.7-4.5.6-8.5.8-8.9.4-1.1-1.1 5.6-6.2 13.5-10.1 7.5-3.7 13.3-7.8 13.3-9.5 0-.5-1.9-.7-4.2-.4l-4.3.6 3.5-1.6c4.2-1.9 6.9-5.2 7-8.3 0-1.2.7-2.5 1.6-2.9 2.8-1.1 3.5 1.1 1.8 6.3a277.47 277.47 0 0 1-2.4 7.6l-.8 2.7 6.5-2.4c6.7-2.4 11.3-5.8 9.9-7.2-.4-.4-2.5.2-4.7 1.4-3.5 1.9-3.9 2-3.5.5.3-.9 1-3.7 1.6-6.2l1.6-6.3c.6-2.1 5.3-4.6 11.3-6.2 6-1.5 6.3-3.2.6-4-2.5-.4-4.8-1.2-5.1-1.7-1-1.7 1.7-2.7 4.4-1.7 3.6 1.4 3.7.5.3-2.3l-2.9-2.5 5.7-.6c3.2-.4 6.8-1.1 8.2-1.6 2.2-.9 2-1-1.6-1.1-5.4-.1-6.4-.9-6.2-5 .2-3.1-.2-3.6-3-4.5l-3.3-1.1 3.3-1.2c1.7-.6 7-4.6 11.7-8.8 9.7-8.6 12.6-10.4 17.5-10.6 3.1-.1 3.5-.4 3.5-2.8 0-2.7.1-2.7 9.3-3.5 5-.4 11.1-.7 13.5-.6 2.3 0 4.2-.3 4.2-.9 0-.5-.9-1-2-1-1.6 0-2-.7-2-3.1 0-3 .1-3.1 3.2-2.5 1.8.4 6 .3 9.3-.1l6-.7-6.5-1.1-6.5-1.1 3.8-1.3c2-.7 3.7-1.6 3.7-2.1 0-1.4-7.4 1-9.2 3.1-1.5 1.7-1.8 1.8-3.2.3-1.9-1.8-2-3.6-.5-5.1.8-.8-.5-.8-4.5.1-3.1.7-5.6 1-5.6.5 0-1.5 6.5-5.7 13.1-8.2 9-3.6 26.6-8 29-7.4 1.3.3 1.9.1 1.6-.6-.2-.7-1.7-1.5-3.3-1.8-4.9-1-.1-2.3 5.6-1.5 2.8.4 5 .3 5-.2 0-3.3-7.2-4.2-15-1.8-7.1 2.2-20.2 7.6-23.7 9.8l-3.3 2v-2c0-3.7 6.1-8.2 20.9-15.7 8-4 15.5-8 16.6-8.9 1.9-1.5 1.8-1.5-1.6-1.6-8.5 0-41.3 12.4-54.6 20.6-2.1 1.3-2.3 1.3-2.3-.9 0-1.3.5-2.8 1.2-3.5.9-.9.9-1.2 0-1.2-.6 0-3.4 2.3-6.1 5-3.8 3.8-5.5 6.4-6.7 10.5-1.2 4.3-2 5.5-3.5 5.5-2.9 0-3.3-2.3-1.1-7.4 1.1-2.4 1.8-4.7 1.4-5-1.3-1.3-5.3-.5-7.3 1.5-1.9 1.9-2.1 2.9-1.6 8.6.6 5.7.4 6.4-1.1 6.1-.9-.2-2.4-2.3-3.3-4.8s-2-4.5-2.4-4.5c-.5 0-3.8 4.3-7.4 9.5-4.6 6.5-8.6 11-12.9 14.2-3.5 2.7-6.8 4.8-7.4 4.8-.7 0-.9-1.8-.6-5l.5-5-3.6 4.2c-2 2.3-5.8 6.9-8.5 10.2-2.6 3.4-5 6.3-5.2 6.5s-1.2-.7-2.2-1.9c-2.6-3.2-4.7-2.1-6.1 3.4-1.5 6.1-1.4 10.1.4 13.6 1.9 3.7.3 3.9-3.2.4-2.4-2.4-2.5-3-1.9-9.5.6-6.7.5-6.9-1.3-6-2.5 1.4-4.1 6.2-4.1 12.5 0 9-1.5 8.3-4.6-2.1-2.9-9.9-4.6-10.3-2.1-.5 1.3 4.8 1.3 5.3-.2 5-.9-.2-1.7-1.3-1.9-2.6-.2-1.2-.8-2.2-1.4-2.2-.8 0-.9 3.7-.4 12 .6 10.6.5 12.1-.9 12.6-.9.4-2.9-.2-4.5-1.5-1.6-1.1-3-2.1-3.2-2.1s-.4 1.6-.5 3.6c-.2 3.9-5.1 14.6-6.9 15.1-1.7.6-3.4-4.4-3.4-10.3 0-5.2-.1-5.4-2.4-4.8-1.3.3-3.4.1-4.5-.6-2.5-1.3-2.4-1.4-2.5 8.5l-.1 7-3.7-.1c-3.4-.1-3.7.1-4.3 3.4-1 5.3-5.3 10.2-9.1 10.2-4.1 0-5.5 1.8-9.7 12.5-5.4 14.1-5.1 13.6-5.5 8.7-.2-2.5-.8-4.2-1.5-4.2-2 0-7.3 9.7-10.8 19.5-3.2 9.1-8.5 20.5-9.5 20.5-.8 0 .4-13.2 2.2-22.9.8-4.6 1.3-8.5 1.1-8.8-.8-.8-6.5 9.2-8 14.2-.9 2.7-2.7 10.5-4.1 17.2-1.4 6.8-3.2 13.8-4 15.5l-1.3 3.3-1.1-4c-.7-2.2-1.2-4.9-1.2-6l-.1-2-1 2c-.6 1.1-2.9 3.7-5 5.7-5 4.7-5 6.7-.3 23.4 5.6 20.3 5.6 22.3-.6 38.4-8 20.7-21.9 61.8-30 88.5l-7.6 24.3c-.1.2-12.3-3.6-27.1-8.6-14.7-4.9-32.1-10.2-38.5-11.7l-11.8-2.8v-5.4c0-4.9.2-5.4 1.9-4.8 4.4 1.4 11.2.8 13.4-1.2 1.2-1.1 4.2-2.3 6.7-2.7s6-1.1 7.8-1.7l3.4-1.1-5.2-2.4c-3.5-1.6-4.9-2.8-4.4-3.6 2.2-3.8 10.3-13.5 13.9-17 2.4-2.1 4.6-4.9 4.9-6.2.4-1.6 2.3-3.3 5.6-4.9 5.3-2.6 5.5-3.7.7-3.7-2.9 0-3-.1-2.4-4.4.4-2.4 1.4-6.3 2.2-8.7.9-2.4 1.8-6 2-7.9.3-1.9 1.8-8.1 3.4-13.8 2.7-9.4 3.5-10.8 8.6-16.5 8.1-8.8 15.1-19 17.5-25.5 2.7-7.1 2.1-10.3-.8-4.2l-2.1 4.5-2-4.5-2-4.5 3.1-.8c3.4-.9 7.8-3.5 7.8-4.7 0-.4-1.1-1.2-2.5-1.8-1.6-.7-3.6-3.5-5.6-7.7-1.7-3.7-2.9-6.8-2.8-6.9.2-.2 3.2-1.6 6.6-3.1 8.6-3.8 9.4-5 4.1-6l-4.3-.8 3.5-.7c1.9-.3 4.6-1.3 6-2 2.3-1.3 2.4-1.4.5-1.8-2.9-.6-4.5-2.2-4.5-4.3 0-1.6.4-1.7 2.6-.9 6.4 2.5 13.7-.1 17.4-6.2 1.1-1.8 2.9-6.2 4.1-9.8s3-7.4 4-8.5c1.9-1.9 1.9-1.9 1.9 1.3 0 3.8.9 4 4 .7 3.4-3.6 1.8-6-7.6-11.1l-7.9-4.4h7.8c7.5 0 7.7-.1 6.7-2-3.4-6.3 4.1-13.1 11.6-10.6 1.9.6 2.1.3 1.6-2-.3-1.9.1-3.1 1.4-4.1 1.7-1.3 1.7-1.4-.4-2.9-1.9-1.3-3.1-4.4-1.7-4.4 2.4 0 8.4 3.5 8.8 5.2.3 1.1 1.1 1.8 1.8 1.6.9-.3 1.2-2.1 1-5.7-.3-6.1.8-7.8 5.8-8.8l3.6-.7-4-1.2c-3.8-1.1-4-1.3-3.8-4.8l.3-3.7-6.3 6.4c-3.4 3.5-8.5 7.6-11.4 9-4.8 2.5-13.3 5-14.1 4.2s7.6-12.5 20.6-28.3c5.1-6.3 13.4-17.5 18.4-24.9 5-7.5 10.9-15.6 13.2-18.1 4.8-5.3 13.5-11.4 21.4-15 4.2-1.9 5.2-2.7 3.7-3-2.7-.6-5.5-3.2-5.5-5.2 0-1.3 1.2-1.9 4.8-2.3 9.2-1.1 24-7.3 22-9.3-.3-.2-3-.1-6 .4-6.4 1-7.8.7-7.8-1.8 0-2.2 10.2-7.5 16.5-8.5 8.7-1.4 9.4-1.6 8.9-3-1.7-4.3 10.5-18.4 31.1-36 14.6-12.4 19.9-18 19.2-20.5-.4-1.5.3-2 3.3-2.5 5.8-1 15.3-5.9 18.2-9.4 1.5-1.7 3.7-5.9 4.9-9.2 1.9-5.2 2.5-6 4.3-5.5 1.2.4 4 .9 6.3 1.2 3.9.6 4.5.4 7.9-3 2-2 3.4-4.2 3.1-4.9-.6-1.7 6.4-6.4 11.8-7.8l5.4-1.5c.9-.3.6-1-1-2.3-4.9-3.9 1.4-6.3 20.1-7.7l9.4-.6-5.4-1.7c-7.5-2.4-10.5-4-9.2-5.3.5-.5 2.9-.8 5.3-.6 3.5.2 4.4.7 4.3 2.1-.2 1.4.3 1.6 2 1 1.1-.4 4.7-.7 7.9-.7 3.1.1 5.7-.2 5.7-.6 0-1.5-3.9-4.1-8.6-5.6-9-3-10-6-1.2-3.8 6.9 1.8 23.8 3 23.8 1.7 0-.5-1.9-1.6-4.2-2.3-5.5-1.6-13.8-5.8-13.8-6.9 0-1.8 19.7-8.1 25.5-8.1h3l-3.5-1.8c-1.9-.9-3.6-2.4-3.8-3.3-.2-1.4.5-1.5 6-.7 3.9.5 8.1.5 11-.2 6.4-1.3 28.1-11.2 26.5-12.1-.6-.4-4.6-1.2-8.7-1.9s-7.9-1.6-8.3-2 5-1.5 12-2.5 13.4-2.1 14.1-2.5c.7-.3-3.1-1.5-8.5-2.6l-9.8-1.9 13-.5c11.9-.5 12.8-.6 10.3-1.9-3.9-2-2.5-3.1 4-3.2 4.4 0 5.2-.2 3.5-.9-2.3-.9-2.9-2.7-1.5-4.5.4-.6 4.3-1 8.7-1.1 6-.1 9.2-.6 13-2.4 2.8-1.2 7.5-3 10.5-4l5.5-1.7-6.5-.8-6.5-.8 4.5-1.5c6.4-2.2 3.7-2.5-9.9-1.3-6.6.6-13.2 1.1-14.7 1.1-2.6 0-2.6-.1-1-1.9s5.8-2.8 18.3-4.6c3.5-.6 7.5-3 6.2-3.8-.2-.2-4.2 0-8.9.4zM289 417.9c-1 3.7-4.8 9.6-5.6 8.8-.2-.2.2-1.9 1-3.8s1.9-7.3 2.6-11.9c.6-4.7 1.4-9.2 1.8-10 1.1-2.5 1.4 12.6.2 16.9zm-132.6 25.3c.9 3.6.8 3.8-2.9 3.8-4.1 0-4.3-.5-1.3-3.7 2.7-2.9 3.4-2.9 4.2-.1zm299.6.3c0 3-.2 3-4.3.8-2.9-1.5-3-1.7-1.2-2.4 3.9-1.5 5.5-1 5.5 1.6zm-118.2 5.3c2.3 3 1.5 5.7-2.4 7.1-4.1 1.5-10.4.7-10.4-1.3s4-6.7 6.4-7.6c2.5-.9 4.6-.3 6.4 1.8zm-15.9 28.4c-4.3 5.7-5.7 7-3.5 3.3 1.9-3.1 5.6-7.5 6.4-7.5.2 0-1.1 1.9-2.9 4.2zM307 497.3c0 .2-1.6 1.9-3.6 3.8-3.3 3.1-3.5 3.1-1.9.6 1.7-2.7 5.5-5.7 5.5-4.4zm479.5 14.6c-1.3 1.3-12.1 4.1-15.7 4.1-4.3 0-3.3-2 1-2.1 2.9-.1 11.5-1.6 15.2-2.8.2 0 0 .3-.5.8zm-520.8 56.7c-.2.2-3-.1-6.1-.8l-5.8-1.1 2.3-1.9c1.3-1.1 3.8-2.5 5.4-3.3l3-1.3.8 4c.5 2.2.7 4.2.4 4.4zm-19.9 5.6c-1.3 3.6-21 84.4-22.7 93.3-1 4.8-1 4.7-.5-2 .5-7.1 2.4-19.9 6.8-45 2.7-15.2 5.9-42.5 5.2-43.2-.3-.3-.7 1-1 2.8-.8 4.7-11.9 80-15.6 105-4.7 33-5 41.9-1.5 41.9 1.3 0 1.5 2.6 1.5 16.9v16.9l-3.1 1.2c-9.2 3.9-22.6 14.4-30.3 23.9-13.9 17.2-31.4 52.3-36 72.5-2.3 9.9-3.8 29.2-3.2 42.6.6 15 .3 13.4-4.4-24.5-11.8-95.6-20.8-195.4-22.2-248.3l-.3-10.4 10-6.3c25.3-15.9 51.8-27.4 84-36.4 8.5-2.4 34-3 33.3-.9zm14.9 1.4l5.1.6.7 4.7c.3 2.5.7 18.4.8 35.3.3 40.8 1.9 36.6 2.5-6.4l.4-32.8 2.2.5c1.1.3 8.2 1.7 15.6 3.1 12.1 2.3 57.9 13 58.6 13.7.2.2-.2 2.1-.9 4.3-.9 3-3.8 6.5-12 14.4-31.3 30.1-59 69.4-88.1 125.1-7.1 13.5-7.9 14.6-11.2 15.7l-3.6 1.1.6-15.7 1.2-21.7c1-11.1-2.9.2-5.1 14.9-1.3 8.5-1.5 1.8-.5-16 2.3-41.7 10.2-78.5 23-107.9 5.2-12 4.9-12.7-1-2-2.2 4.1-4.9 9.8-6 12.7-1.6 4.5-1.9 4.9-1.9 2.3-.1-6.8 5.9-44.1 7.6-46.8.3-.5 1.9-.6 3.7-.3 1.7.3 5.4.8 8.3 1.2zM401 610.8l27.8 8.2 4.3 1.1-3.6 6.7c-7.5 14-11.7 24.9-11.8 30.6l-.2 5.6h-4.2-4.3v5.7c0 3.2-.5 6.5-1 7.3-.7 1.1-1 .6-1-2.2 0-3.5-1.4-5.7-2.7-4.4-.4.3-.1 4.3.6 8.7 1.2 7.9 1.2 8.2-.9 9.6-1.9 1.3-2 2.1-1.4 6.9.4 3.5.3 5.4-.4 5.4-.6 0-1.3-.6-1.5-1.3-.3-.7-.6-.4-.6.7-.1 1-5.8 7.8-12.8 15.1-7.1 7.3-16.2 17.3-20.3 22.3-7.5 9.1-7.5 9.1-11.5 8.6-2.2-.2-12.7-.8-23.4-1.4-10.7-.5-19.5-1.1-19.7-1.3s6.7-24.7 15.4-54.5l15.7-54.2 14.9-15.6c11.8-12.3 15.4-15.5 17-15.1 1.2.2 12.7 3.6 25.6 7.5zm100.7 7.9c.7 1.9-4.4 4.6-7.2 3.9-2-.5-2.5-1.2-2.5-4v-3.4l4.7 1.2c2.6.7 4.8 1.7 5 2.3zm60.9 9c-.6 1.5-.9 1.5-1.6.3-.6-.9-.5-1.7.3-2.2 1.6-1 2.1-.2 1.3 1.9zM110.4 654c7.1 75.1 18.7 166.8 36.4 287.1l4.8 32.7-4.1 8.3-4.2 8.3-1.1-3.5-14.8-49.4c-1.2-4.7-1.3-4.1-.8 8 .6 15.2 4 57.1 5.4 66.5 1.9 12.9.8 11.2-2.6-4-5.2-23.8-11.1-54.3-12.8-66.5l-2.5-17.5c-1-6.4-1-6.4-.5 2 .3 4.7 1.4 15.2 2.5 23.5 1.1 8.2 2.6 22 3.4 30.5 2.6 27.6 6.9 51 12 66.1 1.7 5 2.5 9.2 2.4 13.8l-.1 6.6-1.4-4.5c-8.1-25.2-18.8-78-22.9-112.8-4.2-35.8-7.1-88.1-6.2-110.7 1.1-23.7 5.5-56 10.8-78.3 1.1-4.6 1.8-8.6 1.6-8.8-.6-.6-8.4 26.6-11.3 39.6-10.8 47.9-15.8 93.5-15.7 144 0 40.3 2.6 68.3 9.4 102.4 1.7 8.1 2.9 15 2.7 15.2s-2.4-.4-4.8-1.3c-2.5-.9-7.9-1.6-12-1.7l-7.5-.1-5.7-10.5C4.2 918-3.3 829.1 43.2 712c14.3-36.1 31.5-59.7 60.2-82.8 2.2-1.7 4.1-3 4.2-2.9s1.4 12.6 2.8 27.7zm447.3-18.5c-2.3 1.1-4.7-1.5-4.7-5.1 0-3.8 3.3-3.4 5.1.6 1.5 3.3 1.5 3.5-.4 4.5zm-5.7-5.3c0 3.1-2.2 8.7-3.5 9.2-1.3.4-1.3.2-.5-1.4 2-3.7-1.6-5.5-5.5-2.6-1.5 1.1-1.8 2.5-1.6 8.7.1 4.1-.3 9-.9 10.9s-2 7.1-3 11.5c-3.3 14.9-5.4 21.5-6.6 21.1-.7-.3-2 .1-3 .9-1.4 1-1.6 1.6-.7 2.6 2.6 3.4 3.5 8.8 2.3 14.6l-1.2 5.7-2.4-5.1c-1.4-2.8-3.1-5.7-3.9-6.3-1.3-1.1-1.5-.2-1.5 6.1-.1 15.8-2.6 22.6-21.2 56.5-9 16.4-12.5 24.3-24.6 55.7L460 855.6c0 .3-7.6 8.1-16.8 17.3-9.2 9.1-20.6 20.9-25.2 26.1s-8.7 9.6-9.1 9.8c-.3.2-.1-2.8.7-6.5L418 855l9.4-49.5c1.6-5.8 2.8-14.6 3.5-24.5 1.6-22.6 3.7-30.9 9.8-38.8 2.3-3.1 2.4-3.5.9-5.1-2.1-2.3-2-3.3.5-6.5 2.9-3.7 4.3-2.3 3.5 3.6-.6 4.5-.5 4.8 1.1 3.9 5.2-2.8 7.4-6.7 9.4-17.2 1.3-6.5 3.3-12.6 5.2-16.2 2.8-5.4 3.2-5.7 5.9-5.2 3 .7 3.7-.5 1.3-2.5-2-1.7-1.9-3.6.4-6.8 1-1.5 2.1-3.7 2.5-4.8l.6-2.1 4.1 2c2.8 1.4 4.3 1.7 5.1.9.7-.7.1-1.5-2-2.6-2.3-1.2-3.3-2.6-3.8-5.2-.5-2.9-.9-3.3-1.6-2-1.1 1.9-6 4.6-8.4 4.6-1.6 0-1.5-.3.4-2 1.2-1.1 2.7-3.8 3.3-6.1 1.3-4.3 4.1-6.9 7.3-6.9 1.8 0 1.9.1.1 2-2.7 3-1.1 3.5 2.7.9 10.3-7.3 23-17.1 21.3-16.4-3.5 1.3-9.7 2.6-10.3 2.1-.9-1 22.1-11.1 44.8-19.7 17.3-6.5 17-6.4 17-4.7zm-224.1 31.3l-11 42.5-9 35.2-1 3.8h-5.7c-3.1 0-11.7.7-19.1 1.6-7.3.8-13.5 1.3-13.8 1.1-1.2-1.3 15.2-30.9 27-48.7 11.1-16.5 34.4-47.6 35.2-46.8.2.2-1 5.2-2.6 11.3zM455 709.9c0 1.9-5.2 7.1-7.1 7.1-1.5 0-1.9-.7-1.9-3.3 0-1.9.3-3.7.7-4 1-1.1 8.3-.8 8.3.2zM403 738c.6 4.1 1.7 8.5 2.6 9.8l1.6 2.4-3.9-.6c-2.1-.3-10-1.1-17.6-1.7-7.6-.7-13.6-1.6-13.5-2 .2-.5 6.6-7.5 14.3-15.6l14-14.7.7 7.5L403 738zm19.6 10.6c-.4 1.5-1.4 2.4-2.6 2.4-2.5 0-2.5-.7.2-5 1.8-2.8 2.3-3.1 2.6-1.7.2 1 .1 2.9-.2 4.3zm9.1-3.4c-.3 1.3-2.3 10.7-4.5 21.1-2.1 10.3-4.2 19-4.5 19.4-.4.3-.8-1.4-.8-3.8-.1-2.4-.4-3.5-.6-2.4-.3 1.1-1 2.6-1.6 3.3-.6.8-1.4 8.8-1.8 18-.6 13.2-1.7 21.9-5.3 41.2l-9.2 52-4.7 27.5-5.5 7c-10.8 13.5-12 15.1-18.4 24.2l-6.5 9.2-.7-5.2c-.3-2.9-.6-10.6-.7-17.2-.1-11.8-1.4-28.9-1.7-23-.8 13.8-6.2 42.2-10.9 57l-3.5 11.1h-16.7c-18.1 0-23.9 1-35.5 6.3-8.8 4-15 9.4-26.4 22.8-19.3 22.6-27.8 35.5-32.8 50.2l-2.2 6.6.5-14c.5-14.2 1.6-21.3 9.4-61.5 9.4-47.9 25.5-96 43.1-128.5 21.7-40 45-75.7 69.3-105.8 6.8-8.4 7.1-8.7 10.5-8.2 1.9.3 11 .5 20.3.5H407l.2 10.7c.1 6 .3 9 .5 6.8s.8-7.1 1.4-10.9c1.8-11.3 3-5.8 2.8 13.9-.1 30 .4 35.4 1.1 11 .8-25.4 1.9-31.8 5.8-32.3 2.6-.4 2.8.5.7 2.8-1.4 1.5-1.4 2 0 4.6l1.5 2.9v-2.7c0-1.5.5-3.9 1.2-5.5.6-1.5 1.2-3.4 1.4-4.2.4-2 5.6-7.1 7.2-7.1 1 0 1.3.7.9 2.2zm-137.2 48.4l-15 61.9c-4.1 17.1-4.7 18.8-12.9 34.5-4.7 9.1-8.6 16-8.6 15.5 0-2.7 4.1-18.8 6.3-25 2.9-8 2.6-7.7-7.6 8.3-13.6 21.3-28.6 54.8-34.6 77.2l-3 11c-.9 3-2.1-29.2-2.2-59 0-22.6 0-22.8 6.3-48.3l1.2-4.8 1.1 2.8c1.1 2.5 1.2 2.3.7-2.3-.9-10.1 14-57.5 29.9-95.1l6-14.2 5.2-1.5c8.9-2.5 16.3-3.7 26.9-4.5l10.6-.5c.1.1-4.5 19.9-10.3 44zm51.2-42l8.1.6-6.7 8.7c-15.7 20.3-44 63.1-58.6 88.7-5.2 9.3-9.5 16.5-9.5 16.1 0-1.8 19.3-76.7 22.5-87.2l6.2-20.4 2.5-8.3 13.6.6 21.9 1.2zm-131.1 61.7l-5.7 17.7-1.2 4.5-.8-3c-.5-2.3-.7-1.7-.8 3-.1 3.3-1.2 11.2-2.5 17.5-4.2 19.8-8.3 49.2-10.2 74.2-.6 7.9-.9 8.8-2.7 8.8-2.1 0-9 3.7-14.4 7.7l-3.2 2.4-.5-2.3c-.3-1.3-1-7.7-1.5-14.3-4.2-50-.4-77.2 15.1-107 6.4-12.3 19.7-29.8 28.1-37l4.2-3.6.3 9.1c.3 8.6 0 10-4.2 22.3zm240.2 58.8c-1 2.9-6.1 8.9-27.3 31.4-5.2 5.5 4.1-6.7 15.4-20.3l10.5-12.8c2.5-3 2.9-2.6 1.4 1.7zm-308.1 44.1c-.3.8-.6.5-.6-.6-.1-1.1.2-1.7.5-1.3.3.3.4 1.2.1 1.9zm292.4 25.3c-1.6 8.8-3.9 23.4-5.2 32.4l-2.3 16.3-5 4.9c-2.8 2.6-5.2 4.7-5.3 4.5-.1-.1.4-4.3 1.2-9.3.7-5 1.8-16 2.5-24.5 2.1-28 1.2-25 9.2-33.4 3.9-4.1 7.2-7.3 7.4-7.1.2.1-1 7.5-2.5 16.2zm-247.5 5.7c-4.2 41.1-3.4 59.6 3.8 88.6 1.9 7.7 2.6 13.7 3.1 28.7l.7 19 3.4 6.7c4.2 8.3 4.5 12.2.4 5.2-2.3-4-4.2-10.4-8-27.5-9.2-42.2-18.3-91-20.5-110.4-.8-6.9-.7-7.1 8.9-12.9 8.5-5.1 9-4.9 8.2 2.6zm231.2 7.5c-2.4 15.4-4.8 23-12.1 38.8l-10.2 22.7c-3.7 8.5-11.1 19.6-12.2 18.4-.2-.2 1.2-10 3.1-21.8l4.6-28.2c1-6.1 1.8-7.9 7.3-15.5 5.8-8 20.4-26.1 21-26.1.2 0-.5 5.3-1.5 11.7zm-269.9 3.8c1.1 6 1.7 11.3 1.2 11.8-.4.4-1.3-3.2-2-8-.6-4.8-1.4-10.4-1.8-12.3-.3-1.9-.3-3.3 0-3s1.5 5.4 2.6 11.5zm369 15c3.3 1.6 9.8 11.2 8.5 12.4-.5.4-6.1 4.5-12.4 9.1-21.2 15.4-41 32-58.4 48.9-7.8 7.7-9.5 8.9-8.1 6.1 2.6-5.2 8.4-13.4 16.8-23.9 4.1-5.2 9.9-13.7 12.8-19 11.3-20.5 17.8-28.9 25.6-33 4.5-2.4 11.3-2.7 15.2-.6zm-361.4 18.7c8 33 17.4 64.8 30.6 103.5l6.9 21c0 .5-4.3-5.7-9.6-13.7-15.2-23.1-21-36.1-33.8-75.5-4.3-12.9-4.3-13.1-3.5-23 .7-9.9 1.8-17.9 2.5-17.3.1.2 1.7 10.9 3.5 23.7 1.8 12.9 3.5 22.9 3.7 22.2.2-.6-1.1-12.3-2.9-26-2.7-21.2-3.2-30.1-1.5-30.1.2 0 2.1 6.9 4.1 15.2zm185.5 2.3c0 .2-1.3 2.6-2.8 5.2-1.6 2.6-9.5 16.7-17.7 31.3-15.7 28.1-24.2 41.4-30.6 48l-4 4.1-9.6 41.4-10 41.1c-.2-.1-.8-4.1-1.4-8.7-1.9-15.5-7-27.4-13.1-30.7l-3-1.7.5-8.5c.9-15.7 9.9-53.4 15.7-65.9 8.6-18.2 26.7-35.9 47.5-46.1 10.4-5.1 28.5-11.2 28.5-9.5zm37.1 20.7l-4.2 26.8c-1 6.8-2 9.7-5 14.4l-3.7 6-.6-4.5c-.3-2.4-.8-10.7-1.1-18.4l-.5-14 5.3-9.5c7.5-13.6 12.2-20.9 12.5-20 .2.5-1 9.1-2.7 19.2zm42.2 23.2l-2.4 19-6.1 11.9c-6.4 12.7-8.8 19.7-8.8 26.4 0 2.3-.4 4.5-1 4.8-.6.4-1-.5-1-2 0-4.3-1.5-2.1-4 5.9-1.3 4.2-2.5 7.4-2.7 7.2-.2-.1.6-4.7 1.7-10 2.1-10.5 2.8-22.1 1.6-27.4-.7-3.1-1.2-2.2-6.1 12l-12 34.8c-6.4 18.7-9.9 27-11.2 27-1.4 0 .8-26.9 3.5-43l2.9-17.5 8.4-13.7c4.5-7.6 12.5-19 17.7-25.5s12.1-15.7 15.5-20.5c3.3-4.9 6.1-8.7 6.2-8.5.1.1-.9 8.7-2.2 19.1zm-59.7 13.5l-1.4 22.1-3.5 6.3c-1.9 3.4-8.1 15.2-13.6 26.2-5.6 11-11.7 21.8-13.7 24l-3.5 4 .5-8.5c.2-4.7 1.3-11.7 2.4-15.5 2.1-7.7 9.8-28.9 15.6-43 4.5-10.8 17.8-38.6 18.3-38.1.2.2-.3 10.3-1.1 22.5zm-273.8 7.6c8.5 3.6 13.6 11.6 20.7 32.3 2.9 8.6 7.4 20.5 9.9 26.4l4.2 10.8c-1.3 0-44.6-68.4-44.6-70.4 0-1.2 6.1-.6 9.8.9zm272.2 81.4v23.9l-4.2 6.3c-2.4 3.5-6.1 8.2-8.3 10.4-4 4.1-12.4 11.5-12.9 11.5-.2 0-.6-2-1-4.5-.5-3.9.2-6.6 4.3-17.8 10.2-27.9 13.2-34.7 14.9-34.7 1.3 0 1.4-.2.4-.9-1-.6-.9-1.8.7-5.7 3.6-9 5.1-12.4 5.6-12.4.3 0 .5 10.7.5 23.9zm48.5 16.8l-1.8 16.9-4 2.2c-2.2 1.2-4.2 2.1-4.4 1.9s.1-2.8.7-5.7c.5-2.9 1-8.2 1-11.8 0-6.1.3-7 4.7-13.8 2.6-4 4.9-7.1 5.1-6.9s-.4 8-1.3 17.2zM218.7 1180l2.8 11.5.3-5.5c.2-3 .8-6 1.4-6.5.7-.7.9.9.5 5.5-1 10.1-2.8 19-3.8 18.4-1.6-1-3.9-7.5-7.8-22l-3.7-14.1 2-2.7 2-2.7 1.7 3.3c.9 1.8 3 8.5 4.6 14.8zm187.4 25.3c-3 3-3.7 1.4-.9-2.3 1.8-2.5 2.4-2.8 2.6-1.5.2 1-.5 2.7-1.7 3.8zm-103.6 14.6c.3.5.1 1.2-.5 1.6-.5.3-1-.1-1-.9 0-1.8.6-2.1 1.5-.7zM161.2 1038c0 1.4.2 1.9.5 1.2.2-.6.2-1.8 0-2.5-.3-.6-.5-.1-.5 1.3zm68.5-849.7c-1.4 1.2-3 3.2-3.6 4.3-1 2-.8 2.1 4.4 2.2 3 0 5.5-.3 5.5-.7s-.8-2.3-1.8-4.3l-1.9-3.6-2.6 2.1zM600.5 270c-4.5 1.8-4.5 3.4.2 5.6l4.4 2.1-.3-4.3c-.3-4.5-.8-4.9-4.3-3.4z"/><path d="M119.1 280.6c-.7.8-1.9 1.3-2.6 1-1.8-.6-2.8 4.1-2 8.7.4 1.9 2 5 3.6 6.8l2.8 3.4.1-10.8c0-5.9-.1-10.7-.2-10.7-.2.1-.9.8-1.7 1.6zm352.4 23.8c-1.5 3.8-1.5 5-.4 8.3 1.2 3.7 1.2 3.7 2.2 1.3l3.3-7.2c2.8-5.6 2.9-6.2.9-5.5-.8.4-1.7.2-2-.3-1.2-1.9-2.4-.9-4 3.4z"/></svg>